<?xml version="1.0" encoding="utf-8"?>
<!-- Generator: Adobe Illustrator 26.0.3, SVG Export Plug-In . SVG Version: 6.00 Build 0)  -->
<svg version="1.1" id="VGS-AlchemistHombrewer_Image"
	 xmlns="http://www.w3.org/2000/svg" xmlns:xlink="http://www.w3.org/1999/xlink" x="0px" y="0px" viewBox="0 0 888.2 299"
	 style="enable-background:new 0 0 888.2 299;" xml:space="preserve">
<style type="text/css">
	.st0{fill:#18183E;}
	.st1{fill:#FFFFFF;}
</style>
<g id="Group_66">
	<path id="Path_155" class="st0" d="M885.1,25.1c-1-1.5-2.1-2.9-3.5-4.2c-0.4-0.4-0.8-0.9-1.3-1.3s-0.8-0.9-1.3-1.3
		s-0.8-0.9-1.3-1.3s-0.8-0.9-1.3-1.3s-0.8-0.9-1.3-1.3s-0.8-0.9-1.3-1.3s-0.8-0.9-1.3-1.3s-0.8-0.9-1.3-1.3s-0.8-0.9-1.3-1.3
		s-0.8-0.9-1.3-1.3s-0.8-0.9-1.3-1.3c-3.8-4.2-9.2-6.5-14.9-6.5H239c-7.8,0-14.9,4.5-18.2,11.5l-55.3,116.4l-48-101.2
		c-1.1-2.3-2.7-4.5-4.6-6.2c-0.4-0.4-0.8-0.9-1.3-1.3s-0.8-0.9-1.3-1.3s-0.8-0.9-1.3-1.3s-0.8-0.9-1.3-1.3s-0.8-0.9-1.3-1.3
		s-0.8-0.9-1.3-1.3s-0.8-0.9-1.3-1.3s-0.8-0.9-1.3-1.3s-0.8-0.9-1.3-1.3s-0.8-0.9-1.3-1.3S99.2,7,98.7,6.6C94.9,2.4,89.4,0,83.8,0
		H20.2C9.1,0,0,9,0,20.2c0,3,0.7,6,2,8.7l116,242.7c1.1,2.3,2.7,4.4,4.6,6.1c0.4,0.4,0.8,0.9,1.3,1.3s0.8,0.9,1.3,1.3
		s0.8,0.9,1.3,1.3s0.8,0.9,1.3,1.3s0.8,0.9,1.3,1.3s0.8,0.9,1.3,1.3s0.8,0.9,1.3,1.3s0.8,0.9,1.3,1.3s0.8,0.9,1.3,1.3
		s0.8,0.9,1.3,1.3s0.8,0.9,1.3,1.3c3.8,4.2,9.3,6.6,14.9,6.6h49.9c7.7,0,14.8-4.5,18.2-11.4l4.6-9.5l0.5,0.5
		c0.4,0.4,0.8,0.9,1.3,1.3s0.8,0.9,1.3,1.3s0.8,0.9,1.3,1.3s0.8,0.9,1.3,1.3s0.8,0.9,1.3,1.3s0.8,0.9,1.3,1.3s0.8,0.9,1.3,1.3
		s0.8,0.9,1.3,1.3s0.8,0.9,1.3,1.3s0.8,0.9,1.3,1.3s0.8,0.9,1.3,1.3c3.8,4.2,9.2,6.5,14.9,6.5h194.3c7.8,0,14.9-4.5,18.3-11.6
		l6.4-13.7h18.9l0.4,0.6c1,1.5,2.1,2.9,3.5,4.2c0.4,0.4,0.8,0.9,1.3,1.3s0.8,0.9,1.3,1.3s0.8,0.9,1.3,1.3s0.8,0.9,1.3,1.3
		s0.8,0.9,1.3,1.3s0.8,0.9,1.3,1.3s0.8,0.9,1.3,1.3s0.8,0.9,1.3,1.3s0.8,0.9,1.3,1.3s0.8,0.9,1.3,1.3s0.8,0.9,1.3,1.3
		c3.8,4.2,9.2,6.6,14.9,6.6h195.1c7.8,0,14.9-4.5,18.3-11.6l6.4-13.7h18.9c7.8,0,14.9-4.5,18.2-11.5L839,142.5
		c3.9-8,2-17.7-4.6-23.7c-0.4-0.4-0.8-0.9-1.3-1.3s-0.8-0.9-1.3-1.3s-0.8-0.9-1.3-1.3s-0.8-0.9-1.3-1.3s-0.8-0.9-1.3-1.3
		s-0.8-0.9-1.3-1.3s-0.8-0.9-1.3-1.3s-0.8-0.9-1.3-1.3s-0.8-0.9-1.3-1.3s-0.8-0.9-1.3-1.3s-0.8-0.9-1.3-1.3
		c-1.9-2.1-4.2-3.7-6.8-4.9H847c7.8,0,14.8-4.5,18.2-11.5l21-43.7C889.2,38.3,888.8,31,885.1,25.1z"/>
	<path id="Path_156" class="st1" d="M397.4,160.1l21-43.7c0.7-1.5,2.3-2.5,4-2.5h112.3c2.4,0,4.4,1.9,4.4,4.3c0,0.7-0.1,1.3-0.4,1.9
		l-57.4,119.8c-0.7,1.5-2.3,2.5-4,2.5h-26.8c-1.7,0-3.2,1-4,2.5l-9.5,20.2c-0.7,1.5-2.3,2.5-4,2.5H238.8c-2.4,0-4.4-2-4.4-4.4
		c0-0.7,0.2-1.3,0.4-1.9L318.4,87c0.7-1.5,2.3-2.5,4-2.5h63.2c2.4,0,4.4,1.9,4.4,4.4c0,0,0,0,0,0c0,0.7-0.1,1.3-0.4,1.9L332.8,209
		c-1,2.2-0.1,4.8,2,5.8c0.6,0.3,1.2,0.4,1.9,0.4h80.7c1.7,0,3.2-1,3.9-2.5l19.2-40.1c1-2.2,0.1-4.8-2-5.8c-0.6-0.3-1.2-0.4-1.9-0.4
		h-35.3c-2.4,0-4.4-1.9-4.4-4.3C397,161.4,397.1,160.8,397.4,160.1L397.4,160.1z M651.9,107.6l8.1-16.8c1.1-2.2,0.2-4.8-2-5.8
		c-0.6-0.3-1.2-0.4-1.9-0.4h-63.2c-1.7,0-3.2,1-3.9,2.5l-35.4,73.1c-1.1,2.2-0.2,4.8,2,5.8c0.6,0.3,1.2,0.4,1.9,0.4h149.9
		c2.4,0,4.4,1.9,4.4,4.4c0,0,0,0,0,0c0,0.7-0.1,1.3-0.4,1.9l-19.2,40.1c-0.7,1.5-2.3,2.5-4,2.5l-157.5-0.6c-1.7,0-3.3,0.9-4,2.5
		l-21.3,44.4c-1,2.2-0.1,4.8,2,5.8c0,0,0,0,0,0c0.6,0.3,1.2,0.4,1.9,0.4h195.2c1.7,0,3.3-1,4-2.5l9.5-20.2c0.7-1.5,2.3-2.5,4-2.5
		H748c1.7,0,3.2-1,4-2.5l57.4-119.8c1.1-2.2,0.2-4.8-2-5.8c-0.6-0.3-1.2-0.4-1.9-0.4H655.9c-2.4,0-4.4-1.9-4.4-4.3
		C651.4,108.9,651.6,108.3,651.9,107.6L651.9,107.6z M852.8,16.3H239.2c-1.7,0-3.2,1-4,2.5l-69.7,146.7c-1,2.2-3.7,3.1-5.8,2.1
		c-0.9-0.4-1.6-1.2-2.1-2.1L88.1,18.8c-0.7-1.5-2.3-2.5-4-2.5H20.7c-2.4,0-4.4,2-4.4,4.4c0,0.7,0.1,1.3,0.4,1.9l116,242.7
		c0.7,1.5,2.3,2.5,4,2.5h49.9c1.7,0,3.2-1,3.9-2.5l93.5-194c0.7-1.5,2.3-2.5,3.9-2.5h543.8c1.7,0,3.3-0.9,4-2.5l21-43.7
		c1-2.2,0.1-4.8-2.1-5.8C854.1,16.5,853.5,16.3,852.8,16.3L852.8,16.3z"/>
</g>
</svg>
