<?xml version="1.0" encoding="utf-8"?>
<!-- Generator: Adobe Illustrator 26.0.3, SVG Export Plug-In . SVG Version: 6.00 Build 0)  -->
<svg version="1.1" id="VGS-AlchemistHombrewer_Image"
	 xmlns="http://www.w3.org/2000/svg" xmlns:xlink="http://www.w3.org/1999/xlink" x="0px" y="0px" viewBox="0 0 1016.4 915"
	 style="enable-background:new 0 0 1016.4 915;" xml:space="preserve">
<style type="text/css">
	.st0{fill-rule:evenodd;clip-rule:evenodd;fill:#080809;}
	.st1{fill-rule:evenodd;clip-rule:evenodd;fill:#FDFDFD;}
	.st2{fill-rule:evenodd;clip-rule:evenodd;fill:#9696FC;}
	.st3{fill-rule:evenodd;clip-rule:evenodd;fill:#BAC6F3;}
	.st4{fill-rule:evenodd;clip-rule:evenodd;fill:#B9C5F2;}
	.st5{fill-rule:evenodd;clip-rule:evenodd;fill:#9595FA;}
	.st6{fill-rule:evenodd;clip-rule:evenodd;fill:#FBFBFB;}
	.st7{fill-rule:evenodd;clip-rule:evenodd;fill:#F9F9F9;}
	.st8{fill-rule:evenodd;clip-rule:evenodd;fill:#C49F65;}
	.st9{fill-rule:evenodd;clip-rule:evenodd;fill:#5656D2;}
	.st10{fill-rule:evenodd;clip-rule:evenodd;fill:#9393F7;}
	.st11{fill-rule:evenodd;clip-rule:evenodd;fill:#F5F5F7;}
	.st12{fill-rule:evenodd;clip-rule:evenodd;fill:#B5C1ED;}
	.st13{fill-rule:evenodd;clip-rule:evenodd;fill:#080B0C;}
	.st14{fill-rule:evenodd;clip-rule:evenodd;fill:#01CAFC;}
</style>
<g>
	<path class="st0" d="M289.7,376c0.2-0.8-0.4-1.1-0.8-1.4c-15.3-10.9-16.2-32-7.2-46.4c2.1-3,2.9-6.8,2.1-10.4
		c-2.6-14.1,0.4-27.3,9.5-38.3c3.7-4.6,6.8-9.8,9.1-15.3c3.3-7.5,8.3-14,14.6-19.2c5.4-4.5,11.5-7.9,19.1-6.3c2,0.4,2.4-1.2,3.3-2.2
		c5.3-5.7,11.2-10.5,18.5-13.4c7-2.7,13.7-2.7,19.4,2.8c1.3,1.2,2.2,0.8,3.4,0.3c6.7-3,13.1-2.7,18.6,2.3c5.4,5,6.2,11.9,4.6,18.8
		c-1.3,6-5,10.7-8.7,15.3c-2.4,2.9-3.1,4.7,1.6,5.3c0.2,0,0.3,0.1,0.4,0.1c6.9,2.7,12.9,6.4,14,14.5c1,7.8-3.2,13.4-9.4,17.4
		c-6.1,3.7-11.4,8.4-16.1,13.7c-3.3,4-3.9,8.6-4.4,13.4c-0.2,1,0.4,2,1.4,2.3c9.5,4.2,17,11.4,25,17.9c2.2,1.8,2.9,2.2,4.2-1
		c3.1-7.3,8.8-12.8,14.2-18.5c4-4.4,8.4-8.4,12-13.1c1.7-2.1,1.6-3.7,0.1-6c-11.4-16.7-21.1-34.3-26.4-53.9
		c-2.7-10.4-4.2-21.1-4.6-31.8c-0.5-12,4.4-16.7,16.2-15.4c24.9,2.7,47.5,11.5,66.4,28.3c2,1.7,2.6,0.7,3.7-0.4
		c6.5-7.8,13.5-15.1,20.9-22c23.9-21.9,51.6-35.5,84.2-38.3c30.1-2.6,53.5,10.3,73.2,31.7c2,2.1,3.3,2.9,6.1,1.9
		c4.6-1.6,9.4-2.4,14.2-2.2c7.5,0.1,11.8,3.8,12.7,11c1.3,10.3,1.4,10.6,9,17.8c18.6,18,23.2,47.6,3.1,71.3
		c-8.5,10.1-19.4,18-31.5,23.1c-1.6,0.7-3.2,1-2.2,3.6c4.4,12,5.8,24.7,7.4,37.4c2.5,19.1,14.6,31.1,33.5,33.8
		c3,0.4,4.8,0.1,6.4-3.1c3-6.2,7.9-10.6,15.1-11.9c1.4-0.2,2.7-1.2,3.1-2.5c4.3-9,10.1-16.2,20.8-17.7c2-0.3,2-2,2.5-3.1
		c3.6-8.4,10.3-12.7,18.7-14.5c2.6-0.5,5.4-0.7,7.5,1.1c2.3,1.8,4,1.7,6.5,0.3c4-2.3,8.7-3.5,13.4-3.3c7.5,0.3,11.7,5.2,10.7,12.6
		c-1.4,11.2-5.4,21.9-8.8,32.7c-3.5,11.2-5.9,22.4-5.7,34.1c0,3,0,6.1,1.3,9.5c4.1-3.8,8.2-7.5,12.8-10.4c6-3.7,12.1-6.8,19.5-6.2
		c8.5,0.6,14.2,6.3,14.6,14.8c0.6,11-4.6,18-15.3,20.2c-6.1,1.1-11.3,4.9-14.1,10.4c-1.3,2.4-2.6,4.9-3.9,7.3
		c-6.7,12.2-16.3,16.9-30.1,14.1c-2.2-0.6-4.6,0.1-6,1.9c-7.9,8.6-17,15.8-27.7,20.7c-2.8,1.3-3.3,2.9-3.1,5.7
		c0.6,7.7,0.4,15.3-0.7,22.9c-0.4,2.2-0.9,4.2-3.5,4.2c-2.2,0-3.2-1.5-3.4-3.7c-0.2-2.2-1.6-3.7-2.9-5.3c-3.7-4.3-7.9-8.1-12.5-11.3
		c-0.9-0.6-1.9-1.8-3-1.2c-1.3,0.6-0.6,2.1-0.5,3.1c0,16.4-2.9,32.7-8.4,48.1c-7,19.4-16.9,37.6-29.5,53.8
		c-4.8,6.2-10.6,11.5-16.3,16.8c-3.7,3.4-5.8,2.5-7.1-2.4c-3.1-11.5-12.9-26.1-22-32.6c-0.7,4.3-1.2,8.3-2,12.3
		c-3.1,18.1-9.5,35.6-18.9,51.5c-4.5,7.6-4.6,7.7-9.5-0.3c-6.5-10.4-12.9-21-22.3-29.2c-3.2-2.8-6.5-5.3-10-7.6
		c-2.3-1.6-3.8-1.4-5.8,0.6c-9.1,9.4-19.2,17.8-31,23.6c-27.9,13.3-56.7,23.8-88.4,21.7c-2.2-0.2-4.2-0.5-5.2,2.8
		c-5.8,19.3-18,27.4-38.6,26c-4-0.3-6.3,0.4-9.3,3.8c-11.1,12.9-24.7,22.4-41.7,25.8c-16.1,3.2-29.5-6.4-32.4-22.6
		c-3-17.7,2.9-33.4,10.7-48.7c0.5-1,1.5-1.7,1.4-3.4c-2.8,0.6-4.9,1-6.8,4c-13.4,21.9-31.9,37.1-56.8,44.3c-1.4,0.4-2.9,0.6-4.3,0.9
		c-21.7,4.1-30.5-9.4-31.8-25.9c-0.9-12.6,2.8-24.4,8.7-35.4c7.9-14.7,17.7-28.2,30.3-39.4c1.4-1.2,1.9-2.9,2.6-4.5
		c4.8-11.2,10.5-21.9,18.7-31.1c5.8-6.5,12.4-11.7,21-14c1.2-0.4,2.9-0.4,2.4-2.3s-1.9-0.6-2.9-0.6c-31.3-1.5-61.5-7.8-85-30.1
		c-18.7-17.8-29.2-40.8-20.8-66.9c8.7-27.4,34.6-41.7,62.9-30.8c9.5,3.7,15.7,11.2,20.8,19.5c4.8,7.9,8.4,16.5,12.1,25
		c4,9.5,9.5,18.3,16.2,26.1c2.4,3,5.5,5.4,9.1,6.8c-10.6-21.5-17.7-43.7-31.1-62.7c-4.6-6.5-9.5-12.9-15.8-17.8
		c-10.4-8.4-21.5-13.2-35.8-12.2c-31.8,2.2-63.2,8-93.7,17.3c-3.7,1.2-7.3,2.8-11,4.2c-1.8,0.7-3.5,0.7-4.6-1.1
		c-1.1-1.6-0.5-3,0.6-4.3c15.9-16.9,32.8-32.2,54.6-41.3c25.1-10.5,50.9-17.4,78.4-16.6C288.5,376.3,289.2,376.6,289.7,376z
		 M691.1,222.7c1.7,0.7,3.4,1.3,5.2,2.1c0.8,0.3,1.4,0.6,2.1-0.5c2.9-5.5-0.8-12.2-7-12.5c-1.6,0-3.1,0.2-4.6,0.4
		c-2.5,0.4-5.1,0.6-7.6,1c-0.8,0.1-2.1,0.3-1.3,1.4c1.6,2.5,1.8,6.2,5.9,6.7C686.1,221.5,688.6,222,691.1,222.7z M547.8,608.3
		c13.7-11.3,29.9-11.2,46.8-10.1c-0.8-2-2.5-3.5-4.5-4.3c-11.2-4.6-30.6-0.6-39,7.9C549.4,603.7,547.2,605.4,547.8,608.3l-0.4,0.1
		l0.1,0.4L547.8,608.3z M531.4,661.4L531.4,661.4c0.9,0,1.7-0.1,2.5-0.4c12.4-4.6,24-11.4,34.3-19.9c4.6-3.9,9.5-7.8,13.2-13.1
		l-15.2,4.5c-5.8,0.3-11.5,1.4-17.3,0.9c-13.5-1.2-22.4-13.9-18.5-26.8c1.1-3.6,0.2-4-3-4c-12.5,0.2-24.9-2.9-35.9-8.9
		c-3.8-2.1-7.1-7.4-10.9-6.5c-3.9,0.9-7,5.7-10.5,8.7c-11.2,9.3-24.1,14.2-38.8,13.3c-15.3-0.9-27.9-6.2-34.4-21.4
		c-3.3-7.9-3.3-15.4,1.5-22.8c4.7-7.2,11.2-13,18.9-16.8c3.8-2,7.7-3.7,12.4-6l-4.6-1.2c-11.5-3-21.5-15.1-22-26.4
		c-0.5-13.7,8.6-28.1,21.1-33.6c0.8-0.4,2.1-0.3,2-1.8s-4.6-5.8-6.3-5.7c-23.6,0.4-42.7,10.1-57.4,28.6c-7,8.7-11.1,18.9-14.8,29.3
		c-7.3,19.8-9.5,40.1-4.1,60.6c7.1,27,24.9,46.4,48,61c22.1,13.9,46.7,20.6,72.8,22c22.1,1.2,43.1-3.2,63.4-11.9
		C529.1,662.9,530.6,663,531.4,661.4z M342.9,523.6c0.4-1.1,1-2.1,1.4-3.1c1.2-3-1.7-3.7-2.8-2.9c-2.3,1.6-5.5,0.9-7.4,3.2
		c-11.2,5.1-16.2,19.5-13.9,31c0.1,0.9,0.6,1.7,1.5,1.9c3.8,0.8,7.8,1.2,11.6,1.1c1.1,0,1.3-0.9,1.4-1.9
		C335.9,542.6,339.6,533.1,342.9,523.6z M432.1,214.7c-5.4-1-10.9-3.3-16.4-0.3c-2.1,1.2-1.9,3.5-1.9,5.4c0,6.8,1.1,13.6,2.3,20.3
		c5,28.4,18.7,52.7,36.3,74.9c4.5,5.5,4.6,5.5,9.7,0.4c12.3-12.4,18.4-28.1,23.9-44.2c1.8-4,2.6-8.2,3.8-12.4
		c2.5-8.3-0.4-15.3-6.4-20.3C468.8,226.1,451.1,217.8,432.1,214.7L432.1,214.7z M590.4,614.5c2.4-1.3,4.2-3.5,5.2-6
		c1.1-2.8,0.6-4.6-2.9-4.9c-3.7-0.3-7.3-0.8-11.1-0.4c-9.3-0.4-18.1,0.7-26.2,5.6c-2.4,1.5-6,2.8-6,5.7c0,3.2,3.6,4.8,6.3,5.8
		C568.2,624.4,579.8,622.2,590.4,614.5L590.4,614.5z M458.2,592.1c4.7-1.5,7.5-5.2,9.9-9.2c1.4-2.3,0.7-3.8-1.5-5.4
		c-4.3-2.8-9.3-4.2-14.4-4.1c-10.3-1.2-20.3-0.9-29.9,3.8c-3.7,1.8-3.4,3.7-1.1,6.6C430.4,595.4,443.5,598.3,458.2,592.1z
		 M354.9,249.6c5.6-6.3,10.8-13.1,17.6-18.4c2.1-1.6,0.9-2.2-0.7-2.8c-4.3-1.5-8.9-1.2-13,0.7c-7.7,3.5-13.7,9-18.3,16
		c-11.3,12.6-15.2,27.9-16.7,44.5c5.6-2.1,10.7-4,15.9-5.9c1.1-0.4,1.9-1.3,2-2.5C344.1,269.9,348.5,259.2,354.9,249.6z
		 M594.2,588.7c3.9,3,6.8,7.3,8,12.2c1.7-3.8,2.9-6.6,4-9.4c3.5-8.7,3.5-8.7-6.2-11.1c-9.9-3.6-19.8-7.1-29.7-10.8
		c-0.9-0.5-2.1-0.2-2.5,0.7v0.1c-4.9,7.5-12.1,12.8-18.4,18.9c-5.7,5.7-11,12-13.4,20c-1.4,5.1-0.2,9.4,3.9,12.9
		c3.7,3.2,7.7,5.8,13.5,4.2c-7.1-3.8-12.8-8.5-12.6-16.8c0.2-8.5,6-13.4,12.7-17.4c0.1-0.1,0.3-0.2,0.4-0.2
		C566.9,585.2,580.4,584.2,594.2,588.7L594.2,588.7z M287.9,456c-19.1-4.8-35.6,0.2-48.3,14.7c-12.7,14.5-12.4,12.2-6,30.3
		c1.9,4.9,4.3,9.5,7.2,13.8c0.6,1,1,2.4,2.8,2.7c0-1.1,0-2.1,0-3c0.3-16.2,6-29.9,18.8-40.2c8.2-6.6,17.9-9.1,28.2-9.8
		c6.2,0.1,12.3,1.2,18.1,3.5C302.9,462.1,296.1,457.8,287.9,456z M472.7,565.2c1.4,4.4,3.4,8.7,2.5,13.4c-0.2,1-0.8,2.1,0.2,2.8
		c1.2,0.7,2.1-0.4,2.9-1.2c6.8-7.6,12.8-15.8,17.8-24.6c-4-1-6.8-3.5-9.9-5.4c-6.2-4.8-12.2-9.6-17.6-15.3c-2.1-2.2-4.1-6-6.3-6.1
		c-2.2-0.1-4.6,3.5-6.8,5.5c-9.5,8.7-21.2,13.3-32.7,18.7c-5.5,2.5-10.6,6-14.8,10.4c-11.4,12.3-7.1,30.7,8.7,36.7
		c6.3,2.4,13.2,3.6,20,3.3c0.9,0,2.1,0.4,2.4-1.1c-0.5-1-1.5-0.7-2.3-0.9c-8.9-2.1-16.8-7.6-22-15.1c-5.5-7.8-4.5-15.8,1.7-22.5
		C427.3,551.5,459.5,546.7,472.7,565.2z M300,485.6c-4.7-0.2-8.8,1.6-12.5,4.3c-15.8,11.5-22.5,27-20.3,46.4
		c0.1,1.1,0.3,2.1,1.3,2.5c7.9,3.4,15.3,7.9,23.8,9.5c0.4-0.4,0.5-0.5,0.4-0.6c-0.2-1.2-0.4-2.2-0.7-3.4c-1.8-9.9,0.1-18.9,6.5-27
		c3.9-4.8,8.5-9.1,13.7-12.5c3.7-1.2,7.3-2.5,11.1-3.6c1.3-0.4,2-0.5,1.2-2.2C319.4,488,310.4,484,300,485.6z M374.9,731.3
		c13.3-4.5,23.7-13.1,34.3-22.6c-1.5-0.5-2.3-0.9-3.1-1.2s-1.7-0.4-2.5-0.8c-13.6-5.4-24.9-12.9-29.2-28c-0.4-1.6-1.6-3.7,0.6-4.6
		s2.8,1.5,3.6,2.9c10.1,18.6,26.8,25.6,46.8,26.2c13.1,0.4,23.3-4.6,28.7-17.4c2.1-5.2,2.3-5.1-3.6-5.3c-5.7-1-11.4-2-17-3
		c-1-0.2-2.1-0.1-2.9,0.4c-5.4,2.9-11,5.6-16,9.8c7,5.5,14.3,8.3,22.9,4.1c2.1-1,4.2-2.1,6.6-0.9c1.3,3.4-0.7,5.3-3.2,6.7
		c-5.4,3.2-12,4-17.9,2.1c-14.4-3.9-22-15.2-25.9-28c-2.2-7.6-5.9-11.6-12.2-14.6c-0.4-0.2-0.8-0.4-1.2-0.5
		c-2.9-2.3-5.9-4.6-8.8-6.9c-0.6-0.4-1.4-1.5-2.1-0.4c-3.5,4.8-9.5,7-12.8,11.5c-10.8,15.3-17.7,32.3-16.3,51.4
		C344.9,729.7,358.7,737.7,374.9,731.3z M308.7,394.4c-0.7-2.5-1.5-5-2-7.5c-0.4-2.1-1.6-2.9-3.5-3.1c-15.3-2.3-30.7-2.3-46,1.2
		c-0.4-0.1-0.8-0.2-1.2-0.1c-26.4,5.1-51.2,13.9-72.7,30.7c-4.3,3.3-8.7,6.7-11.7,11.2l-0.6,0.3l0.4,0.2c0-0.2,0-0.4,0-0.5
		c1.2,0.8,2.2,0.1,3.3-0.2c14.3-3.8,28.6-7.3,43.1-9.8c27.3-4.9,54.7-7.6,82.4-3.7c5.5,0.7,11,2.1,17.1,3.4
		C313.4,409,311.8,401.4,308.7,394.4z M363.4,639.6c-6.6-7.8-6.6-7.8-14.6-2.1c-1.5,1.1-3,2.1-4.6,3.2c-3.2,2.1-6.4,4.3-10.6,7
		c7.1,0.4,12.5-1.7,17.7-4.4c2.1-1.2,4.6-2.9,7,0c-0.5,3-2.5,5.6-5.4,7c-19.6,10.4-43.7,3.4-46.9-22.5c-2.2-18.7,7.3-32.4,21.3-43.5
		c0.9-0.9,2.2-1.3,3.6-1.1c1.2,2.5-1.1,3.4-2.2,4.6c-6.2,6.2-11.5,13-14.3,21.4c-1.6,4.8-3,9.7-2.2,15.9l24.7-27
		c0.6-0.6,0.9-1.5,0.7-2.3c-1.1-4.5-2.1-8.9-3.2-13.4c-0.1-2.8-0.2-5.4-0.4-8.2c-0.3-5.2-0.3-5.1-4.9-2.9
		c-10.2,5-16.7,13.7-22.3,22.9c-6.1,9.8-10.7,20.5-13.6,31.7c-0.6,2.7-1,6.2-5.4,4.8c-1.2-1.6-0.8-3.6-1.4-5.9
		c-2.3,2.9-4.5,5.3-6.4,7.9c-9.1,12.3-18,24.8-21.5,40.2c-1.8,8.1-2.8,16.3,0.4,24.3c2.4,6.2,6.4,10.8,13.5,11.2
		c5.9,0.4,11.9-0.7,17.3-3c19.4-6.8,34.4-18.9,46.2-36.7c-8.4,0.9-15.7,1.6-23,0.4c-7.9-1.2-15.2-3.9-19.9-11c-0.7-1-2-2.3-0.8-3.5
		c1.4-1.3,2.2,0.4,3,1.3c4.1,4.2,9.5,6.7,15.3,7.2c13.9,1.4,27.4-1,40.3-5.9c4.7-1.8,9.1-4.5,12.9-7.9
		C368.8,644.6,368.8,644.6,363.4,639.6L363.4,639.6z M750.1,425.7c-1.9,1.8-3.7,3.7-5.6,5.3c-1.5,1.3-1.5,2.1,0.3,3.1
		c4.6,2.6,8.2,6.4,10.7,11.1c7,12.6,8.7,25.9,4.4,39.7c-1.2,3.5-1.2,7.3,0.4,10.7c0.5,2.4,0.8,4.8,1.1,7.3c0.1,3.9,1.7,3.3,4.2,1.9
		c9-5.1,16.9-11.7,24.2-19c2.1-2.1,4.3-4.3,6.6-6.2c1.8-1.5,4.2-1.5,4,1.2c-0.3,3.1,1.2,2.5,2.9,2.6c10.4,0.6,17-4.6,21.1-13.5
		c4.9-10.8,11.8-18.6,24.5-20.2c5.4-0.6,8.3-7.3,7.4-13.9c-0.7-5.2-4.7-8.2-10.6-7.9c-4.2,0.2-7.9,1.8-11.4,3.8
		c-5.8,3.6-11.1,7.9-15.5,13.1c-2.1,2.4-3.9,2.2-6.2-0.1c-2.9-3-3.7-6.8-4.1-10.7c-1.1-14.3,1.4-27.9,5.9-41.4
		c3.2-9.7,6.7-19.5,8.7-29.5c1.2-6.1-0.9-8.1-7-7.6c-9.3,0.7-15.3,5.4-18,14.4c-1,3.2-1.7,6.4-2.3,9.7c-1,4.8-1.8,9.6-2.9,14.5
		c-0.4,2.1-0.5,5.4-3.7,4.7c-2.9-0.5-2.1-3.4-1.9-5.4c0.2-1.7,0.4-3.5,0.7-5.2c2-9.4,3-18.9,7.9-27.4c0.5-0.9,2.1-1.8,1.2-2.9
		c-0.8-1.1-2.6-1.1-4-0.7c-8.3,2.1-14.6,6.2-16.4,15.3c-0.7,4-1.5,7.9-2.3,11.9c-0.6,4.6-1.3,9.1-2,13.7c-0.3,2.1-0.9,3.9-3.4,3.7
		c-2.5-0.3-2.7-2.2-2.7-4.3c0-1,0.1-2.1,0.3-3c0.8-5.4,1.6-10.9,2.3-16.3c0.2-1.2,1.1-2.9-1.5-2.2c-6.5,1.5-14.8,14-13.9,21.1
		c2.6-0.6,5.2-3.5,7.7-1.1c2.5,2.4,1.6,6,1.2,9.1c-0.4,1.9-0.9,3.7-1.7,5.4c-1.2,2.8-2.7,5.4-4.2,8.5l24.5-1.4
		c0.9,0.1,1.7,0.2,2.6,0.4c1.6,0.4,2.7,1.2,2.5,2.9c-0.3,2.2-2,2.8-3.7,2.8c-9.3,0.4-18.6,0.6-27.8,1
		C752.8,424.3,751,423.7,750.1,425.7z M659.2,216.3l12,2c0.2-2.1-1.1-3.2-2.1-4.4c-19-22.8-42.4-36-73-32.1
		c-12.1,1.5-24.4,3.3-35.2,9.6c-11.7,4-22.1,10.4-31.9,17.8c-12.2,9.4-22,21.3-33.4,31.6c-0.7,0.6-1.2,1.4-0.6,2.2
		c2.9,4.6,0.9,9.2,0.3,13.7c-2.4,18.1-9.3,34.5-18.1,50.3c-3,5.3-6.9,10.1-11.3,14.2c-8.2,7.9-9.5,7.9-17.6-0.3
		c-4.1-4.1-4-4.1-7.9,0.3c-6.5,7.6-14.4,14-20.2,22.1c-2.9,4.1-8.2,8.2-2.9,14.2c0.2,0.2,0.1,0.5,0.2,0.8c2.4,9.6,2,19.7-1.2,29.1
		c-0.5,1.5-0.5,3.1-0.1,4.6c2.1,7.1,7.1,11.9,13.1,16.6c0.3-1.3,0.4-2,0.4-2.7c3.3-22.5,12.9-43.5,27.6-61
		c11.9-14.2,23.9-28.3,34.4-43.6c17-25.2,39.5-46.1,65.9-61.3c1.2-0.7,2.3-1.3,2.9-3c5.3-17.5,16.2-30.4,31.9-39.5
		c17.6-10.3,41.8-2.5,49.5,16c0.6,1.4,1.2,2.1,2.7,2.1C649.3,215.9,654.3,216.1,659.2,216.3z M708.6,304
		c24-22.8,16.8-61.2-14.2-72.6c-22.6-8.3-46-11.2-70.1-7.6c-0.5,0-1.2,0-1.7,0c-44.4,6.5-80.2,28.3-110.2,60.8
		c-9.6,10.4-17.5,22.3-26.1,33.6l-5.7,7.5c2.7,0.8,4-0.7,5.6-1.7c14.7-9.3,27-21.2,37.7-34.9c7.3-9.2,14.8-18.4,24.5-25.2
		c33.8-23.6,70.8-34.6,112.1-26.6c12,2.3,23.3,7,33,14.7c4.3,3.3,7.5,7.8,9.3,12.9c0.4,1.1,0.8,2.3-0.3,3.1
		c-1.1,0.8-1.9-0.1-2.7-0.7c-0.5-0.4-1.1-1-1.5-1.5c-8.2-8.7-18.3-14.2-29.5-17.5c-36.4-10.5-70.4-3.8-102.8,14.5
		c-0.6,0.3-0.9,0.9-0.7,1.5c0,0,0,0,0,0.1c1.8-0.2,3.7-0.4,5.5-0.6c14.7-1.6,29.3-0.4,43.3,4.6c27.6,9.7,49.8,26.1,64,52.4
		c0.7,1.3,1.2,2.6,3.2,1.8C691.6,318,701.6,313.3,708.6,304z M390.5,414.7c15.6-12.8,22.3-29.7,22.7-49.5c0-1.1,0.2-2.2-0.7-3.3
		c-9.2-10.9-21-18.9-32.1-28.5c-2.3,6.7-4.9,12.5-9.5,17.1c-1.3,1.4-3.1,3.8-4.9,2.6c-2.3-1.7,0-4,1.1-5.6
		c5.2-7.4,7.9-16.2,8.1-25.3c0.1-4.9,2.1-9.1,5.4-12.9c4.6-5.8,10.3-10.7,16.7-14.4c2.1-1.2,4-2.9,5.4-4.9c3.4-4.9,2.6-9.8-2.3-13.1
		c-6.9-4.6-14.2-5.4-21.9-2.1c-9.6,4.2-15.5,11.6-18.1,21.7c-1.2,4.5-1.1,9.2-1.7,13.7c-0.3,1.9,0.4,4.8-2.3,4.9c-2.9,0.1-2.4-3-3-5
		c-0.2-0.7-0.3-1.4-0.3-2.1c-1.2-16.5,5.7-29,19.4-38c4.5-2.2,10.1-2,13.7-4.6c3.7-2.7,5.5-8.2,8.1-12.5c0.8-1.5,1.6-3,2.2-4.6
		c1.1-2.5,1.5-5.3,1.2-8c-0.6-7.6-7.2-11.2-14-7.9c-6.4,3.2-11.6,7.9-16.1,13.6c-10.7,10.2-16.7,23-20.1,37.1
		c-0.7,2.9-1.9,3.8-4.4,4.3c-9.5,1.7-18.1,5.7-26.1,11.2c-2.9,2.1-5.9,4.2-8.8,6.2c-0.8,0.5-1.7,1.6-2.6,0.4s0.2-1.9,0.8-2.6
		c2.7-2.9,5.6-5.4,8.8-7.7c2.2-1.7,6-2.7,2.9-6.8c-0.6-0.9-0.2-2.5-0.1-3.8c0.6-8.7,3-17,5.5-25.3c2.8-5.4,5.8-10.5,9.1-15.5
		c-7.5,1.7-14.1,6.2-18.3,12.7c-5.3,6-8.8,13.3-10.2,21.1c-1.5,7.6-1.6,15.3-1.6,22.9c0,2.6,0,5.4-3.4,5.4c-3.2-0.1-2.9-3-2.9-5.4
		c0-5.1,0-10.2,0-16.3c-7.1,10.2-8.9,20.3-7,31.3c1.2,0.1,1.6-0.5,2.2-1c1.5-1.2,2.8-3.9,5-2.1c2.4,2-0.1,3.9-1.2,5.6
		c-3.4,5.5-7.4,10.7-9.9,16.9c-5.7,14.4-1.4,28,11.5,36.2c2.7,1.7,5.5,3.2,8.3,4.6c3.8,2.1,6.6,4.7,7.9,9.2c1.9,6.1,4.1,12,6.6,17.9
		c4.5,10.7,8.7,21.4,15.3,31.1c2.8,4.1,6.3,5.4,11.2,4.5C363.8,435.2,378.1,426.7,390.5,414.7L390.5,414.7z M716.2,432.9
		c1.6-3.9,3.8-0.7,5.6-0.4c2.1,0.4,3.7,2.4,6.3,1c10.7-5.8,18.9-14.2,25.4-24.3c0.6-0.9,1.5-1.8,1-3.1c-1.4-0.3-2.5,0.4-3.6,1.2
		c-3.6,1.2-7,2.7-10.6,3.7c-20.6,5.5-44.4-5.1-53.7-23.8c-3.7-7.4-4.4-15.5-5.2-23.6c-2.9-31.9-16.2-57.5-43.7-75.1
		c-24-15.4-49.8-22.2-78.1-16.2c-4.8,1-10.1,1.7-13.8,5.6c-5.1,5.4-10.4,10.5-14.9,16.4c-12.8,16.7-28.4,30-46,41.1
		c-5.5,3.5-11.2,6.7-17.8,7.6c-1,0-2,0.5-2.6,1.3c-3.2,5-7.5,9.2-10,14.6c-0.6,0.8-1.2,1.6-1.8,2.4c-13.7,22.8-18.6,47.7-17.5,74.2
		c1.5,39.3,15.6,72.9,44.6,99.9c3.4,3.1,7.1,5.9,11.7,9.5c0-9.6-0.1-18,0.1-26.4c0-2.1-0.4-4.7,2.4-5.5c2.6-0.7,4.3,1,5.8,2.9
		c3.9,5.2,8.5,9.9,13.5,14.1c15.3,12.7,33.3,20.9,51.3,28.7c18.3,8,38,12.5,56,21.1c24.8,11.9,48.3,25.7,58.1,54
		c0.9,2.6,1.9,1.3,2.9,0c8.8-6.9,14.6-16.3,20.6-25.5c20.3-31.2,30.8-65.1,26.8-102.7c-0.2-1.4-0.6-2.9,1.1-3.7
		c3.1,2.5,3.1,6.3,4.2,9.6c0.4,1.2,0.4,2.4,2,2.9c6.7,2.3,11.9,6.9,16.9,11.8c0.7,0.7,1.2,2.1,2.9,1.6l-0.3-2.9
		C755.1,488.9,743.7,457.3,716.2,432.9L716.2,432.9z M401.6,469c-10-7.9-19.5-16.7-28.2-26.1c-2.8-2.9-5-3.7-8.8-1.8
		c-3.7,1.7-7.5,2.9-11.5,3.7c-14.5,3.6-20.6,1.6-27-11.6c-3.9-8.1-9.3-11.5-17.5-12.4c-5.2-0.5-10.3-2.1-15.6-1.5
		c6.2,3.5,11.8,7.9,16.6,13c12.6,13.4,21.4,29,28.9,45.6c3.7,8.3,7.5,16.6,11.2,24.9c1,2.1,1.9,2.7,3.5,0.4c2.2-3.4,4.7-6.5,7.5-9.5
		C371.6,481.7,384.4,472.6,401.6,469z M627.2,668.6c10.4-19.4,16.8-40.6,18.9-62.5c0.2-1.6,0-2.9-1.4-3.7
		c-8.8-6.3-18.1-12-28.2-16.1c-1.1-0.4-2.3-1.1-2.9,0.6c-2.2,7.2-6.4,13.6-9.4,20.3c-3.1,7.2-6.2,14.4-11.6,20.1
		c-2.3,2.4-1.3,3.4,1,4.6c9.4,5.3,16.9,12.7,23.2,21.2C620.3,658.1,623.5,663.1,627.2,668.6z M568.5,234.2
		c10.6-5.5,21.9-9.8,33.5-12.9c11.3-2.9,22.9-4.6,34.6-5.4c-7.5-14.5-26.6-20.3-40.6-12.7C583.7,210.1,574.2,219.8,568.5,234.2z
		 M352.3,626.7l-1.2-1.7c-4.2-6.1-7.7-12.7-10.4-19.5c-1.1-2.8-1.8-3-3.9-0.7c-7.4,7.9-15,15.7-22.6,23.5c-1.2,1.2-1.7,2.1-1.1,3.7
		c2.1,5.3,5.1,9.7,9.9,12.9c1.8,1.2,3.2,1.3,5.1,0c7.4-5.4,14.9-10.5,22.3-15.8C351.3,628.5,352.4,628.2,352.3,626.7z M417.9,574.1
		c16.3-8.7,32.8-8.4,49.6-3.1c-1.7-6.6-9.4-11.4-20-11.6C435.9,559.1,421.3,562.9,417.9,574.1L417.9,574.1z M427.7,432.8
		c0.3-5.6,0.5-10.6,0.8-15.6c0.1-1,0.2-2.1-1-2.6c-7-3-11.7-8.6-15.9-15.2c-1.8,3-3.3,5.8-5,8.5c-0.9,1.4-0.5,2.2,0.5,3.3
		C413.8,418.3,420.5,425.3,427.7,432.8L427.7,432.8z M415,467.2c-1.2-1.2-1.9-2.1-2.7-2.9c-9.4-9.5-19.9-17.8-28.5-28
		c-2.9-3.6-4.9-3.1-8-0.8c-1.7,1.2-2.2,1.8-0.3,3.3c3.9,3.2,7.5,6.8,11.3,10.1c7,6.1,13.7,12.5,21.5,17.5
		C410.4,467.6,412.2,468.2,415,467.2L415,467.2z M400.8,666.2c1.7,7,5.6,11.6,9.2,16.5c0.7,1,1.5,1.3,2.5,0.4
		c3.1-3.3,7.5-4.6,11.6-7.9C416.2,672.6,408.4,669.7,400.8,666.2L400.8,666.2z M750.4,449.4c-0.4-3.4-9.7-12.9-12.8-12.7
		c-2.1,0.2-3.9,1.2-5.2,2.9c-1.2,1.4,1.1,2.3,1.8,3.4c1.7,2.3,3.6,4.6,5.4,6.8c1.4,1.8,8.9,2.1,10.4,0.4
		C750.2,450,750.3,449.8,750.4,449.4z M497.5,551.3c3.7-5.2,5.3-11.1,7.6-16.7c0.4-0.9,0.3-2.1-0.5-2.7c-2.2-2.2-4.5-4.6-7-7.3
		L497.5,551.3L497.5,551.3z M735.9,403.4c9.3-0.6,10.6-1.9,9.8-8.7C741.4,396.4,738,399.4,735.9,403.4z M564.1,264.7l-0.3-0.1v0.2
		L564.1,264.7z"/>
	<path class="st1" d="M730.2,501.8c-1.8,0.9-1.2,2.3-1.1,3.7c4,37.6-6.4,71.5-26.8,102.7c-5.9,9.1-11.7,18.7-20.6,25.5
		c-2.1-2-1.8-4.8-2.3-7.2c-6.5-26.7-23.4-46-44.6-62c-20.3-15.3-43.2-26.8-65.1-39.6c-25.7-15-51.8-29.6-70.1-54.1
		c-1.8-2.3-2.8-1.5-3.6,0.5c-2.1,5.1-3.6,10.4-4.6,15.7c-1.3,6.3-2,12.8-1.7,19.3c-1.3-0.5-2.4-1.6-2.9-2.9
		c-4.5-7.6-8.6-15.3-12.2-23.4c-13-28.1-20-58.6-20.4-89.6c-0.2-10.5-0.2-21.1,0.8-31.6c2.5-5.4,6.8-9.7,10-14.6
		c0.6-0.8,1.5-1.3,2.6-1.3c6.6-0.9,12.2-4.1,17.8-7.6c17.7-11.2,33.3-24.5,46-41.1c4.5-5.8,9.8-11,14.9-16.4c3.7-3.9,9-4.6,13.8-5.6
		c28.4-6,54.1,0.7,78.1,16.2c27.4,17.7,40.8,43.3,43.7,75.1c0.7,8,1.4,16.2,5.2,23.6c9.4,18.7,33.1,29.3,53.7,23.8
		c3.7-1,7.1-2.4,10.6-3.7c0.2,1.4-0.6,2.4-1.5,3.4c-8.9,9.4-19.5,15.5-32.3,18c-2.7,0.5-5.4,0.9-7.9,1.2c0,0.3,0,0.4,0,0.7l6.9,2.3
		c27.5,24.5,38.9,56,39.7,92.1c-2.7-3.2-3.8-7.2-5.7-10.9c-4.3-8.6-9.9-16.1-17.7-22c-2.2-1.7-2.9-0.9-3,1.6
		C729.3,496.4,730.9,499,730.2,501.8z M613.5,364.8c-0.5-6.7-1.2-13.9-1.7-21.1c-0.3-4.2-2.2-6.3-6.2-7.7
		c-4.6-1.4-11.1,0.1-13.7-3.6c-2.6-3.7-2.1-9.7-3-14.7c0-0.2-0.1-0.3-0.1-0.4c-0.3-6.2-3.8-9.1-9.5-10.5c-10.4-2.7-21.1-3.3-31.8-4
		c-3.1-0.2-4.6,1.5-4.5,4.5c0.3,4.9,0.7,9.8,1.2,14.7c0.3,2.2-0.2,2.9-2.7,2.7c-6.1-0.4-12.1-1.4-18.2-0.9c-5.4,0.5-6.5,1.6-6.7,7
		c-0.3,10.3-0.2,20.5-0.4,30.8c-0.1,4.2,1.6,5.7,5.6,5.8c6.2,0.1,12.4,0.4,18.7,0.6c2.2,0.1,3,0.8,2.3,3.2c-1.6,5.4-3,10.9-4.5,16.3
		c-1.2,4.6-0.1,6.2,4.6,6.8c5.7,0.8,11.4,1.5,17.2,2.4c6,0.9,12,2,18,2.9c8.6,1.2,11.1-0.5,12.4-9c0.7-4.5,1.3-8.8,1.7-13.3
		c0.2-2.5,1-2.9,3.2-2c3.7,1.5,7.3,3.3,10.9,5.4c3.9,2.4,6.2,1.2,6.7-3.4C613.3,373.2,613.3,369.3,613.5,364.8z M629.1,362.7
		c0.4,11.9,3.4,25,12.7,36.1c3.2,3.8,7.1,5.7,12.1,5.4c8.7-0.5,16.2-8,17.9-18.5c2.4-14.4,0.9-29.1-4.6-42.6
		c-1.9-5.2-4.9-9.9-8.9-13.7c-8.8-8.2-18.1-6.6-23.6,4.2C630.5,342.1,629.3,351.2,629.1,362.7L629.1,362.7z"/>
	<path class="st2" d="M527.6,663.2c-20.3,8.7-41.2,13-63.4,11.9c-26.1-1.4-50.6-8.1-72.8-22c-23.1-14.5-40.9-33.8-48-61
		c-5.4-20.4-3.1-40.8,4.1-60.6c3.8-10.4,7.9-20.5,14.8-29.3c14.7-18.6,33.7-28.1,57.4-28.6c1.7,0,6.2,4,6.3,5.7
		c0.2,1.7-1.2,1.4-2,1.8c-12.5,5.5-21.6,20-21.1,33.6c0.4,11.3,10.5,23.4,22,26.4l4.6,1.2c-4.6,2.2-8.6,4-12.4,6
		c-7.7,3.7-14.3,9.5-18.9,16.8c-4.7,7.3-4.8,14.9-1.5,22.8c6.4,15.3,19.1,20.4,34.4,21.4c14.7,0.9,27.6-4,38.8-13.3
		c3.6-2.9,6.6-7.9,10.5-8.7c3.7-0.9,7,4.5,10.9,6.5c11,6,23.4,9.1,35.9,8.9c3.2,0,4.2,0.4,3,4c-3.9,12.8,5,25.4,18.5,26.8
		c5.8,0.5,11.5-0.6,17.3-0.9c-0.9,1.1-1.9,2.1-2.9,3.2c-9,8.1-18.6,15.5-28.6,22.3c-1.3,0.9-3.4,1.2-3.4,3.5v-0.1
		C529.7,661,528.5,662,527.6,663.2z"/>
	<path class="st3" d="M454.8,358.8c-1.1,10.5-1,21.1-0.8,31.6c0.4,31,7.4,61.5,20.4,89.6c3.7,8,7.8,15.8,12.2,23.4
		c0.5,1.3,1.6,2.4,2.9,2.9c-0.3-6.4,0.4-12.9,1.7-19.3c1.1-5.4,2.7-10.6,4.6-15.7c0.8-2.1,1.8-2.9,3.6-0.5
		c18.4,24.5,44.4,39.2,70.1,54.1c22,12.8,44.7,24.3,65.1,39.6c21.2,16,38.1,35.2,44.6,62c0.6,2.5,0.3,5.3,2.3,7.2
		c-0.9,1.3-1.9,2.6-2.9,0c-9.8-28.2-33.3-42.1-58.1-54c-18-8.7-37.7-13.1-56-21.1c-18-7.9-36-16.2-51.3-28.7
		c-5-4.2-9.5-8.9-13.5-14.1c-1.5-2-3.2-3.7-5.8-2.9c-2.7,0.7-2.3,3.5-2.4,5.5c-0.2,8.4-0.1,16.8-0.1,26.4c-4.5-3.7-8.3-6.4-11.7-9.5
		c-29-27-43.1-60.6-44.6-99.9c-1.1-26.4,3.7-51.3,17.5-74.2C453.6,360.4,454.2,359.6,454.8,358.8z"/>
	<path class="st4" d="M323.8,259.1c-2.5,8.3-5,16.6-5.5,25.3c-0.1,1.3-0.5,2.9,0.1,3.8c3,4.2-0.6,5.1-2.9,6.8
		c-3.2,2.2-6.2,4.8-8.8,7.7c-0.6,0.7-1.8,1.4-0.8,2.6c1,1.2,1.8,0.1,2.6-0.4c2.9-2.1,5.9-4.2,8.8-6.2c7.9-5.4,16.5-9.5,26.1-11.2
		c2.5-0.4,3.7-1.4,4.4-4.3c3.4-14.1,9.4-27,20.1-37.2c3,0.9,4.5,3.1,5.4,6c2.1,6.2,0.4,12-0.7,18c-13.7,9-20.5,21.5-19.4,38
		c0,0.7,0.1,1.4,0.3,2.1c0.5,2,0.1,5.1,3,5c2.8-0.1,2.1-3,2.3-4.9c0.6-4.6,0.5-9.2,1.7-13.7c2.6-10.1,8.5-17.5,18.1-21.7
		c1.4,3.8,0.4,7.3-1.4,10.7c-5.1,9.9-9.3,20.2-12.5,30.8c-4,13.3-7.9,26.6-15.7,38.3c-1.5,2.2-1.2,3.8,0,5.8
		c8.1,12.6,15.3,25.8,24.5,37.7c4.9,6.3,9.8,12.9,17.3,16.5c-12.4,12-26.7,20.6-43.9,23.8c-4.9,0.9-8.5-0.4-11.2-4.5
		c-6.5-9.6-10.9-20.4-15.3-31.1c-2.5-5.9-4.7-11.9-6.6-17.9c-1.3-4.5-4-7.1-7.9-9.2c-2.8-1.5-5.6-2.9-8.3-4.6
		c-13-8.2-17.3-21.9-11.5-36.2c2.4-6.2,6.4-11.2,9.9-16.9c1.1-1.7,3.6-3.7,1.2-5.6c-2.2-1.8-3.5,1-5,2.1c-0.5,0.4-0.9,1.2-2.2,1
		c-1.9-11.1-0.1-21.2,7-31.4c0,6.1,0,11.2,0,16.3c0,2.3-0.4,5.3,2.9,5.4c3.4,0.1,3.4-2.9,3.4-5.4c-0.1-7.7,0.1-15.3,1.6-22.9
		c1.3-7.9,4.9-15.2,10.2-21.1C317.9,256.6,320.9,257.9,323.8,259.1z M312.2,345.6c0,4.4,0.4,8.7,2.8,12.5c0.8,1.3,2.1,2.1,3.7,1.5
		c1.4-0.5,1.8-1.8,1.6-3.2c-0.2-1-0.4-2-0.5-2.9c-2.2-10.4-0.5-19.7,6.8-27.8c5.7-6.3,12.3-11.9,19.5-16.3c1.4-0.9,3.7-1.8,2.8-3.7
		c-1.1-2.4-3.3-1-4.9-0.4c-1.9,0.7-3.7,1.7-5.4,2.8c-7.1,4.3-13,10-18.5,16.2C314.7,330,311.8,337.7,312.2,345.6z"/>
	<path class="st5" d="M708.6,304c-7,9.3-17,14-27.3,18.6c-2,0.9-2.5-0.4-3.2-1.8c-14.2-26.1-36.4-42.7-64-52.4
		c-14-4.9-28.6-6.2-43.3-4.6c-1.9,0.2-3.7,0.4-5.5,0.6c-0.3-0.6,0-1.3,0.6-1.6c0,0,0,0,0.1,0c32.4-18.3,66.4-25,102.8-14.5
		c11.3,3.2,21.4,8.8,29.5,17.5c0.4,0.5,1,1.1,1.5,1.5c0.8,0.6,1.7,1.4,2.7,0.7c1-0.7,0.7-2.1,0.3-3.1c-1.8-5.1-5-9.5-9.3-12.9
		c-9.8-7.7-21-12.3-33-14.7c-41.3-8-78.3,3-112.1,26.6c-9.6,6.7-17.2,16-24.5,25.2c-10.8,13.7-22.9,25.6-37.7,34.9
		c-1.6,1-2.9,2.4-5.6,1.7l5.7-7.5c8.6-11.2,16.4-23.2,26.1-33.6c30-32.5,65.9-54.3,110.2-60.8c0.5,0,1.2,0,1.7,0
		c6.2,0.9,12.4,0.5,18.6,1.2c15.3,1.6,30.3,4.8,43.9,12.3c17,9.3,26.4,23.1,26.1,43C712.9,288.5,710.8,296.3,708.6,304z"/>
	<path class="st5" d="M659.2,216.3c-4.9-0.2-9.8-0.4-14.7-0.4c-1.6,0-2.1-0.7-2.7-2.1c-7.9-18.5-31.9-26.2-49.5-16
		c-15.7,9.1-26.6,22-31.9,39.5c-0.4,1.6-1.6,2.3-2.9,3c-26.3,15.2-48.8,36.1-65.9,61.3c-10.4,15.3-22.5,29.4-34.4,43.6
		c-14.6,17.3-24.2,38.4-27.6,60.9c-0.1,0.7-0.3,1.3-0.4,2.7c-6-4.7-11.1-9.4-13.1-16.6c-0.4-1.5-0.4-3.1,0.1-4.6
		c3.2-9.4,3.7-19.5,1.2-29.1c-0.1-0.3,0-0.6-0.2-0.8c-5.3-6,0-10.1,2.9-14.2c5.8-8.1,13.7-14.5,20.2-22.1c3.7-4.4,3.7-4.4,7.9-0.3
		c7.9,8,9.4,8.1,17.6,0.3c4.5-4.1,8.3-8.9,11.3-14.2c8.8-15.8,15.7-32.2,18.1-50.3c0.6-4.6,2.7-9.2-0.3-13.7
		c-0.5-0.9-0.1-1.6,0.6-2.2c11.4-10.3,21.2-22.2,33.4-31.6c9.7-7.5,20.3-13.8,31.9-17.8c1.9-0.2,3.7-0.2,5.5-0.5
		c17.3-3.4,34.6-4.6,51.9-0.4C634.8,194.5,649,202.2,659.2,216.3z"/>
	<path class="st6" d="M774.1,384.1c0.8-3.9,1.5-7.9,2.3-11.9c1.8-9.1,8.1-13.2,16.4-15.3c1.5-0.4,3.1-0.5,4,0.7
		c0.9,1.2-0.7,2-1.2,2.9c-4.8,8.5-5.9,18-7.9,27.4c-0.4,1.7-0.6,3.4-0.7,5.2c-0.2,2.1-0.9,4.9,1.9,5.4c3.2,0.6,3.3-2.6,3.7-4.7
		c1.1-4.8,1.9-9.6,2.9-14.5c0.7-3.2,1.4-6.5,2.3-9.7c2.7-8.9,8.7-13.7,18-14.4c6.1-0.4,8.1,1.6,7,7.6c-1.9,10.2-5.4,19.8-8.7,29.5
		c-4.5,13.5-7,27.2-5.8,41.4c0.3,3.9,1.2,7.6,4.1,10.7c2.2,2.3,4,2.4,6.2,0.1c4.5-5.2,9.7-9.5,15.5-13.1c3.6-2.1,7.2-3.7,11.4-3.8
		c5.9-0.3,9.8,2.8,10.6,7.9c1,6.5-2.1,13.2-7.4,13.9c-12.7,1.6-19.5,9.4-24.5,20.2c-4.1,8.9-10.8,14.1-21.1,13.5
		c-1.6-0.1-3.2,0.5-2.9-2.6c0.3-2.7-2.2-2.7-4-1.2c-2.3,2-4.5,4.1-6.6,6.2c-7.3,7.2-15.2,13.8-24.2,19c-2.5,1.4-4,2.1-4.2-1.9
		c-0.2-2.4-0.5-4.9-1.1-7.3c0.5-0.4,1.1-0.9,1.5-1.4c6.9-12.8,8.1-26.4,6.2-40.4c-1.6-12-8.1-21.1-17.9-28c0.9-2,2.7-1.3,4.2-1.4
		c9.3-0.4,18.6-0.6,27.8-1c1.9-0.1,3.6-0.6,3.7-2.8c0.2-1.8-1-2.7-2.5-2.9c-0.9-0.2-1.7-0.2-2.6-0.4c0.3-5.5,1-11.2,0.6-16.7
		C781,394.3,780.5,387.7,774.1,384.1z"/>
	<path class="st6" d="M390.5,414.7c-7.5-3.7-12.4-10.2-17.3-16.5c-9.2-11.9-16.4-25.1-24.5-37.7c-1.2-2-1.5-3.6,0-5.8
		c7.8-11.7,11.7-25,15.7-38.3c3.2-10.6,7.4-21,12.5-30.8c1.8-3.4,2.9-6.9,1.4-10.7c7.7-3.3,15-2.5,21.9,2.1
		c4.9,3.3,5.8,8.2,2.3,13.1c-1.4,2.1-3.3,3.7-5.4,4.9c-6.4,3.7-12,8.6-16.7,14.4c-3.1,3.8-5.3,8.1-5.4,12.9c-0.2,9-3,17.8-8.1,25.3
		c-1.1,1.6-3.4,3.9-1.1,5.6c1.8,1.2,3.6-1.2,4.9-2.6c4.5-4.6,7.1-10.4,9.5-17.1c11.2,9.5,22.9,17.6,32.1,28.5
		c0.9,1.1,0.7,2.1,0.7,3.3C412.9,385,406.2,401.8,390.5,414.7z"/>
	<path class="st7" d="M330.8,583.1c-1.3-0.3-2.7,0.2-3.6,1.1c-14,11.2-23.6,24.8-21.3,43.5c3.1,25.9,27.3,32.9,46.9,22.5
		c2.9-1.3,4.8-3.9,5.4-7c2.1-0.6,2.8-3.5,5.3-3.7c5.4,4.9,5.4,5,0.1,9.8c-3.7,3.4-8.1,6.2-12.9,7.9c-13,4.9-26.4,7.3-40.3,5.9
		c-5.8-0.5-11.2-3-15.3-7.2c-0.8-0.8-1.6-2.7-3-1.3c-1.2,1.2,0.2,2.4,0.8,3.5c4.7,7,12,9.7,19.9,11c7.3,1.1,14.7,0.4,23-0.4
		c-11.7,17.8-26.9,29.9-46.2,36.7c-1-0.5-2-1.2-3-1.7c-10.9-5-16.6-13.5-16.6-25.5c0-12,4.4-23.2,9.7-33.7c2.3-4.6,3.7-10,7.9-13.7
		c4.5,1.3,4.8-2.1,5.4-4.8c2.9-11.2,7.5-21.9,13.6-31.7c5.6-9.4,12.1-17.9,22.3-22.9c4.6-2.2,4.6-2.3,4.9,2.9
		c0.2,2.8,0.3,5.4,0.4,8.2L330.8,583.1z"/>
	<path class="st8" d="M486,271.1c-5.5,16.1-11.6,31.8-23.9,44.2c-5.2,5.3-5.3,5.3-9.7-0.4c-17.7-22.3-31.2-46.5-36.3-74.9
		c-1.2-6.7-2.3-13.4-2.3-20.3c0-2-0.3-4.1,1.9-5.4l16.2,2l3.3,1c17.4,5.4,31.8,15,41.9,30.4C481.9,254.9,484.3,262.9,486,271.1z
		 M469.6,269.9c2.1-21.4-21.7-42.1-39.4-44.5c-1.1-0.2-2.5-0.8-2.9,0.8c-0.3,1.2,1.2,1.5,2.1,1.9c6,2.5,12,5,17,9.5
		c1.4,1.3,2.2,2.3,1.9,4.7c-2.4,14.8,1.6,28.1,10.5,39.9c1.6,2.1,2.7,3.7,1.7,6.5c-0.8,2.3-1.9,5.7,1.8,6.5c3.5,0.8,4.1-2.7,4.7-5
		C468.6,283.6,469.5,276.7,469.6,269.9L469.6,269.9z"/>
	<path class="st9" d="M401.6,469c-17.1,3.7-30,12.8-40.9,24.8c-2.7,3-5.2,6.2-7.5,9.5c-1.6,2.3-2.5,1.8-3.5-0.4
		c-3.7-8.3-7.5-16.6-11.2-24.9c-7.5-16.6-16.3-32.2-28.9-45.6c-4.8-5.2-10.4-9.6-16.6-13c5.4-0.5,10.4,1,15.6,1.5
		c8.3,0.9,13.6,4.3,17.5,12.4c6.3,13.2,12.5,15.2,27,11.6c3.9-0.8,7.9-2.1,11.5-3.7c3.7-2,6.1-1.2,8.8,1.8
		C382.2,452.3,391.5,461,401.6,469z"/>
	<path class="st5" d="M171.6,426.7c3-4.6,7.4-7.9,11.7-11.2c21.5-16.8,46.3-25.6,72.7-30.7c0.4,0,0.8,0,1.2,0.1
		c17.6-0.1,35.1,3.1,51.5,9.5c3,7,4.7,14.5,8.7,21.8c-6.2-1.2-11.6-2.7-17.1-3.4c-27.7-3.7-55.1-1.1-82.4,3.7
		c-14.5,2.6-28.8,6.1-43.1,9.8c-1.1,0.3-2.1,1-3.3,0.2L171.6,426.7z"/>
	<path class="st7" d="M450.5,680.7c5.9,0.2,5.8,0.2,3.6,5.3c-5.4,12.8-15.6,17.8-28.7,17.4c-20-0.7-36.7-7.8-46.8-26.2
		c-0.8-1.4-1.2-3.8-3.6-2.9s-1.1,3-0.6,4.6c4.2,15,15.5,22.7,29.2,28c0.8,0.4,1.7,0.5,2.5,0.8s1.6,0.6,3.1,1.2
		c-10.5,9.5-21,18.1-34.3,22.6c-14.6-13.8-20.1-30.3-13-49.6c4-11,10.4-20.2,21.9-24.8c0.4,0.2,0.8,0.4,1.2,0.5
		c6.2,3,9.9,7.1,12.2,14.6c3.8,12.9,11.5,24,25.9,28c6.1,1.8,12.6,1.1,17.9-2.1c2.5-1.4,4.6-3.3,3.2-6.7c0.2-1.7,1.5-2.7,2.6-3.9
		C448.4,685.3,450.3,683.5,450.5,680.7z"/>
	<path class="st9" d="M627.2,668.6c-3.7-5.4-6.9-10.4-10.4-15.3c-6.3-8.6-13.7-16-23.2-21.2c-2.3-1.2-3.3-2.2-1-4.6
		c5.4-5.7,8.5-12.9,11.6-20.1c2.9-6.9,7.2-13.1,9.4-20.3c0.5-1.7,1.7-1.1,2.9-0.6c10.1,4.1,19.4,9.7,28.2,16.1
		c1.3,1,1.5,2.2,1.4,3.7C644,628,637.6,649.2,627.2,668.6z"/>
	<path class="st8" d="M312.4,504.9c-5.2,3.4-9.8,7.7-13.7,12.5c-6.3,8-8.3,17-6.5,27c0.2,1.2,0.4,2.2,0.7,3.4c0,0.1-0.2,0.2-0.4,0.6
		c-8.5-1.6-15.9-6.2-23.8-9.5c-1.1-0.4-1.2-1.4-1.3-2.5c-2.2-19.4,4.5-34.9,20.3-46.4c3.7-2.7,7.8-4.5,12.5-4.3
		C303.1,492.7,307.6,498.8,312.4,504.9z"/>
	<path class="st10" d="M472.7,565.2c-13.1-18.5-45.3-13.7-56.4-1.5c-6.2,6.7-7.1,14.7-1.7,22.5c5.3,7.6,13.1,12.9,22.1,15.1
		c0.8,0.2,1.8,0,2.3,0.9c-0.3,1.5-1.5,1.1-2.4,1.1c-6.8,0.3-13.7-0.9-20-3.3c-15.9-6-20.1-24.4-8.7-36.7c4.3-4.4,9.3-7.9,14.8-10.4
		c11.3-5.4,23.1-10,32.7-18.7c2.2-2.1,4.6-5.6,6.8-5.5c2.1,0.1,4.3,3.8,6.3,6.1c5.4,5.7,11.4,10.5,17.6,15.3
		C482.3,555.7,478.2,561,472.7,565.2z"/>
	<path class="st4" d="M383.8,656.8c-11.3,4.7-17.8,13.9-21.9,24.8c-7,19.4-1.6,35.8,13,49.6c-16.3,6.4-30-1.6-31.2-18.9
		c-1.3-19.2,5.5-36.1,16.2-51.4c3.2-4.6,9.3-6.7,12.8-11.5c0.7-1,1.5,0,2.1,0.4C377.9,652.2,380.8,654.5,383.8,656.8z"/>
	<path class="st8" d="M290.8,464.5c-10.3,0.7-20,3.2-28.2,9.8c-12.9,10.4-18.6,24-18.8,40.2c0,1,0,2,0,3c-1.8-0.3-2.1-1.7-2.8-2.7
		c-2.9-4.3-5.4-8.9-7.2-13.8c-6.4-18-6.6-15.8,6-30.3c12.6-14.5,29.2-19.6,48.3-14.7C288,459.1,289.7,461.6,290.8,464.5z"/>
	<path class="st11" d="M708.6,304c2.2-7.8,4.3-15.5,4.4-23.7c0.3-19.9-9.2-33.7-26.1-43c-13.7-7.5-28.5-10.8-43.9-12.3
		c-6.2-0.6-12.4-0.3-18.6-1.2c24-3.6,47.5-0.7,70.1,7.6C725.4,242.8,732.6,281.3,708.6,304z"/>
	<path class="st7" d="M568.5,234.2c5.7-14.3,15.1-24.1,27.6-30.9c14-7.7,33.1-1.7,40.6,12.7c-11.7,0.7-23.3,2.5-34.6,5.4
		C590.4,224.3,579.2,228.6,568.5,234.2z"/>
	<path class="st4" d="M287.5,630.7c-4.2,3.7-5.6,9-7.9,13.7c-5.4,10.5-9.7,21.6-9.7,33.7s5.7,20.5,16.6,25.5c1.1,0.4,2,1.2,3,1.7
		c-5.4,2.3-11.4,3.4-17.3,3c-7-0.4-11.1-5-13.5-11.2c-3.1-8-2.2-16.2-0.4-24.3c3.5-15.3,12.4-27.8,21.5-40.2c2-2.7,4.1-5.1,6.4-7.9
		C286.6,627.1,286.2,629,287.5,630.7z"/>
	<path class="st5" d="M352.3,626.7c0.1,1.4-1,1.8-1.8,2.4c-7.5,5.3-15,10.4-22.3,15.8c-1.9,1.3-3.3,1.2-5.1,0
		c-4.8-3.1-7.8-7.6-9.9-12.9c-0.6-1.6-0.1-2.6,1.1-3.7c7.6-7.8,15.2-15.5,22.6-23.5c2.1-2.2,2.9-2,3.9,0.7
		c2.7,6.9,6.2,13.5,10.3,19.5L352.3,626.7z"/>
	<path class="st11" d="M659.2,216.3c-10.2-14.1-24.4-21.8-40.8-25.9c-17.3-4.4-34.6-3-51.9,0.4c-1.9,0.4-3.7,0.4-5.5,0.5
		c10.9-6.3,23-8.1,35.2-9.6c30.6-3.7,54,9.4,73,32.1c1,1.2,2.2,2.3,2.1,4.4L659.2,216.3z"/>
	<path class="st10" d="M594.2,588.7c-13.9-4.5-27.4-3.5-40.3,3.3c-0.1,0.1-0.3,0.1-0.4,0.2c-6.7,4-12.5,8.9-12.7,17.4
		c-0.2,8.3,5.4,12.9,12.6,16.8c-5.8,1.6-9.6-1-13.5-4.2c-4.1-3.5-5.4-7.8-3.9-12.9c2.3-8,7.7-14.3,13.4-20
		c6.2-6.2,13.5-11.4,18.4-18.9c0.4-0.9,1.6-1.2,2.5-0.8h0.1c9.9,3.7,19.8,7.2,29.7,10.8C598.3,583.4,597,586.5,594.2,588.7z"/>
	<path class="st4" d="M354.9,249.6c-6.4,9.6-10.9,20.3-13.4,31.7c-0.1,1.2-0.9,2.1-2,2.5c-5.2,1.8-10.3,3.7-15.9,5.9
		c1.5-16.6,5.4-31.9,16.7-44.5c1.3,0,2.7,0.3,3.9-0.1C349.1,243.7,352.4,245.8,354.9,249.6z"/>
	<path class="st7" d="M372.3,270c1.2-6,2.8-11.9,0.7-18c-1-2.9-2.5-5.1-5.4-6c4.5-5.5,9.6-10.4,16.1-13.6c6.8-3.4,13.4,0.4,14,7.9
		c0.3,2.8-0.1,5.5-1.2,8c-0.7,1.6-1.4,3.1-2.2,4.6c-2.6,4.3-4.4,9.8-8.1,12.5C382.4,268,376.7,267.8,372.3,270z"/>
	<path class="st12" d="M774.1,384.1c6.4,3.7,6.9,10.2,7.3,16.4c0.4,5.5-0.4,11.2-0.6,16.7l-24.5,1.4c1.5-3.1,2.9-5.7,4.2-8.5
		c0.8-1.7,1.3-3.5,1.7-5.4c0.4-3.1,1.4-6.6-1.2-9.1c-2.6-2.5-5.1,0.4-7.7,1.1c-0.9-7,7.4-19.5,13.9-21.1c2.6-0.6,1.7,1.1,1.5,2.2
		c-0.8,5.4-1.6,10.9-2.3,16.3c-0.2,1-0.3,2.1-0.3,3c-0.1,2,0.2,4,2.7,4.3c2.5,0.3,3-1.6,3.4-3.7
		C772.8,393.3,773.4,388.6,774.1,384.1z"/>
	<path class="st4" d="M458.2,592.1c-14.7,6.2-27.8,3.3-37-8.1c-2.3-2.9-2.6-4.8,1.1-6.6c9.5-4.7,19.6-5.1,29.9-3.8
		C456.7,578.9,458.9,585.1,458.2,592.1z"/>
	<path class="st4" d="M590.4,614.5c-10.5,7.7-22.1,10-34.6,5.8c-2.8-0.9-6.3-2.5-6.3-5.8c0-3,3.5-4.3,6-5.7c8.1-4.9,17-6.2,26.2-5.6
		C585.5,606,588.6,609.9,590.4,614.5z"/>
	<path class="st4" d="M750.1,425.7c9.8,6.9,16.3,16.1,17.9,28c1.9,14,0.6,27.7-6.2,40.4c-0.4,0.5-0.9,1.1-1.5,1.4
		c-1.5-3.4-1.7-7.2-0.4-10.7c4.4-13.7,2.7-27.1-4.4-39.7c-2.5-4.6-6.2-8.4-10.7-11.1c-1.8-1.1-1.9-1.8-0.3-3.1
		C746.4,429.3,748.2,427.5,750.1,425.7z"/>
	<path class="st11" d="M486,271.1c-1.8-8.2-4.1-16.2-8.8-23.3c-10.2-15.4-24.5-25.1-41.9-30.4l-3.3-1c0.1-0.5,0.1-1.1,0.2-1.7
		c18.9,3.1,36.7,11.3,51.3,23.7c5.9,5,8.9,12,6.4,20.3C488.6,262.9,487.8,267.1,486,271.1z"/>
	<path class="st8" d="M342.9,523.6c-3.2,9.5-7,19-8,29.2c-0.1,0.9-0.4,1.9-1.4,1.9c-3.9,0.1-7.9-0.3-11.6-1.1
		c-0.9-0.3-1.4-1-1.5-1.9c-2.2-11.4,2.8-25.9,13.9-31C336.9,522.1,339.9,523.1,342.9,523.6z"/>
	<path class="st12" d="M330.8,583.1l3.4-0.9c1.1,4.5,2.1,8.9,3.2,13.4c0.2,0.9-0.1,1.8-0.7,2.3l-24.7,27c-0.8-6.2,0.6-11.1,2.2-15.9
		c2.9-8.4,8-15.3,14.3-21.4C329.7,586.5,331.8,585.6,330.8,583.1z"/>
	<path class="st12" d="M450.5,680.7c-0.3,2.8-2.1,4.6-3.8,6.6c-1.1,1.2-2.3,2.1-2.6,3.9c-2.4-1.2-4.6-0.2-6.6,0.9
		c-8.7,4.3-15.9,1.4-22.9-4.1c4.9-4.2,10.4-7,16-9.8c0.9-0.4,2-0.6,2.9-0.4C439.2,678.7,444.9,679.6,450.5,680.7z"/>
	<path class="st12" d="M730.2,501.8c0.7-2.8-0.9-5.4-0.8-8.1c0.1-2.5,0.8-3.3,3-1.6c7.8,5.8,13.4,13.3,17.7,22
		c1.8,3.7,3,7.7,5.7,10.9l0.3,2.9c-1.7,0.5-2.1-0.9-2.9-1.6c-5-4.9-10.2-9.5-16.9-11.8c-1.6-0.5-1.6-1.8-2-2.9
		C733.3,508.1,733.3,504.3,730.2,501.8z"/>
	<path class="st12" d="M417.9,574.1c3.5-11.1,18-14.9,29.6-14.7c10.6,0.2,18.3,5,20,11.6C450.7,565.6,434.2,565.3,417.9,574.1z"/>
	<path class="st11" d="M472.7,565.2c5.5-4.1,9.6-9.5,13.6-15.1c3.1,1.9,5.9,4.5,9.9,5.4c-5.1,8.8-11.1,17-17.8,24.6
		c-0.8,0.9-1.7,2-2.9,1.2c-1-0.6-0.4-1.8-0.2-2.8C476,573.8,474.1,569.5,472.7,565.2z"/>
	<path class="st11" d="M354.9,249.6c-2.6-3.7-5.8-5.9-10.6-4.6c-1.2,0.4-2.6,0.1-3.9,0.1c4.6-7,10.6-12.5,18.3-16
		c4-2,8.7-2.2,13-0.7c1.6,0.5,2.8,1.2,0.7,2.8C365.7,236.5,360.6,243.3,354.9,249.6z"/>
	<path class="st10" d="M427.7,432.8c-7.1-7.5-13.8-14.5-20.5-21.5c-1.1-1.1-1.4-1.9-0.5-3.3c1.7-2.7,3.2-5.4,5-8.5
		c4.2,6.5,8.8,12.1,15.9,15.2c1.2,0.5,1.1,1.6,1,2.6C428.3,422.2,428,427.2,427.7,432.8z"/>
	<path class="st11" d="M531.4,661.5c0-2.2,2.1-2.6,3.4-3.5c10-6.8,19.5-14.2,28.6-22.3c1-1,2-2.1,2.9-3.2l15.2-4.5
		c-3.7,5.4-8.5,9.1-13.2,13.1c-10.3,8.5-21.8,15.3-34.3,19.9C533.1,661.4,532.2,661.4,531.4,661.5z"/>
	<path class="st10" d="M415,467.2c-2.7,1.1-4.6,0.4-6.5-0.8c-7.9-5-14.5-11.5-21.5-17.5c-3.8-3.3-7.4-6.9-11.3-10.1
		c-2-1.6-1.4-2.1,0.3-3.3c3.1-2.2,5.1-2.7,8,0.8c8.5,10.3,19.1,18.6,28.5,28C413,465.1,413.8,466,415,467.2z"/>
	<path class="st11" d="M312.4,504.9c-4.7-6.1-9.3-12.2-12.4-19.4c10.4-1.6,19.5,2.4,24.6,13.6c0.8,1.7,0.1,1.9-1.2,2.2
		C319.7,502.5,316,503.8,312.4,504.9z"/>
	<path class="st11" d="M308.7,394.4c-16.4-6.3-33.9-9.5-51.5-9.5c15.3-3.5,30.6-3.5,46-1.2c1.9,0.3,3.1,1.1,3.5,3.1
		C307.2,389.4,308,391.9,308.7,394.4z"/>
	<path class="st12" d="M716.2,432.8l-6.9-2.3c0-0.3,0-0.4,0-0.7c2.7-0.4,5.4-0.8,7.9-1.2c12.8-2.5,23.4-8.7,32.3-18
		c0.9-1,1.7-2,1.5-3.4c1.1-0.7,2.1-1.4,3.6-1.2c0.5,1.3-0.4,2.2-1,3.1c-6.5,10.1-14.7,18.5-25.4,24.3c-2.8,1.5-4.3-0.6-6.3-1
		C720,432.2,717.8,428.9,716.2,432.8z"/>
	<path class="st12" d="M547.9,608.4c-0.8-3,1.4-4.8,3.2-6.5c8.4-8.6,27.8-12.4,39-7.9c2,0.7,3.7,2.3,4.5,4.3
		C577.7,597.2,561.4,597.1,547.9,608.4L547.9,608.4z"/>
	<path class="st10" d="M400.8,666.2c7.6,3.5,15.3,6.4,23.3,8.9c-4.1,3.2-8.5,4.6-11.6,7.9c-0.9,1-1.7,0.6-2.5-0.4
		C406.4,677.9,402.5,673.2,400.8,666.2z"/>
	<path class="st12" d="M363.4,639.6c-2.5,0.1-3.1,3-5.3,3.7c-2.3-2.9-4.7-1.1-7,0c-5.2,2.7-10.4,4.7-17.7,4.4
		c4.1-2.7,7.3-4.8,10.6-7c1.5-1.1,3-2.1,4.6-3.2C356.8,631.9,356.8,631.9,363.4,639.6z"/>
	<path class="st11" d="M458.2,592.1c0.8-7.1-1.5-13.2-6-18.6c5.1-0.1,10.1,1.3,14.4,4.1c2.2,1.4,2.9,2.9,1.5,5.4
		C465.7,586.9,462.9,590.6,458.2,592.1z"/>
	<path class="st12" d="M750.4,449.4c0,0.3-0.2,0.5-0.4,0.8c-1.5,1.7-9,1.3-10.4-0.4c-1.8-2.2-3.7-4.5-5.4-6.8
		c-0.7-1.1-2.9-2-1.8-3.4c1.2-1.6,3.1-2.7,5.2-2.9C740.6,436.6,750,446,750.4,449.4z"/>
	<path class="st11" d="M594.2,588.7c2.7-2.2,4.1-5.4,5.8-8.3c9.6,2.3,9.7,2.3,6.2,11.1c-1.1,2.8-2.4,5.5-4,9.4
		C601,596,598.2,591.7,594.2,588.7z"/>
	<path class="st11" d="M497.5,551.3v-26.7c2.6,2.7,4.7,5.1,7,7.3c0.8,0.6,1,1.8,0.5,2.7C502.6,540.3,501.1,546.1,497.5,551.3z"/>
	<path class="st11" d="M323.8,259.1c-2.9-1.2-5.9-2.5-9.2-2.9c4.2-6.4,10.8-11,18.3-12.7C329.6,248.7,326.6,253.9,323.8,259.1z"/>
	<path class="st11" d="M686.6,212c1.5-0.2,3.1-0.4,4.6-0.4c6.1,0.3,9.7,7,7,12.5c-0.6,1.2-1.2,0.8-2.1,0.5c-1.7-0.6-3.4-1.3-5.2-2.1
		C690.8,218.6,688.3,215.5,686.6,212z"/>
	<path class="st11" d="M290.8,464.5c-1.1-2.8-2.8-5.4-2.8-8.5c8.2,1.8,14.9,6.2,20.9,12C303.1,465.7,296.9,464.6,290.8,464.5z"/>
	<path class="st8" d="M686.6,212c1.6,3.5,4.2,6.6,4.4,10.7c-2.5-0.7-5-1.2-7.5-1.7c-4.1-0.4-4.3-4.2-5.9-6.7
		c-0.7-1.2,0.5-1.3,1.3-1.4C681.6,212.7,684.1,212.4,686.6,212z"/>
	<path class="st11" d="M590.4,614.5c-1.8-4.6-4.8-8.5-8.7-11.3c3.7-0.4,7.4,0.1,11.1,0.4c3.5,0.3,3.9,2.1,2.9,4.9
		C594.6,611,592.8,613.2,590.4,614.5z"/>
	<path class="st12" d="M735.9,403.4c2.1-4,5.6-7,9.8-8.7C746.4,401.6,745.1,402.8,735.9,403.4z"/>
	<path class="st11" d="M342.9,523.6c-3-0.4-6-1.4-8.7-2.9c1.9-2.3,5.1-1.6,7.4-3.2c1.1-0.7,4-0.1,2.8,2.9
		C343.9,521.5,343.3,522.5,342.9,523.6z"/>
	<path class="st12" d="M432.1,214.7c-0.1,0.5-0.1,1.1-0.2,1.7l-16.2-2C421.2,211.3,426.7,213.7,432.1,214.7z"/>
	<path class="st11" d="M527.6,663.2c0.9-1.2,2.1-2.1,3.7-1.8C530.6,663,529.1,662.9,527.6,663.2z"/>
	<polygon class="st5" points="564.1,264.7 563.9,264.8 563.9,264.5 	"/>
	<path class="st12" d="M547.8,608.3l-0.4,0.4l-0.1-0.4L547.8,608.3L547.8,608.3z"/>
	<path class="st5" d="M171.5,426.7c0,0.2,0,0.4,0,0.5l-0.4-0.2l0.6-0.3L171.5,426.7z"/>
	<path class="st13" d="M613.5,364.8c-0.2,4.5-0.2,8.3-0.6,12.2c-0.4,4.6-2.8,5.8-6.7,3.4c-3.5-2.1-7.1-3.8-10.9-5.4
		c-2.2-1-2.9-0.5-3.2,2c-0.4,4.5-1,8.9-1.7,13.3c-1.3,8.5-3.7,10.3-12.4,9c-6-0.9-12-2-18-2.9c-5.7-0.9-11.4-1.6-17.2-2.4
		c-4.6-0.6-5.7-2.2-4.6-6.8c1.4-5.4,2.9-10.9,4.5-16.3c0.7-2.3-0.1-3.1-2.3-3.2c-6.2-0.2-12.4-0.5-18.7-0.6c-4,0-5.7-1.6-5.6-5.8
		c0.3-10.3,0.2-20.5,0.4-30.8c0.2-5.4,1.2-6.5,6.7-7c6.1-0.5,12.1,0.4,18.2,0.9c2.5,0.2,2.9-0.4,2.7-2.7c-0.5-4.9-0.9-9.8-1.2-14.7
		c-0.2-2.9,1.3-4.7,4.5-4.5c10.7,0.8,21.3,1.3,31.8,4c5.7,1.5,9.3,4.4,9.5,10.6c0,0.2,0,0.3,0.1,0.4c0.9,5,0.4,11,3,14.7
		c2.7,3.7,9,2.1,13.7,3.6c4,1.2,6.1,3.4,6.2,7.7C612.2,351,612.9,358.1,613.5,364.8z M550.1,315.3c0,4.7,0,9.5,0.1,14.3
		c0,3.2-2.5,5.4-5,3.7c-5.7-3.5-12.1-2.1-18.1-3.1c-3.1-0.4-4,0.9-3.9,3.9c0.3,7,0.4,13.9,0.2,20.9c-0.2,4,1.2,5,5.1,5
		c6.6,0,13.3-0.4,19.5,2.9c2.8,1.5,3.4,3.3,2.7,6c-1.2,4.9-2.1,9.9-3.6,14.8c-0.7,2.5,0,3.2,2.4,3.6c9.7,1.3,19.5,2.9,29.2,4.5
		c3.7,1.7,5.9,0.7,6.2-3.7c0.1-1.6,0.5-3.1,0.8-4.6c0.7-5.5,1.4-11.1,2.1-16.6c1.5-0.8,3.4-0.9,4.9-0.1c2.4,1,4.8,1.8,7.2,2.7
		c1.8,1.2,3.8,2.1,6.1,2.5c0.4-8.5-0.8-16.7-1.4-24.9c-0.3-2.9-1.6-4-4.2-4.5c-3.7-0.7-7.3-1.7-11-2.3c-2.9-0.5-4.2-2.1-4.6-4.9
		c-1-5.5-2.1-11.1-3-16.7c-0.4-2.9-1.7-4.3-4.5-5c-7.4-2.1-15.1-2.8-22.8-3.2C549.4,310,549.4,310,550.1,315.3L550.1,315.3z"/>
	<path class="st13" d="M629.1,362.7c0.2-11.5,1.5-20.6,5.8-29c5.5-10.8,14.7-12.4,23.6-4.2c4,3.8,7,8.5,8.9,13.7
		c5.4,13.5,7,28.2,4.6,42.6c-1.8,10.5-9.3,17.9-17.9,18.5c-5,0.4-8.9-1.6-12.1-5.4C632.5,387.7,629.4,374.6,629.1,362.7z M658,395
		c4.8-3.1,6.5-8,7-13.3c1.1-9.9,0.2-20-2.7-29.5c-1.8-6.1-4.3-12-8.9-16.6c-5.2-5.2-8.7-4.5-11.7,2.3c-6,12-5.6,24.5-3.1,37.1
		c1.2,6,2.8,11.8,6.3,16.9C648.5,396.9,652.8,397.9,658,395z"/>
	<path class="st13" d="M312.2,345.6c-0.3-7.9,2.5-15.6,7.9-21.5c5.4-6.2,11.3-12,18.5-16.2c1.7-1.1,3.5-2,5.4-2.8
		c1.6-0.6,3.8-2.1,4.9,0.4c0.9,2.1-1.3,2.9-2.8,3.7c-7.3,4.5-13.8,10-19.5,16.3c-7.3,8.1-9,17.5-6.8,27.8c0.2,1,0.4,2,0.5,2.9
		c0.2,1.4-0.2,2.7-1.6,3.2c-1.6,0.6-2.9-0.2-3.7-1.5C312.6,354.3,312.2,350,312.2,345.6z"/>
	<path class="st0" d="M469.6,269.9c0,6.9-1,13.7-2.9,20.3c-0.6,2.4-1.3,5.8-4.7,5c-3.6-0.8-2.6-4.2-1.8-6.5c1-2.8-0.1-4.4-1.7-6.5
		c-8.9-11.9-12.9-25.1-10.5-39.9c0.4-2.4-0.4-3.5-1.9-4.7c-4.9-4.5-10.9-7-17-9.5c-0.9-0.4-2.3-0.6-2.1-1.9c0.4-1.6,1.9-1,2.9-0.8
		C447.9,227.7,471.7,248.4,469.6,269.9z M453,244.3c-3.5,6.9,2.4,26.3,9.4,32.1C464.5,264.3,462.2,253.6,453,244.3z"/>
	<path class="st14" d="M600,369.3c-2.4-0.9-4.9-1.7-7.2-2.7c-1.6-0.8-3.4-0.7-4.9,0.1c-5.3-2.4-5.5-2.1-6.2,3.6
		c-0.7,7.1-2,14.3-2.9,21.4c-9.7-1.5-19.5-3.1-29.2-4.5c-2.5-0.4-3.1-1.1-2.4-3.6c1.3-4.9,2.4-9.8,3.6-14.8c0.6-2.7,0-4.5-2.7-6
		c-6.2-3.4-12.9-2.9-19.5-2.9c-3.9,0-5.2-0.9-5.1-5c0.3-7,0-13.9-0.2-20.9c-0.1-2.9,0.8-4.4,3.9-3.9c6.1,1,12.4-0.4,18.1,3.1
		c2.5,1.6,5.1-0.5,5-3.7c0-4.7-0.1-9.5-0.1-14.3c6.3,0.4,12.8,0.5,19,1.3c5.8,0.7,7.1,2.5,7.8,8c0.4,3.1,0.7,6.3,1.1,9.5
		c1.2,10,1.5,10.4,11.7,10.9c6.6,0.4,10.3,4.1,10.4,10.9C600.2,360.3,600.1,364.8,600,369.3z"/>
	<path class="st11" d="M600,369.3c0.1-4.5,0.2-8.9,0.2-13.5c-0.1-6.7-3.7-10.5-10.4-10.9c-10.2-0.5-10.5-0.9-11.7-10.9
		c-0.4-3.1-0.7-6.3-1.1-9.5c-0.7-5.5-2.1-7.3-7.8-8c-6.3-0.8-12.7-0.9-19-1.3c-0.7-5.3-0.7-5.4,4.4-5c7.7,0.5,15.3,1.1,22.8,3.2
		c2.8,0.8,4,2.2,4.5,5c0.8,5.5,2.1,11.1,3,16.7c0.4,2.8,1.8,4.4,4.6,4.9c3.7,0.6,7.3,1.6,11,2.3c2.5,0.5,3.9,1.5,4.2,4.5
		c0.6,8.2,1.8,16.3,1.4,24.9C603.9,371.4,601.9,370.5,600,369.3z"/>
	<path class="st11" d="M578.8,391.7c1-7.1,2.1-14.2,2.9-21.4c0.6-5.7,0.8-6,6.2-3.6c-0.7,5.5-1.4,11.1-2.1,16.6
		c-0.2,1.6-0.7,3.1-0.8,4.6C584.6,392.4,582.5,393.4,578.8,391.7z"/>
	<path class="st14" d="M658,395c-5.2,2.9-9.5,2-13-3c-3.5-5-5.2-11-6.3-16.9c-2.5-12.7-2.9-25.2,3.1-37.1c4.5,1.7,8.3,4.9,10.7,9.1
		c3.7,6.1,5.4,12.7,6.5,19.6C660.5,376.1,659.1,385.5,658,395z"/>
	<path class="st11" d="M658,395c1.1-9.5,2.5-18.8,1.1-28.5c-1.1-7-2.9-13.6-6.5-19.6c-2.4-4.2-6.2-7.3-10.7-9.1
		c3-6.7,6.5-7.5,11.7-2.3c4.6,4.6,7.1,10.5,8.9,16.6c2.9,9.5,3.7,19.6,2.7,29.5C664.5,387,662.8,391.8,658,395z"/>
	<path class="st8" d="M453,244.3c9.2,9.2,11.6,20,9.4,32.1C455.3,270.7,449.5,251.2,453,244.3z"/>
</g>
</svg>
