<svg id="VGS-AlchemistHombrewer_Image" data-name="VGS-AlchemistHombrewer Image" xmlns="http://www.w3.org/2000/svg" viewBox="0 0 1200 1200"><defs><style>.cls-1{fill:#bbc8f5;}.cls-2{fill:#060607;}.cls-3{fill:#060708;}.cls-4{fill:#0b0b0b;}.cls-5{fill:#9998fe;}.cls-6{fill:#fcfcfc;}.cls-7{fill:#070a0b;}.cls-8{fill:#bac6f3;}.cls-9{fill:#a5927f;}.cls-10{fill:#5756d1;}.cls-11{fill:#becaf5;}.cls-12{fill:#d6c1a8;}.cls-13{fill:#f5f5f8;}.cls-14{fill:#93a4e1;}.cls-15{fill:#00cafd;}.cls-16{fill:#b5eefc;}.cls-17{fill:#fff;}</style></defs><ellipse id="Ellipse_25" data-name="Ellipse 25" class="cls-1" cx="600" cy="809.04" rx="478.69" ry="136.07"/><path class="cls-2" d="M849.87,516.72c3.73-4.55,7-8.38,11.06-11.46a2.25,2.25,0,0,0,.77-2.72c-2.1-8.55-6.43-15.54-14-20.34-2.52-1.61-5.07-3.15-7.57-4.79a23,23,0,0,1-5.54-4.87c-3.66-4.6-3.22-9.73,1.39-13.37a22.82,22.82,0,0,1,20.54-4.54c9.2,2.32,16.08,7.65,20.05,16.43,1.45,3.19,2.82,6.42,4.33,9.58a18,18,0,0,0,3.72,5.45c2.08,2,3.87,2.19,6.35.76a10.07,10.07,0,0,0,1.86-1.4c6.54-6.12,7.42-18.33,1.82-25.32a28.57,28.57,0,0,0-8.41-6.85A59.92,59.92,0,0,0,876,448.76a56.63,56.63,0,0,1-5.83-2.18c-8.71-4.14-9.48-15.07-1.47-20.53a17.85,17.85,0,0,1,11.13-2.91c18.14.85,31.11,9.66,39,25.95a48.34,48.34,0,0,1,3.67,10.66c.21,1,.57,1.9,1,3.44a8.46,8.46,0,0,0,2.12-7.1,21.12,21.12,0,0,0-2.81-7.63c-1.52-2.72-3.23-5.34-4.6-8.13A14.63,14.63,0,0,1,926.52,420c4.26-1.55,8.21-.67,11.89,1.67a27.63,27.63,0,0,1,10.52,12.73c5.47,12.69,5.36,25.27-1.34,37.51-1,1.8-.91,2.78.35,4.31,5,6.12,5.5,13.3,4.21,20.7-1.85,10.61-7.77,18.83-15.71,25.75-2.05,1.79-4.23,3.41-6.41,5.16,1.44,2.15,2.87,4.15,4.16,6.23,6.16,9.88,10.14,20.42,9.85,32.3a41.22,41.22,0,0,1-4.29,17.25A77.88,77.88,0,0,1,926.87,602c-10.43,11.42-22.66,20.61-35.85,28.56a210.41,210.41,0,0,1-54.5,23.55q-.94.24-1.86.57a3.92,3.92,0,0,0-.75.55c1.55,7.29,3.12,14.65,4.36,22.08a329.84,329.84,0,0,1,3.75,77.7c-.55,7.77-1.45,15.52-2.13,23.28-.2,2.36-1.87,3.24-3.66,4.1a286.38,286.38,0,0,1-29.79,12.46,395.6,395.6,0,0,1-71.78,17.46c-40.34,6.17-80.92,7.81-121.65,6.07a681.76,681.76,0,0,1-88.63-9.78q-34.15-6-67.63-15c-.75-.21-1.5-.4-2.24-.66-3.39-1.22-4.09-3.49-2.41-6.69,4-7.7,7.9-15.48,11.81-23.24.11-.21,0-.51,0-1-2.86-.09-5.57.87-8.33,1.34a34.61,34.61,0,0,1-20.19-2.5c-3.67-1.62-7.28-3.4-10.9-5.17a4.91,4.91,0,0,0-4-.43c-9.15,3-18.19,2.2-27.07-1.13a12.76,12.76,0,0,0-4.93-.75,45.26,45.26,0,0,1-17.21-2.69,29.53,29.53,0,0,1-12.69-9.34c-2.64-3.23-6.06-5.56-10.56-5.48a32.25,32.25,0,0,1-11.4-2.27c-9-3.23-18.12-6.36-26.92-10.22a92.84,92.84,0,0,1-13.39-7.13,33.3,33.3,0,0,1-4-3c-5.51-4.94-6.18-10-2.24-16.29.41-.65.84-1.29,1.25-1.92a11,11,0,0,0-3.86-2c-16.8-7.24-33.65-14.37-50.67-21.1a159,159,0,0,1-18.34-8.54,23.67,23.67,0,0,1-4.53-3,9.37,9.37,0,0,1-3.39-7.57c.15-3.68,1.51-7.09,2.81-10.48a4.65,4.65,0,0,1,3.2-2.65A19.09,19.09,0,0,1,223,638.4a43.83,43.83,0,0,1,7,.43c3.46.69,6-.2,7.94-3.17a42.4,42.4,0,0,1,3.09-3.51,15.44,15.44,0,0,1,10.75-5.5A732.37,732.37,0,0,1,364.6,622.8c15,.65,29.74,2.72,44,7.64a75.28,75.28,0,0,1,13.8,6.28,44.47,44.47,0,0,1,14,12.25,4.51,4.51,0,0,0,4.2,2.07,212.57,212.57,0,0,1,22.56,1.09,86.3,86.3,0,0,1,21.95,5,6.6,6.6,0,0,0,5.23,0c2.48-1,5-1.91,7.53-2.84-.06-1.61-1.19-2.23-1.88-3.08a64.14,64.14,0,0,1-6.87-10.38c-2.26-4.26-1.86-8.22.77-12.11a36.13,36.13,0,0,1,7.59-7.78c1.6-1.29,3.23-2.55,4.86-3.83-.85-1.38-2.2-1.61-3.3-2.17A118.62,118.62,0,0,1,472.19,597c-9.4-8.57-16.56-18.64-20.18-30.95-4.6-15.67-3-30.83,4.19-45.45,5.05-10.28,12.18-19,20.52-26.76,13.83-12.89,29.84-22.45,46.95-30.25,23.54-10.73,48.23-17.6,73.7-21.84.38-.07.78-.08,1.16-.14,2.55-.45,2.6-.47,2.05-3q-9.81-45.51-19.65-91c-1.56-7.24-3.27-14.45-4.65-21.71-.45-2.35-1.41-3.23-3.71-3.53a53.46,53.46,0,0,1-15.63-4.6,52.8,52.8,0,0,1-6.13-3.36c-11.16-7.15-12.35-18.81-8.7-28.37A30.37,30.37,0,0,1,552,273.25a60.52,60.52,0,0,1,21.89-10.75c19.44-5.43,39.24-7.61,59.39-5.52A61.36,61.36,0,0,1,652,261.93c17.56,7.84,18.92,30.13,8.07,41.74a37.65,37.65,0,0,1-13,9.08c-2.75,1.17-2.79,1.15-2.18,4.36q10.89,57,21.75,114.05a23.26,23.26,0,0,1,.47,2.29c.13,1.53,1,1.95,2.37,1.82,1-.09,2.08-.12,3.12-.15,38-1.13,75.19,3.15,111.34,15.25A152.29,152.29,0,0,1,815.71,465a102.5,102.5,0,0,1,14.38,10.66,55.43,55.43,0,0,1,18.7,34.54C849.07,512.06,849.41,513.94,849.87,516.72Zm38,105.27-.06.09c.13,0,.3.13.38.09,15.14-8.84,28.64-19.6,39.14-33.82,1.37-1.86,2.88-3.68,3.5-6,.32-.14.63-.38.33-.71s-.6-.06-.85.17c-6.21,2.12-12.62,2.16-19.06,1.81a4.57,4.57,0,0,0-1-.47,55.36,55.36,0,0,1-34.58-20.72c-8.68-10.9-15.37-22.78-17.87-36.69-.3-1.71-.49-3.44-.73-5.16-3.6,4.28-7.69,8.07-7.43,14.1a17.88,17.88,0,0,1-.42,3.47,80.91,80.91,0,0,1-16.88,37.56,8.69,8.69,0,0,0-2.22,5.61,32.4,32.4,0,0,1-1.24,7.67c-3.51,14.47-11.17,26.69-20.62,37.93a9.5,9.5,0,0,1-3,2.43c-1.1.54-2.22.84-3.24-.12a2.6,2.6,0,0,1-.44-2.9,17.12,17.12,0,0,1,2.64-4.74c3.11-4.45,6.46-8.74,8.79-13.7,4.45-6.23,8.49-15.92,8.13-19.87l-9,8c-4.39,3-8.7,6.09-13.19,8.92-23.2,14.61-48.57,23.86-75.09,30.26-6.42,1.55-13,2.27-19.32,4.42A317.59,317.59,0,0,1,574,654a244.33,244.33,0,0,1-54.24-11.86,33.84,33.84,0,0,1-5-2.2c-1.61-.86-2.62-2.27-2-4.18s2.34-2.36,4.13-2.08,3.79.83,5.69,1.26c13.89,4.43,28.16,7.06,42.57,9,7.16,1,40-1.15,43-3-26.08-2.08-51.64-6.19-76.66-13.43-5.93-1.91-11.88-3.77-17.65-6.12a3.58,3.58,0,0,0-3.65.22c-3.92,2.56-7.91,5-11.26,8.33-4.17,4.15-4.34,5.15-1.33,10a55.22,55.22,0,0,0,4.07,5.7,65.1,65.1,0,0,0,13.28,12,141.66,141.66,0,0,0,13.68,8.23,21.8,21.8,0,0,1,6.15,4.72,2.4,2.4,0,0,1,.38,2.89,2.37,2.37,0,0,1-2.29,1.22,21,21,0,0,1-5-.94c-2-.57-2.65,0-4,2.52-1,1.92.6,2.22,1.6,2.83,7,4.22,14.15,8.23,21.94,10.88a6.05,6.05,0,0,1,3.84,3.54c2.05,4.63,4.45,9.11,6.39,13.78a6.61,6.61,0,0,0,5,4.22,66.73,66.73,0,0,1,11.37,4,22.21,22.21,0,0,1,5.36,3.15,8,8,0,0,1,2,10.5,11.63,11.63,0,0,1-5,4.76,28.15,28.15,0,0,1-6.59,2.35c-16.12,4-32.23,8.08-48.38,12-14.64,3.53-29.32,6.89-44,10.34-1.75.41-3.4.72-4.37,2.71-3.65,7.47-7.52,14.83-11.23,22.27-1.14,2.27-1,2.32,1.46,3.07.5.15,1,.31,1.49.44A729.19,729.19,0,0,0,616.79,809.8c37.21,1.64,74.29.29,111.17-5.22A437.07,437.07,0,0,0,805.88,786c8.35-2.87,16.59-6,24.67-9.62,1.16-.51,2.45-.86,2.59-2.53.45-5.43,1.51-10.8,1.46-16.27.27-3.36.68-6.72.8-10.08a375.55,375.55,0,0,0-7.25-87c-.8-4.05-.84-4.06-4.74-3.4-1.66.29-3.31.65-5,1-1.68,0-3.36.11-5,0s-3.26-1-3.67-2.9c-.35-1.72.65-3.4,2.76-4.16a37.4,37.4,0,0,1,5.65-1.43c23.94-4.53,46.26-13.34,67.35-25.42.48-.28,1.3-.38,1.08-1.29C887.28,622.94,887.83,622.86,887.89,622ZM446.47,755.38c3.65,1.22,7.22.2,10.73-.56,23.2-5,46.28-10.61,69.36-16.22,14-3.39,28-6.91,41.93-10.4,2.08-.52,4.27-.9,5.78-3.05a25.27,25.27,0,0,0-9.59-4.16c-1,4.31-1.52,4.83-5.53,5.44-.89.14-1.78.33-2.67.5-32.6,6.41-65,13.73-97.7,19.63-4.07.74-8.06,2.12-12.29,1.77-2.77-2.51-6.36-3.41-9.64-4.88Q393.3,724,349.72,704.56c-1.37-.6-2.65-1.66-4.37-1.28-.33,2.64-.49,5.24-1,7.77-.77,3.74-3.27,5.83-7.06,6.14a19,19,0,0,1-6.2-.35,66.43,66.43,0,0,1-23.41-11.16c-5.72-4.21-6.18-9.07-1.91-14.82,1.3-1.76,2.78-3.37,4.4-5.31-1.66-.71-3-1.35-4.45-1.9Q266,668.07,226.3,652.56c-3-1.18-5.68-2.32-5.47-6.44-1.64,1.08-1.7,2.45-2.06,3.63-1.17,3.81-1,4.36,2.35,6.33a106,106,0,0,0,11.5,5.71c13.57,5.91,27.49,11,41,17,8.05,3.61,16.19,7,24.28,10.56,5.14,2.25,5.52,4.41,1.48,8.16a32.27,32.27,0,0,0-2.46,2.5c-2.86,3.31-2.72,5.37.77,8.16a40.76,40.76,0,0,0,5.54,3.6c12.32,6.88,25.72,11.07,39,15.45,6.47,2.13,12.61.16,19.39-2.11-1.74-.93-2.85-1.54-4-2.12-2.43-1.23-4.9-2.38-7.3-3.68a2.66,2.66,0,0,1-1.25-3.67c.7-1.56,2-1.87,3.59-1.34.37.13.73.29,1.09.43,6.5,2.55,12.43,6.5,19.39,7.93a1.94,1.94,0,0,1,.95.64c1.27,1.43,3,2,4.68,2.71,7.44,3.4,14.91,6.74,22.33,10.18,12,5.56,24,11.23,36,16.75C440.09,754.32,443.08,755.74,446.47,755.38ZM543.53,622c3.8.57,7.4,2.15,11.29,2.31,1,.26,2,.56,3,.77a421.83,421.83,0,0,0,52.84,7.25c28.05,2.1,56.08,2.28,84.06-.89a253.58,253.58,0,0,0,84.72-25c14.63-7.27,28.17-16.16,39.63-27.94,18.09-18.58,26.09-40.45,22-66.49-2-12.67-7.56-23.06-17.21-31.39a102.28,102.28,0,0,0-19.7-13.2c-15.41-8.06-31.83-13.29-48.75-17-27.68-6.05-55.75-8.11-84-7.95A3.2,3.2,0,0,0,669,443c.51,2.81,1,5.73,1.56,8.66.1.51.28,1,.34,1.52.31,2.5-.79,4.28-2.92,4.78a3.76,3.76,0,0,1-4.61-3.1c-.83-3.54-1.45-7.13-2.13-10.7q-10.32-54-20.62-107.92c-1.27-6.62-2.59-13.23-3.9-20-1.18.16-2.05.35-2.93.38a4.22,4.22,0,0,1-4.63-3.31,4.28,4.28,0,0,1,3-4.83c1.35-.46,2.78-.66,4.16-1a41.92,41.92,0,0,0,14.7-6.9c10.81-8.11,10.79-26.83-4.76-32.22A69.75,69.75,0,0,0,628,264.69a150.46,150.46,0,0,0-38,2.5c-9,1.68-17.71,4.09-25.79,8.48a33.84,33.84,0,0,0-10.6,8.45c-7.11,8.87-5.22,18.68,4.66,24.15,6.34,3.5,13.23,5.24,20.33,6.38,5.42.88,10.88.69,16.33.73a15.19,15.19,0,0,1,5,.54c2.47.86,2.83,2.25,1.11,4.35a11.47,11.47,0,0,1-1.15,1c-3.66,1.68-7.66,1.83-11.53,2.57a8.27,8.27,0,0,0-5,.15c.19,1.24.31,2.39.56,3.52Q598.09,393,612.28,458.39c.55,2.54,1.18,5.06,1.57,7.63a3.29,3.29,0,0,1-2.5,3.84,3.37,3.37,0,0,1-4.36-2.2,16.36,16.36,0,0,1-.68-2.63c-1-4.69-2.1-9.37-3.06-14.08-.29-1.42-.83-2.08-2.34-1.67-.75.2-1.54.22-2.31.36-22.4,4.07-44.27,10-65.27,18.88-17.3,7.32-33.62,16.32-47.89,28.69-8.61,7.46-16.05,15.9-21.27,26.12-6.34,12.41-8.13,25.35-4.46,38.9,3.43,12.65,11,22.5,20.92,30.72,11.22,9.31,24.1,15.68,37.63,20.84a11.12,11.12,0,0,0,3.12,1.41A229,229,0,0,0,543.57,622Zm-97,117.37c.2-4.26-.8-7.79-1.13-11.39-1-10.36-6.18-17.8-14.92-23.32-8-5.06-15.76-10.56-24-15.23a140.29,140.29,0,0,0-23.68-10.85,71,71,0,0,0-22.9-4.1c-2.19,0-4.42,0-6.46,1.07-8.12,4.4-15.47,9.59-19.41,18.41a12.12,12.12,0,0,1-2.85,4.16c-1.94,1.75-4.08,1.19-4.74-1.33a8.91,8.91,0,0,1,.43-5.36,35.77,35.77,0,0,1,4.12-7.93,6.89,6.89,0,0,0,1.31-4c0-12.08-4.24-22-14.3-29.18a56.51,56.51,0,0,0-14.22-7.16c-17.3-6-35.39-6.63-53.4-7.86a2.81,2.81,0,0,0-2.45.9L237.32,648a13.52,13.52,0,0,0,1.46.83q39.45,15.12,78.66,30.83c4.83,1.94,5.39,4.69,1.62,8.28a96.54,96.54,0,0,0-7.14,7.71c-1.54,1.83-1.41,2.3.53,3.78A57.41,57.41,0,0,0,323,705.31a35.6,35.6,0,0,0,10.67,3.56c2.49.3,2.72.17,2.85-2.28.18-3.25.12-6.51.4-9.74.36-4.13,3.17-5.57,6.87-3.72,2.78,1.39,5.55,2.84,8.39,4.11q36.43,16.29,72.9,32.52ZM373.3,668.26a2.58,2.58,0,0,0,2,1.17,94.83,94.83,0,0,1,19.27,6c16.35,6.91,31.22,16.37,45.55,26.73A23.62,23.62,0,0,1,444,705.5a4.68,4.68,0,0,0,5,1.67c18.6-3.57,37.26-6.79,55.95-9.81,8.95-1.44,17.88-3,26.84-4.49-.27-1.06-1.1-1.24-1.76-1.58-6.47-3.32-12.68-7.1-18.88-10.89-6-3.65-12-7.27-18.23-10.42a83.34,83.34,0,0,0-28-8.9C433.92,657.51,403.51,660.8,373.3,668.26Zm-33.51,6.08a83.19,83.19,0,0,1,29.57-13.71,296.26,296.26,0,0,1,56.76-9.11c.6,0,1.33.16,1.62-.88a18.38,18.38,0,0,0-3.53-3.39,55,55,0,0,0-14.54-8.14c-11.46-4.49-23.47-6.61-35.64-7.66-25.65-2.22-51.34-1.41-77-.51a7.87,7.87,0,0,0-3.89.76c1.95.48,3.46.82,4.95,1.21,9.09,2.35,17.85,5.49,25.47,11.18s12.89,13.09,15,22.5C339.05,669,339.32,671.45,339.79,674.34Zm110.69,40.79a97.37,97.37,0,0,1,3.94,18.9c.61,5,.65,5,5.79,4.17l2.29-.42c25.54-4.66,50.9-10.25,76.34-15.38,5-1,10.08-2.1,15.5-3.24-3-6.3-5.74-12.28-8.56-18.23-1.28-2.69-1.31-2.65-4.42-2.11L453.88,714C452.76,714.2,451.53,714.13,450.48,715.13ZM916.73,575.86c4.9-.13,9.33-.86,13.4-3.19,4.68-2.68,6.59-6.36,5.75-11.94-1.52-10-5.64-18.82-11.43-27-1.17-1.64-2.19-1.71-3.9-.92-8.73,4-17.86,6.3-27.55,5.69a2.91,2.91,0,0,0-3.23,2.08,86.59,86.59,0,0,1-8,14.22,2.36,2.36,0,0,0,.16,3.38C891,569.22,902.86,574.86,916.73,575.86Zm-7.56-75.35c-3.38.38-6.49.11-9.6.55-7.57,1.06-13.06,4.81-15.47,12.35a8.48,8.48,0,0,0-.39,4.61c.19.79.45,1.52,1.34,1.72a1.82,1.82,0,0,0,2.14-1.26,25.63,25.63,0,0,0,1.16-2.89c2-6.4,6.57-9.41,13-9.85a40,40,0,0,1,9.71.43c1.91.33,3.85.53,5.79.75a1.38,1.38,0,0,0,1.54-.93,1.35,1.35,0,0,0-.63-1.68c-1.28-.76-2.62-1.43-4.35-2.37a30.65,30.65,0,0,0,9.8-2.81,43.87,43.87,0,0,1,5.1-1.88c2.82-.84,5.65-1.47,7.59,1.73a1.41,1.41,0,0,0,1.71.58c.75-.21.86-.87,1-1.52a6,6,0,0,0-3.52-6.34,9.54,9.54,0,0,0-6.1-.5,49,49,0,0,0-9.58,3.21,11.91,11.91,0,0,1-4.86,1.25,6.14,6.14,0,0,1-5.15-3c-1.23-1.85-.14-3.46.84-5a10.11,10.11,0,0,1,.94-1.24c7.19-8.66,17.45-11.75,28.26-8.41a2.76,2.76,0,0,0,3.62-1.28,2.87,2.87,0,0,0-1.26-4,14,14,0,0,0-5.84-2.05c-12.92-1.47-23.14,3.54-30.84,13.64-4.25,5.58-3,11,2.6,15.21C908.17,499.85,908.68,500.17,909.17,500.51Zm-530.6,233c-.59,7.72,5.57,16.82,12.38,18.56a2.69,2.69,0,0,0,3.31-1.34,2.61,2.61,0,0,0-.84-3.74c-.84-.6-1.78-1.06-2.66-1.62-2.33-1.5-4.68-3.26-5.44-5.9C384.31,736,382,734.57,378.57,733.54ZM499,663.05c5.72,3.45,11,6.54,16.1,9.75,1.57,1,2.45.8,3.39-.84s.66-2.46-.93-3.41a69.21,69.21,0,0,1-9.06-6c-2.45-2-4.62-2.47-7.23-.7C500.7,662.18,500.1,662.44,499,663.05ZM866.3,531.19c1.3-2.2,3.16-3.53,2.33-5.37-1.39-3.1-2.72-6.24-4.13-9.38C863.67,521.26,864.64,525.82,866.3,531.19ZM362.93,736.09c-.58-.81-.12-3-2-2.31-1.35.46-3.72-.34-3.93,2.07a3.23,3.23,0,0,0,3.1,3.24A2.8,2.8,0,0,0,362.93,736.09Z"/><path class="cls-3" d="M437.13,535c-.45,13.34-.93,27.88-1.44,42.42-.16,4.7-1,5.28-5.95,5.24-2.84,0-5.68.47-8.53.68-1.52.11-1.88,1-1.84,2.34.08,3.12.12,6.24.06,9.36s-1.14,4.22-4.18,4.37c-9.21.46-18.33,1.84-27.5,2.71-2.85.27-5.68.58-8.52.89a3.73,3.73,0,0,1-3-.58c-2.22-2-5.05-2.61-7.67-3.65q-26.76-10.59-53.59-21a21,21,0,0,0-4.81-1.48c-2.76-.4-3.47-1.24-3.58-4.17-.15-4-.28-8.06-.08-12.08.13-2.59-.59-4.13-3.16-4.89-3.21-1-6-3-9.52-3.2-1.89-.09-3-1.52-3.23-3.37a25.49,25.49,0,0,1-.09-3.5c0-24,0-48.07.82-72.09.1-2.86.37-5.71.51-8.56.22-4.52,2.75-7.41,6.59-9.36a31,31,0,0,1,11.62-3,133.44,133.44,0,0,1,46.7,3.92C373,460.37,389.48,464,405.59,469a139.52,139.52,0,0,1,19,7,62.66,62.66,0,0,1,5.8,3.16,13.78,13.78,0,0,1,7.16,12.45C437.78,505.71,437.39,519.73,437.13,535Zm-18.76-44.83a22.85,22.85,0,0,0-5.42.33c-8.33,1.24-9.63,2.47-10,10.91-1.13,24.37-2.12,48.75-3.13,73.12-.06,1.4-.34,2.85.36,4.31l25.39-2.45c.26,0,.51-.1.77-.12.87-.1,1.45-.47,1.45-1.45.05-4.53.92-9,.41-13.58a13.6,13.6,0,0,0,.17-1.55c.28-22.08.63-44.17.16-66.26,0-.65-.08-1.3-.06-1.95,0-1.35-.67-1.84-1.93-1.83A42.68,42.68,0,0,0,418.37,490.13Zm-94.74-22.87c-3.44.59-5.08,2.95-5.67,6.1a53.26,53.26,0,0,0-.85,7.33c-.67,13.87-1.26,27.74-1.89,41.6-.15,3.24-.89,3.24,3.07,4.64q22,7.74,44,15.57c3.52,1.25,7.07,2.45,11,3.82.21-4.46.48-8.58.58-12.7.3-12.71.52-25.42.8-38.13a30,30,0,0,1,3.08-13.14c2.86-3.85,6.77-6.31,11.75-8.21-1.78-.53-3-.91-4.16-1.23-7.4-1.93-14.9-3.58-22.2-5.83a66.75,66.75,0,0,0-22.71-2.54C334.74,464.78,329,465,323.63,467.26Zm62.77,17.41a2.76,2.76,0,0,0-1.42,1.25c-2,2.63-2.36,5.74-2.45,8.86-.34,12.32-.56,24.65-.89,37-.16,6.1-.42,12.19-.71,18.29-.22,4.62-2.62,6-6.66,3.94a31,31,0,0,0-3.57-1.5L312.77,532c-4.55-1.61-4.72-1.86-4.65-6.69.19-12.72.4-25.44.53-38.16.07-7.5,0-15,2.94-22.11a28.53,28.53,0,0,0,5-4.61c-2.54.27-4.44.43-6.34.68-2.76.37-5.62.42-7.9,2.38-2.28.48-1.59,2.39-1.71,3.79-1,12.7-.89,25.45-1.21,38.18s-.2,25.22-.38,37.83c0,2,.57,3.06,2.47,3.73,2.93,1,5.74,2.42,8.67,3.49,3.44,1.26,3.75,1.54,3.79,5.3s0,7.54.06,11.31-.44,3.4,3.49,4.94c18.6,7.3,37.23,14.56,55.81,21.93,6,2.38,5.1,1.58,5.1-3.57,0-4,.74-8.06-.33-12-.52-1.92-.54-3.59,1-5s3.33-1,5.1-.38c2.52.9,4.88,2.25,7.58,2.66a15.33,15.33,0,0,0,.46-4.82q1.05-33.52,2.06-67c.16-5.23.77-10.36,3.26-15.08,4.17-5.29,10.21-6.05,16.45-6.59-2.67-1.76-3.43-2.08-5.75-2.15a55.1,55.1,0,0,0-13.14.82C392,481.49,388.76,482.17,386.4,484.67Zm-1.94,97.39c0,3.84,0,6.94,0,10,0,2.57.06,2.64,2.64,2.42,6.46-.54,12.93-1.09,19.38-1.73,5.82-.58,5.94-.79,5.43-6.49,0-.26,0-.52-.05-.78a1.11,1.11,0,0,0-1.31-1.08c-4,.27-8.09.19-11.87,1.55a6.53,6.53,0,0,1-5.19-.14C390.76,584.67,388,583.54,384.46,582.06Z"/><path class="cls-4" d="M329.65,382.92c0,16.57-12.54,31-29.32,33.87a37.57,37.57,0,0,1-25.9-4.47c-23.18-13.43-23.17-45.36,0-58.81,16.05-9.32,36.85-5.5,48.11,8.86A32.14,32.14,0,0,1,329.65,382.92ZM277.14,359l.14-.1a2,2,0,0,0-1.58,1l.05,0a1.37,1.37,0,0,0-1.12.77c-8.18,5.17-14,17.14-10.89,29,5.21,19.79,30.21,28.56,47.1,16.53.49-.14.93-.33,1.06-.9l0,.2c8.19-5.69,12.36-13.66,11.9-23.49-1.11-23.69-28.24-33.89-45.11-23.78l.13-.12A2,2,0,0,0,277.14,359Z"/><path class="cls-4" d="M481.58,392.63c14.21,0,26,10.84,26.43,24.31.49,14.59-12.23,26.62-27.46,26-14-.6-25.16-11.28-25.47-24.46C454.74,404.3,466.74,392.62,481.58,392.63Zm16.71,36-.1.11c4.17-4.9,4.9-10.58,3-16.44-4.93-15.41-24.49-17.33-33.13-8.84-5.2,3.89-7.37,9.2-7,15.55.44,7.67,5.8,14.26,13.5,16.87A20.8,20.8,0,0,0,497.16,430,1.84,1.84,0,0,0,498.29,428.67Z"/><path class="cls-4" d="M417.32,307a21,21,0,0,1-15.76-6.46,19.33,19.33,0,0,1,.88-27.87,21.62,21.62,0,0,1,28.51-.56c6.26,5.41,8.49,12.29,6.26,20.34A20.33,20.33,0,0,1,420,306.84C419,307,418,307,417.32,307Zm12.83-13.36c2-2.5,2.3-5.39,1.86-8.4a14.41,14.41,0,0,0-12.38-12.07c-7.35-1.05-13.35,2.1-16.48,8.64-3.41,7.17.72,14.8,7,17.8A15.25,15.25,0,0,0,430.15,293.66Z"/><path class="cls-4" d="M797.47,404c12.67.12,21.6,11.78,17.84,23.33-2.9,8.91-12.45,14.19-22.07,12.19-9.46-2-15.6-10.09-14.71-19.49C779.39,411,787.7,404,797.47,404ZM808.35,428c2-2.37,2.26-5.14,1.73-8-.91-5-4.85-8.77-10.25-9.88A13,13,0,0,0,786.17,416a9.89,9.89,0,0,0-1.53,8.81,11.93,11.93,0,0,0,10.1,9C800.38,434.78,805.26,433.31,808.35,428Z"/><path class="cls-4" d="M238.56,525.05c10.6.07,18.77,8.13,18.59,18.35-.17,10-9.17,18-19.52,17.51-10.59-.54-18.58-9-18-19C220.08,532.42,228.46,525,238.56,525.05Zm-11.42,12.34a1,1,0,0,0-.53,1.08,8.16,8.16,0,0,0-1,5.94,11.52,11.52,0,0,0,9,10c5.32,1.4,10.26.52,13.84-4.24,3.37-4.13,3.92-8.6,1.37-12.88-5.65-9.51-19.13-7.77-22.81.11Z"/><path class="cls-5" d="M834.6,757.57c0,5.47-1,10.84-1.46,16.27-.14,1.67-1.43,2-2.59,2.53-8.08,3.59-16.32,6.75-24.67,9.62A437.07,437.07,0,0,1,728,804.58c-36.88,5.51-74,6.86-111.17,5.22a729.19,729.19,0,0,1-151.93-22.63c-.5-.13-1-.29-1.49-.44-2.5-.75-2.6-.8-1.46-3.07,3.71-7.44,7.58-14.8,11.23-22.27,1-2,2.62-2.3,4.37-2.71,14.65-3.45,29.33-6.81,44-10.34,16.15-3.91,32.26-8,48.38-12a28.15,28.15,0,0,0,6.59-2.35,11.63,11.63,0,0,0,5-4.76,8,8,0,0,0-2-10.5,22.21,22.21,0,0,0-5.36-3.15,66.73,66.73,0,0,0-11.37-4,6.61,6.61,0,0,1-5-4.22c-1.94-4.67-4.34-9.15-6.39-13.78a6.05,6.05,0,0,0-3.84-3.54c-7.79-2.65-14.93-6.66-21.94-10.88-1-.61-2.59-.91-1.6-2.83,1.31-2.55,1.92-3.09,4-2.52a21,21,0,0,0,5,.94,2.37,2.37,0,0,0,2.29-1.22,2.4,2.4,0,0,0-.38-2.89,21.8,21.8,0,0,0-6.15-4.72,141.66,141.66,0,0,1-13.68-8.23,65.1,65.1,0,0,1-13.28-12,55.22,55.22,0,0,1-4.07-5.7c-3-4.88-2.84-5.88,1.33-10,3.35-3.32,7.34-5.77,11.26-8.33a3.58,3.58,0,0,1,3.65-.22c5.77,2.35,11.72,4.21,17.65,6.12-.15,1.54-1.6,1.84-2.54,2.59-2.07,1.65-4.22,3.2-6.33,4.78-1.9-.43-3.78-1-5.69-1.26s-3.48.16-4.13,2.08.36,3.32,2,4.18a33.84,33.84,0,0,0,5,2.2A244.33,244.33,0,0,0,574,654a317.59,317.59,0,0,0,130.58-14.36c6.3-2.15,12.9-2.87,19.32-4.42,26.52-6.4,51.89-15.65,75.09-30.26,4.49-2.83,8.8-5.94,13.19-8.92,1,1.07.71,2.43.74,3.69.07,2.71.06,5.43.09,8.14-2.33,5-5.68,9.25-8.79,13.7a17.12,17.12,0,0,0-2.64,4.74,2.6,2.6,0,0,0,.44,2.9c1,1,2.14.66,3.24.12a9.5,9.5,0,0,0,3-2.43c9.45-11.24,17.11-23.46,20.62-37.93a32.4,32.4,0,0,0,1.24-7.67,8.69,8.69,0,0,1,2.22-5.61,80.91,80.91,0,0,0,16.88-37.56,17.88,17.88,0,0,0,.42-3.47c-.26-6,3.83-9.82,7.43-14.1.24,1.72.43,3.45.73,5.16,2.5,13.91,9.19,25.79,17.87,36.69a55.36,55.36,0,0,0,34.58,20.72,4.57,4.57,0,0,1,1,.47c-3.47,10.58-9.07,20-15.72,28.83-2.48,3.3-6,5.76-7.72,9.63l.06-.09-1.3.82c.22.91-.6,1-1.08,1.29-21.09,12.08-43.41,20.89-67.35,25.42a37.4,37.4,0,0,0-5.65,1.43c-2.11.76-3.11,2.44-2.76,4.16.41,1.95,1.87,2.76,3.67,2.9s3.35,0,5,0c1.62,5.31,3.38,10.59,4.77,16a275.51,275.51,0,0,1,6.24,32.32c1.29,9.61,2.46,19.22,3.15,28.89.24,3.35.25,6.75.82,10C834.13,749.35,833.51,753.54,834.6,757.57ZM635.21,688.89A283.27,283.27,0,0,0,719,676.77c13.33-4,26.26-9,38.17-16.34,1.21-.74,3.45-1.34,2.5-3.28s-2.78-.53-4.12-.06q-10.49,3.64-20.9,7.44c-32.35,11.71-65.76,16.94-100.1,16.67a291.44,291.44,0,0,1-54.14-5.7,18.88,18.88,0,0,0-6.57-.35,2.79,2.79,0,0,0-2.63,2,2.87,2.87,0,0,0,1.52,3.27,18.44,18.44,0,0,0,6.52,2.46A292.89,292.89,0,0,0,635.21,688.89Z"/><path class="cls-6" d="M518.26,613.79c-13.53-5.16-26.41-11.53-37.63-20.84-9.9-8.22-17.49-18.07-20.92-30.72-3.67-13.55-1.88-26.49,4.46-38.9,5.22-10.22,12.66-18.66,21.27-26.12,14.27-12.37,30.59-21.37,47.89-28.69,21-8.89,42.87-14.81,65.27-18.88.77-.14,1.56-.16,2.31-.36,1.51-.41,2.05.25,2.34,1.67,1,4.71,2,9.39,3.06,14.08a16.36,16.36,0,0,0,.68,2.63,3.37,3.37,0,0,0,4.36,2.2,3.29,3.29,0,0,0,2.5-3.84c-.39-2.57-1-5.09-1.57-7.63Q598.11,393,583.93,327.55c-.25-1.13-.37-2.28-.56-3.52a8.27,8.27,0,0,1,5-.15,15,15,0,0,0,.14,2.33c2.13,9.85,4.25,19.71,6.46,29.55,3.17,14.13,6.45,28.23,9.63,42.36,5,22.33,10,44.66,14.89,67a6.1,6.1,0,0,0,5.3,5.26c2.91.61,3.61,0,3-2.88-1.67-7.57-3.4-15.13-5.08-22.71-3.43-15.53-6.74-31.08-10.29-46.58-3.07-13.36-6.51-26.64-9.58-40a123,123,0,0,1-3.52-25.7,69,69,0,0,1,.61-11.22,11.47,11.47,0,0,0,1.15-1c1.72-2.1,1.36-3.49-1.11-4.35a15.19,15.19,0,0,0-5-.54c-5.45,0-10.91.15-16.33-.73-7.1-1.14-14-2.88-20.33-6.38-9.88-5.47-11.77-15.28-4.66-24.15a33.84,33.84,0,0,1,10.6-8.45c8.08-4.39,16.83-6.8,25.79-8.48a150.46,150.46,0,0,1,38-2.5,69.75,69.75,0,0,1,18.25,3.71c15.55,5.39,15.57,24.11,4.76,32.22a41.92,41.92,0,0,1-14.7,6.9c-1.38.37-2.81.57-4.16,1a4.28,4.28,0,0,0-3,4.83,4.22,4.22,0,0,0,4.63,3.31c.88,0,1.75-.22,2.93-.38,1.31,6.74,2.63,13.35,3.9,20q10.32,54,20.62,107.92c.68,3.57,1.3,7.16,2.13,10.7A3.76,3.76,0,0,0,668,458c2.13-.5,3.23-2.28,2.92-4.78-.06-.51-.24-1-.34-1.52-.53-2.93-1-5.85-1.56-8.66a3.2,3.2,0,0,1,2.41-.55c28.27-.16,56.34,1.9,84,7.95,16.92,3.69,33.34,8.92,48.75,17a102.28,102.28,0,0,1,19.7,13.2c9.65,8.33,15.22,18.72,17.21,31.39,4.1,26-3.9,47.91-22,66.49-11.46,11.78-25,20.67-39.63,27.94a253.58,253.58,0,0,1-84.72,25c-28,3.17-56,3-84.06.89a421.83,421.83,0,0,1-52.84-7.25c-1-.21-2-.51-3-.77l.06-1.35a8,8,0,0,0,3.57-.47,35.53,35.53,0,0,1,4.26.43,281.59,281.59,0,0,0,45.68,5.8c9.64.45,19.32,1.33,29.07.46,7.32-.65,14.76-.17,22.11-1,3.57-.4,7.21-.21,10.68-1.34,3.11-.28,6.21-.62,9.31-.84A255.09,255.09,0,0,0,750.4,610.4c17.61-6.53,34.31-14.79,49.12-26.52a91.81,91.81,0,0,0,21-22.84,62.26,62.26,0,0,0,9.43-41.33c-.86-7.64-2.54-15.11-6.63-21.82a7.17,7.17,0,0,0-2.62-2.76c-6.7-3.77-13.94-5.35-22.09-5.58,1.57,2.42.65,3.75-1.37,4.65a5.8,5.8,0,0,0-1.19,1c-.91.49-1.85.93-2.71,1.48-9.06,5.71-18.43,10.89-28,15.8-2.81,1.45-2.81,1.41-4.42-1.19-1.76-2.83-3.17-5.9-5.61-8.28-2.72-5.07-2.73-5.1-7.86-3.66a218.5,218.5,0,0,1-46.73,7.8,230.74,230.74,0,0,1-94-14.14c-13.58-5-26.95-10.6-41.19-13.58a3.19,3.19,0,0,1,.32-1.11c4.55-5.81,9.07-11.63,14.81-16.39,1.91-1.59,4.18-2.82,5.72-5.05a6.24,6.24,0,0,0-3.69.17c-3.75,1-7.55,1.77-11.29,2.77a222.11,222.11,0,0,0-43.35,16.92,175.16,175.16,0,0,0-22.84,14c-12.54,9-23.85,19.17-31.58,32.74-6.21,10.9-9.65,22.41-7.87,35.28a49,49,0,0,0,13.5,27.78c8.34,8.78,18.44,15.06,29.38,20,2.55,1.15,5,2.87,7.93,3l1.76,3C518.35,612.92,518.3,613.35,518.26,613.79Zm66.3-316.5c7.12.51,14.21,1.27,21.37.23,10.15-1.47,19.73-4.41,28.37-10.09a34.67,34.67,0,0,0,9.3-8.77c.72-1,1-2.15.07-3.21a2.35,2.35,0,0,0-3.19-.25c-1.68,1-3.36,2-4.94,3.12a6.12,6.12,0,0,1-5.8.8c-15.11-4.23-30-3.21-43.92,4-4.94,2.53-9.11,3.79-14.43,1.42-3.69-1.64-5.55.05-6.24,4.31a13.82,13.82,0,0,0-8,5.18,5.77,5.77,0,0,0-.83,6.51c1.74,3.93,5.22,5.58,8.84,7,6.2,2.48,12.77,2.93,19.36,3.09,1.43,0,3.05.54,4.3-.59a3.14,3.14,0,0,0-1.34-2,8.6,8.6,0,0,1-3-8C584.58,299.11,584.54,298.2,584.56,297.29Zm51.63,186.55c1.43,0,2.86.09,4.27,0,6.42-.51,12.51-2.07,17.95-5.67a11.2,11.2,0,0,0,3.82-3.8,2,2,0,0,0,0-2.53,1.84,1.84,0,0,0-2.17-.3c-1.56.61-3.1,1.31-4.6,2.07A41.82,41.82,0,0,1,633,478.31c-3.73-.32-7.42-1.17-11.12-1.76-1-.17-2-.35-3.07-.43a1.95,1.95,0,0,0-1.27,3.63,13.67,13.67,0,0,0,3.8,1.9A41.25,41.25,0,0,0,636.19,483.84Z"/><path class="cls-7" d="M558.45,622.47a8,8,0,0,1-3.57.47c-3.33-.67-6.66-1.36-10-2-.75-.14-1.58-.18-1.35,1h0c.51-.61.54-1.21-.27-1.49-1.22-.4-2.48-.67-3.72-1-7.19-1.94-14.39-3.85-21.19-7l-1.76-3c-.29-2.6-1.82-4-4.15-5.07A97.13,97.13,0,0,1,497,595.54a66.93,66.93,0,0,1-16.79-16.1c-9-12.73-11.84-26.65-7.59-41.78,2.91-10.38,8.79-19,16.16-26.74,13.06-13.62,29-23.05,46-30.81a15.24,15.24,0,0,1,3.38-.86c9.17-1.86,18.34-1.39,27.49.17,14.24,3,27.61,8.58,41.19,13.58a230.74,230.74,0,0,0,94,14.14,218.5,218.5,0,0,0,46.73-7.8c5.13-1.44,5.14-1.41,7.86,3.66a239.33,239.33,0,0,1-50.08,9.25,245.37,245.37,0,0,1-56-2.23,253.83,253.83,0,0,1-52.78-14.73c-10.4-4.06-20.84-8-31.85-10.19a65.6,65.6,0,0,0-25.17-.43c-5.87,1.13-8.56,5.16-7.58,11.05a21.5,21.5,0,0,0,3.9,8.83,43.3,43.3,0,0,0,12.52,11.56,154.4,154.4,0,0,0,40.57,17.7A313.11,313.11,0,0,0,702.28,544.9a305.08,305.08,0,0,0,67.09-13.34,12.19,12.19,0,0,1,1.32,5.12c-.75.21-1.5.39-2.24.63a307.57,307.57,0,0,1-63.21,12.74,289.46,289.46,0,0,1-51.33.29c-20.62-1.66-41-4.76-60.92-10.31-16.69-4.65-32.73-10.87-47.42-20.24A45.55,45.55,0,0,1,531,505.44a22,22,0,0,1-3.72-12.11c0-1,.53-2-.24-3.06-14,7.39-27,16.07-37.37,28.23a60.84,60.84,0,0,0-8.56,13c-4.49,9.32-6,19-3.36,29.16,1.79,7,4.67,13.4,10.1,18.4l.33.61c.06-.17.2-.36.17-.5s-.32-.28-.57,0c.78-.5.29-1.13.12-1.69-.62-2.11-1.3-4.22-1.92-6.33a112.06,112.06,0,0,1-3.39-16.4c-.46-3.32,1.67-4.9,4.79-3.68,1.56.61,3,1.47,4.57,2.16,3.16,1.42,6.17,3.21,9.68,4.07a9.36,9.36,0,0,0-.17-3.61c-.49-4.79-1-9.57-1.42-14.36-.3-3.86,1.7-5.29,5.25-4,1.7.64,3.39,1.31,5.11,1.88a232.46,232.46,0,0,0,26.31,7c4.48.93,4.44,1,5.25,5.4,1.18,6.39,2.45,12.76,3.57,19.15a2.77,2.77,0,0,0,2.71,2.68c2.44.32,4.85.94,7.28,1.31,4.24.63,8.5,1.15,12.74,1.76,3,.43,4.34,1.44,4.13,3.68-.31,3.48.63,6.72,1.37,10,1.11,4.92,1.85,10,4.33,14.49.9,1.62,1.42,3,.44,4.69s-2.76,1.71-4.49,1.46c-5-.72-10-1.47-15-2.18-1-.14-2-.71-3,.16.19.75.44,1.49.57,2.26.48,2.92,2.11,4.18,5.12,4.75a408.07,408.07,0,0,0,40.89,5.68,496.94,496.94,0,0,0,68.92,1,260.12,260.12,0,0,0,77.18-15.71c17.14-6.35,33.4-14.33,47.79-25.78a87.31,87.31,0,0,0,17.68-18.58A57.43,57.43,0,0,0,824.51,521,45.82,45.82,0,0,0,822,508.85c-3.71,4.7-7.7,8.52-12.87,10.89-.22-1.83-.91-3.6-.66-5.49,3.79-2.31,7.15-5.1,9.34-9,1.92-3.44,1.64-4.32-1.83-6a47.09,47.09,0,0,0-5.39-2.12c-4.71-1.58-9.62-1.67-14.51-1.92a5.8,5.8,0,0,1,1.19-1c2-.9,2.94-2.23,1.37-4.65,8.15.23,15.39,1.81,22.09,5.58a7.17,7.17,0,0,1,2.62,2.76c4.09,6.71,5.77,14.18,6.63,21.82A62.26,62.26,0,0,1,820.5,561a91.81,91.81,0,0,1-21,22.84c-14.81,11.73-31.51,20-49.12,26.52A255.09,255.09,0,0,1,679.56,626c-3.1.22-6.2.56-9.31.84-1.16,0-2.32-.08-3.48,0a437,437,0,0,1-103.53-6.6C560.66,619.72,559.44,620.43,558.45,622.47Zm-50.72-74.24c0,.51,0,1,.07,1.55.55,3.72,1.13,7.44,1.68,11.17.24,1.67.62,3.41-1,4.69s-3.14.75-4.75,0q-3.7-1.71-7.49-3.29c-2-.82-3.76-2.16-6-2.4a5,5,0,0,0,.12,3.24c1.16,4.8,2.67,9.49,4.3,14.16a6.58,6.58,0,0,0,3.8,4.07,121.59,121.59,0,0,0,14.41,5.88,6.12,6.12,0,0,1,4.41,4.38c1.42,4.46,3.35,8.72,5.18,13a6.49,6.49,0,0,0,4.36,4A192.19,192.19,0,0,0,548.42,614c.59.12,1.28.34,1.79-.57-1.12-3.59-2.39-7.27-3.39-11-.77-2.87,1-4.85,3.95-4.69a23,23,0,0,1,2.28.45c4.22.68,8.37,1.87,12.68,2a8.57,8.57,0,0,0,5,.64c-1.3-5.89-2.6-11.55-3.77-17.24-.33-1.6-1.22-2-2.68-2.16-7-.8-13.83-2.21-20.72-3.44-2.74-.5-4-1.76-4.55-4.42-1.35-6.35-2.6-12.72-3.46-19.15-.3-2.23-.85-3.35-3.31-3.85a150.53,150.53,0,0,1-23.85-7c-.31-.12-.74-.38-1.11.4A11,11,0,0,0,507.73,548.23Zm-8.49,40.89a41.85,41.85,0,0,0,12.17,8.09c0-1.9-.22-3.22-1.55-3.79C506.35,591.92,502.79,590.54,499.24,589.12Z"/><path class="cls-8" d="M446.57,739.35l-21.5-9.59q-36.45-16.25-72.9-32.52c-2.84-1.27-5.61-2.72-8.39-4.11-3.7-1.85-6.51-.41-6.87,3.72-.28,3.23-.22,6.49-.4,9.74-.13,2.45-.36,2.58-2.85,2.28A35.6,35.6,0,0,1,323,705.31a57.41,57.41,0,0,1-10.54-5.85c-1.94-1.48-2.07-2-.53-3.78a96.54,96.54,0,0,1,7.14-7.71c3.77-3.59,3.21-6.34-1.62-8.28q-39.18-15.8-78.66-30.83a13.52,13.52,0,0,1-1.46-.83L248,636.2a2.81,2.81,0,0,1,2.45-.9c18,1.23,36.1,1.86,53.4,7.86A56.51,56.51,0,0,1,318,650.32c10.06,7.13,14.32,17.1,14.3,29.18a6.89,6.89,0,0,1-1.31,4,35.77,35.77,0,0,0-4.12,7.93,8.91,8.91,0,0,0-.43,5.36c.66,2.52,2.8,3.08,4.74,1.33a12.12,12.12,0,0,0,2.85-4.16c3.94-8.82,11.29-14,19.41-18.41,2-1.1,4.27-1.07,6.46-1.07a71,71,0,0,1,22.9,4.1,140.29,140.29,0,0,1,23.68,10.85c8.26,4.67,16,10.17,24,15.23,8.74,5.52,14,13,14.92,23.32C445.77,731.56,446.77,735.09,446.57,739.35Z"/><path class="cls-6" d="M373.3,668.26c30.21-7.46,60.62-10.75,91.56-7.18a83.34,83.34,0,0,1,28,8.9c6.26,3.15,12.25,6.77,18.23,10.42,6.2,3.79,12.41,7.57,18.88,10.89.66.34,1.49.52,1.76,1.58-9,1.5-17.89,3-26.84,4.49-18.69,3-37.35,6.24-55.95,9.81a4.68,4.68,0,0,1-5-1.67,23.62,23.62,0,0,0-3.79-3.34c-14.33-10.36-29.2-19.82-45.55-26.73a94.83,94.83,0,0,0-19.27-6A2.58,2.58,0,0,1,373.3,668.26Z"/><path class="cls-6" d="M339.79,674.34c-.47-2.89-.74-5.35-1.27-7.75-2.1-9.41-7.33-16.78-15-22.5s-16.38-8.83-25.47-11.18c-1.49-.39-3-.73-4.95-1.21a7.87,7.87,0,0,1,3.89-.76c25.69-.9,51.38-1.71,77,.51,12.17,1,24.18,3.17,35.64,7.66a55,55,0,0,1,14.54,8.14,18.38,18.38,0,0,1,3.53,3.39c-.29,1-1,.85-1.62.88a296.26,296.26,0,0,0-56.76,9.11A83.19,83.19,0,0,0,339.79,674.34Z"/><path class="cls-8" d="M450.48,715.13c1-1,2.28-.93,3.4-1.13l87.48-15.18c3.11-.54,3.14-.58,4.42,2.11,2.82,6,5.61,11.93,8.56,18.23-5.42,1.14-10.45,2.22-15.5,3.24-25.44,5.13-50.8,10.72-76.34,15.38l-2.29.42c-5.14.86-5.18.86-5.79-4.17A97.37,97.37,0,0,0,450.48,715.13Z"/><path class="cls-9" d="M446.47,755.38c-3.39.36-6.38-1.06-9.3-2.4-12-5.52-24-11.19-36-16.75-7.42-3.44-14.89-6.78-22.33-10.18-1.64-.75-3.41-1.28-4.68-2.71a1.94,1.94,0,0,0-.95-.64c-7-1.43-12.89-5.38-19.39-7.93-.36-.14-.72-.3-1.09-.43-1.56-.53-2.89-.22-3.59,1.34a2.66,2.66,0,0,0,1.25,3.67c2.4,1.3,4.87,2.45,7.3,3.68,1.13.58,2.24,1.19,4,2.12-6.78,2.27-12.92,4.24-19.39,2.11-13.31-4.38-26.71-8.57-39-15.45a40.76,40.76,0,0,1-5.54-3.6c-3.49-2.79-3.63-4.85-.77-8.16a32.27,32.27,0,0,1,2.46-2.5c4-3.75,3.66-5.91-1.48-8.16-8.09-3.53-16.23-6.95-24.28-10.56-13.51-6.06-27.43-11.13-41-17a106,106,0,0,1-11.5-5.71c-3.34-2-3.52-2.52-2.35-6.33.36-1.18.42-2.55,2.06-3.63-.21,4.12,2.46,5.26,5.47,6.44q39.75,15.45,79.41,31.09c1.41.55,2.79,1.19,4.45,1.9-1.62,1.94-3.1,3.55-4.4,5.31-4.27,5.75-3.81,10.61,1.91,14.82a66.43,66.43,0,0,0,23.41,11.16,19,19,0,0,0,6.2.35c3.79-.31,6.29-2.4,7.06-6.14.52-2.53.68-5.13,1-7.77,1.72-.38,3,.68,4.37,1.28q43.57,19.41,87.13,38.89c3.28,1.47,6.87,2.37,9.64,4.88C447.69,750.68,446.78,753,446.47,755.38Z"/><path class="cls-10" d="M916.73,575.86c-13.87-1-25.69-6.64-34.84-17.66a2.36,2.36,0,0,1-.16-3.38,86.59,86.59,0,0,0,8-14.22,2.91,2.91,0,0,1,3.23-2.08c9.69.61,18.82-1.68,27.55-5.69,1.71-.79,2.73-.72,3.9.92,5.79,8.16,9.91,16.94,11.43,27,.84,5.58-1.07,9.26-5.75,11.94C926.06,575,921.63,575.73,916.73,575.86Z"/><path class="cls-11" d="M599.91,321.31a69,69,0,0,0-.61,11.22,123,123,0,0,0,3.52,25.7c3.07,13.36,6.51,26.64,9.58,40,3.55,15.5,6.86,31,10.29,46.58,1.68,7.58,3.41,15.14,5.08,22.71.64,2.88-.06,3.49-3,2.88a6.1,6.1,0,0,1-5.3-5.26c-4.86-22.36-9.88-44.69-14.89-67-3.18-14.13-6.46-28.23-9.63-42.36-2.21-9.84-4.33-19.7-6.46-29.55a15,15,0,0,1-.14-2.33C592.25,323.14,596.25,323,599.91,321.31Z"/><path class="cls-12" d="M446.47,755.38c.31-2.35,1.22-4.7,0-7,4.23.35,8.22-1,12.29-1.77,32.69-5.9,65.1-13.22,97.7-19.63.89-.17,1.78-.36,2.67-.5,4-.61,4.57-1.13,5.53-5.44a25.27,25.27,0,0,1,9.59,4.16c-1.51,2.15-3.7,2.53-5.78,3.05-14,3.49-27.94,7-41.93,10.4-23.08,5.61-46.16,11.18-69.36,16.22C453.69,755.58,450.12,756.6,446.47,755.38Z"/><path class="cls-13" d="M909.17,500.51c-.49-.34-1-.66-1.47-1-5.64-4.26-6.85-9.63-2.6-15.21,7.7-10.1,17.92-15.11,30.84-13.64a14,14,0,0,1,5.84,2.05,2.87,2.87,0,0,1,1.26,4,2.76,2.76,0,0,1-3.62,1.28c-10.81-3.34-21.07-.25-28.26,8.41a10.11,10.11,0,0,0-.94,1.24c-1,1.56-2.07,3.17-.84,5a6.14,6.14,0,0,0,5.15,3,11.91,11.91,0,0,0,4.86-1.25A49,49,0,0,1,929,491.2a9.54,9.54,0,0,1,6.1.5,6,6,0,0,1,3.52,6.34c-.1.65-.21,1.31-1,1.52a1.41,1.41,0,0,1-1.71-.58c-1.94-3.2-4.77-2.57-7.59-1.73a43.87,43.87,0,0,0-5.1,1.88,30.65,30.65,0,0,1-9.8,2.81c1.73.94,3.07,1.61,4.35,2.37a1.35,1.35,0,0,1,.63,1.68,1.38,1.38,0,0,1-1.54.93c-1.94-.22-3.88-.42-5.79-.75a40,40,0,0,0-9.71-.43c-6.45.44-11,3.45-13,9.85a25.63,25.63,0,0,1-1.16,2.89,1.82,1.82,0,0,1-2.14,1.26c-.89-.2-1.15-.93-1.34-1.72a8.48,8.48,0,0,1,.39-4.61c2.41-7.54,7.9-11.29,15.47-12.35C902.68,500.62,905.79,500.89,909.17,500.51Z"/><path class="cls-10" d="M522.6,635c2.11-1.58,4.26-3.13,6.33-4.78.94-.75,2.39-1,2.54-2.59,25,7.24,50.58,11.35,76.66,13.43-2.92,1.82-35.8,4-43,3C550.76,642,536.49,639.39,522.6,635Z"/><path class="cls-13" d="M834.6,757.57c-1.09-4-.47-8.22-1.17-12.32-.57-3.28-.58-6.68-.82-10-.69-9.67-1.86-19.28-3.15-28.89A275.51,275.51,0,0,0,823.22,674c-1.39-5.39-3.15-10.67-4.77-16,1.65-.33,3.3-.69,5-1,3.9-.66,3.94-.65,4.74,3.4a375.55,375.55,0,0,1,7.25,87C835.28,750.85,834.87,754.21,834.6,757.57Z"/><path class="cls-6" d="M887.83,622.08c1.75-3.87,5.24-6.33,7.72-9.63,6.65-8.86,12.25-18.25,15.72-28.83,6.44.35,12.85.31,19.06-1.81.17.19.34.37.52.54-.62,2.32-2.13,4.14-3.5,6-10.5,14.22-24,25-39.14,33.82C888.13,622.21,888,622.11,887.83,622.08Z"/><path class="cls-13" d="M378.57,733.54c3.41,1,5.74,2.5,6.75,6,.76,2.64,3.11,4.4,5.44,5.9.88.56,1.82,1,2.66,1.62a2.61,2.61,0,0,1,.84,3.74A2.69,2.69,0,0,1,391,752.1C384.14,750.36,378,741.26,378.57,733.54Z"/><path class="cls-10" d="M499,663.05c1.14-.61,1.74-.87,2.27-1.23,2.61-1.77,4.78-1.34,7.23.7a69.21,69.21,0,0,0,9.06,6c1.59,1,1.86,1.8.93,3.41s-1.82,1.82-3.39.84C509.91,669.59,504.68,666.5,499,663.05Z"/><path class="cls-13" d="M813,607.89c0-2.71,0-5.43-.09-8.14,0-1.26.28-2.62-.74-3.69l9-8C821.46,592,817.42,601.66,813,607.89Z"/><path class="cls-10" d="M866.3,531.19c-1.66-5.37-2.63-9.93-1.8-14.75,1.41,3.14,2.74,6.28,4.13,9.38C869.46,527.66,867.6,529,866.3,531.19Z"/><path class="cls-9" d="M518.39,612.49c6.8,3.15,14,5.06,21.19,7,1.24.34,2.5.61,3.72,1,.81.28.78.88.27,1.49a229,229,0,0,1-22.19-6.79,11.12,11.12,0,0,1-3.12-1.41C518.3,613.35,518.35,612.92,518.39,612.49Z"/><path class="cls-13" d="M362.93,736.09a2.8,2.8,0,0,1-2.87,3,3.23,3.23,0,0,1-3.1-3.24c.21-2.41,2.58-1.61,3.93-2.07C362.81,733.13,362.35,735.28,362.93,736.09Z"/><path class="cls-12" d="M543.53,622c-.23-1.22.6-1.18,1.35-1,3.34.64,6.67,1.33,10,2l-.06,1.35C550.93,624.13,547.33,622.55,543.53,622Z"/><path class="cls-6" d="M930.33,581.81c.25-.23.58-.47.85-.17s0,.57-.33.71C930.67,582.18,930.5,582,930.33,581.81Z"/><path class="cls-6" d="M886.59,622.81l1.3-.82C887.83,622.86,887.28,622.94,886.59,622.81Z"/><path class="cls-14" d="M311.59,465.06c-2.92,7.11-2.87,14.61-2.94,22.11-.13,12.72-.34,25.44-.53,38.16-.07,4.83.1,5.08,4.65,6.69l57.93,20.46a31,31,0,0,1,3.57,1.5c4,2,6.44.68,6.66-3.94.29-6.1.55-12.19.71-18.29.33-12.32.55-24.65.89-37,.09-3.12.48-6.23,2.45-8.86a2.76,2.76,0,0,1,1.42-1.25,64,64,0,0,0,11.13,4.09c-2.49,4.72-3.1,9.85-3.26,15.08q-1,33.53-2.06,67a15.33,15.33,0,0,1-.46,4.82c-2.7-.41-5.06-1.76-7.58-2.66-1.77-.64-3.52-1.11-5.1.38s-1.49,3.09-1,5c1.07,4,.33,8,.33,12,0,5.15.92,5.95-5.1,3.57-18.58-7.37-37.21-14.63-55.81-21.93-3.93-1.54-3.46-1-3.49-4.94s0-7.54-.06-11.31-.35-4-3.79-5.3c-2.93-1.07-5.74-2.45-8.67-3.49-1.9-.67-2.49-1.75-2.47-3.73.18-12.61.08-25.22.38-37.83s.19-25.48,1.21-38.18c.12-1.4-.57-3.31,1.7-3.79C305.51,463.46,308.51,464.53,311.59,465.06Z"/><path class="cls-15" d="M377.75,482.35a30,30,0,0,0-3.08,13.14c-.28,12.71-.5,25.42-.8,38.13-.1,4.12-.37,8.24-.58,12.7-4-1.37-7.51-2.57-11-3.82q-22-7.79-44-15.57c-4-1.4-3.22-1.4-3.07-4.64.63-13.86,1.22-27.73,1.89-41.6a53.26,53.26,0,0,1,.85-7.33c.59-3.15,2.23-5.51,5.67-6.1,1.37.36,2.74.75,4.12,1.08C344.58,472.42,361.28,477,377.75,482.35Z"/><path class="cls-8" d="M428.17,561.2c.51,4.55-.36,9-.41,13.58,0,1-.58,1.35-1.45,1.45-.26,0-.51.09-.77.12l-25.39,2.45c-.7-1.46-.42-2.91-.36-4.31,1-24.37,2-48.75,3.13-73.12.4-8.44,1.7-9.67,10-10.91a22.85,22.85,0,0,1,5.42-.33c-.13,1.62.65,3,1.15,4.48a76.21,76.21,0,0,1,2.75,10.48,261.65,261.65,0,0,1,4.07,40.39c.18,5.28.77,10.56.68,15.87,0,.12,0,.31.07.36C427.76,562.22,427.72,561.18,428.17,561.2Z"/><path class="cls-13" d="M377.75,482.35c-16.47-5.38-33.17-9.93-50-14-1.38-.33-2.75-.72-4.12-1.08,5.38-2.23,11.11-2.48,16.8-2.72a66.75,66.75,0,0,1,22.71,2.54c7.3,2.25,14.8,3.9,22.2,5.83,1.2.32,2.38.7,4.16,1.23C384.52,476,380.61,478.5,377.75,482.35Z"/><path class="cls-6" d="M428.17,561.2c-.45,0-.41,1-1.08.51-.07-.05-.07-.24-.07-.36.09-5.31-.5-10.59-.68-15.87a261.65,261.65,0,0,0-4.07-40.39,76.21,76.21,0,0,0-2.75-10.48c-.5-1.46-1.28-2.86-1.15-4.48a42.68,42.68,0,0,1,8.14-.52c1.26,0,2,.48,1.93,1.83,0,.65.05,1.3.06,1.95.47,22.09.12,44.18-.16,66.26A13.6,13.6,0,0,1,428.17,561.2Z"/><path class="cls-8" d="M384.46,582.06c3.55,1.48,6.3,2.61,9,3.78a6.53,6.53,0,0,0,5.19.14c3.78-1.36,7.87-1.28,11.87-1.55a1.11,1.11,0,0,1,1.31,1.08c0,.26,0,.52.05.78.51,5.7.39,5.91-5.43,6.49-6.45.64-12.92,1.19-19.38,1.73-2.58.22-2.62.15-2.64-2.42C384.44,589,384.46,585.9,384.46,582.06Z"/><path class="cls-13" d="M397.53,488.76a64,64,0,0,1-11.13-4.09c2.36-2.5,5.55-3.18,8.69-3.83a55.1,55.1,0,0,1,13.14-.82c2.32.07,3.08.39,5.75,2.15C407.74,482.71,401.7,483.47,397.53,488.76Z"/><path class="cls-13" d="M311.59,465.06c-3.08-.53-6.08-1.6-9.26-1.55,2.29-2,5.15-2,7.91-2.38,1.9-.25,3.8-.41,6.34-.68A28.53,28.53,0,0,1,311.59,465.06Z"/><path class="cls-16" d="M310.84,406.13c-16.89,12-41.89,3.26-47.1-16.53-3.11-11.86,2.71-23.83,10.9-29l1.11-.77-.05,0c.65-.13,1.34-.16,1.58-1l-.14.1c.74,0,1.45-.05,1.65-1l-.13.12a7.47,7.47,0,0,0,2.69-.1c3.84-1.72,7.87-1.37,11.88-1.35,4.75,0,8.59,2.21,12.29,5-.25.28-.32.41-.39.42a9,9,0,0,1-1.55.08c-3.56-.36-5.88,1.31-7.6,4.29-2.57,4.48-2.66,14.89,2.89,19.9,2.33,2.11,5.06,3.89,8.45,3,4.08-1,6.58-3.9,8.08-7.74.25-.63-.17-1.66,1-1.8.17.18.46.34.48.52.51,5.88.13,11.59-2.17,17.17-1.05,2.57-3.05,4.86-2.85,7.9l0-.19A1.2,1.2,0,0,0,310.84,406.13Z"/><path class="cls-6" d="M311.87,405.43c-.2-3,1.8-5.33,2.85-7.9,2.3-5.58,2.68-11.29,2.17-17.17,0-.18-.31-.34-.48-.52-1.18.14-.76,1.17-1,1.8-1.5,3.84-4,6.7-8.08,7.74-3.39.87-6.12-.91-8.45-3-5.55-5-5.46-15.42-2.89-19.9,1.72-3,4-4.65,7.6-4.29a9,9,0,0,0,1.55-.08c.07,0,.14-.14.39-.42-3.7-2.75-7.54-4.93-12.29-5-4,0-8-.37-11.88,1.35a7.47,7.47,0,0,1-2.69.1c16.87-10.11,44,.09,45.11,23.78C324.23,391.77,320.06,399.74,311.87,405.43Z"/><path class="cls-6" d="M277.28,358.9c-.24.8-.93.83-1.58,1A2,2,0,0,1,277.28,358.9Z"/><path class="cls-6" d="M278.79,358c-.2.91-.91,1-1.65,1A2,2,0,0,1,278.79,358Z"/><path class="cls-6" d="M310.84,406.13a1.2,1.2,0,0,1,1.05-.89C311.77,405.8,311.33,406,310.84,406.13Z"/><path class="cls-6" d="M275.75,359.83l-1.11.77A1.34,1.34,0,0,1,275.75,359.83Z"/><path class="cls-16" d="M497.16,430a20.8,20.8,0,0,1-22.59,5.88c-7.7-2.61-13.06-9.2-13.5-16.87-.36-6.35,1.81-11.66,7-15.55.89-.13,1.79-.19,2.66-.4a23.11,23.11,0,0,1,16.09,1.54c-3,1.74-5.95,2.92-7,6.54a11,11,0,0,0,1.53,9.57,8.38,8.38,0,0,0,5.58,3.87c4.72.85,7.59-2,10.5-5.68,1,3.7,0,6.84.73,9.84l.1-.11C497.35,428.66,497.29,429.38,497.16,430Z"/><path class="cls-6" d="M498.19,428.78c-.73-3,.26-6.14-.73-9.84-2.91,3.64-5.78,6.53-10.5,5.68a8.38,8.38,0,0,1-5.58-3.87,11,11,0,0,1-1.53-9.57c1-3.62,4-4.8,7-6.54a23.11,23.11,0,0,0-16.09-1.54c-.87.21-1.77.27-2.66.4,8.64-8.49,28.2-6.57,33.13,8.84C503.09,418.2,502.36,423.88,498.19,428.78Z"/><path class="cls-6" d="M497.16,430c.13-.66.19-1.38,1.13-1.37A1.84,1.84,0,0,1,497.16,430Z"/><path class="cls-16" d="M430.15,293.66a15.25,15.25,0,0,1-20,6c-6.23-3-10.36-10.63-7-17.8,2.38-1,4.17-3,6.64-3.88,3.75-1.33,7.45-1,11.15-.09-5.6,2.39-7.29,4.4-7.23,8.84a8.68,8.68,0,0,0,6.08,8.13c5.75,1.53,7.66-3,10.36-6.84Z"/><path class="cls-6" d="M430.15,293.66V288c-2.7,3.83-4.61,8.37-10.36,6.84a8.68,8.68,0,0,1-6.08-8.13c-.06-4.44,1.63-6.45,7.23-8.84-3.7-.88-7.4-1.24-11.15.09-2.47.87-4.26,2.88-6.64,3.88,3.13-6.54,9.13-9.69,16.48-8.64A14.41,14.41,0,0,1,432,285.26C432.45,288.27,432.13,291.16,430.15,293.66Z"/><path class="cls-16" d="M808.35,428c-3.09,5.32-8,6.79-13.61,5.85a11.93,11.93,0,0,1-10.1-9,9.89,9.89,0,0,1,1.53-8.81c2.34-.69,4.65-1.51,7-2,1.5-.33,3.2-.82,4.69.53-4.74,3.4-5.78,6.21-3.48,9.12a9.1,9.1,0,0,0,6.33,3.34c3.93.52,4.75-3.17,7.36-5.83C808.2,424,808.27,426,808.35,428Z"/><path class="cls-13" d="M808.35,428c-.08-2-.15-4-.25-6.87-2.61,2.66-3.43,6.35-7.36,5.83a9.1,9.1,0,0,1-6.33-3.34c-2.3-2.91-1.26-5.72,3.48-9.12-1.49-1.35-3.19-.86-4.69-.53-2.38.52-4.69,1.34-7,2a13,13,0,0,1,13.66-5.92c5.4,1.11,9.34,4.87,10.25,9.88C810.61,422.85,810.34,425.62,808.35,428Z"/><path class="cls-16" d="M248.47,550.17c-3.58,4.76-8.52,5.64-13.84,4.24a11.52,11.52,0,0,1-9-10,8.16,8.16,0,0,1,1-5.94,1,1,0,0,0,.53-1.08H227c1.15.47,1.89-.42,2.83-.77,3.51-1.33,7-3.24,10.91-.89-.73,1-1.87,1-2.75,1.41-2.67,1.41-4.29,4.89-3.38,7.12,1.16,2.8,5,4.52,8,3.84,2.28-.52,3.86-2,5.81-4Z"/><path class="cls-13" d="M248.47,550.17v-6.08c-1.95,2-3.53,3.5-5.81,4-3,.68-6.86-1-8-3.84-.91-2.23.71-5.71,3.38-7.12.88-.46,2-.41,2.75-1.41-3.89-2.35-7.4-.44-10.91.89-.94.35-1.68,1.24-2.83.77,3.68-7.88,17.16-9.62,22.81-.11C252.39,541.57,251.84,546,248.47,550.17Z"/><path class="cls-13" d="M227.14,537.39a1,1,0,0,1-.53,1.08A1,1,0,0,1,227.14,537.39Z"/><path class="cls-3" d="M635.21,688.89a292.89,292.89,0,0,1-56-6,18.44,18.44,0,0,1-6.52-2.46,2.87,2.87,0,0,1-1.52-3.27,2.79,2.79,0,0,1,2.63-2,18.88,18.88,0,0,1,6.57.35,291.44,291.44,0,0,0,54.14,5.7c34.34.27,67.75-5,100.1-16.67q10.42-3.78,20.9-7.44c1.34-.47,3.18-1.88,4.12.06s-1.29,2.54-2.5,3.28c-11.91,7.33-24.84,12.3-38.17,16.34A283.27,283.27,0,0,1,635.21,688.89Z"/><path class="cls-15" d="M796,495.19c4.89.25,9.8.34,14.51,1.92a47.09,47.09,0,0,1,5.39,2.12c3.47,1.67,3.75,2.55,1.83,6-2.19,3.93-5.55,6.72-9.34,9-.49-1.88-.95-3.76-1.47-5.63-1-3.4-1-3.41-4-1.9-4.18,2-8.32,4.18-12.52,6.18-6.89,3.28-13.82,6.47-20.72,9.71-2.52,1.18-2.51,1.19-1.73,3.74.52,1.72,1.41,3.34,1.41,5.21a305.08,305.08,0,0,1-67.09,13.34,313.11,313.11,0,0,1-113.36-11.09,154.4,154.4,0,0,1-40.57-17.7,43.3,43.3,0,0,1-12.52-11.56,21.5,21.5,0,0,1-3.9-8.83c-1-5.89,1.71-9.92,7.58-11.05a65.6,65.6,0,0,1,25.17.43c11,2.16,21.45,6.13,31.85,10.19A253.83,253.83,0,0,0,649.31,510a245.37,245.37,0,0,0,56,2.23A239.33,239.33,0,0,0,755.34,503c2.44,2.38,3.85,5.45,5.61,8.28,1.61,2.6,1.61,2.64,4.42,1.19,9.52-4.91,18.89-10.09,28-15.8C794.18,496.12,795.12,495.68,796,495.19Z"/><path class="cls-8" d="M565.59,479.42c-9.15-1.56-18.32-2-27.49-.17a15.24,15.24,0,0,0-3.38.86c-17,7.76-32.92,17.19-46,30.81-7.37,7.69-13.25,16.36-16.16,26.74-4.25,15.13-1.4,29.05,7.59,41.78A66.93,66.93,0,0,0,497,595.54a97.13,97.13,0,0,0,15.52,8.91c2.33,1.06,3.86,2.47,4.15,5.07-3-.14-5.38-1.86-7.93-3-10.94-4.94-21-11.22-29.38-20a49,49,0,0,1-13.5-27.78c-1.78-12.87,1.66-24.38,7.87-35.28,7.73-13.57,19-23.75,31.58-32.74a175.16,175.16,0,0,1,22.84-14,222.11,222.11,0,0,1,43.35-16.92c3.74-1,7.54-1.8,11.29-2.77a6.24,6.24,0,0,1,3.69-.17c-1.54,2.23-3.81,3.46-5.72,5.05-5.74,4.76-10.26,10.58-14.81,16.39A3.19,3.19,0,0,0,565.59,479.42Z"/><path class="cls-7" d="M565.15,288.81c.69-4.26,2.55-5.95,6.24-4.31,5.32,2.37,9.49,1.11,14.43-1.42,14-7.17,28.81-8.19,43.92-4a6.12,6.12,0,0,0,5.8-.8c1.58-1.13,3.26-2.14,4.94-3.12a2.35,2.35,0,0,1,3.19.25c1,1.06.65,2.2-.07,3.21a34.67,34.67,0,0,1-9.3,8.77c-8.64,5.68-18.22,8.62-28.37,10.09-7.16,1-14.25.28-21.37-.23-4.64-1.52-9.5-2.29-14-4.33C568.42,292,566.43,290.88,565.15,288.81Zm58.09-4.24c-9.08-3.43-29.29-.83-34.17,4.18A69.23,69.23,0,0,0,623.24,284.57Z"/><path class="cls-11" d="M565.15,288.81c1.28,2.07,3.27,3.17,5.42,4.15,4.49,2,9.35,2.81,14,4.33,0,.91,0,1.82-.08,2.72a8.6,8.6,0,0,0,3,8,3.14,3.14,0,0,1,1.34,2c-1.25,1.13-2.87.63-4.3.59-6.59-.16-13.16-.61-19.36-3.09-3.62-1.45-7.1-3.1-8.84-7a5.77,5.77,0,0,1,.83-6.51A13.82,13.82,0,0,1,565.15,288.81Z"/><path class="cls-4" d="M636.19,483.84a41.25,41.25,0,0,1-14.9-2.19,13.67,13.67,0,0,1-3.8-1.9,1.95,1.95,0,0,1,1.27-3.63c1,.08,2,.26,3.07.43,3.7.59,7.39,1.44,11.12,1.76a41.82,41.82,0,0,0,22.52-4.72c1.5-.76,3-1.46,4.6-2.07a1.84,1.84,0,0,1,2.17.3,2,2,0,0,1,0,2.53,11.2,11.2,0,0,1-3.82,3.8c-5.44,3.6-11.53,5.16-17.95,5.67C639.05,483.93,637.62,483.84,636.19,483.84Z"/><path class="cls-8" d="M558.45,622.47c1-2,2.21-2.75,4.79-2.26a437,437,0,0,0,103.53,6.6c1.16-.06,2.32,0,3.48,0-3.47,1.13-7.11.94-10.68,1.34-7.35.82-14.79.34-22.11,1-9.75.87-19.43,0-29.07-.46a281.59,281.59,0,0,1-45.68-5.8A35.53,35.53,0,0,0,558.45,622.47Z"/><path class="cls-16" d="M809.08,519.74c5.17-2.37,9.16-6.19,12.87-10.89A45.82,45.82,0,0,1,824.51,521a57.43,57.43,0,0,1-10.33,39.48A87.31,87.31,0,0,1,796.5,579c-14.39,11.45-30.65,19.43-47.79,25.78a260.12,260.12,0,0,1-77.18,15.71,496.94,496.94,0,0,1-68.92-1,408.07,408.07,0,0,1-40.89-5.68c-3-.57-4.64-1.83-5.12-4.75-.13-.77-.38-1.51-.57-2.26,1-.87,2-.3,3-.16,5,.71,10,1.46,15,2.18,1.73.25,3.44.31,4.49-1.46s.46-3.07-.44-4.69c-2.48-4.49-3.22-9.57-4.33-14.49-.74-3.25-1.68-6.49-1.37-10,.21-2.24-1.16-3.25-4.13-3.68-4.24-.61-8.5-1.13-12.74-1.76-2.43-.37-4.84-1-7.28-1.31a2.77,2.77,0,0,1-2.71-2.68c-1.12-6.39-2.39-12.76-3.57-19.15-.81-4.4-.77-4.47-5.25-5.4a232.46,232.46,0,0,1-26.31-7c-1.72-.57-3.41-1.24-5.11-1.88-3.55-1.33-5.55.1-5.25,4,.38,4.79.93,9.57,1.42,14.36a9.36,9.36,0,0,1,.17,3.61c-3.51-.86-6.52-2.65-9.68-4.07-1.54-.69-3-1.55-4.57-2.16-3.12-1.22-5.25.36-4.79,3.68A112.06,112.06,0,0,0,486,571.1c.62,2.11,1.3,4.22,1.92,6.33.17.56.66,1.19-.12,1.69l.07-.09c-5.43-5-8.31-11.44-10.1-18.4-2.61-10.11-1.13-19.84,3.36-29.16a60.84,60.84,0,0,1,8.56-13C500,506.34,513,497.66,527,490.27c.77,1.09.25,2.1.24,3.06A22,22,0,0,0,531,505.44a45.55,45.55,0,0,0,14.59,14.35C560.26,529.16,576.3,535.38,593,540c19.94,5.55,40.3,8.65,60.92,10.31a289.46,289.46,0,0,0,51.33-.29,307.57,307.57,0,0,0,63.21-12.74c.74-.24,1.49-.42,2.24-.63C772.1,543,773,549.49,772.23,556c-1.34,10.9-4.25,21.31-11.1,30.25-.54.71-1.45,1.57-.56,2.89,13.26-5.93,25.65-13,34.67-24.78a67.86,67.86,0,0,0,11.9-23.38C809.05,533.93,809.13,526.87,809.08,519.74Zm-162,38.91c-10.46.29-20.26,3.44-28,11.41-10.9,11.16-10.81,26.86.06,38a36.75,36.75,0,0,0,7,5.57,43.59,43.59,0,0,0,24.49,6.4A39.79,39.79,0,0,0,674.07,612c5.11-3.88,8.82-8.77,10.27-15.14,2.85-12.52-1.76-24.05-12.51-31.08C664.46,560.92,656.26,558.84,647.06,558.65Z"/><path class="cls-17" d="M809.08,519.74c0,7.13,0,14.19-1.94,21.19a67.86,67.86,0,0,1-11.9,23.38c-9,11.82-21.41,18.85-34.67,24.78-.89-1.32,0-2.18.56-2.89,6.85-8.94,9.76-19.35,11.1-30.25.8-6.46-.13-12.91-1.54-19.27a12.19,12.19,0,0,0-1.32-5.12c0-1.87-.89-3.49-1.41-5.21-.78-2.55-.79-2.56,1.73-3.74,6.9-3.24,13.83-6.43,20.72-9.71,4.2-2,8.34-4.13,12.52-6.18,3.05-1.51,3.07-1.5,4,1.9.52,1.87,1,3.75,1.47,5.63C808.17,516.14,808.86,517.91,809.08,519.74Z"/><path class="cls-15" d="M565.73,600.15c-4.31-.11-8.46-1.3-12.68-2a23,23,0,0,0-2.28-.45c-3-.16-4.72,1.82-3.95,4.69,1,3.76,2.27,7.44,3.39,11-.51.91-1.2.69-1.79.57a192.19,192.19,0,0,1-21.53-5.32,6.49,6.49,0,0,1-4.36-4c-1.83-4.31-3.76-8.57-5.18-13a6.12,6.12,0,0,0-4.41-4.38,121.59,121.59,0,0,1-14.41-5.88,6.58,6.58,0,0,1-3.8-4.07c-1.63-4.67-3.14-9.36-4.3-14.16a5,5,0,0,1-.12-3.24c2.2.24,4,1.58,6,2.4q3.78,1.57,7.49,3.29c1.61.74,3.19,1.24,4.75,0s1.21-3,1-4.69c-.55-3.73-1.13-7.45-1.68-11.17-.07-.51-.05-1-.07-1.55,6.62,1.9,13.3,3.56,20.06,4.84,2.22.42,2.91,1.38,3.17,3.53.8,6.71,1.94,13.37,2.76,20.07.27,2.24,1.07,3.42,3.33,4,7.63,2.1,15.18,4.57,23.11,5.34,2,.2,3,1,3.33,3C564.12,592.79,565,596.46,565.73,600.15Z"/><path class="cls-13" d="M565.73,600.15c-.76-3.69-1.61-7.36-2.24-11.07-.34-2-1.33-2.83-3.33-3-7.93-.77-15.48-3.24-23.11-5.34-2.26-.62-3.06-1.8-3.33-4-.82-6.7-2-13.36-2.76-20.07-.26-2.15-1-3.11-3.17-3.53-6.76-1.28-13.44-2.94-20.06-4.84a11,11,0,0,1-.49-4.31c.37-.78.8-.52,1.11-.4a150.53,150.53,0,0,0,23.85,7c2.46.5,3,1.62,3.31,3.85.86,6.43,2.11,12.8,3.46,19.15.56,2.66,1.81,3.92,4.55,4.42,6.89,1.23,13.76,2.64,20.72,3.44,1.46.17,2.35.56,2.68,2.16,1.17,5.69,2.47,11.35,3.77,17.24A8.57,8.57,0,0,1,565.73,600.15Z"/><path class="cls-14" d="M499.24,589.12c3.55,1.42,7.11,2.8,10.62,4.3,1.33.57,1.54,1.89,1.55,3.79A41.85,41.85,0,0,1,499.24,589.12Z"/><path class="cls-16" d="M487.76,579.12c.25-.26.49-.27.57,0s-.11.33-.17.5l-.33-.61Z"/><path class="cls-8" d="M623.24,284.57a69.23,69.23,0,0,1-34.17,4.18C594,283.74,614.16,281.14,623.24,284.57Z"/><path class="cls-3" d="M647.06,558.65c9.2.19,17.4,2.27,24.77,7.09,10.75,7,15.36,18.56,12.51,31.08-1.45,6.37-5.16,11.26-10.27,15.14A39.79,39.79,0,0,1,650.54,620a43.59,43.59,0,0,1-24.49-6.4,36.75,36.75,0,0,1-7-5.57c-10.87-11.15-11-26.85-.06-38C626.8,562.09,636.6,558.94,647.06,558.65Zm25.42,43c6.35-7.41,5.61-19-1.69-26.07a28.67,28.67,0,0,0-13.24-7.1c-8.95-2.26-17.71-2.15-25.94,2.73a12.86,12.86,0,0,0-1.73.78c-13.87,8.87-14.13,24.62-.4,33.73a34.22,34.22,0,0,0,27.93,4.85C663.29,609.19,668.65,606.68,672.48,601.69Z"/><path class="cls-15" d="M672.48,601.69c-3.83,5-9.19,7.5-15.07,8.92a34.22,34.22,0,0,1-27.93-4.85c-13.73-9.11-13.47-24.86.4-33.73a12.86,12.86,0,0,1,1.73-.78l4.23-.56A41.39,41.39,0,0,1,654.28,572c8.85,2.91,15,8.53,17.47,17.71C672.83,593.66,672.58,597.68,672.48,601.69Z"/><path class="cls-13" d="M672.48,601.69c.1-4,.35-8-.73-12-2.52-9.18-8.62-14.8-17.47-17.71a41.39,41.39,0,0,0-18.44-1.32l-4.23.56c8.23-4.88,17-5,25.94-2.73a28.67,28.67,0,0,1,13.24,7.1C678.09,582.71,678.83,594.28,672.48,601.69Z"/></svg>