<svg id="VGS-AlchemistHombrewer_Image" data-name="VGS-AlchemistHombrewer Image" xmlns="http://www.w3.org/2000/svg" viewBox="0 0 1200 1200"><defs><style>.cls-1{fill:#bbc8f5;}.cls-2{fill:#fff;}.cls-3{fill:#050405;}.cls-4{fill:#080708;}.cls-5{fill:#5857d3;}.cls-6{fill:#bbc8f4;}.cls-7{fill:#b9c7f3;}.cls-8{fill:#fefeff;}.cls-9{fill:#fdfdfe;}.cls-10{fill:#9897fc;}.cls-11{fill:#93a5e3;}.cls-12{fill:#f8fafb;}.cls-13{fill:#9a99fe;}.cls-14{fill:#020202;}.cls-15{fill:#02cafd;}</style></defs><ellipse id="Ellipse_25" data-name="Ellipse 25" class="cls-1" cx="580.03" cy="871.52" rx="478.69" ry="136.07"/><path class="cls-2" d="M306,592.05c-1.81,1.84-3.3,3.17-4.56,4.69a5.72,5.72,0,0,1-5.23,2.11,233.26,233.26,0,0,0-26.31,0c-11.44.74-20.74,5.34-27.47,14.77-1.41,2-2.8,4-4,6.06a142,142,0,0,0-14.08,31.77c-4.41,14.49-4.58,28.77.54,43.22a269.27,269.27,0,0,0,18.7,41.18c11.18,20.06,24.54,38.47,41.28,54.29a2.93,2.93,0,0,1,.84,3.58A118.16,118.16,0,0,0,280.29,822c-.17,2.83.85,6-.46,8.4s-4.19,3.77-6.27,5.71a4.3,4.3,0,0,1-3.68,1.3c-4-.44-7.74.66-11.36,2.26a86.23,86.23,0,0,0-14,8,264.58,264.58,0,0,0-46.23,39.91c-3.56,3.91-7,7.91-10.23,12.11-2,2.66-1.64,4.59,1.3,6.19,2.22,1.21,4.53,2.28,6.85,3.27,15,6.41,30.79,10.27,46.78,13.4,8.28,1.62,16.3,1.72,24.25-1.6,21.91-9.14,44.06-17.7,65.65-27.59,2.74-1.25,3.12-2,2.43-4.92-.53-2.27-1.07-4.53-1.69-6.76a2.93,2.93,0,0,1,.93-3.39c1.43-1.24,2.75-2.62,4.12-3.95a9.83,9.83,0,0,0,3.12-8.6c-.12-1-.31-2.08-.5-3.12-.43-2.44-.46-2.47,1.77-3.6,8.4-4.24,16.47-9,24.48-14a41,41,0,0,0,6.43-4.62,11.92,11.92,0,0,0,4.1-9.88,36.33,36.33,0,0,0-1.86-8.32c-.18-.6-.95-1.34-.1-2a2.66,2.66,0,0,1,2.65-.6,14.9,14.9,0,0,1,1.68.88,35.4,35.4,0,0,0,5.46,2.5,16.74,16.74,0,0,0,16.47-2.53,19,19,0,0,0,4.11-3.94,1.66,1.66,0,0,1,2.63-.48,16.8,16.8,0,0,0,1.66.93,170.8,170.8,0,0,0,33.39,13.5,484.14,484.14,0,0,0,69.08,14.36c4.3.56,8.61,1,12.92,1.45,2.06.21,3.19-.49,3.74-2.1s0-2.7-1.94-3.81c-.72-.43-1.49-.78-2.24-1.18a182.09,182.09,0,0,1-38.84-27.73,5,5,0,0,1-2-4.07c0-.94-.12-1.9-.12-2.85.06-16.34,5.94-30.49,16.26-43a4.16,4.16,0,0,1,3.27-1.55,125.2,125.2,0,0,0,21.27-3.24c15.2-3.65,29.21-9.79,41.1-20.17a5.93,5.93,0,0,1,4-1.35,152.9,152.9,0,0,1,31.91,2,105.67,105.67,0,0,1,33.11,11.28c1,.52,1.87,1.13,2.84,1.73a9.6,9.6,0,0,1-3,2.25,76.64,76.64,0,0,0-9.67,7.15A17.6,17.6,0,0,0,620.07,776a129,129,0,0,0,5.07,21.24c1,3.16,1,3.13-1.64,4.91-3.7,2.46-7.4,4.93-10.36,8.31-3.68,4.2-4.7,8.86-2.16,14.06,1.11,2.28,1.07,2.31-1.06,3.89-5.61,4.15-11.12,8.43-16.37,13-1.27,1.12-2.14,2.39-1.66,4.15a3.91,3.91,0,0,0,3.43,2.86c3.73.73,7.42,1.69,11.16,2.3q35.07,5.65,70.5,8.15a510.35,510.35,0,0,0,65,.75,6.35,6.35,0,0,0,2.8-.45c6.13-3.33,12.84-5.34,19.15-8.27,3.16-1.46,6.32-2.94,9.58-4.14,1.74-.64,3.13-1.37,3.41-3.28s-1.1-3.06-2.56-4a98.82,98.82,0,0,0-10.83-5.93c-5.43-2.59-11-5-16.28-7.78-16-8.4-31.55-17.57-48.06-24.94-1.1-.49-1.33-1-.94-2.16,1.38-4.1,2.66-8.24,3.89-12.38a5,5,0,0,1,1.63-2.26,45.87,45.87,0,0,0,11.18-16,12.18,12.18,0,0,1,3.36-4.48c4.92-4.33,9.84-8.67,14-13.81,4.25-5.32,7-11.21,7.58-18.12a199.85,199.85,0,0,0,0-27.25c-.1-1.64-.53-3.31,0-5.06,5.19.88,10.29,1.7,15.38,2.63,24.1,4.39,48.06,9.5,72.24,13.44a371.49,371.49,0,0,0,39.33,4.6,238.63,238.63,0,0,0,85.06-10.74c35.33-11,66.93-28.57,93.71-54.31,22.84-22,39.39-47.84,48.3-78.42,1.32-4.55,1.94-9.28,3.78-13.7a3.27,3.27,0,0,0-3.78-4.32,24.88,24.88,0,0,0-2.74.77,302.5,302.5,0,0,1-101.93,10.65,324.16,324.16,0,0,1-63.63-10.66c-38-10.23-73.39-26.46-107-46.77a5,5,0,0,1-2.06-1.65c1.26-1.86,2.67-3.71,3.83-5.71a3.77,3.77,0,0,1,3.87-2A71.18,71.18,0,0,0,847.37,500a15.48,15.48,0,0,1,10.91.55c12.61,4.83,25.41,9.17,38,14.16a11.87,11.87,0,0,0,9.8-.2q42.86-17.72,85.81-35.19c5.37-2.2,10.77-4.33,16.13-6.55,2.87-1.19,3.34-2.87,1.7-5.46-.4-.62-.83-1.22-1.2-1.86l-36.83-63.25c-.27-.46-.51-.93-.79-1.38a3,3,0,0,0-3.49-1.53,19,19,0,0,1-5,.32c-19.35.25-38.7,0-58,.53-.68,0-1.47.3-2-.6a9,9,0,0,1,2.21-2.49c9.32-9.38,18.52-18.87,27.49-28.57.65-.7,1.3-1.39,1.92-2.11.81-.92,1.34-1.91.74-3.17a2.86,2.86,0,0,0-3-1.81,18,18,0,0,1-2.84,0c-13.79-.8-27.59-1.4-41.4-1.2-7.82.12-15.64.24-23.46.7a8.8,8.8,0,0,0-5.42,2.1c-4.15,3.43-8.45,6.69-12.61,10.12a4.45,4.45,0,0,1-3.76,1.05,96.51,96.51,0,0,0-13.27-.94c-16.32-.12-32.13,2.91-47.63,7.81-3.41,1.07-6.79,2.22-10.25,3.36-.35-1.21-.63-2.22-.93-3.24a102.13,102.13,0,0,0-19.42-37.06c-10.24-12.37-22.61-21.76-37.9-27.16-11.94-4.21-23.42-3.5-34.64,2.31a103.59,103.59,0,0,0-10.38,6.09,142.23,142.23,0,0,0-22.15,18.42,24.56,24.56,0,0,1-11.74,6.68c-18.54,5.08-33.48,15.31-43.43,32.13a9.34,9.34,0,0,1-.86,1l-2.91-2.07c-7.91-5.64-15.77-11.37-23.75-16.91A141,141,0,0,0,532.26,348,53.41,53.41,0,0,0,516,344.33c-8-.39-14.72,2-19.72,8.59-3.19,4.22-6.31,8.48-9.22,12.89-11.25,17-21.51,34.63-31.47,52.42-7.22,12.91-14.43,25.82-20.35,39.39a2.37,2.37,0,0,1-2.33,1.66,126.41,126.41,0,0,0-24.55,4.61c-1.69.48-2.62.29-3.6-1.27a47.34,47.34,0,0,0-10-11.38c-13.1-10.73-28.06-13.14-44.17-9.3-15.32,3.65-27.77,12.05-37.73,24.17a5.49,5.49,0,0,1-3.92,2.21A206.46,206.46,0,0,0,270,477a55.61,55.61,0,0,0-22.39,13.89,99.66,99.66,0,0,0-16.08,21.91c-7.74,13.79-13.24,28.51-17.83,43.59-1.78,5.87-3.39,11.77-4.78,17.74-.7,3,.58,4.65,3.71,4.7a11.46,11.46,0,0,1,2.48.32c4.42,1,8.84,2.06,13.28,3a435.32,435.32,0,0,0,51.3,8C288.19,591,296.73,591.45,306,592.05ZM407,229.36a6,6,0,0,1-2.65-2.21,107.26,107.26,0,0,0-12.25-11.48,59.77,59.77,0,0,0-20.88-11c-16.79-4.66-30.84-.38-42,13.07a56.19,56.19,0,0,0-5.74,8.35c-8.62,15.31-11.7,32-12.1,49.33a3,3,0,0,0,2.24,3.09,2.84,2.84,0,0,0,3.37-1.08c.65-.83,1.24-1.71,1.85-2.57a55,55,0,0,1,16.49-15.55A36.33,36.33,0,0,1,362.77,255c9.15,2.06,17.12,6.5,24.62,11.91a144.43,144.43,0,0,1,22.51,20.42c16.63,18.33,32.46,37.31,46.14,58,.82,1.23,1.54,2.62,3.36,2.47s2.28-1.51,3-2.86c4.57-8.69,9.13-17.39,14-25.95a8.88,8.88,0,0,0,1.26-5.64c-1.2-12.09-2.55-24.16-4.46-36.17a252.09,252.09,0,0,0-13.48-51.69A93.63,93.63,0,0,0,449.86,206a34,34,0,0,0-8.92-9.34c-5.67-3.79-11.59-4.22-17.7-1.16a26,26,0,0,0-11.63,11.73,42.1,42.1,0,0,0-3.89,12.66A83.85,83.85,0,0,0,407,229.36Z"/><path class="cls-3" d="M306,592.05c-9.22-.6-17.76-1-26.27-1.86a435.32,435.32,0,0,1-51.3-8c-4.44-1-8.86-2-13.28-3a11.46,11.46,0,0,0-2.48-.32c-3.13,0-4.41-1.66-3.71-4.7,1.39-6,3-11.87,4.78-17.74,4.59-15.08,10.09-29.8,17.83-43.59a99.66,99.66,0,0,1,16.08-21.91A55.61,55.61,0,0,1,270,477a206.46,206.46,0,0,1,38.88-8.65,5.49,5.49,0,0,0,3.92-2.21c10-12.12,22.41-20.52,37.73-24.17,16.11-3.84,31.07-1.43,44.17,9.3a47.34,47.34,0,0,1,10,11.38c1,1.56,1.91,1.75,3.6,1.27a126.41,126.41,0,0,1,24.55-4.61,2.37,2.37,0,0,0,2.33-1.66c5.92-13.57,13.13-26.48,20.35-39.39,10-17.79,20.22-35.4,31.47-52.42,2.91-4.41,6-8.67,9.22-12.89,5-6.6,11.71-9,19.72-8.59A53.41,53.41,0,0,1,532.26,348a141,141,0,0,1,30.54,16.6c8,5.54,15.84,11.27,23.75,16.91l2.91,2.07a9.34,9.34,0,0,0,.86-1c9.95-16.82,24.89-27.05,43.43-32.13a24.56,24.56,0,0,0,11.74-6.68,142.23,142.23,0,0,1,22.15-18.42A103.59,103.59,0,0,1,678,319.25c11.22-5.81,22.7-6.52,34.64-2.31,15.29,5.4,27.66,14.79,37.9,27.16A102.13,102.13,0,0,1,770,381.16c.3,1,.58,2,.93,3.24,3.46-1.14,6.84-2.29,10.25-3.36,15.5-4.9,31.31-7.93,47.63-7.81a96.51,96.51,0,0,1,13.27.94,4.45,4.45,0,0,0,3.76-1.05c4.16-3.43,8.46-6.69,12.61-10.12a8.8,8.8,0,0,1,5.42-2.1c7.82-.46,15.64-.58,23.46-.7,13.81-.2,27.61.4,41.4,1.2a18,18,0,0,0,2.84,0,2.86,2.86,0,0,1,3,1.81c.6,1.26.07,2.25-.74,3.17-.62.72-1.27,1.41-1.92,2.11-9,9.7-18.17,19.19-27.49,28.57a9,9,0,0,0-2.21,2.49c.58.9,1.37.62,2,.6,19.34-.55,38.69-.28,58-.53a19,19,0,0,0,5-.32,3,3,0,0,1,3.49,1.53c.28.45.52.92.79,1.38l36.83,63.25c.37.64.8,1.24,1.2,1.86,1.64,2.59,1.17,4.27-1.7,5.46-5.36,2.22-10.76,4.35-16.13,6.55Q948.93,496.88,906,514.52a11.87,11.87,0,0,1-9.8.2c-12.54-5-25.34-9.33-38-14.16a15.48,15.48,0,0,0-10.91-.55,71.18,71.18,0,0,1-23.13,3.16,3.77,3.77,0,0,0-3.87,2c-1.16,2-2.57,3.85-3.83,5.71a5,5,0,0,0,2.06,1.65c33.6,20.31,69,36.54,107,46.77a324.16,324.16,0,0,0,63.63,10.66,302.5,302.5,0,0,0,101.93-10.65,24.88,24.88,0,0,1,2.74-.77,3.27,3.27,0,0,1,3.78,4.32c-1.84,4.42-2.46,9.15-3.78,13.7-8.91,30.58-25.46,56.46-48.3,78.42-26.78,25.74-58.38,43.29-93.71,54.31A238.63,238.63,0,0,1,866.82,720a371.49,371.49,0,0,1-39.33-4.6c-24.18-3.94-48.14-9-72.24-13.44-5.09-.93-10.19-1.75-15.38-2.63-.53,1.75-.1,3.42,0,5.06a199.85,199.85,0,0,1,0,27.25c-.53,6.91-3.33,12.8-7.58,18.12-4.12,5.14-9,9.48-14,13.81a12.18,12.18,0,0,0-3.36,4.48,45.87,45.87,0,0,1-11.18,16,5,5,0,0,0-1.63,2.26c-1.23,4.14-2.51,8.28-3.89,12.38-.39,1.17-.16,1.67.94,2.16,16.51,7.37,32.09,16.54,48.06,24.94,5.32,2.79,10.85,5.19,16.28,7.78a98.82,98.82,0,0,1,10.83,5.93c1.46.94,2.85,2,2.56,4s-1.67,2.64-3.41,3.28c-3.26,1.2-6.42,2.68-9.58,4.14-6.31,2.93-13,4.94-19.15,8.27a6.35,6.35,0,0,1-2.8.45,510.35,510.35,0,0,1-65-.75q-35.41-2.49-70.5-8.15c-3.74-.61-7.43-1.57-11.16-2.3a3.91,3.91,0,0,1-3.43-2.86c-.48-1.76.39-3,1.66-4.15,5.25-4.6,10.76-8.88,16.37-13,2.13-1.58,2.17-1.61,1.06-3.89-2.54-5.2-1.52-9.86,2.16-14.06,3-3.38,6.66-5.85,10.36-8.31,2.68-1.78,2.64-1.75,1.64-4.91A129,129,0,0,1,620.07,776,17.6,17.6,0,0,1,626,759.71a76.64,76.64,0,0,1,9.67-7.15,9.6,9.6,0,0,0,3-2.25c-1-.6-1.88-1.21-2.84-1.73a105.67,105.67,0,0,0-33.11-11.28,152.9,152.9,0,0,0-31.91-2,5.93,5.93,0,0,0-4,1.35c-11.89,10.38-25.9,16.52-41.1,20.17a125.2,125.2,0,0,1-21.27,3.24,4.16,4.16,0,0,0-3.27,1.55c-10.32,12.46-16.2,26.61-16.26,43,0,.95.16,1.91.12,2.85a5,5,0,0,0,2,4.07,182.09,182.09,0,0,0,38.84,27.73c.75.4,1.52.75,2.24,1.18,1.91,1.11,2.47,2.24,1.94,3.81s-1.68,2.31-3.74,2.1c-4.31-.43-8.62-.89-12.92-1.45a484.14,484.14,0,0,1-69.08-14.36A170.8,170.8,0,0,1,410.77,817a16.8,16.8,0,0,1-1.66-.93,1.66,1.66,0,0,0-2.63.48,19,19,0,0,1-4.11,3.94,16.74,16.74,0,0,1-16.47,2.53,35.4,35.4,0,0,1-5.46-2.5,14.9,14.9,0,0,0-1.68-.88,2.66,2.66,0,0,0-2.65.6c-.85.63-.08,1.37.1,2a36.33,36.33,0,0,1,1.86,8.32,11.92,11.92,0,0,1-4.1,9.88,41,41,0,0,1-6.43,4.62c-8,4.92-16.08,9.73-24.48,14-2.23,1.13-2.2,1.16-1.77,3.6.19,1,.38,2.08.5,3.12a9.83,9.83,0,0,1-3.12,8.6c-1.37,1.33-2.69,2.71-4.12,3.95a2.93,2.93,0,0,0-.93,3.39c.62,2.23,1.16,4.49,1.69,6.76.69,2.94.31,3.67-2.43,4.92-21.59,9.89-43.74,18.45-65.65,27.59-8,3.32-16,3.22-24.25,1.6-16-3.13-31.74-7-46.78-13.4-2.32-1-4.63-2.06-6.85-3.27-2.94-1.6-3.34-3.53-1.3-6.19,3.22-4.2,6.67-8.2,10.23-12.11a264.58,264.58,0,0,1,46.23-39.91,86.23,86.23,0,0,1,14-8c3.62-1.6,7.35-2.7,11.36-2.26a4.3,4.3,0,0,0,3.68-1.3c2.08-1.94,5-3.37,6.27-5.71s.29-5.57.46-8.4a118.16,118.16,0,0,1,5.33-28.26,2.93,2.93,0,0,0-.84-3.58c-16.74-15.82-30.1-34.23-41.28-54.29a269.27,269.27,0,0,1-18.7-41.18c-5.12-14.45-5-28.73-.54-43.22a142,142,0,0,1,14.08-31.77c1.24-2.08,2.63-4.08,4-6.06,6.73-9.43,16-14,27.47-14.77a233.26,233.26,0,0,1,26.31,0,5.72,5.72,0,0,0,5.23-2.11C302.65,595.22,304.14,593.89,306,592.05Zm99.92,161.46c-.37-.62-.68-1.33-1.63-1.17a3,3,0,0,0,.9,1.8c.56,1.37,1.13,2.73,1.67,4.1a1.61,1.61,0,0,0,1.59,1.24c1.82,0,3.63.17,5.44.26C411.15,757.56,408.27,755.86,405.87,753.51Zm503.73-296a3.84,3.84,0,0,0,3,.48c10.9,1.08,21.8,2.24,32.72,3.19,5.66.5,11.31,1.28,17,1.37q16.86,1.61,33.74,3.19c3.41.31,3.42.25,4.55,3.18,2.35-.9,2.35-.9,1.32-2.81-.1-.18-.22-.36-.32-.54-11.08-19.46-22.51-38.71-33.9-58a4.17,4.17,0,0,0-4.28-2.34c-10.14.23-20.29.22-30.43.36-2.83.05-5.69-.26-8.51.38q-12.79.1-25.59.24c-.1,0-.19.3-.33.54,6.4,6.72,9.27,14.87,9.42,24.08a62.33,62.33,0,0,1-2.24,15.9c-.25.13-.35.3-.17.56a1.58,1.58,0,0,0-.34,1.26l-3.44,8.36a29.52,29.52,0,0,0,7.75.57ZM662.84,429.55c-1.18-.66-2.36-.89-3.48.1-1.49,1.3-3,2.61-4.57,4.05,3,2.65,5.8,5.05,8.53,7.52a1.75,1.75,0,0,0,2.26.29c3.27-1.67,6.56-3.31,9.85-5a18.53,18.53,0,0,0,5.74-2.59C675.08,432,669.11,430.16,662.84,429.55ZM809.77,520.7a37.76,37.76,0,0,0-3.62,4.7c48.1,29.45,99.84,46.09,156,48.79-.11-.31-.27-.48-.45-.51a339.53,339.53,0,0,1-49-11.21c-8.78-2.66-17.38-5.84-26-9-2.75-.53-5.1-2-7.65-3.1a458.67,458.67,0,0,1-62.21-31.57C812.44,516.2,812.45,516.19,809.77,520.7ZM354.53,824.21c-4.74-.17-9.52,0-14.15-1.28a4.54,4.54,0,0,0-4.38.8c-3.33,2.57-7.05,2.95-11.1,1.8-3.13-.89-6.37-1.44-9.57-2.12a57.18,57.18,0,0,1-13.27-4,9.79,9.79,0,0,1-5.85-8.41,91,91,0,0,1-.75-9.14c0-3-1.42-4.63-4.19-5.66a108.67,108.67,0,0,0-5.1,29.43c.91.27,1.4-.22,1.94-.51a24.48,24.48,0,0,1,14.42-2.63,69.76,69.76,0,0,1,19.78,5.37,15.16,15.16,0,0,1,8,7.31c1.53,3,3,6,4.43,9.11,1.15,2.49,2.19,5,3.18,7.59.4,1,.9,1.33,1.88.78.55-.3,1.12-.58,1.68-.86,8.49-4.28,16.55-9.33,24.73-14.15,6-3.54,6.77-5.6,4.75-12.24-.06-.21-.11-.41-.18-.61-.87-2.63-.87-2.65-3.77-2-1.23.25-2.54.12-3.69.76ZM732.61,469.48c-2.32-.83-4.79-.6-7.18-.94a107.5,107.5,0,0,0-11.33-1.09c-4-.15-4.49-.52-5-4.33-.39-2.69-.4-5.46-1.34-8.06-5.52,1.23-17.2,6.19-21.5,9.12,0,.2,0,.45.15.61,2.51,3.52,5,7,6.57,11.13.43,1.16,1.38,1.1,2.33,1.19a129.88,129.88,0,0,1,20.24,3.53c15.74,4,30.53,10.32,44.9,17.74a9.6,9.6,0,0,0,3.42,1.43c-1.55-3.46-2.94-6.61-4.37-9.74a7.44,7.44,0,0,1-1-3.93,49.73,49.73,0,0,0,3.21-4.28c.64-1.05.83-1.73-.35-2.58-5.46-3.93-10.86-7.95-16.49-12.08-1.24,2.86-3.42,2.93-5.9,2.6C736.84,469.52,734.72,469.57,732.61,469.48Zm239.9,10.93a4.7,4.7,0,0,0,2.09-.65q9.92-4.06,19.84-8.15c.74-.3,1.65-.35,2.1-1.36-3.75-.36-7.39-.78-11-1.05-6.72-.49-13.39-1.48-20.13-1.61A17,17,0,0,0,961,467c-6.08-.55-12.16-1.14-18.24-1.64-9.75-.81-19.51-1.56-29.27-2.34-4.26-.75-8.58-.88-12.87-1.35-1.21-.14-1.66.59-2.13,1.46a52.39,52.39,0,0,1-5.48,8.13,84.46,84.46,0,0,1-28.69,22.49,8.26,8.26,0,0,0-2.87,1.6c.26.7.83.73,1.31.91,12,4.4,24,8.78,35.91,13.25a4.58,4.58,0,0,0,3.62-.17c5.35-2.23,10.72-4.42,16.07-6.68,4.06-1.71,8.27-3.07,12.16-5.19a5.66,5.66,0,0,0,2.69-.83q15-6.11,30.08-12.28C966.37,483.09,969.59,482.11,972.51,480.41Zm-536.07-4c-.49-3.43-1.79-6.72-1.93-10.2-.06-1.74-.91-1.8-2.22-1.64a146.42,146.42,0,0,0-21.7,3.9c-.54.15-1.27.15-1.49,1l5,9.75q1,2.83,2,5.65c5.62,15.76,7.37,32.05,6.6,48.68a7.31,7.31,0,0,0,.12,3.42,267.58,267.58,0,0,1,35-14.77c-.66-1.18-1.16-2.1-1.67-3a273.34,273.34,0,0,1-16.33-33.6C438.68,482.5,437.58,479.43,436.44,476.38Zm-18.63,218.8a11,11,0,0,0-3.64,1.86c-4.93,3.1-4.94,3.12-10,.16a30,30,0,0,1-13.55-16.12,11.65,11.65,0,0,1,3.48-13.46c1-.91,2.11-1.73,3.17-2.58l7.38-4.32a7.79,7.79,0,0,0-4.44-2.65,52,52,0,0,0-6.17-1.41c-15.49-2.62-28.48-9.65-38.66-21.72-2.25-2.67-4.58-5.26-6.88-7.88-2.93-3.34-6-6.52-9.23-9.6a29.83,29.83,0,0,0-10.72-6.56c-6.92-2.51-14.11-3.59-21.38-4.28-11.06-1-22.17-.7-33.27-.84-13.12-.17-22.58,5.5-29.14,16.75a146.33,146.33,0,0,0-13.2,28.72,102.69,102.69,0,0,0-3.27,13.54c-1.68,9.44-.09,18.49,2.92,27.43,8.26,24.55,20.53,47,35.9,67.76a169.56,169.56,0,0,0,24.49,26.94,63.48,63.48,0,0,0,10.76,7.8c4.34,2.41,9.06,3,14.1,3.22-.62-1.88-1.21-3.46-1.66-5.08a14.42,14.42,0,0,1-.63-6.87c1.2-5.64,5-8.59,10.29-10,4.15-1.13,8.39-.91,12.61-.59,1.38.11,2.07-.09,2.28-1.7.5-3.87,2.66-6.84,5.63-9.25a25.26,25.26,0,0,1,6.86-3.88,39.79,39.79,0,0,1,7.95-2.09c1-.16,1.68-.31,1.78-1.68.31-4.07,2.72-7,5.7-9.53a32.48,32.48,0,0,1,15.4-7c5.1-.93,9.88-.42,14.26,2.52.22.15.4.1.59-.27a43.15,43.15,0,0,1-3.88-9.51c-1.91-8.1,1.49-14.52,9.31-17.34,4.15-1.5,8.47-1.45,12.82-1.58s7.83.86,9.67,5.2a4.62,4.62,0,0,0,1,1.23,15.07,15.07,0,0,0,5.67,4c1.08.41,1.85.22,1.92-1.16,0-.73.17-1.47.18-2.2a22.57,22.57,0,0,0-3-11.21c-2.49-4.65-5.07-9.26-7.64-13.88-1.66-3-.86-3.25-4.67-1.51A8.69,8.69,0,0,0,417.81,695.18ZM662.74,526.49c-.61.56-1.26,1.1-1.84,1.69a223.58,223.58,0,0,1-33.32,28.26c-9.56,6.51-19.61,12-30.72,15.48-10.07,3.13-20.25,4.08-30.61,1.54a317.29,317.29,0,0,1-37.78-11.69C506.07,553.23,485.1,541.92,465,529a6,6,0,0,0-5.81-.78,238.75,238.75,0,0,0-35.41,15.34,3.82,3.82,0,0,0-2.26,3.37,198.89,198.89,0,0,1-7.33,33.38,4.3,4.3,0,0,1-3.61,3.44c-7.58,1.4-15.16,2.78-22.8,3.83-5.1.71-10.21,1.38-15.43,2.09,1.19,7.8,2.67,15.36,4.39,22.87a222.21,222.21,0,0,0,10.1,33,4.19,4.19,0,0,0,3.55,3c3,.45,6,1.18,9,1.83,4.31.93,8.33,2.51,11.33,5.88a2.87,2.87,0,0,0,3.36.85,23.33,23.33,0,0,1,8.49-.55,64.47,64.47,0,0,1,10.5,2.31,24,24,0,0,0,15.82-1.07c1.75-.73,3.49-1.49,5.26-2.2a36.46,36.46,0,0,1,8.18-2.42c5.67-.84,10.18,1.05,13.38,5.85a17.85,17.85,0,0,1-1,21.8,25.65,25.65,0,0,1-14.32,8.8,47,47,0,0,1-13.54,1c-.74,0-1.58-.39-2.48.55,1.26.57,2.26,1.07,3.3,1.48,8.24,3.28,16.57,6.32,25,9a505.05,505.05,0,0,0,97,21.34c8.92,1,17.89,1.71,26.9,1a25.67,25.67,0,0,0,9.12-2.39A221.22,221.22,0,0,0,665.2,680.2c43-41.9,69.28-92.65,79.23-151.86a17.44,17.44,0,0,0-2.76-12.7,35.58,35.58,0,0,0-8.32-8.64A92.13,92.13,0,0,0,721,499.22c-8.63-4.7-17.82-8.24-26.53-12.77-.92-.48-1.48-.53-2,.56-1.79,4.09-4.35,7.72-6.67,11.49-3.74,5.1-7.49,10.19-11.64,15C670.45,517.85,666.58,522.15,662.74,526.49Zm427.62,40a16.11,16.11,0,0,0-1.67.25,302,302,0,0,1-47.92,8.81c-4.2.41-8.46.54-12.6,1.33a282.38,282.38,0,0,1-45,4.74,312.45,312.45,0,0,1-45.24-2.25,326.05,326.05,0,0,1-132.18-45.74c-3.92-2.4-4-2.43-6.62,1.52a83.91,83.91,0,0,0-5.53,8.48c-1.21,2.41-3.71,2.55-5.42.48a25.21,25.21,0,0,1-1.74-2.65q-8.28-13.34-15.45-27.3a9.05,9.05,0,0,0-4.1-4.17c-4-2.07-8-4.35-12-6.43-13.66-7-27.74-13-42.74-16.54a4.54,4.54,0,0,0-2.69-.24,8.47,8.47,0,0,0,2.93,1.65c7.9,3.83,15.83,7.58,23,12.68a43.73,43.73,0,0,1,10.92,10.49c3.51,5.05,5.23,10.63,4.38,16.77-.69,5-1.58,10-2.59,15a269.78,269.78,0,0,1-22.6,65.74c-1.16,2.35-1.62,2.13.93,4a196.71,196.71,0,0,0,26.14,16.14c37.82,19.49,78.24,29,120.53,31.21q13,.69,25.95,1.43a13.13,13.13,0,0,1,2.5.38,1.42,1.42,0,0,1-.09,2.75,22.16,22.16,0,0,1-3.14.34c-16.28.37-32.53.35-48.75-1.62a308.82,308.82,0,0,1-59.9-13.19c-22.2-7.35-43.18-17.15-62.25-30.8-1.71-1.22-3.41-2.46-5.34-3.85a295.31,295.31,0,0,1-23.28,36.79,279.29,279.29,0,0,1-29.26,33.08c2,0,3.11,0,4.26,0,5.28.08,10.56.09,15.84.42,8,.51,16,1.15,24,2.16a4.44,4.44,0,0,0,4.41-1.67,64.46,64.46,0,0,1,7.38-7.4,13.14,13.14,0,0,1,4.31-2.61c2.8-1,4.38-.39,5.86,2.15a12.29,12.29,0,0,1,1.46,3.83c.47,2.28,1,4.55,1.27,6.85a2.74,2.74,0,0,0,2.7,2.77c18.77,3,37.4,6.77,56.08,10.26,20.76,3.89,41.54,7.59,62.61,9.51a233.86,233.86,0,0,0,105.75-14.82c33.56-13,63-32.17,86.87-59.29a172.25,172.25,0,0,0,36.36-64.72A35.12,35.12,0,0,0,1090.36,566.53Zm-512.24,1.35a51.19,51.19,0,0,0,13.53-1.7c11.32-2.85,21.52-8.12,31.1-14.6a227.61,227.61,0,0,0,58.32-57.64,95.67,95.67,0,0,0,5.1-8.39,9,9,0,0,0,.05-9.05,42.94,42.94,0,0,0-3.64-5.94,97,97,0,0,0-8.36-9.95,322.05,322.05,0,0,0-29.46-26.91c-27.83-22.94-57.18-43.86-86.64-64.62a127.54,127.54,0,0,0-26.92-14.69,49.52,49.52,0,0,0-15.63-3.76c-5.85-.29-10.77,1.35-14.43,6.27-3,4.07-6,8.15-8.83,12.39-10.71,16.24-20.54,33-30,50-6.93,12.46-13.72,25-19.78,37.92a15.29,15.29,0,0,0-1.31,9.22,67.16,67.16,0,0,0,3.1,11.94c4.88,13.79,11.54,26.75,18.51,39.56a6.43,6.43,0,0,0,2.42,2.41c5.2,3.25,10.33,6.6,15.58,9.76,26.21,15.77,53.93,28,83.63,35.58C569.06,566.86,573.67,568.08,578.12,567.88ZM320.58,467c1.19-.09,2.52-.21,3.84-.29,7-.44,13.91-1.08,20.9-.94a29.87,29.87,0,0,1,5.34.66c.93.18,1.94.48,2,1.66.12,1.39-1,1.74-2,2a34.46,34.46,0,0,1-7.81,1.23c-9.71.58-19.39,1.34-29,2.58A216.4,216.4,0,0,0,271,483.56a45.91,45.91,0,0,0-15.49,9,79.52,79.52,0,0,0-14.57,17.47,160.14,160.14,0,0,0-14,28.39,272.72,272.72,0,0,0-10.65,34.72,8,8,0,0,0,3.08,1.06,435.34,435.34,0,0,0,82.14,11.19,448.29,448.29,0,0,0,104.12-7.27,3.88,3.88,0,0,0,3.49-3.29,190,190,0,0,0,7.31-42.38,119.32,119.32,0,0,0-4.85-41.66,87,87,0,0,0-14.39-28c-8-10.25-18.49-16-31.57-16.24-17.87-.4-32.52,6.93-44.94,19.34C320.48,466.1,320.24,466.36,320.58,467Zm470.8,69.5c2.18-3.74,5.65-6.7,7-11.08a2.69,2.69,0,0,1,1.41-1.65,7.6,7.6,0,0,0,2.8-2.94c3.16-4.48,6.39-8.91,9.42-13.47,2-3.06,4.59-5.79,5.79-9.39a2.82,2.82,0,0,1,2.81-1.74c.84,0,1.69,0,2.53,0a85.53,85.53,0,0,0,50-15.53c14.67-10.08,24.13-23.83,27.75-41.28,2.54-12.31.37-23.35-10.33-31.49-2-1.52-1.91-3.31.08-5a106.79,106.79,0,0,0,7.73-7.46q12.72-13.29,25.36-26.63c.57-.6,1.33-1.07,1.48-1.95a1.34,1.34,0,0,0-1.14-.5c-10-.51-20-1-30.09-1.06a3.94,3.94,0,0,0-3,1.49c-3.58,3.59-7.23,7.12-10.77,10.75-8.19,8.39-16.46,16.73-24.43,25.33a17.79,17.79,0,0,1-7.72,5A104.19,104.19,0,0,0,814.34,427c-7.51,6.29-14,13.44-18.7,22.15-3.82,7.14-5.23,14.67-3.4,22.67a34.07,34.07,0,0,0,3.83,9.33c1.38,2.4,1.15,3.59-1,5.13a12.52,12.52,0,0,0-2.41,2.47c-5.28,6.61-10,13.61-14.89,20.52a3.19,3.19,0,0,0-.14,4c4.1,7.15,8.1,14.35,12.16,21.51C790.16,535.36,790.38,536.14,791.38,536.48ZM196.25,901.2a7.65,7.65,0,0,0,3,1.56c15.19,6.23,31.06,10.07,47.07,13.49a32,32,0,0,0,20.39-1.92c2.69-1.21,5.48-2.21,8.2-3.34q25.88-10.69,51.74-21.43c2.44-1,2.41-1,1.81-3.62s-1.8-5-2.3-7.53A69.83,69.83,0,0,0,320.49,862a13.75,13.75,0,0,0-7.78-7.06,31.26,31.26,0,0,0-5.77-1.68,204.3,204.3,0,0,1-20.25-5c-3.74-1.11-7.56-1.94-11.33-2.93a20.89,20.89,0,0,0-16.48,2.1c-2.83,1.64-5.73,3.17-8.44,5a259,259,0,0,0-52.16,45.92A8.35,8.35,0,0,0,196.25,901.2ZM737.91,458.12a187,187,0,0,0-2.79-22.65c-2.6-14-6.9-27.43-14-39.88-8-14.1-18.77-25.5-33.08-33.3-12.82-7-26.58-9.33-41.06-7.66-14.77,1.71-27.95,7.12-39.21,16.94A56.32,56.32,0,0,0,596,386c-.75,1.31-.62,2,.59,2.85,2,1.36,4,2.84,5.91,4.28,3.74,2.75,7.52,5.47,11.2,8.31,1.24,1,2,.88,2.69-.49a9.47,9.47,0,0,1,.93-1.28c14.11-18.37,41.48-25.05,62.84-11.56,10,6.34,17.28,15.09,22.56,25.58a114.75,114.75,0,0,1,9.55,29.09c1.14,5.59,2.07,11.21,2.83,16.87.16,1.18.28,2.15,2,2.27,6.43.45,12.84,1.07,19.26,1.66,1.08.1,1.59-.22,1.56-1.34C737.89,460.87,737.91,459.49,737.91,458.12ZM766.1,842.73c-1.93-1-3.68-1.94-5.52-2.73-13.33-5.66-26-12.59-38.7-19.53q-11.94-6.53-24.28-12.28a31.24,31.24,0,0,0-13.78-3c-3.81.05-7.6.3-11.39.55a55.25,55.25,0,0,0-19.85,4.87c-17.38,8.07-32.82,19.06-47.63,31-.31.25-.7.51-.36,1.11a4,4,0,0,0,.77.3c15.93,2.71,31.94,4.77,48,6.4q18.92,1.91,37.91,2.85c16.78.88,33.57,1.15,50.37.9a9.33,9.33,0,0,0,3.68-.76c6.27-2.77,12.57-5.49,18.84-8.26C764.81,843.87,765.63,843.78,766.1,842.73ZM741,430.89c3.53-4,5.45-8.51,8.19-12.45,5.25-7.54,9.72-15.59,14.46-23.46a10.65,10.65,0,0,0,1.1-9c-4.54-15.88-12-30.19-23.33-42.31-9-9.64-19.55-17-32.29-21-9.21-2.89-18.09-2.43-26.74,1.91-1.51.76-3,1.48-4.51,2.31-9.45,5.32-17.75,12.17-25.78,19.39-.22.2-.49.41-.32.81.51.52,1.16.24,1.75.23a75.57,75.57,0,0,1,49.66,16.77c14.29,11.34,24,25.92,30.7,42.72A156.11,156.11,0,0,1,741,430.89Zm32.72,74.68c4.86-7,9.47-13.4,14.44-19.55,1.28-1.58,1.55-2.75.53-4.72A35.56,35.56,0,0,1,786,454.55c2.12-7.57,6.22-14.09,11.2-20.05,13.23-15.83,30-26.38,49.46-32.9a14,14,0,0,0,6-3.86c9.65-10.36,19.41-20.62,29.47-30.59.42-.41,1-.73,1.06-1.43-.24-.51-.71-.39-1.09-.38-5.38.14-10.77.12-16.15.5a9.48,9.48,0,0,0-5.68,2.31c-3.26,2.69-6.63,5.24-9.94,7.87-1.31,1-2.79,1.92-3.42,3.63a2.47,2.47,0,0,1-1.69,1.34c-3.55,1.17-6,3.88-8.39,6.49a5.36,5.36,0,0,1-4.51,2.17,73,73,0,0,0-17.6,1.88C799,395.12,786.17,403,776.88,416.24c-.64.92-1.53,1.75-1.58,3.07,2.88.38,5.75.45,8.47,1.34,6.36,2.07,9.19,7.83,6.87,14.08a16.16,16.16,0,0,1-10.33,10,37.37,37.37,0,0,1-10.26,1.82c-2.64.14-2.67-.14-2.51,3,0,.63.14,1.26.21,1.89a44,44,0,0,0,8.36,20.94c.88,1.2,1.73,2.4,2.56,3.63,1.45,2.13,1.48,3.63.14,4.78s-2.58,1-4.69-.91c-.92-.83-1.8-1.7-3-2.88-1.55,3.52-4.13,6-5.93,9.09a2.33,2.33,0,0,0,0,2.39C767.84,494.05,770.5,499.65,773.73,505.57ZM413,800.64a35.58,35.58,0,0,1-2.55,9.94c.85.5,1.47.9,2.11,1.25a149.08,149.08,0,0,0,27.68,11.66A458.65,458.65,0,0,0,492,835.59c6.4,1.12,12.81,2.17,19.4,3-.62-1.19-1.68-1.54-2.54-2.11a190.26,190.26,0,0,1-23.54-18.21,214.6,214.6,0,0,1-37.58-45.6c-.61-1-1-2.09-2.15-2.67a45.57,45.57,0,0,0-13.21-4.91c.86.66,1.23,1,1.65,1.26,9.36,5.91,12.8,14.43,11.24,25.24-1.37,9.4-7.37,14.09-16.78,13.09a53.49,53.49,0,0,1-11-2.75C416,801.46,414.76,800.61,413,800.64ZM625.71,719a5.12,5.12,0,0,0,.86.48,97.43,97.43,0,0,1,36.1,17.08,2.79,2.79,0,0,0,3.18.3,139.18,139.18,0,0,1,14.58-5.26,4.27,4.27,0,0,0,2.84-2.24,85.58,85.58,0,0,1,10.93-15.51c4.75-5.53,9.65-10.94,14.46-16.42.51-.57,1.36-1,1.24-2a20.28,20.28,0,0,0-4.41-.66c-4-.33-8-.75-12-1-9.81-.59-19.63-1-29.47-.71a7.38,7.38,0,0,0-4.82,1.93,228,228,0,0,1-31.32,22.6C627.25,718,626.65,718.37,625.71,719Zm104.94-35.4a9,9,0,0,0-3,2.3c-3.9,3.41-6.9,7.64-10.37,11.44-4,4.37-7.82,8.88-11.71,13.35a178.32,178.32,0,0,0-14,17.64,40.67,40.67,0,0,0-6.63,17.3c-.74,5.44-1.37,10.9-2,16.35-.27,2.3-.22,2.34,2,2.25,7-.3,13.93-.64,20.9-.92a4.3,4.3,0,0,0,2.64-.86c7.2-5.74,14.2-11.7,19.9-19a23.23,23.23,0,0,0,4.91-12.18c1.36-13.41.63-26.76-1.11-40.08A36.13,36.13,0,0,0,730.65,683.58Zm-51,54.77c-1.07.35-1.56.5-2,.68a194.68,194.68,0,0,0-42.12,21.72c-1.65,1.13-3.2,2.42-4.74,3.7a10.9,10.9,0,0,0-4,10.44,120.94,120.94,0,0,0,4.94,20.28c.42,1.34,1,1.36,2.07.7,4-2.55,8.06-5,12-7.64,6-3.91,12.1-7.72,18.49-11a49.37,49.37,0,0,1,27-5.3c4.21.31,8.19.9,10.83,4.87a28.79,28.79,0,0,0,5.51-7.48c-.95,0-1.36,0-1.77,0-8.44.46-16.91.15-25.35.8a10.77,10.77,0,0,1-1.27,0c-2.48-.13-3.57-1.41-3.32-3.93.09-1,.28-1.88.44-2.82C677.66,755.26,677.55,747,679.66,738.35Zm8.56-334.28c-.1-.4-.09-.53-.16-.61-11.14-12.8-27-19.12-44.12-14.14a41.74,41.74,0,0,0-22.33,15.31c-.75,1-1.24,1.79.16,2.84q14.06,10.57,27.62,21.79a1.53,1.53,0,0,0,2.41,0c1.29-1.26,2.64-2.44,4-3.63A134.15,134.15,0,0,1,682.46,407C684.33,406,686.23,405.06,688.22,404.07ZM378.43,644.26a2.21,2.21,0,0,0,0-1.94,236,236,0,0,1-9.53-35.43c-.95-5-1.82-10-2.68-15-.21-1.21-.57-1.86-2-1.67-2.93.38-5.88.67-8.83.78a3.33,3.33,0,0,0-3.26,2.39,102.68,102.68,0,0,0-6,18.64,2.8,2.8,0,0,0,1,3c4.07,4,7.73,8.38,11.47,12.69a90.28,90.28,0,0,0,9.51,9.75A42.4,42.4,0,0,0,378.43,644.26ZM331.18,871.52c3.48-1.93,4.23-4.55,3.26-8.12a135.68,135.68,0,0,0-10.31-25.8,8.9,8.9,0,0,0-4.68-4.07,70.19,70.19,0,0,0-14.39-4.76c-4.39-.89-8.87-1.26-13.08.65-4.82,2.19-8.8,5.65-12.82,8.92a1.63,1.63,0,0,0,1.16.92c4.57,1.3,9.16,2.5,13.68,3.93,5.85,1.84,11.92,2.73,17.81,4.38,7.52,2.11,12.85,6.64,15.65,14C328.69,864.81,329.89,868.07,331.18,871.52Zm286.93-49.11c1.14-.75,2.1-1.37,3.06-2a189.68,189.68,0,0,1,31.12-17.54,49.26,49.26,0,0,1,12.12-3.52,122.9,122.9,0,0,1,25.28-1.2c1.09.06,2,.21,2.41-1.27,1.24-4.69,2.72-9.32,3.91-14,.66-2.63-.06-3.51-2.74-3.76-8.43-.77-16.68-.25-24.37,3.79-1.5.79-3.06,1.45-4.51,2.31-13.45,8-26.52,16.52-39.8,24.76a37.22,37.22,0,0,0-3.78,2.87,20.59,20.59,0,0,0-2.29,2.19C616.32,817.5,616.23,818.94,618.11,822.41ZM478.69,802.88a72.13,72.13,0,0,1,14.92-41.63c-.53-.32-.69-.5-.85-.5a90.34,90.34,0,0,1-19.82-1.86c-1.23-.26-1.66.35-2,1.4a29.91,29.91,0,0,1-3.25,7.2,12.75,12.75,0,0,1-10.06,6.33c-.65,0-1.44-.51-2.08.44A185,185,0,0,0,478.69,802.88ZM836.24,380.56c-1.19-.13-2-.26-2.83-.3a123.31,123.31,0,0,0-23,1.39,196.06,196.06,0,0,0-35.18,9.05,7.28,7.28,0,0,0-4.43,3.65c-4.28,7.89-8.91,15.58-13.67,23.18-.35.56-1.09,1.07-.68,1.84,2.91,0,5.76-.13,8.59,0,2,.11,3-.74,3.92-2.38a63.77,63.77,0,0,1,26.34-24.89,77.24,77.24,0,0,1,35.35-8.52A6.07,6.07,0,0,0,836.24,380.56ZM701.58,427.65a85.14,85.14,0,0,0-8.36-17.58c-.89-1.41-1.64-1.49-3.06-.82a122.86,122.86,0,0,0-22.89,14,1,1,0,0,0-.43,1.1,157.28,157.28,0,0,1,22.27,5.86,4.37,4.37,0,0,0,3,.35C695.13,429.51,698.17,428.67,701.58,427.65ZM366,759.48a2.29,2.29,0,0,0-2.67,2.28,9.59,9.59,0,0,0,.61,2.44c2.14,6.24,5.53,11.81,9.16,17.27a25.79,25.79,0,0,0,16,11c6.43,1.6,13.1,2.21,19.34,4.65a2.15,2.15,0,0,0,3-1.45,2.1,2.1,0,0,0-1.39-2.79,46.62,46.62,0,0,0-5.38-1.82c-4.61-1.1-9.25-2.06-13.88-3.06a21.64,21.64,0,0,1-14.18-9.76c-3.4-5.24-6.63-10.53-8.62-16.49C367.61,760.64,367.2,759.62,366,759.48Zm-24.87,20.9c.18.59.41,1.4.68,2.2,1.82,5.28,4.26,10.32,6.28,15.51,2.73,7,7.61,11.15,14.91,12.62a34.94,34.94,0,0,1,11.81,5.13c.89.57,1.79,1.12,2.72,1.62a1.94,1.94,0,0,0,2.74-.76,2.05,2.05,0,0,0-.28-2.86,8.94,8.94,0,0,0-1.27-.92c-4.55-2.92-9.25-5.46-14.59-6.66a39.5,39.5,0,0,1-4.21-1.33,9.64,9.64,0,0,1-5.77-5,157.57,157.57,0,0,1-7.94-18.59,24.81,24.81,0,0,0-.83-2.38,2.08,2.08,0,0,0-2.65-1.14C341.56,778.09,341.07,778.94,341.16,780.38Zm-10.9,38.51c-4.15-3.16-6.7-7.41-9.09-11.73a3.63,3.63,0,0,0-3.5-2.06,50.06,50.06,0,0,1-15.25-2.54.75.75,0,0,0-.95.37,12.49,12.49,0,0,0,.3,3.26c.64,6.88-.16,6.84,7.71,9.06,6.19,1.75,12.64,2.41,18.86,4.12A1.89,1.89,0,0,0,330.26,818.89Zm435.62-344c2-1.55,2.31-3.07.94-5a14.66,14.66,0,0,1-1.77-3.7,7.77,7.77,0,0,0-3-3.87c-5.46-4-10.71-8.24-14.49-14a3.92,3.92,0,0,0-.37-.51c-.9-.93-2-.52-3-.3s-.6,1.17-.55,1.85c.21,2.84.46,5.68.65,8.52a2.81,2.81,0,0,0,1.17,2.41C752.28,465.09,759,470,765.88,474.86ZM441.42,726.44c-1.69,0-3.38-.07-5.07,0s-2.5.9-2.54,2.21.81,2.2,2.41,2.31c1.15.08,2.32,0,3.48,0a36.11,36.11,0,0,1,9.45.57c10.59,2.46,18,10.61,17.41,21.66a7.42,7.42,0,0,0-.06.94,2.07,2.07,0,0,0,2.11,2.27,2.11,2.11,0,0,0,2.36-2,12.46,12.46,0,0,0,.16-2.2c-.09-9.7-4.39-17-12.71-21.87A28.63,28.63,0,0,0,441.42,726.44ZM340.45,609a162.24,162.24,0,0,1,5.29-17,3.39,3.39,0,0,0-3.95,1.27c-2.12,2.48-4.34,4.88-6.51,7.33-1.08,1.21-2.14,2.45-3.33,3.82A60.39,60.39,0,0,1,340.45,609ZM754,446.86a23.91,23.91,0,0,0,7.06,6.66,4.08,4.08,0,0,0,.19-.82C761,446.36,761,446.36,754,446.86Z"/><path class="cls-4" d="M407,229.36a83.85,83.85,0,0,1,.72-9.5,42.1,42.1,0,0,1,3.89-12.66,26,26,0,0,1,11.63-11.73c6.11-3.06,12-2.63,17.7,1.16a34,34,0,0,1,8.92,9.34,93.63,93.63,0,0,1,9.81,19.48,252.09,252.09,0,0,1,13.48,51.69c1.91,12,3.26,24.08,4.46,36.17a8.88,8.88,0,0,1-1.26,5.64c-4.82,8.56-9.38,17.26-14,25.95-.72,1.35-1.23,2.72-3,2.86s-2.54-1.24-3.36-2.47c-13.68-20.69-29.51-39.67-46.14-58a144.43,144.43,0,0,0-22.51-20.42c-7.5-5.41-15.47-9.85-24.62-11.91a36.33,36.33,0,0,0-27.45,4.33,55,55,0,0,0-16.49,15.55c-.61.86-1.2,1.74-1.85,2.57a2.84,2.84,0,0,1-3.37,1.08,3,3,0,0,1-2.24-3.09c.4-17.34,3.48-34,12.1-49.33a56.19,56.19,0,0,1,5.74-8.35c11.17-13.45,25.22-17.73,42-13.07a59.77,59.77,0,0,1,20.88,11,107.26,107.26,0,0,1,12.25,11.48A6,6,0,0,0,407,229.36Zm2.07,12.37c-1-1.12-1.95-2.22-2.88-3.36A126.45,126.45,0,0,0,393,224.25c-6.8-6.16-14.3-11.15-23.19-13.82-14.68-4.4-27.92-.17-36.51,11.68a12.44,12.44,0,0,0-1,1.15c-7.4,10.38-11.15,22.17-13.28,34.57-.38,2.21-1,4.43-.59,7.23,1-1,1.75-1.68,2.46-2.4a53.86,53.86,0,0,1,11.49-8.89,42.82,42.82,0,0,1,30.21-5.15c9.75,1.83,18.33,6.23,26.42,11.74a139.19,139.19,0,0,1,23.82,20.79c16.21,17.56,31.5,35.87,44.78,55.78a4.08,4.08,0,0,0,1.77,1.93c3.38-6.39,6.67-12.61,10-18.83a9.63,9.63,0,0,0,2.18-8.47c-.78-4.25-1-8.6-1.52-12.9a360.8,360.8,0,0,0-7.07-43.1c-3.14-13.17-7.18-26-13.19-38.23a51.55,51.55,0,0,0-8.15-12.4c-6.67-7.23-13.72-7.76-21.47.27a5.62,5.62,0,0,0-1.61,2.31,20.25,20.25,0,0,0-3.75,7.87,59.26,59.26,0,0,0-1.55,21.91C413.56,240.84,412.69,241.78,409.07,241.73Z"/><path class="cls-5" d="M1090.36,566.53a35.12,35.12,0,0,1-1.67,6.72A172.25,172.25,0,0,1,1052.33,638c-23.92,27.12-53.31,46.28-86.87,59.29a233.86,233.86,0,0,1-105.75,14.82c-21.07-1.92-41.85-5.62-62.61-9.51-18.68-3.49-37.31-7.24-56.08-10.26a2.74,2.74,0,0,1-2.7-2.77c-.32-2.3-.8-4.57-1.27-6.85a12.29,12.29,0,0,0-1.46-3.83c-1.48-2.54-3.06-3.1-5.86-2.15a13.14,13.14,0,0,0-4.31,2.61,64.46,64.46,0,0,0-7.38,7.4,4.44,4.44,0,0,1-4.41,1.67c-8-1-16-1.65-24-2.16-5.28-.33-10.56-.34-15.84-.42-1.15,0-2.29,0-4.26,0a279.29,279.29,0,0,0,29.26-33.08,295.31,295.31,0,0,0,23.28-36.79c1.93,1.39,3.63,2.63,5.34,3.85,19.07,13.65,40.05,23.45,62.25,30.8a308.82,308.82,0,0,0,59.9,13.19c16.22,2,32.47,2,48.75,1.62a22.16,22.16,0,0,0,3.14-.34,1.42,1.42,0,0,0,.09-2.75,13.13,13.13,0,0,0-2.5-.38q-13-.74-25.95-1.43c-42.29-2.25-82.71-11.72-120.53-31.21a196.71,196.71,0,0,1-26.14-16.14c-2.55-1.87-2.09-1.65-.93-4a269.78,269.78,0,0,0,22.6-65.74c1-5,1.9-10,2.59-15,.85-6.14-.87-11.72-4.38-16.77a43.73,43.73,0,0,0-10.92-10.49c-7.19-5.1-15.12-8.85-23-12.68a8.47,8.47,0,0,1-2.93-1.65,4.54,4.54,0,0,1,2.69.24c15,3.57,29.08,9.52,42.74,16.54,4,2.08,8,4.36,12,6.43a9.05,9.05,0,0,1,4.1,4.17q7.14,14,15.45,27.3a25.21,25.21,0,0,0,1.74,2.65c1.71,2.07,4.21,1.93,5.42-.48a83.91,83.91,0,0,1,5.53-8.48c2.65-4,2.7-3.92,6.62-1.52a326.05,326.05,0,0,0,132.18,45.74,312.45,312.45,0,0,0,45.24,2.25,282.38,282.38,0,0,0,45-4.74c4.14-.79,8.4-.92,12.6-1.33a302,302,0,0,0,47.92-8.81A16.11,16.11,0,0,1,1090.36,566.53Z"/><path class="cls-1" d="M685.88,498.5c2.32-3.77,4.88-7.4,6.67-11.49.48-1.09,1-1,2-.56,8.71,4.53,17.9,8.07,26.53,12.77A92.13,92.13,0,0,1,733.35,507a35.58,35.58,0,0,1,8.32,8.64,17.44,17.44,0,0,1,2.76,12.7c-9.95,59.21-36.18,110-79.23,151.86a221.22,221.22,0,0,1-59.59,41.42,25.67,25.67,0,0,1-9.12,2.39c-9,.75-18,.06-26.9-1a505.05,505.05,0,0,1-97-21.34c-8.44-2.71-16.77-5.75-25-9-1-.41-2-.91-3.3-1.48.9-.94,1.74-.58,2.48-.55a47,47,0,0,0,13.54-1,25.65,25.65,0,0,0,14.32-8.8,17.85,17.85,0,0,0,1-21.8c-3.2-4.8-7.71-6.69-13.38-5.85a36.46,36.46,0,0,0-8.18,2.42c-1.77.71-3.51,1.47-5.26,2.2a24,24,0,0,1-15.82,1.07,64.47,64.47,0,0,0-10.5-2.31,23.33,23.33,0,0,0-8.49.55,2.87,2.87,0,0,1-3.36-.85c-3-3.37-7-5-11.33-5.88-3-.65-6-1.38-9-1.83a4.19,4.19,0,0,1-3.55-3,222.21,222.21,0,0,1-10.1-33c-1.72-7.51-3.2-15.07-4.39-22.87,5.22-.71,10.33-1.38,15.43-2.09,7.64-1,15.22-2.43,22.8-3.83a4.3,4.3,0,0,0,3.61-3.44,198.89,198.89,0,0,0,7.33-33.38,3.82,3.82,0,0,1,2.26-3.37,238.75,238.75,0,0,1,35.41-15.34A6,6,0,0,1,465,529c20.1,13,41.07,24.27,63.47,32.81a317.29,317.29,0,0,0,37.78,11.69c10.36,2.54,20.54,1.59,30.61-1.54,11.11-3.44,21.16-9,30.72-15.48a223.58,223.58,0,0,0,33.32-28.26c.58-.59,1.23-1.13,1.84-1.69.7,1.69,2.46,2.25,3.67,3.4,9.36,8.93,14.17,20.06,15.31,32.73A63.4,63.4,0,0,1,680.16,584a9.24,9.24,0,0,0-.17,3.14v-.21l-.67.92a108.63,108.63,0,0,1-15.7,13.75A69,69,0,0,1,646,611.33a33.09,33.09,0,0,1-15.88,2c-19.77-2.74-39.46-5.9-59-9.91a589.2,589.2,0,0,1-86.73-24.54q-21.68-8-42.75-17.54a27.55,27.55,0,0,0-6.25-2.22c-1.07-.21-2.18-.16-2.75,1s.09,2,.87,2.8a17.84,17.84,0,0,0,4.44,3c6.92,3.64,14,7,21.13,10.13,53.94,23.25,110.36,37,168.58,43.74a40.79,40.79,0,0,0,12.62-.31c9.66-1.88,18-6.54,25.86-12.2A145,145,0,0,0,687.48,588c3.88-4.18,7.61-8.48,11.41-12.72.36,7.26.89,14.51.75,21.8,0,2.66-.83,5.22-.64,7.86a41.39,41.39,0,0,1-.87,9.11,132.94,132.94,0,0,1-5.23,23,1.41,1.41,0,0,0,.38,1.73c1.06-1.27,2.15-2.49,3.14-3.79a107.45,107.45,0,0,0,13.16-23,270.62,270.62,0,0,0,11.61-33.76c2.09-7.28,4.13-14.59,6-21.94,1.67-6.74,3.81-13.36,5.11-20.2.45-2.36.3-4.55-1.51-6.37,1.23-2.32,2.46-4.64,3.67-7,.34-.66.61-1.35.92-2,.44-.93.67-1.86-.45-2.46-.92-.5-1.63,0-2.18.72-1.5,1.9-3,3.82-4.44,5.74-2-2.75-4.84-4.68-7.54-6.67C710.51,510.62,699.15,505,688,499.06A9.18,9.18,0,0,0,685.88,498.5Zm-42.1,127.79c.15-1.42,0-2.33-1.2-2.63a1.77,1.77,0,0,0-2.27,1.2c-.2.48-.33,1-.49,1.5-1.45,4.42-2.93,8.82-4.33,13.25-7.36,23.36-16.74,45.81-29.78,66.63a21.37,21.37,0,0,0-1.53,2.77,9.4,9.4,0,0,0-.78,2.72c-.13,1.29.81,1.92,2.05,1.48a6.05,6.05,0,0,0,2.67-2.18,63.24,63.24,0,0,0,4.57-6.85c13.18-22,22.52-45.58,29.21-70.27C642.62,631.26,643.22,628.58,643.78,626.29Z"/><path class="cls-6" d="M578.12,567.88c-4.45.2-9.06-1-13.66-2.2-29.7-7.58-57.42-19.81-83.63-35.58-5.25-3.16-10.38-6.51-15.58-9.76a6.43,6.43,0,0,1-2.42-2.41c-7-12.81-13.63-25.77-18.51-39.56a67.16,67.16,0,0,1-3.1-11.94,15.29,15.29,0,0,1,1.31-9.22c6.06-12.93,12.85-25.46,19.78-37.92,9.46-17,19.29-33.76,30-50,2.79-4.24,5.8-8.32,8.83-12.39,3.66-4.92,8.58-6.56,14.43-6.27a49.52,49.52,0,0,1,15.63,3.76,127.54,127.54,0,0,1,26.92,14.69c29.46,20.76,58.81,41.68,86.64,64.62a322.05,322.05,0,0,1,29.46,26.91,97,97,0,0,1,8.36,9.95,42.94,42.94,0,0,1,3.64,5.94,9,9,0,0,1-.05,9.05,95.67,95.67,0,0,1-5.1,8.39,227.61,227.61,0,0,1-58.32,57.64c-9.58,6.48-19.78,11.75-31.1,14.6A51.19,51.19,0,0,1,578.12,567.88ZM524.39,366.14c-.76-.72-1.5-1.45-2.28-2.14a1.18,1.18,0,0,0-1.7-.06,1.15,1.15,0,0,0-.25,1.44,12.82,12.82,0,0,0,1,1.62c1.48,2.18,3,4.38,4.48,6.52a426.81,426.81,0,0,1,44.25,77.77q8.45,19.29,15.54,39.12a14.69,14.69,0,0,0,2,4.28,2.48,2.48,0,0,0,2.83.88,2.28,2.28,0,0,0,1.68-2.4,11,11,0,0,0-.83-4c-10.52-30.43-23.63-59.65-40.61-87.06a8.54,8.54,0,0,1-1.49-2.77c1.46-.47,2.35.55,3.35,1.29,8.53,6.4,16.25,13.74,24,21,8.06,7.46,15.33,15.72,23,23.58l.65.69c4.53,5.14,9.09,10.26,13.58,15.43,3.18,3.65,6.24,7.4,9.42,11.06s6.05,7.3,8.93,11.06c.79,1,1.52,1.47,2.88.53A162.63,162.63,0,0,1,662,469c3.47-1.54,3.43-1.68.66-4.42-7.05-7-14.62-13.37-22.21-19.74q-10.41-8.74-21.19-17c-9.94-7.65-20-15.13-30-22.68-14.81-11.18-29.56-22.45-45.48-32-5-3-10.21-6-16.07-7.31C526.52,365.52,525.39,365.16,524.39,366.14ZM590,553.49a11.07,11.07,0,0,0,4.89-1.22,93.51,93.51,0,0,0,11-6.22,488.9,488.9,0,0,0,42.37-30.62,235.16,235.16,0,0,0,23.44-20.84,45.79,45.79,0,0,0,8.83-13.44c1.1-2.49,1.75-5.15-.28-7.47s-4.75-1.91-7.37-1.27a39.2,39.2,0,0,0-8.81,3.5c-9.38,4.86-18.47,10.24-27.61,15.51-12.35,7.13-24.61,14.41-37.09,21.3a31.08,31.08,0,0,1-14.26,3.74A53.36,53.36,0,0,1,565.27,513c-9.34-3.34-18.7-6.63-28-10.15-21.61-8.21-43.08-16.76-64.11-26.39a19.53,19.53,0,0,0-5.4-1.76c-4.43-.63-7.67,2-8,6.49a12,12,0,0,0,.33,4.09c3.07,10.71,8.17,19.91,18.54,25.27,1.59.82,3.14,1.73,4.74,2.56,13,6.74,26.47,12.65,40,18.24,17.66,7.28,35.43,14.28,53.81,19.61A55.18,55.18,0,0,0,590,553.49Z"/><path class="cls-1" d="M320.58,467c-.34-.62-.1-.88.11-1.09,12.42-12.41,27.07-19.74,44.94-19.34,13.08.29,23.57,6,31.57,16.24a87,87,0,0,1,14.39,28,119.32,119.32,0,0,1,4.85,41.66,190,190,0,0,1-7.31,42.38,3.88,3.88,0,0,1-3.49,3.29,448.29,448.29,0,0,1-104.12,7.27,435.34,435.34,0,0,1-82.14-11.19,8,8,0,0,1-3.08-1.06A272.72,272.72,0,0,1,227,538.46a160.14,160.14,0,0,1,14-28.39,79.52,79.52,0,0,1,14.57-17.47,45.91,45.91,0,0,1,15.49-9,216.4,216.4,0,0,1,42.87-9.64c9.65-1.24,19.33-2,29-2.58a34.46,34.46,0,0,0,7.81-1.23c1-.3,2.13-.65,2-2-.1-1.18-1.11-1.48-2-1.66a29.87,29.87,0,0,0-5.34-.66c-7-.14-13.94.5-20.9.94C323.1,466.77,321.77,466.89,320.58,467Zm60.77,64.91c.7-.67.44-1.33.44-1.92a79.63,79.63,0,0,0-6.33-29.44,52.47,52.47,0,0,0-13.37-19.35c-1.65-1.49-3.33-3.24-5.61-3.3-3.18-.07-6.28-.67-9.45-.73-5.07-.11-10.09.71-15.15.76a46.22,46.22,0,0,0-6.59.64c-4.66.76-9.33,1.48-14,2.28a162.4,162.4,0,0,0-27.72,7.42c-1.24.45-2.65.7-3.67,1.73a6.26,6.26,0,0,0,2.52,2.84c4.27,3.21,7.59,7.29,10.84,11.44,1.28,1.63,2.57,3.09,5,2.12a3.75,3.75,0,0,1,1.26,0,193.74,193.74,0,0,1,27.13,1.13c9.75,1.23,19.35,2.95,28.56,6.41a61.23,61.23,0,0,1,19,11.06A80.63,80.63,0,0,1,381.35,531.89Zm16.83,3A97.65,97.65,0,0,0,397,520.28a73.21,73.21,0,0,0-15.53-35.2,35.32,35.32,0,0,0-8.49-7.54c-.75-.47-1.57-.88-2.27-.05s0,1.38.48,1.94c2,2.55,4.12,5.08,6.19,7.62A65.17,65.17,0,0,1,390,512.68c3.21,12.81,3.21,25.71,1,38.65a10.11,10.11,0,0,0-.22,3.46c.2,1.09.64,2,1.88,2.27a2.31,2.31,0,0,0,2.58-1.37,11.64,11.64,0,0,0,1.2-3.58A103.7,103.7,0,0,0,398.18,534.93Z"/><path class="cls-6" d="M417.81,695.18a8.69,8.69,0,0,1,1-.66c3.81-1.74,3-1.47,4.67,1.51,2.57,4.62,5.15,9.23,7.64,13.88a22.57,22.57,0,0,1,3,11.21c0,.73-.15,1.47-.18,2.2-.07,1.38-.84,1.57-1.92,1.16a15.07,15.07,0,0,1-5.67-4,4.62,4.62,0,0,1-1-1.23c-1.84-4.34-5.26-5.34-9.67-5.2s-8.67.08-12.82,1.58c-7.82,2.82-11.22,9.24-9.31,17.34a43.15,43.15,0,0,0,3.88,9.51c-.19.37-.37.42-.59.27-4.38-2.94-9.16-3.45-14.26-2.52a32.48,32.48,0,0,0-15.4,7c-3,2.5-5.39,5.46-5.7,9.53-.1,1.37-.82,1.52-1.78,1.68a39.79,39.79,0,0,0-7.95,2.09,25.26,25.26,0,0,0-6.86,3.88c-3,2.41-5.13,5.38-5.63,9.25-.21,1.61-.9,1.81-2.28,1.7-4.22-.32-8.46-.54-12.61.59-5.27,1.43-9.09,4.38-10.29,10a14.42,14.42,0,0,0,.63,6.87c.45,1.62,1,3.2,1.66,5.08-5-.18-9.76-.81-14.1-3.22a63.48,63.48,0,0,1-10.76-7.8A169.56,169.56,0,0,1,267.08,760c-15.37-20.76-27.64-43.21-35.9-67.76-3-8.94-4.6-18-2.92-27.43a102.69,102.69,0,0,1,3.27-13.54,146.33,146.33,0,0,1,13.2-28.72c6.56-11.25,16-16.92,29.14-16.75,11.1.14,22.21-.21,33.27.84,7.27.69,14.46,1.77,21.38,4.28a29.83,29.83,0,0,1,10.72,6.56c3.21,3.08,6.3,6.26,9.23,9.6,2.3,2.62,4.63,5.21,6.88,7.88C365.53,647,378.52,654,394,656.66a52,52,0,0,1,6.17,1.41,7.79,7.79,0,0,1,4.44,2.65L397.24,665a18.47,18.47,0,0,0-5.7-3.34c-5.86-2.41-12-4-17.94-6.22a38.12,38.12,0,0,1-14.38-9c-2.48-2.59-4.88-5.26-7.33-7.87-4.54-4.84-8.84-9.9-14-14.21-7.93-6.69-16.66-11.45-27.07-12.71a5.39,5.39,0,0,0-3.59.34c.32.34.44.54.61.63.94.5,1.88,1,2.83,1.44a100.72,100.72,0,0,1,23.08,16.51,157.13,157.13,0,0,1,20.6,23.54,190.26,190.26,0,0,1,25.71,48.49c1,3,1.49,3.24,4.62,2.76,7.79-1.2,15.57-.7,23.31.35a71.86,71.86,0,0,1,14.33,3.82c.94.33,1.86.95,3.31.57C423,705,420.76,699.93,417.81,695.18ZM291.09,654.94a26.92,26.92,0,0,0,2.52-1.83q5.17-4.89,10.3-9.86c1.92-1.86,2-2.83.32-4.84-.4-.49-.86-.93-1.28-1.41-4.67-5.31-9.9-10.09-14.47-15.5-1.14-1.35-2.4-1.45-3.92-.36a38.47,38.47,0,0,0-3.41,2.83c-2.95,2.71-5.88,5.46-8.81,8.19-1.6,1.5-1.6,1.51-3.12-.18-1.2-1.33-2.33-2.74-3.57-4-1.75-1.8-3.17-1.77-4.81,0s-3.37,3.79-5,5.72c-3.68,4.34-7.32,8.72-11,13a3,3,0,0,0-.33,3.79c1.3,2.3,2.55,4.63,4,6.81a2.91,2.91,0,0,1,0,3.91c-2.34,3.25-4.44,6.67-6.65,10a3.82,3.82,0,0,0-.48,4.13c3.21,6.65,6.67,13.18,10.44,19.53,1.51,2.54,3.43,2.47,5.2,0,2.11-2.9,4.15-5.85,6.26-8.75,1.09-1.5,2.27-2.93,3.36-4.31a7.34,7.34,0,0,1,2.43,2.07,99.33,99.33,0,0,0,7.86,7.36c2.53,2.07,3.9,1.84,5.7-.79a19.24,19.24,0,0,1,1.29-1.78q8.28-9.62,17.23-18.59c2.77-2.76,2.78-3.71-.27-6.31S294.64,658.51,291.09,654.94Zm60.25,63.54a17,17,0,0,0-.42-4.08c-1.52-6.22-5.83-9.41-12.24-9a19.27,19.27,0,0,0-9,2.78,46.51,46.51,0,0,0-21.21,27,16.61,16.61,0,0,0,.88,12.65,11.52,11.52,0,0,0,12.13,6.76,19.37,19.37,0,0,0,8.57-3,45.2,45.2,0,0,0,19.55-23.7A26.56,26.56,0,0,0,351.34,718.48Zm-25.23-25.8c-.05-.86,0-2-.2-3.18-1.08-7.84-7.1-12-14.8-10.19a20,20,0,0,0-6.17,2.39,43.82,43.82,0,0,0-19.32,25c-1.43,4.73-1.14,9.43,1.71,13.69a9.79,9.79,0,0,0,10.11,4.48,20.55,20.55,0,0,0,6.61-2.08,46.63,46.63,0,0,0,17.89-15.72A25.71,25.71,0,0,0,326.11,692.68Z"/><path class="cls-7" d="M791.38,536.48c-1-.34-1.22-1.12-1.57-1.74-4.06-7.16-8.06-14.36-12.16-21.51a3.19,3.19,0,0,1,.14-4c4.86-6.91,9.61-13.91,14.89-20.52a12.52,12.52,0,0,1,2.41-2.47c2.13-1.54,2.36-2.73,1-5.13a34.07,34.07,0,0,1-3.83-9.33c-1.83-8-.42-15.53,3.4-22.67,4.66-8.71,11.19-15.86,18.7-22.15a104.19,104.19,0,0,1,33.71-19.1,17.79,17.79,0,0,0,7.72-5c8-8.6,16.24-16.94,24.43-25.33,3.54-3.63,7.19-7.16,10.77-10.75a3.94,3.94,0,0,1,3-1.49c10,.06,20.07.55,30.09,1.06a1.34,1.34,0,0,1,1.14.5c-.15.88-.91,1.35-1.48,1.95Q911,382.16,898.34,395.45a106.79,106.79,0,0,1-7.73,7.46c-2,1.7-2.08,3.49-.08,5,10.7,8.14,12.87,19.18,10.33,31.49-3.62,17.45-13.08,31.2-27.75,41.28a85.53,85.53,0,0,1-50,15.53c-.84,0-1.69,0-2.53,0a2.82,2.82,0,0,0-2.81,1.74c-1.2,3.6-3.76,6.33-5.79,9.39-3,4.56-6.26,9-9.42,13.47a7.6,7.6,0,0,1-2.8,2.94,2.69,2.69,0,0,0-1.41,1.65C797,529.78,793.56,532.74,791.38,536.48Zm83.43-98.77c1-1.35,1.55-2.22,2.19-3,2.66-3.42,5.35-6.81,8-10.24,1.55-2,1.76-3.49.66-4.87a3.4,3.4,0,0,0-4.5-1.06c-1.13.54-2.3.23-3.44.16-2.63-.15-5.26-.39-7.9-.6-4.73-.39-9.55-.38-14.17-1.32-2.9-.59-4.28.24-5.73,2.37-3.08,4.54-6.3,9-9.46,13.48-.55.78-1,1.59-2.2,1.45-4.2-.47-8.45-.63-12.59-1.39-3.65-.66-3.62-.95-5.7,2q-6.75,9.58-13.48,19.19a11.57,11.57,0,0,0-.87,1.32,2.91,2.91,0,0,0,1.85,4.47,14.17,14.17,0,0,0,2.18.36l10.17,1.57c-1.07,1.53-1.85,2.64-2.64,3.74-2.33,3.27-4.73,6.49-7,9.82-1.46,2.18-.4,4.59,2.06,4.54,5-.09,9.88.9,14.81,1.37,3,.3,6.17.2,9.07,1.23,3.59,1.29,3.82,1.35,6-1.56,3.27-4.29,6.54-8.57,9.73-12.91a2.91,2.91,0,0,1,3.18-1.42c3.53.6,7.15.85,10.62,1.69,2.5.61,3.92-.12,5.35-2.05,5.53-7.47,11.18-14.85,16.79-22.27.25-.33.51-.67.74-1a2.74,2.74,0,0,0,0-3.27,2.94,2.94,0,0,0-3.27-1.43C881.92,439.08,878.68,437.92,874.81,437.71Zm6.34-55.17c.88,1.13,2,.62,3,.68,4.1.22,8.2-.21,12.29.58A10.2,10.2,0,0,0,906.8,380c2.32-2.72,5.08-5,7.58-7.62.74-.77,2-1.05,2.34-2.39a10.16,10.16,0,0,0-1.09-.14c-7.16-.09-14.31.11-21.46.65a4.06,4.06,0,0,0-2.72,1.38c-1.86,1.87-3.77,3.68-5.6,5.58C884.27,379.15,882.39,380.55,881.15,382.54Z"/><path class="cls-1" d="M196.25,901.2a8.35,8.35,0,0,1,2-2.82,259,259,0,0,1,52.16-45.92c2.71-1.84,5.61-3.37,8.44-5a20.89,20.89,0,0,1,16.48-2.1c3.77,1,7.59,1.82,11.33,2.93a204.3,204.3,0,0,0,20.25,5,31.26,31.26,0,0,1,5.77,1.68,13.75,13.75,0,0,1,7.78,7.06,69.83,69.83,0,0,1,5.69,16.37c.5,2.54,1.69,5,2.3,7.53s.63,2.61-1.81,3.62Q300.81,900.29,274.93,911c-2.72,1.13-5.51,2.13-8.2,3.34a32,32,0,0,1-20.39,1.92c-16-3.42-31.88-7.26-47.07-13.49A7.65,7.65,0,0,1,196.25,901.2Zm65.39,1.72,6.83,1.12c2.47.41,4.59-.1,6.13-2.26a16.8,16.8,0,0,1,1.31-1.37c6.34-6.91,12.58-13.91,19-20.72,5.15-5.45,10.56-10.66,15.83-16,1.43-1.45,1.41-1.9-.15-2.48-9.57-3.6-18.84-8-28.69-10.82-6.82-2-13.67-2.3-20.45.4a7.85,7.85,0,0,0-3.66,2.44,57.44,57.44,0,0,1,9.33,2.6c3.94,1.55,7.75,3.29,10.58,6.67,4.09,4.88,5.6,10.27,3.65,16.46-1.83,5.79-5.53,10.38-9.51,14.77A80.37,80.37,0,0,1,261.64,902.92Z"/><path class="cls-6" d="M737.91,458.12c0,1.37,0,2.75,0,4.12,0,1.12-.48,1.44-1.56,1.34-6.42-.59-12.83-1.21-19.26-1.66-1.68-.12-1.8-1.09-2-2.27-.76-5.66-1.69-11.28-2.83-16.87a114.75,114.75,0,0,0-9.55-29.09c-5.28-10.49-12.51-19.24-22.56-25.58-21.36-13.49-48.73-6.81-62.84,11.56a9.47,9.47,0,0,0-.93,1.28c-.7,1.37-1.45,1.45-2.69.49-3.68-2.84-7.46-5.56-11.2-8.31-2-1.44-3.89-2.92-5.91-4.28-1.21-.82-1.34-1.54-.59-2.85a56.32,56.32,0,0,1,11.77-14.43c11.26-9.82,24.44-15.23,39.21-16.94,14.48-1.67,28.24.66,41.06,7.66,14.31,7.8,25.08,19.2,33.08,33.3,7.06,12.45,11.36,25.87,14,39.88A187,187,0,0,1,737.91,458.12Z"/><path class="cls-6" d="M766.1,842.73c-.47,1-1.29,1.14-1.93,1.43-6.27,2.77-12.57,5.49-18.84,8.26a9.33,9.33,0,0,1-3.68.76c-16.8.25-33.59,0-50.37-.9q-19-1-37.91-2.85c-16.07-1.63-32.08-3.69-48-6.4a4,4,0,0,1-.77-.3c-.34-.6,0-.86.36-1.11,14.81-12,30.25-23,47.63-31a55.25,55.25,0,0,1,19.85-4.87c3.79-.25,7.58-.5,11.39-.55a31.24,31.24,0,0,1,13.78,3q12.35,5.73,24.28,12.28c12.69,6.94,25.37,13.87,38.7,19.53C762.42,840.79,764.17,841.77,766.1,842.73Zm-14.71-1.41c-2.75-1.57-4.9-2.83-7.09-4-7.48-4.14-15-8.19-22.31-12.63-7-4.26-14.12-8.48-21.51-12.1-5.24-2.56-10.67-4.66-16.67-4.23A59.14,59.14,0,0,0,673.23,810a57,57,0,0,0-7.53,2c.37,1,1.16,1.07,1.81,1.33,4.71,1.87,9.34,3.89,13.91,6.1C690.83,824,700,829.11,709.18,834c4.37,2.34,8.73,4.71,13.05,7.16,3.11,1.76,6.15,3.67,9.22,5.53a5.19,5.19,0,0,0,4.84.57Z"/><path class="cls-6" d="M741,430.89a156.11,156.11,0,0,0-7.11-24.06c-6.67-16.8-16.41-31.38-30.7-42.72a75.57,75.57,0,0,0-49.66-16.77c-.59,0-1.24.29-1.75-.23-.17-.4.1-.61.32-.81,8-7.22,16.33-14.07,25.78-19.39,1.47-.83,3-1.55,4.51-2.31,8.65-4.34,17.53-4.8,26.74-1.91,12.74,4,23.26,11.37,32.29,21,11.34,12.12,18.79,26.43,23.33,42.31a10.65,10.65,0,0,1-1.1,9c-4.74,7.87-9.21,15.92-14.46,23.46C746.46,422.38,744.54,426.86,741,430.89Zm8.06-59.05c.14.24-.24.93.47.61.15-.06-.15-.5-.45-.62a4.38,4.38,0,0,0-.71-2.08,90.62,90.62,0,0,0-9.56-15.26c-7.61-10-16.15-19-27.11-25.31-7.21-4.15-14.87-5.57-23.07-2.7s-14.92,8.16-21.28,13.91c-.41.36-1.13.69-.74,1.48,1.74.56,3.33-.37,5-.45A93,93,0,0,1,691.75,343,100,100,0,0,1,710.31,348c13.45,5.12,25.7,12.2,36.19,22.16C747.25,370.88,747.85,371.85,749.07,371.84Z"/><path class="cls-7" d="M773.73,505.57c-3.23-5.92-5.89-11.52-8.57-17.12a2.33,2.33,0,0,1,0-2.39c1.8-3.06,4.38-5.57,5.93-9.09,1.25,1.18,2.13,2,3,2.88,2.11,1.87,3.33,2.1,4.69.91s1.31-2.65-.14-4.78c-.83-1.23-1.68-2.43-2.56-3.63a44,44,0,0,1-8.36-20.94c-.07-.63-.17-1.26-.21-1.89-.16-3.11-.13-2.83,2.51-3a37.37,37.37,0,0,0,10.26-1.82,16.16,16.16,0,0,0,10.33-10c2.32-6.25-.51-12-6.87-14.08-2.72-.89-5.59-1-8.47-1.34.05-1.32.94-2.15,1.58-3.07,9.29-13.28,22.16-21.12,37.78-24.71a73,73,0,0,1,17.6-1.88,5.36,5.36,0,0,0,4.51-2.17c2.35-2.61,4.84-5.32,8.39-6.49a2.47,2.47,0,0,0,1.69-1.34c.63-1.71,2.11-2.59,3.42-3.63,3.31-2.63,6.68-5.18,9.94-7.87a9.48,9.48,0,0,1,5.68-2.31c5.38-.38,10.77-.36,16.15-.5.38,0,.85-.13,1.09.38,0,.7-.64,1-1.06,1.43-10.06,10-19.82,20.23-29.47,30.59a14,14,0,0,1-6,3.86c-19.43,6.52-36.23,17.07-49.46,32.9-5,6-9.08,12.48-11.2,20.05a35.56,35.56,0,0,0,2.74,26.75c1,2,.75,3.14-.53,4.72C783.2,492.17,778.59,498.61,773.73,505.57Z"/><path class="cls-8" d="M685.88,498.5a9.18,9.18,0,0,1,2.12.56c11.15,5.95,22.51,11.56,32.73,19.09,2.7,2,5.5,3.92,7.54,6.67-1.68,2.66-3.3,5.37-5.06,8-11.91,17.81-24.58,35-39.35,50.61a18.47,18.47,0,0,1-3.87,3.67,9.24,9.24,0,0,1,.17-3.14,63.4,63.4,0,0,0,1.56-21.33c-1.14-12.67-6-23.8-15.31-32.73-1.21-1.15-3-1.71-3.67-3.4,3.84-4.34,7.71-8.64,11.5-13C678.39,508.69,682.14,503.6,685.88,498.5Z"/><path class="cls-9" d="M962.32,462.52c-5.7-.09-11.35-.87-17-1.37-10.92-.95-21.82-2.11-32.72-3.19-.89-.83-2-.53-3-.48h-.05a21.65,21.65,0,0,0-4.31-8.93,1.58,1.58,0,0,1,.34-1.26c.26-.12.3-.31.17-.56a62.33,62.33,0,0,0,2.24-15.9c-.15-9.21-3-17.36-9.42-24.08.14-.24.23-.54.33-.54q12.79-.15,25.6-.24c2.72.49,5.47.19,8.21.16a2.6,2.6,0,0,1,2.82,1.92c2.89,7.49,6.66,14.58,10.14,21.79,4,8.36,8.56,16.47,12.82,24.72A51.68,51.68,0,0,1,962.32,462.52Z"/><path class="cls-10" d="M413,800.64c1.79,0,3.06.82,4.45,1.27a53.49,53.49,0,0,0,11,2.75c9.41,1,15.41-3.69,16.78-13.09,1.56-10.81-1.88-19.33-11.24-25.24-.42-.27-.79-.6-1.65-1.26A45.57,45.57,0,0,1,445.55,770c1.12.58,1.54,1.71,2.15,2.67a214.6,214.6,0,0,0,37.58,45.6,190.26,190.26,0,0,0,23.54,18.21c.86.57,1.92.92,2.54,2.11-6.59-.81-13-1.86-19.4-3a458.65,458.65,0,0,1-51.75-12.1,149.08,149.08,0,0,1-27.68-11.66c-.64-.35-1.26-.75-2.11-1.25A35.58,35.58,0,0,0,413,800.64Z"/><path class="cls-6" d="M962.32,462.52a51.68,51.68,0,0,0-3.83-8c-4.26-8.25-8.8-16.36-12.82-24.72-3.48-7.21-7.25-14.3-10.14-21.79a2.6,2.6,0,0,0-2.82-1.92c-2.74,0-5.49.33-8.21-.16,2.81-.64,5.67-.33,8.5-.38,10.14-.14,20.29-.13,30.43-.36a4.17,4.17,0,0,1,4.28,2.34c11.39,19.27,22.82,38.52,33.9,58,.1.18.22.36.32.54,1,1.91,1,1.91-1.32,2.81-1.13-2.93-1.14-2.87-4.55-3.18Q979.19,464.15,962.32,462.52Z"/><path class="cls-9" d="M625.71,719c.94-.61,1.54-1,2.16-1.4A228,228,0,0,0,659.19,695a7.38,7.38,0,0,1,4.82-1.93c9.84-.33,19.66.12,29.47.71,4,.24,8,.66,12,1a20.28,20.28,0,0,1,4.41.66c.12,1-.73,1.43-1.24,2-4.81,5.48-9.71,10.89-14.46,16.42a85.58,85.58,0,0,0-10.93,15.51,4.27,4.27,0,0,1-2.84,2.24,139.18,139.18,0,0,0-14.58,5.26,2.79,2.79,0,0,1-3.18-.3,97.43,97.43,0,0,0-36.1-17.08A5.12,5.12,0,0,1,625.71,719Z"/><path class="cls-9" d="M417.81,695.18c2.95,4.75,5.23,9.84,7.86,15-1.45.38-2.37-.24-3.31-.57A71.86,71.86,0,0,0,408,705.77c-7.74-1-15.52-1.55-23.31-.35-3.13.48-3.59.19-4.62-2.76a190.26,190.26,0,0,0-25.71-48.49,157.13,157.13,0,0,0-20.6-23.54,100.72,100.72,0,0,0-23.08-16.51c-.95-.48-1.89-.94-2.83-1.44-.17-.09-.29-.29-.61-.63a5.39,5.39,0,0,1,3.59-.34c10.41,1.26,19.14,6,27.07,12.71,5.12,4.31,9.42,9.37,14,14.21,2.45,2.61,4.85,5.28,7.33,7.87a38.12,38.12,0,0,0,14.38,9c5.93,2.23,12.08,3.81,17.94,6.22a18.47,18.47,0,0,1,5.7,3.34c-1.06.85-2.15,1.67-3.17,2.58a11.65,11.65,0,0,0-3.48,13.46,30,30,0,0,0,13.55,16.12c5.09,3,5.1,2.94,10-.16A11,11,0,0,1,417.81,695.18Z"/><path class="cls-6" d="M930.51,497.48c-3.89,2.12-8.1,3.48-12.16,5.19-5.35,2.26-10.72,4.45-16.07,6.68a4.58,4.58,0,0,1-3.62.17c-11.95-4.47-23.93-8.85-35.91-13.25-.48-.18-1-.21-1.31-.91a8.26,8.26,0,0,1,2.87-1.6A84.46,84.46,0,0,0,893,471.27a52.39,52.39,0,0,0,5.48-8.13c.47-.87.92-1.6,2.13-1.46,4.29.47,8.61.6,12.87,1.35a3.78,3.78,0,0,0,.14,1.23q5.28,10.44,10.6,20.87C926.33,489.24,928.65,493.24,930.51,497.48Z"/><path class="cls-7" d="M730.65,683.58a36.13,36.13,0,0,1,1.58,7.6c1.74,13.32,2.47,26.67,1.11,40.08a23.23,23.23,0,0,1-4.91,12.18c-5.7,7.29-12.7,13.25-19.9,19a4.3,4.3,0,0,1-2.64.86c-7,.28-13.93.62-20.9.92-2.22.09-2.27,0-2-2.25.65-5.45,1.28-10.91,2-16.35a40.67,40.67,0,0,1,6.63-17.3,178.32,178.32,0,0,1,14-17.64c3.89-4.47,7.72-9,11.71-13.35,3.47-3.8,6.47-8,10.37-11.44A9,9,0,0,1,730.65,683.58Zm-14.82,63.53c.51-.42.84-.67,1.14-1,8.23-8,12-17.92,12.38-29.18.17-5,.55-10.12-.44-15.15a5,5,0,0,1,.26-2.17c.58-2.17-.08-4.2-.75-6.17-.52-1.54-1.4-1.7-2.61-.57a22,22,0,0,0-2.73,3.05c-5.47,7.37-10.12,15.28-15,23a2.34,2.34,0,0,0,.3,3.3c5.84,6.56,8.07,14.31,7.12,23A2.27,2.27,0,0,0,715.83,747.11Z"/><path class="cls-7" d="M679.66,738.35c-2.11,8.61-2,16.91-3.37,25-.16.94-.35,1.87-.44,2.82-.25,2.52.84,3.8,3.32,3.93a10.77,10.77,0,0,0,1.27,0c8.44-.65,16.91-.34,25.35-.8.41,0,.82,0,1.77,0a28.79,28.79,0,0,1-5.51,7.48c-2.64-4-6.62-4.56-10.83-4.87a49.37,49.37,0,0,0-27,5.3c-6.39,3.31-12.47,7.12-18.49,11-4,2.6-8,5.09-12,7.64-1,.66-1.65.64-2.07-.7a120.94,120.94,0,0,1-4.94-20.28,10.9,10.9,0,0,1,4-10.44c1.54-1.28,3.09-2.57,4.74-3.7A194.68,194.68,0,0,1,677.61,739C678.1,738.85,678.59,738.7,679.66,738.35Z"/><path class="cls-11" d="M688.22,404.07c-2,1-3.89,1.9-5.76,2.88a134.15,134.15,0,0,0-26.68,18.66c-1.34,1.19-2.69,2.37-4,3.63a1.53,1.53,0,0,1-2.41,0Q635.85,418,621.77,407.47c-1.4-1.05-.91-1.83-.16-2.84a41.74,41.74,0,0,1,22.33-15.31c17.12-5,33,1.34,44.12,14.14C688.13,403.54,688.12,403.67,688.22,404.07Z"/><path class="cls-10" d="M436.44,476.38c1.14,3.05,2.24,6.12,3.42,9.15a273.34,273.34,0,0,0,16.33,33.6c.51.92,1,1.84,1.67,3a267.58,267.58,0,0,0-35,14.77,7.31,7.31,0,0,1-.12-3.42c.77-16.63-1-32.92-6.6-48.68q-1-2.82-2-5.65c.93-.11,1.87-.2,2.79-.36A154.91,154.91,0,0,1,436.44,476.38Z"/><path class="cls-9" d="M930.51,497.48c-1.86-4.24-4.18-8.24-6.29-12.35q-5.33-10.42-10.6-20.87a3.78,3.78,0,0,1-.14-1.23c9.76.78,19.52,1.53,29.27,2.34,6.08.5,12.16,1.09,18.24,1.64a17,17,0,0,1,4.37.58q3.57,6.41,7.15,12.82c-2.92,1.7-6.14,2.68-9.23,4q-15,6.19-30.08,12.28A5.66,5.66,0,0,1,930.51,497.48Z"/><path class="cls-10" d="M758.45,486.14a7.44,7.44,0,0,0,1,3.93c1.43,3.13,2.82,6.28,4.37,9.74a9.6,9.6,0,0,1-3.42-1.43C746,491,731.25,484.6,715.51,480.64a129.88,129.88,0,0,0-20.24-3.53c-.95-.09-1.9,0-2.33-1.19-1.52-4.1-4.06-7.61-6.57-11.13-.12-.16-.1-.41-.15-.61,4.3-2.93,16-7.89,21.5-9.12.94,2.6.95,5.37,1.34,8.06.55,3.81,1.08,4.18,5,4.33a107.5,107.5,0,0,1,11.33,1.09c2.39.34,4.86.11,7.18.94a2.76,2.76,0,0,0,1.29,1.32c5.67,3.81,11.32,7.64,17.2,11.12C753.53,483.36,755.7,485.25,758.45,486.14Z"/><path class="cls-7" d="M363.33,823.46c1.15-.64,2.46-.51,3.69-.76,2.9-.61,2.9-.59,3.77,2,.07.2.12.4.18.61,2,6.64,1.26,8.7-4.75,12.24-8.18,4.82-16.24,9.87-24.73,14.15-.56.28-1.13.56-1.68.86-1,.55-1.48.26-1.88-.78-1-2.56-2-5.1-3.18-7.59-1.41-3.07-2.9-6.1-4.43-9.11a15.16,15.16,0,0,0-8-7.31,69.76,69.76,0,0,0-19.78-5.37,24.48,24.48,0,0,0-14.42,2.63c-.54.29-1,.78-1.94.51a108.67,108.67,0,0,1,5.1-29.43c2.77,1,4.21,2.62,4.19,5.66a91,91,0,0,0,.75,9.14,9.79,9.79,0,0,0,5.85,8.41,57.18,57.18,0,0,0,13.27,4c3.2.68,6.44,1.23,9.57,2.12,4.05,1.15,7.77.77,11.1-1.8a4.54,4.54,0,0,1,4.38-.8c4.63,1.28,9.41,1.11,14.15,1.28a2.07,2.07,0,0,1-.52.35c-2.77.63-2.93.65-2.64,3.34a70.41,70.41,0,0,1,.59,9.4c0,.79-.29,1.69.59,2.51a86.7,86.7,0,0,0,11.14-3.91c2.45-1,3-2.72,2.38-5.32-.37-1.52-.72-3.06-1.14-4.57C364.66,825,364.5,823.91,363.33,823.46Z"/><path class="cls-10" d="M886.65,553.49c8.62,3.14,17.22,6.32,26,9a339.53,339.53,0,0,0,49,11.21c.18,0,.34.2.45.51-56.11-2.7-107.85-19.34-156-48.79a37.76,37.76,0,0,1,3.62-4.7,288.87,288.87,0,0,0,41.6,21.53A266.78,266.78,0,0,0,884,553.5C884.87,553.75,885.75,554.16,886.65,553.49Z"/><path class="cls-10" d="M378.43,644.26a42.4,42.4,0,0,1-10.38-6.74,90.28,90.28,0,0,1-9.51-9.75c-3.74-4.31-7.4-8.68-11.47-12.69a2.8,2.8,0,0,1-1-3,102.68,102.68,0,0,1,6-18.64,3.33,3.33,0,0,1,3.26-2.39c3-.11,5.9-.4,8.83-.78,1.45-.19,1.81.46,2,1.67.86,5,1.73,10,2.68,15a236,236,0,0,0,9.53,35.43A2.21,2.21,0,0,1,378.43,644.26Z"/><path class="cls-7" d="M331.18,871.52c-1.29-3.45-2.49-6.71-3.72-9.95-2.8-7.36-8.13-11.89-15.65-14-5.89-1.65-12-2.54-17.81-4.38-4.52-1.43-9.11-2.63-13.68-3.93a1.63,1.63,0,0,1-1.16-.92c4-3.27,8-6.73,12.82-8.92,4.21-1.91,8.69-1.54,13.08-.65a70.19,70.19,0,0,1,14.39,4.76,8.9,8.9,0,0,1,4.68,4.07,135.68,135.68,0,0,1,10.31,25.8C335.41,867,334.66,869.59,331.18,871.52Z"/><path class="cls-7" d="M618.11,822.41c-1.88-3.47-1.79-4.91.41-7.41a20.59,20.59,0,0,1,2.29-2.19,37.22,37.22,0,0,1,3.78-2.87c13.28-8.24,26.35-16.8,39.8-24.76,1.45-.86,3-1.52,4.51-2.31,7.69-4,15.94-4.56,24.37-3.79,2.68.25,3.4,1.13,2.74,3.76-1.19,4.7-2.67,9.33-3.91,14-.39,1.48-1.32,1.33-2.41,1.27a122.9,122.9,0,0,0-25.28,1.2,49.26,49.26,0,0,0-12.12,3.52,189.68,189.68,0,0,0-31.12,17.54C620.21,821,619.25,821.66,618.11,822.41Zm50.64-30.9a9.06,9.06,0,0,0,1.09.32c4.1.84,8.36.46,12.44,1.76,2,.64,4,1.65,6.38,1.71.82-3,1.55-5.8,2.41-8.6a3.28,3.28,0,0,0-1-3.45,6.55,6.55,0,0,0-5.42-2,22,22,0,0,0-11.07,4.16A17.28,17.28,0,0,0,668.75,791.51Z"/><path class="cls-5" d="M478.69,802.88a185,185,0,0,1-23.13-28.62c.64-1,1.43-.39,2.08-.44a12.75,12.75,0,0,0,10.06-6.33,29.91,29.91,0,0,0,3.25-7.2c.33-1,.76-1.66,2-1.4a90.34,90.34,0,0,0,19.82,1.86c.16,0,.32.18.85.5A72.13,72.13,0,0,0,478.69,802.88Z"/><path class="cls-11" d="M836.24,380.56a6.07,6.07,0,0,1-5.63,3.06,77.24,77.24,0,0,0-35.35,8.52A63.77,63.77,0,0,0,768.92,417c-.95,1.64-1.93,2.49-3.92,2.38-2.83-.17-5.68,0-8.59,0-.41-.77.33-1.28.68-1.84,4.76-7.6,9.39-15.29,13.67-23.18a7.28,7.28,0,0,1,4.43-3.65,196.06,196.06,0,0,1,35.18-9.05,123.31,123.31,0,0,1,23-1.39C834.23,380.3,835.05,380.43,836.24,380.56Z"/><path class="cls-12" d="M701.58,427.65c-3.41,1-6.45,1.86-9.43,2.88a4.37,4.37,0,0,1-3-.35,157.28,157.28,0,0,0-22.27-5.86,1,1,0,0,1,.43-1.1,122.86,122.86,0,0,1,22.89-14c1.42-.67,2.17-.59,3.06.82A85.14,85.14,0,0,1,701.58,427.65Z"/><path class="cls-12" d="M886.65,553.49c-.9.67-1.78.26-2.7,0a266.78,266.78,0,0,1-32.58-11.27,288.87,288.87,0,0,1-41.6-21.53c2.68-4.51,2.67-4.5,7-1.88A458.67,458.67,0,0,0,879,550.39C881.55,551.44,883.9,553,886.65,553.49Z"/><path class="cls-12" d="M366,759.48c1.17.14,1.58,1.16,2,2.32,2,6,5.22,11.25,8.62,16.49a21.64,21.64,0,0,0,14.18,9.76c4.63,1,9.27,2,13.88,3.06a46.62,46.62,0,0,1,5.38,1.82,2.1,2.1,0,0,1,1.39,2.79,2.15,2.15,0,0,1-3,1.45c-6.24-2.44-12.91-3-19.34-4.65a25.79,25.79,0,0,1-16-11c-3.63-5.46-7-11-9.16-17.27a9.59,9.59,0,0,1-.61-2.44A2.29,2.29,0,0,1,366,759.48Z"/><path class="cls-12" d="M436.44,476.38a154.91,154.91,0,0,0-19.55,2.43c-.92.16-1.86.25-2.79.36l-5-9.75c.22-.83.95-.83,1.49-1a146.42,146.42,0,0,1,21.7-3.9c1.31-.16,2.16-.1,2.22,1.64C434.65,469.66,436,473,436.44,476.38Z"/><path class="cls-12" d="M341.16,780.38c-.09-1.44.4-2.29,1.6-2.6a2.08,2.08,0,0,1,2.65,1.14,24.81,24.81,0,0,1,.83,2.38,157.57,157.57,0,0,0,7.94,18.59,9.64,9.64,0,0,0,5.77,5,39.5,39.5,0,0,0,4.21,1.33c5.34,1.2,10,3.74,14.59,6.66a8.94,8.94,0,0,1,1.27.92,2.05,2.05,0,0,1,.28,2.86,1.94,1.94,0,0,1-2.74.76c-.93-.5-1.83-1.05-2.72-1.62A34.94,34.94,0,0,0,363,810.71c-7.3-1.47-12.18-5.59-14.91-12.62-2-5.19-4.46-10.23-6.28-15.51C341.57,781.78,341.34,781,341.16,780.38Z"/><path class="cls-7" d="M330.26,818.89a1.89,1.89,0,0,1-1.92.48c-6.22-1.71-12.67-2.37-18.86-4.12-7.87-2.22-7.07-2.18-7.71-9.06a12.49,12.49,0,0,1-.3-3.26.75.75,0,0,1,.95-.37,50.06,50.06,0,0,0,15.25,2.54,3.63,3.63,0,0,1,3.5,2.06C323.56,811.48,326.11,815.73,330.26,818.89Z"/><path class="cls-12" d="M765.88,474.86c-6.84-4.91-13.6-9.77-20.39-14.58a2.81,2.81,0,0,1-1.17-2.41c-.19-2.84-.44-5.68-.65-8.52,0-.68-.49-1.62.55-1.85s2.06-.63,3,.3a3.92,3.92,0,0,1,.37.51c3.78,5.74,9,10,14.49,14a7.77,7.77,0,0,1,3,3.87,14.66,14.66,0,0,0,1.77,3.7C768.19,471.79,767.87,473.31,765.88,474.86Z"/><path class="cls-12" d="M441.42,726.44a28.63,28.63,0,0,1,17,3.85c8.32,4.88,12.62,12.17,12.71,21.87a12.46,12.46,0,0,1-.16,2.2,2.11,2.11,0,0,1-2.36,2,2.07,2.07,0,0,1-2.11-2.27,7.42,7.42,0,0,1,.06-.94c.61-11-6.82-19.2-17.41-21.66a36.11,36.11,0,0,0-9.45-.57c-1.16,0-2.33.1-3.48,0-1.6-.11-2.45-1-2.41-2.31s.89-2.13,2.54-2.21S439.73,726.44,441.42,726.44Z"/><path class="cls-12" d="M758.45,486.14c-2.75-.89-4.92-2.78-7.35-4.22-5.88-3.48-11.53-7.31-17.2-11.12a2.76,2.76,0,0,1-1.29-1.32c2.11.09,4.23,0,6.31.32,2.48.33,4.66.26,5.9-2.6,5.63,4.13,11,8.15,16.49,12.08,1.18.85,1,1.53.35,2.58A49.73,49.73,0,0,1,758.45,486.14Z"/><path class="cls-7" d="M972.51,480.41q-3.59-6.41-7.15-12.82c6.74.13,13.41,1.12,20.13,1.61,3.66.27,7.3.69,11,1.05-.45,1-1.36,1.06-2.1,1.36q-9.91,4.09-19.84,8.15A4.7,4.7,0,0,1,972.51,480.41Z"/><path class="cls-9" d="M363.33,823.46c1.17.45,1.33,1.55,1.6,2.55.42,1.51.77,3,1.14,4.57.65,2.6.07,4.34-2.38,5.32a86.7,86.7,0,0,1-11.14,3.91c-.88-.82-.61-1.72-.59-2.51a70.41,70.41,0,0,0-.59-9.4c-.29-2.69-.13-2.71,2.64-3.34a2.07,2.07,0,0,0,.52-.35Z"/><path class="cls-10" d="M675.43,436.55c-3.29,1.65-6.58,3.29-9.85,5a1.75,1.75,0,0,1-2.26-.29c-2.73-2.47-5.51-4.87-8.53-7.52,1.62-1.44,3.08-2.75,4.57-4.05,1.12-1,2.3-.76,3.48-.1.74,1,1.9,1.26,2.92,1.77A89.27,89.27,0,0,1,675.43,436.55Z"/><path class="cls-12" d="M340.45,609a60.39,60.39,0,0,0-8.5-4.58c1.19-1.37,2.25-2.61,3.33-3.82,2.17-2.45,4.39-4.85,6.51-7.33a3.39,3.39,0,0,1,3.95-1.27A162.24,162.24,0,0,0,340.45,609Z"/><path class="cls-12" d="M675.43,436.55a89.27,89.27,0,0,0-9.67-5.23c-1-.51-2.18-.8-2.92-1.77,6.27.61,12.24,2.48,18.33,4.41A18.53,18.53,0,0,1,675.43,436.55Z"/><path class="cls-7" d="M905.24,448.54a21.65,21.65,0,0,1,4.31,8.93,29.52,29.52,0,0,1-7.75-.57Z"/><path class="cls-11" d="M754,446.86c7-.5,7-.5,7.25,5.84a4.08,4.08,0,0,1-.19.82A23.91,23.91,0,0,1,754,446.86Z"/><path class="cls-11" d="M405.87,753.51c2.4,2.35,5.28,4,8,6.23-1.81-.09-3.62-.22-5.44-.26a1.61,1.61,0,0,1-1.59-1.24c-.54-1.37-1.11-2.73-1.67-4.09Z"/><path class="cls-5" d="M405.87,753.51l-.73.64a3.07,3.07,0,0,1-.9-1.81C405.19,752.18,405.5,752.89,405.87,753.51Z"/><path class="cls-7" d="M909.6,457.48c1-.05,2.1-.35,3,.48A3.84,3.84,0,0,1,909.6,457.48Z"/><path class="cls-7" d="M905.75,446.72c.13.25.09.44-.17.56C905.4,447,905.5,446.85,905.75,446.72Z"/><path class="cls-13" d="M469.35,320c-3.3,6.22-6.59,12.44-10,18.83a4.08,4.08,0,0,1-1.77-1.93C444.33,317,429,298.71,412.83,281.15A139.19,139.19,0,0,0,389,260.36c-8.09-5.51-16.67-9.91-26.42-11.74a42.82,42.82,0,0,0-30.21,5.15,53.86,53.86,0,0,0-11.49,8.89c-.71.72-1.45,1.42-2.46,2.4-.45-2.8.21-5,.59-7.23,2.13-12.4,5.88-24.19,13.28-34.57a12.44,12.44,0,0,1,1-1.15,6.45,6.45,0,0,0,3-1c12-5.28,23.75-4.79,35.4,1a79,79,0,0,1,18.69,13.43,155.7,155.7,0,0,1,15.29,16.87,52.55,52.55,0,0,0,6,7.09c-.94-6.35-1.8-12.06-2.65-17.77,3.62.05,4.49-.89,4.15-4.44a59.26,59.26,0,0,1,1.55-21.91,20.25,20.25,0,0,1,3.75-7.87,5.89,5.89,0,0,0,1.58-.07c4-1.24,7.22.29,10.07,3a37.36,37.36,0,0,1,5.68,6.78c5.44,8.4,9,17.65,12.47,27,4.07,11,7.34,22.24,10.64,33.48,2.8,9.51,5.5,19,7.54,28.76C467.46,311,468.4,315.49,469.35,320Z"/><path class="cls-12" d="M469.35,320c-1-4.54-1.89-9.07-2.85-13.61-2-9.71-4.74-19.25-7.54-28.76-3.3-11.24-6.57-22.49-10.64-33.48-3.45-9.32-7-18.57-12.47-27a37.36,37.36,0,0,0-5.68-6.78c-2.85-2.7-6-4.23-10.07-3a5.89,5.89,0,0,1-1.58.07,5.62,5.62,0,0,1,1.61-2.31c7.75-8,14.8-7.5,21.47-.27a51.55,51.55,0,0,1,8.15,12.4c6,12.19,10.05,25.06,13.19,38.23a360.8,360.8,0,0,1,7.07,43.1c.49,4.3.74,8.65,1.52,12.9A9.63,9.63,0,0,1,469.35,320Z"/><path class="cls-12" d="M409.07,241.73c.85,5.71,1.71,11.42,2.65,17.77a52.55,52.55,0,0,1-6-7.09,155.7,155.7,0,0,0-15.29-16.87,79,79,0,0,0-18.69-13.43c-11.65-5.79-23.44-6.28-35.4-1a6.45,6.45,0,0,1-3,1c8.59-11.85,21.83-16.08,36.51-11.68,8.89,2.67,16.39,7.66,23.19,13.82a126.45,126.45,0,0,1,13.16,14.12C407.12,239.51,408.11,240.61,409.07,241.73Z"/><path class="cls-4" d="M680,587.09a18.47,18.47,0,0,0,3.87-3.67c14.77-15.59,27.44-32.8,39.35-50.61,1.76-2.62,3.38-5.33,5.06-8,1.48-1.92,2.94-3.84,4.44-5.74.55-.7,1.26-1.22,2.18-.72,1.12.6.89,1.53.45,2.46-.31.67-.58,1.36-.92,2-1.21,2.32-2.44,4.64-3.67,7-.53.79-1.08,1.56-1.58,2.36-7.14,11.31-14.45,22.51-22.57,33.16-2.55,3.35-5.14,6.66-7.71,10-3.8,4.24-7.53,8.54-11.41,12.72a145,145,0,0,1-21.42,19.26c-7.86,5.66-16.2,10.32-25.86,12.2a40.79,40.79,0,0,1-12.62.31C569.36,613,512.94,599.32,459,576.07c-7.17-3.09-14.21-6.49-21.13-10.13a17.84,17.84,0,0,1-4.44-3c-.78-.78-1.43-1.64-.87-2.8s1.68-1.21,2.75-1a27.55,27.55,0,0,1,6.25,2.22q21.06,9.54,42.75,17.54A589.2,589.2,0,0,0,571,603.43c19.57,4,39.26,7.17,59,9.91a33.09,33.09,0,0,0,15.88-2,69,69,0,0,0,17.68-9.78,108.63,108.63,0,0,0,15.7-13.75c.4-.17.75-.39.67-.92Z"/><path class="cls-9" d="M698.89,575.32c2.57-3.34,5.16-6.65,7.71-10,8.12-10.65,15.43-21.85,22.57-33.16.5-.8,1.05-1.57,1.58-2.36,1.81,1.82,2,4,1.51,6.37-1.3,6.84-3.44,13.46-5.11,20.2-1.83,7.35-3.87,14.66-6,21.94a270.62,270.62,0,0,1-11.61,33.76,107.45,107.45,0,0,1-13.16,23c-1,1.3-2.08,2.52-3.14,3.79a1.41,1.41,0,0,1-.38-1.73,132.94,132.94,0,0,0,5.23-23A41.39,41.39,0,0,0,699,605c-.19-2.64.59-5.2.64-7.86C699.78,589.83,699.25,582.58,698.89,575.32Z"/><path class="cls-4" d="M643.78,626.29c-.56,2.29-1.16,5-1.88,7.62-6.69,24.69-16,48.28-29.21,70.27a63.24,63.24,0,0,1-4.57,6.85,6.05,6.05,0,0,1-2.67,2.18c-1.24.44-2.18-.19-2.05-1.48a9.4,9.4,0,0,1,.78-2.72,21.37,21.37,0,0,1,1.53-2.77c13-20.82,22.42-43.27,29.78-66.63,1.4-4.43,2.88-8.83,4.33-13.25.16-.5.29-1,.49-1.5a1.77,1.77,0,0,1,2.27-1.2C643.74,624,643.93,624.87,643.78,626.29Z"/><path class="cls-8" d="M680,586.88c.08.53-.27.75-.67.92Z"/><path class="cls-14" d="M590,553.49a55.18,55.18,0,0,1-12.7-2.49c-18.38-5.33-36.15-12.33-53.81-19.61-13.57-5.59-27-11.5-40-18.24-1.6-.83-3.15-1.74-4.74-2.56-10.37-5.36-15.47-14.56-18.54-25.27a12,12,0,0,1-.33-4.09c.3-4.47,3.54-7.12,8-6.49a19.53,19.53,0,0,1,5.4,1.76c21,9.63,42.5,18.18,64.11,26.39,9.27,3.52,18.63,6.81,28,10.15a53.36,53.36,0,0,0,19.86,3.42,31.08,31.08,0,0,0,14.26-3.74c12.48-6.89,24.74-14.17,37.09-21.3,9.14-5.27,18.23-10.65,27.61-15.51a39.2,39.2,0,0,1,8.81-3.5c2.62-.64,5.34-1.05,7.37,1.27s1.38,5,.28,7.47a45.79,45.79,0,0,1-8.83,13.44,235.16,235.16,0,0,1-23.44,20.84,488.9,488.9,0,0,1-42.37,30.62,93.51,93.51,0,0,1-11,6.22A11.07,11.07,0,0,1,590,553.49Zm-73.92-51.77c2.25,5.15,4.48,9.52,7.73,13.28a14.44,14.44,0,0,0,2.54,2.34c2,1.44,3.26,1.31,5-.4s2.7-4,3.66-6.19c.5-1.13.22-1.65-.95-2.09C528.29,506.49,522.54,504.22,516.06,501.72ZM617,510.31c.89,1.57,1.52,2.92,2.35,4.13,2.45,3.58,4.37,3.65,7.17.28a19,19,0,0,0,2.08-3.16,54.68,54.68,0,0,0,3.35-7.84c.23-.65.81-1.28.11-2.14Z"/><path class="cls-8" d="M524.39,366.14c1-1,2.13-.62,3.27-.37,5.86,1.32,11,4.28,16.07,7.31,15.92,9.58,30.67,20.85,45.48,32,10,7.55,20.06,15,30,22.68q10.77,8.28,21.19,17c7.59,6.37,15.16,12.76,22.21,19.74,2.77,2.74,2.81,2.88-.66,4.42a162.63,162.63,0,0,0-27.09,15c-1.36.94-2.09.5-2.88-.53-2.88-3.76-5.83-7.47-8.93-11.06s-6.24-7.41-9.42-11.06c-4.49-5.17-9-10.29-13.58-15.43l-.65-.69c-7.66-7.86-14.93-16.12-23-23.58-7.8-7.24-15.52-14.58-24-21-1-.74-1.89-1.76-3.35-1.29l0,0c.2-.46,0-.69-.45-.79l0,0a.58.58,0,0,0-.52-.72,9,9,0,0,1-.8-1A249.34,249.34,0,0,0,524.39,366.14Z"/><path class="cls-4" d="M524.39,366.14a249.34,249.34,0,0,1,22.86,30.73,9,9,0,0,0,.8,1c0,.39.1.66.52.72l0,0a.66.66,0,0,0,.45.79l0,0a8.54,8.54,0,0,0,1.49,2.77c17,27.41,30.09,56.63,40.61,87.06a11,11,0,0,1,.83,4,2.28,2.28,0,0,1-1.68,2.4,2.48,2.48,0,0,1-2.83-.88,14.69,14.69,0,0,1-2-4.28q-7.08-19.83-15.54-39.12a426.81,426.81,0,0,0-44.25-77.77c-1.53-2.14-3-4.34-4.48-6.52a12.82,12.82,0,0,1-1-1.62,1.15,1.15,0,0,1,.25-1.44,1.18,1.18,0,0,1,1.7.06C522.89,364.69,523.63,365.42,524.39,366.14Z"/><path class="cls-8" d="M381.35,531.89a80.63,80.63,0,0,0-7.13-6.95,61.23,61.23,0,0,0-19-11.06c-9.21-3.46-18.81-5.18-28.56-6.41a193.74,193.74,0,0,0-27.13-1.13,3.75,3.75,0,0,0-1.26,0c-2.4,1-3.69-.49-5-2.12-3.25-4.15-6.57-8.23-10.84-11.44a6.26,6.26,0,0,1-2.52-2.84c1-1,2.43-1.28,3.67-1.73a162.4,162.4,0,0,1,27.72-7.42c4.66-.8,9.33-1.52,14-2.28a46.22,46.22,0,0,1,6.59-.64c5.06-.05,10.08-.87,15.15-.76,3.17.06,6.27.66,9.45.73,2.28.06,4,1.81,5.61,3.3a52.47,52.47,0,0,1,13.37,19.35A79.63,79.63,0,0,1,381.79,530C381.79,530.56,382.05,531.22,381.35,531.89Z"/><path class="cls-4" d="M398.18,534.93a103.7,103.7,0,0,1-1.71,17.18,11.64,11.64,0,0,1-1.2,3.58,2.31,2.31,0,0,1-2.58,1.37c-1.24-.23-1.68-1.18-1.88-2.27a10.11,10.11,0,0,1,.22-3.46c2.21-12.94,2.21-25.84-1-38.65a65.17,65.17,0,0,0-12.62-25.63c-2.07-2.54-4.14-5.07-6.19-7.62-.45-.56-1.11-1.19-.48-1.94s1.52-.42,2.27.05a35.32,35.32,0,0,1,8.49,7.54A73.21,73.21,0,0,1,397,520.28,97.65,97.65,0,0,1,398.18,534.93Z"/><path class="cls-4" d="M291.09,654.94c3.55,3.57,6.64,6.28,9.77,8.95s3,3.55.27,6.31q-9,9-17.23,18.59a19.24,19.24,0,0,0-1.29,1.78c-1.8,2.63-3.17,2.86-5.7.79a99.33,99.33,0,0,1-7.86-7.36,7.34,7.34,0,0,0-2.43-2.07c-1.09,1.38-2.27,2.81-3.36,4.31-2.11,2.9-4.15,5.85-6.26,8.75-1.77,2.43-3.69,2.5-5.2,0-3.77-6.35-7.23-12.88-10.44-19.53a3.82,3.82,0,0,1,.48-4.13c2.21-3.35,4.31-6.77,6.65-10a2.91,2.91,0,0,0,0-3.91c-1.48-2.18-2.73-4.51-4-6.81a3,3,0,0,1,.33-3.79c3.69-4.33,7.33-8.71,11-13q2.46-2.9,5-5.72c1.64-1.81,3.06-1.84,4.81,0,1.24,1.29,2.37,2.7,3.57,4,1.52,1.69,1.52,1.68,3.12.18,2.93-2.73,5.86-5.48,8.81-8.19a38.47,38.47,0,0,1,3.41-2.83c1.52-1.09,2.78-1,3.92.36,4.57,5.41,9.8,10.19,14.47,15.5.42.48.88.92,1.28,1.41,1.65,2,1.6,3-.32,4.84q-5.13,5-10.3,9.86A26.92,26.92,0,0,1,291.09,654.94ZM275.8,681.61a17,17,0,0,0,3.76,3.66L294.48,669c1.42-1.55,1.41-1.55-.25-3.12-2.84-2.68-5.73-5.31-8.49-8.07-1.67-1.66-1.56-3.06.06-4.61,3.66-3.5,7.33-7,11-10.49.67-.64,1.56-1.12,1.8-2.18-3.1-3.3-6.16-6.63-9.31-9.89-1.07-1.11-1.76-3.21-3.25-3.12s-2.68,1.84-3.78,3.11a78.09,78.09,0,0,0-8.68,8.28c-1.66,1.71-3.1,2.47-5.19.7a57.8,57.8,0,0,0-5.43-6.17,17.63,17.63,0,0,0-3.64,3.9c-3.13,2.85-5.49,6.36-8.18,9.6-.94,1.13-.73,2,0,3.08,1.54,2.27,3,4.61,4.44,6.92.88,1.38,1.1,2.79-.14,4-3.31,3.33-5.35,7.55-7.91,11.39a2.37,2.37,0,0,0-.46,2.6c2.18,4.77,4.78,9.3,7.53,14.09,3.3-4.38,6.54-8.39,9.46-12.62,1.93-2.79,3.59-3.15,6-.66C271.92,677.76,273.6,680,275.8,681.61Z"/><path class="cls-3" d="M351.34,718.48a26.56,26.56,0,0,1-1.73,9.29,45.2,45.2,0,0,1-19.55,23.7,19.37,19.37,0,0,1-8.57,3,11.52,11.52,0,0,1-12.13-6.76,16.61,16.61,0,0,1-.88-12.65,46.51,46.51,0,0,1,21.21-27,19.27,19.27,0,0,1,9-2.78c6.41-.36,10.72,2.83,12.24,9A17,17,0,0,1,351.34,718.48Zm-16.82,20.07c1.68-.67,2.48-2.23,3.45-3.55,3.53-4.8,6.11-10,6.39-16.13.19-4.21-1.12-7.83-7.27-6.2a9.19,9.19,0,0,0-3.56,1.26,39.52,39.52,0,0,0-18.38,23.23,10.15,10.15,0,0,0-.12,5.93c1.1,3.72,3.46,5.31,7.16,4.18A23.46,23.46,0,0,0,334.52,738.55Z"/><path class="cls-3" d="M326.11,692.68a25.71,25.71,0,0,1-4.17,14.39,46.63,46.63,0,0,1-17.89,15.72,20.55,20.55,0,0,1-6.61,2.08,9.79,9.79,0,0,1-10.11-4.48c-2.85-4.26-3.14-9-1.71-13.69a43.82,43.82,0,0,1,19.32-25,20,20,0,0,1,6.17-2.39c7.7-1.77,13.72,2.35,14.8,10.19C326.07,690.65,326.06,691.82,326.11,692.68Zm-14.45-6.2a11.49,11.49,0,0,0-5.08,2.37,39.86,39.86,0,0,0-13.35,16.85,17.13,17.13,0,0,0-1.41,5.8c-.27,5.49,2.63,7.65,7.69,5.6a33.38,33.38,0,0,0,13.05-9.62,19.17,19.17,0,0,0,6.52-16.07C318.79,686.52,316.44,685,311.66,686.48Z"/><path class="cls-4" d="M874.81,437.71c3.87.21,7.11,1.37,10.5.32a2.94,2.94,0,0,1,3.27,1.43,2.74,2.74,0,0,1,0,3.27c-.23.35-.49.69-.74,1-5.61,7.42-11.26,14.8-16.79,22.27-1.43,1.93-2.85,2.66-5.35,2.05-3.47-.84-7.09-1.09-10.62-1.69a2.91,2.91,0,0,0-3.18,1.42c-3.19,4.34-6.46,8.62-9.73,12.91-2.22,2.91-2.45,2.85-6,1.56-2.9-1-6-.93-9.07-1.23-4.93-.47-9.81-1.46-14.81-1.37-2.46.05-3.52-2.36-2.06-4.54,2.24-3.33,4.64-6.55,7-9.82.79-1.1,1.57-2.21,2.64-3.74L809.64,460a14.17,14.17,0,0,1-2.18-.36,2.91,2.91,0,0,1-1.85-4.47,11.57,11.57,0,0,1,.87-1.32q6.74-9.6,13.48-19.19c2.08-3,2-2.67,5.7-2,4.14.76,8.39.92,12.59,1.39,1.2.14,1.65-.67,2.2-1.45,3.16-4.49,6.38-8.94,9.46-13.48,1.45-2.13,2.83-3,5.73-2.37,4.62.94,9.44.93,14.17,1.32,2.64.21,5.27.45,7.9.6,1.14.07,2.31.38,3.44-.16a3.4,3.4,0,0,1,4.5,1.06c1.1,1.38.89,2.86-.66,4.87-2.64,3.43-5.33,6.82-8,10.24C876.36,435.49,875.78,436.36,874.81,437.71Zm-36.27,1.41a84.58,84.58,0,0,1-8.73-1.07c-3.39-.78-5.67.1-6.95,3.36-3.05,4.23-6.09,8.46-9.4,13.07,4,.64,7.44,1.16,10.85,1.72,3.57.59,4.38,2.53,2.28,5.5-2.68,3.8-5.4,7.57-8.07,11.37-.39.56-1.14,1.05-.67,2,5.07.58,10.22,1,15.32,1.81a4.7,4.7,0,0,0,5.27-2.22c3.13-4.51,6.54-8.83,9.89-13.18,1.55-2,2.34-2.15,4.63-1.46a28.77,28.77,0,0,0,8.7,1.27c4.14,1.35,4.17,1.33,6.52-1.8,3.54-4.72,7.11-9.42,10.63-14.15.53-.72,1.41-1.29,1.32-2.5-3.54-.16-7-1.4-10.59-.06a2.58,2.58,0,0,1-2.35-.67c-1.67-1.27-1.88-3-.4-5,2.81-3.81,5.73-7.55,8.57-11.34.45-.61,1.2-1.15,1-2.29l-14.88-1.08c-2.09-.15-4.46-1.17-6.2-.2s-2.81,3.32-4,5.21c-2.32,3.08-4.8,6.05-6.88,9.28C843,439.12,841.2,440,838.54,439.12Z"/><path class="cls-9" d="M881.15,382.54c1.24-2,3.12-3.39,4.7-5.05,1.83-1.9,3.74-3.71,5.6-5.58a4.06,4.06,0,0,1,2.72-1.38c7.15-.54,14.3-.74,21.46-.65a10.16,10.16,0,0,1,1.09.14c-.29,1.34-1.6,1.62-2.34,2.39-2.5,2.57-5.26,4.9-7.58,7.62a10.2,10.2,0,0,1-10.36,3.77c-4.09-.79-8.19-.36-12.29-.58C883.17,383.16,882,383.67,881.15,382.54Z"/><path class="cls-8" d="M261.64,902.92a80.37,80.37,0,0,0,10.23-9.19c4-4.39,7.68-9,9.51-14.77,1.95-6.19.44-11.58-3.65-16.46-2.83-3.38-6.64-5.12-10.58-6.67a57.44,57.44,0,0,0-9.33-2.6,7.85,7.85,0,0,1,3.66-2.44c6.78-2.7,13.63-2.36,20.45-.4,9.85,2.84,19.12,7.22,28.69,10.82,1.56.58,1.58,1,.15,2.48-5.27,5.34-10.68,10.55-15.83,16-6.45,6.81-12.69,13.81-19,20.72a16.8,16.8,0,0,0-1.31,1.37c-1.54,2.16-3.66,2.67-6.13,2.26Z"/><path class="cls-8" d="M751.39,841.32l-15.1,6a5.19,5.19,0,0,1-4.84-.57c-3.07-1.86-6.11-3.77-9.22-5.53-4.32-2.45-8.68-4.82-13.05-7.16-9.22-4.93-18.35-10-27.76-14.59-4.57-2.21-9.2-4.23-13.91-6.1-.65-.26-1.44-.31-1.81-1.33a57,57,0,0,1,7.53-2,59.14,59.14,0,0,1,10.58-1.66c6-.43,11.43,1.67,16.67,4.23,7.39,3.62,14.47,7.84,21.51,12.1,7.31,4.44,14.83,8.49,22.31,12.63C746.49,838.49,748.64,839.75,751.39,841.32Z"/><path class="cls-8" d="M749.07,371.84c-1.22,0-1.82-1-2.57-1.67-10.49-10-22.74-17-36.19-22.16A100,100,0,0,0,691.75,343a93,93,0,0,0-20.13-1.54c-1.67.08-3.26,1-5,.45-.39-.79.33-1.12.74-1.48,6.36-5.75,13-11,21.28-13.91s15.86-1.45,23.07,2.7c11,6.31,19.5,15.35,27.11,25.31a90.62,90.62,0,0,1,9.56,15.26,4.38,4.38,0,0,1,.71,2.08Z"/><path class="cls-8" d="M749.09,371.83c.3.12.6.56.45.62-.71.32-.33-.37-.47-.61Z"/><path class="cls-8" d="M715.83,747.11a2.27,2.27,0,0,1-.33-1.79c1-8.7-1.28-16.45-7.12-23a2.34,2.34,0,0,1-.3-3.3c4.88-7.76,9.53-15.67,15-23a22,22,0,0,1,2.73-3.05c1.21-1.13,2.09-1,2.61.57.67,2,1.33,4,.75,6.17a5,5,0,0,0-.26,2.17c1,5,.61,10.11.44,15.15-.37,11.26-4.15,21.19-12.38,29.18C716.67,746.44,716.34,746.69,715.83,747.11Z"/><path class="cls-9" d="M668.75,791.51a17.28,17.28,0,0,1,4.85-6.13,22,22,0,0,1,11.07-4.16,6.55,6.55,0,0,1,5.42,2,3.28,3.28,0,0,1,1,3.45c-.86,2.8-1.59,5.64-2.41,8.6-2.35-.06-4.35-1.07-6.38-1.71-4.08-1.3-8.34-.92-12.44-1.76A9.06,9.06,0,0,1,668.75,791.51Z"/><path class="cls-12" d="M516.06,501.72c6.48,2.5,12.23,4.77,18,6.94,1.17.44,1.45,1,.95,2.09-1,2.23-1.87,4.47-3.66,6.19s-3,1.84-5,.4a14.44,14.44,0,0,1-2.54-2.34C520.54,511.24,518.31,506.87,516.06,501.72Z"/><path class="cls-12" d="M617,510.31l15.06-8.73c.7.86.12,1.49-.11,2.14a54.68,54.68,0,0,1-3.35,7.84,19,19,0,0,1-2.08,3.16c-2.8,3.37-4.72,3.3-7.17-.28C618.52,513.23,617.89,511.88,617,510.31Z"/><path class="cls-6" d="M549,399.31a.66.66,0,0,1-.45-.79C549,398.62,549.19,398.85,549,399.31Z"/><path class="cls-6" d="M548.57,398.55c-.42-.06-.55-.33-.52-.72A.58.58,0,0,1,548.57,398.55Z"/><path class="cls-15" d="M268.36,639.62c2.09,1.77,3.53,1,5.19-.7a78.09,78.09,0,0,1,8.68-8.28,77.88,77.88,0,0,0,6.16,6.81c2.33,2.46,2.55,1.89-.21,4.5-3.23,3-6.49,6-9.7,9.12-2.77,2.66-2.5,2.1-.06,4.87,2.88,3.25,6.18,6.07,9.29,9.08,1.64,1.58,1.67,1.63.18,3.18-4.18,4.34-8.14,8.87-12.09,13.41-2.2-1.66-3.88-3.85-5.78-5.82-2.39-2.49-4-2.13-6,.66-2.92,4.23-6.16,8.24-9.46,12.62-2.75-4.79-5.35-9.32-7.53-14.09a2.37,2.37,0,0,1,.46-2.6c2.56-3.84,4.6-8.06,7.91-11.39,1.24-1.25,1-2.66.14-4-1.48-2.31-2.9-4.65-4.44-6.92-.74-1.09-1-1.95,0-3.08,2.69-3.24,5.05-6.75,8.18-9.6,1.91,2.09,3.6,4.41,6,6a4.22,4.22,0,0,0,.79-.65C266.89,641.67,267.62,640.64,268.36,639.62Z"/><path class="cls-12" d="M275.8,681.61c3.95-4.54,7.91-9.07,12.09-13.41,1.49-1.55,1.46-1.6-.18-3.18-3.11-3-6.41-5.83-9.29-9.08-2.44-2.77-2.71-2.21.06-4.87,3.21-3.07,6.47-6.08,9.7-9.12,2.76-2.61,2.54-2,.21-4.5a77.88,77.88,0,0,1-6.16-6.81c1.1-1.27,2.23-3,3.78-3.11s2.18,2,3.25,3.12c3.15,3.26,6.21,6.59,9.31,9.89-.24,1.06-1.13,1.54-1.8,2.18-3.64,3.51-7.31,7-11,10.49-1.62,1.55-1.73,2.95-.06,4.61,2.76,2.76,5.65,5.39,8.49,8.07,1.66,1.57,1.67,1.57.25,3.12l-14.92,16.26A17,17,0,0,1,275.8,681.61Z"/><path class="cls-12" d="M268.36,639.62c-.74,1-1.47,2-2.24,3.06a4.22,4.22,0,0,1-.79.65c-2.44-1.57-4.13-3.89-6-6a17.63,17.63,0,0,1,3.64-3.9A57.8,57.8,0,0,1,268.36,639.62Z"/><path class="cls-15" d="M334.52,738.55a23.46,23.46,0,0,1-12.33,8.72c-3.7,1.13-6.06-.46-7.16-4.18a10.15,10.15,0,0,1,.12-5.93,39.52,39.52,0,0,1,18.38-23.23,9.21,9.21,0,0,1,3.55-1.26,24.19,24.19,0,0,1,.83,18.12A36.17,36.17,0,0,1,334.52,738.55Z"/><path class="cls-12" d="M334.52,738.55a36.17,36.17,0,0,0,3.39-7.76,24.19,24.19,0,0,0-.83-18.12c6.16-1.63,7.47,2,7.28,6.2C344.08,725,341.5,730.2,338,735,337,736.32,336.2,737.88,334.52,738.55Z"/><path class="cls-15" d="M312.56,707.48a33.38,33.38,0,0,1-13.05,9.62c-5.06,2-8-.11-7.69-5.6a17.13,17.13,0,0,1,1.41-5.8,39.86,39.86,0,0,1,13.35-16.85,11.49,11.49,0,0,1,5.08-2.37c.58,1.67,1.26,3.3,1.72,5C314.86,696.89,314.26,702.22,312.56,707.48Z"/><path class="cls-12" d="M312.56,707.48c1.7-5.26,2.3-10.59.82-16-.46-1.7-1.14-3.33-1.72-5,4.78-1.47,7.13,0,7.42,4.93A19.17,19.17,0,0,1,312.56,707.48Z"/><path class="cls-15" d="M861.66,461.32a28.77,28.77,0,0,1-8.7-1.27c-2.29-.69-3.08-.54-4.63,1.46-3.35,4.35-6.76,8.67-9.89,13.18a4.7,4.7,0,0,1-5.27,2.22c-5.1-.78-10.25-1.23-15.32-1.81-.47-1,.28-1.47.67-2,2.67-3.8,5.39-7.57,8.07-11.37,2.1-3,1.29-4.91-2.28-5.5-3.41-.56-6.83-1.08-10.85-1.72,3.31-4.61,6.35-8.84,9.4-13.07,3.46.27,6.94.39,10.38.85,2.75.37,4.44-.55,5.3-3.14,2.66.88,4.41,0,5.94-2.38,2.08-3.23,4.56-6.2,6.88-9.28l15,1.06c-3,5.55-6.47,10.52-9.77,16l13.67,1.78Z"/><path class="cls-12" d="M861.66,461.32l8.59-15-13.67-1.78c3.3-5.49,6.76-10.46,9.77-16l-15-1.06c1.15-1.89,2.13-4.21,4-5.21s4.11.05,6.2.2l14.88,1.08c.16,1.14-.59,1.68-1,2.29-2.84,3.79-5.76,7.53-8.57,11.34-1.48,2-1.27,3.71.4,5a2.58,2.58,0,0,0,2.35.67c3.57-1.34,7.05-.1,10.59.06.09,1.21-.79,1.78-1.32,2.5-3.52,4.73-7.09,9.43-10.63,14.15C865.83,462.65,865.8,462.67,861.66,461.32Z"/><path class="cls-12" d="M838.54,439.12c-.86,2.59-2.55,3.51-5.3,3.14-3.44-.46-6.92-.58-10.38-.85,1.28-3.26,3.56-4.14,6.95-3.36A84.58,84.58,0,0,0,838.54,439.12Z"/></svg>