<svg id="VGS-AlchemistHombrewer_Image" data-name="VGS-AlchemistHombrewer Image" xmlns="http://www.w3.org/2000/svg" viewBox="0 0 1200 1200"><defs><style>.cls-1{fill:#bbc8f5;}.cls-2{fill:#fff;}.cls-3{fill:#050506;}.cls-4{fill:#070707;}.cls-5{fill:#040404;}.cls-6{fill:#fefefe;}.cls-7{fill:#9999fe;}.cls-8{fill:#fcfdfd;}.cls-9{fill:#01cbfe;}.cls-10{fill:#fbfbfc;}.cls-11{fill:#ddc8ae;}.cls-12{fill:#01c9fb;}.cls-13{fill:#bac6f3;}.cls-14{fill:#a69581;}.cls-15{fill:#008cca;}.cls-16{fill:#5756d1;}.cls-17{fill:#f3f9fa;}</style></defs><ellipse id="Ellipse_25" data-name="Ellipse 25" class="cls-1" cx="600" cy="860.28" rx="416.3" ry="118.33"/><path class="cls-2" d="M718.39,601.51c1.41.76,2.42,1.28,3.41,1.84,21.33,12.26,43,23.8,65.33,34.23,2.52,1.18,4.82,2.14,7.23-.08a4.42,4.42,0,0,1,1.48-.55,968.12,968.12,0,0,0,102.37-43c2.65-1.31,3.81-2.77,3.93-5.68.36-8.44.93-16.88,1.47-25.32,1-15.09,1.93-30.17,1.68-45.31,0-2.11-.63-4.51.17-6.25.88-1.9,3.46-2.68,5.44-3.58,3.61-1.63,4.8-4,4.83-8.1.1-12.16.8-24.3,1.25-36.45.12-3.12-.35-3.66-3.33-4.27-6.52-1.33-13.12-2.24-19.7-3.19a5.33,5.33,0,0,1-4.65-3.46,70.43,70.43,0,0,0-26.61-30.71,124.41,124.41,0,0,0-15-8.27c-4.67-2.18-9.37-4.32-14.36-6.62a27.28,27.28,0,0,0,5.09-6.64c4.2-7.64,1.85-13.1-6.6-15.25a51.25,51.25,0,0,0-9.4-1.38c-2.53-.16-2.57-.2-2.72-2.8a71.76,71.76,0,0,1,.22-9.5c.41-5.06,1.12-10.09.95-15.18a23.5,23.5,0,0,0-1.68-8.66c-2-4.55-5.58-6.77-10.54-6.53a22.15,22.15,0,0,0-7.34,1.8,56.47,56.47,0,0,0-10.78,6,3.21,3.21,0,0,1-3.5.36,48.83,48.83,0,0,0-5.7-1.9c-9.82-2.82-18.58-.89-26.22,6a17.68,17.68,0,0,0-2.33,2.15c-1.27,1.67-2.78,1.81-4.74,1.42-3.21-.63-6.47-1-9.72-1.36-7.74-.8-14.64,1.09-20.5,6.43a73.4,73.4,0,0,0-8.41,9c-.55.71-.88,1.68-2,2-.92-1-1.82-2.05-2.77-3-6.83-7.08-14.79-12.15-24.56-14.23a5.41,5.41,0,0,0-5.8,1.92c-7.1,7.7-14.06,15.5-20.42,23.83-1.37,1.79-3,3.14-2,5.82.91,2.42.67,2.53-1.55,3.93A59.67,59.67,0,0,0,631,410.11c-.23.38-.33,1-1.1.94-1.42-1.94-2.8-3.92-4.29-5.83s-3-3.81-4.66-5.6c-30.76-33.44-68.14-54.62-113.45-60.89a122.26,122.26,0,0,0-38.23.61,235.42,235.42,0,0,0-47.35,13.72c-10.41,4.22-20.38,9.26-29.34,16.12a30.79,30.79,0,0,0-10.84,14.51,37.77,37.77,0,0,0-1.84,13.43c.2,8.16,1.68,16.17,2.94,24.21,1.22,7.69,2.8,15.32,4.81,23.16A110.84,110.84,0,0,1,345.45,446c.05-1.45,1-2.05,1.67-2.82a162.92,162.92,0,0,0,13.66-18.27,31.35,31.35,0,0,0,3.78-8c1.24-4.42.16-8.16-3.55-11a25.88,25.88,0,0,0-3.77-2.31,43.69,43.69,0,0,0-10.78-3.6c-7.95-1.69-15.88-3.48-23.68-5.75C308.06,390,294.16,384.05,282,374.51c-.42-.33-.82-.68-1.26-1-1.8-1.17-3.31-1.07-4.56.28a3.14,3.14,0,0,0-.12,4.31,11.63,11.63,0,0,1,1.39,2.45,133.41,133.41,0,0,0,32.32,47.24c1.53,1.43,1.55,1.51.13,2.89-8.9,8.6-17.08,17.9-25.77,26.7a37.08,37.08,0,0,0-3.73,4.3c-3.57,4.92-3.58,9.65-.14,14.68a38.79,38.79,0,0,0,7.25,7.51,97.64,97.64,0,0,0,21.95,13.78,231.5,231.5,0,0,0,95.35,21.56c6,.08,12.05-.23,18.05-.68a3.63,3.63,0,0,1,3.52,1.5,72.88,72.88,0,0,0,5.38,6.25,4.63,4.63,0,0,1,1.23,4.82,153,153,0,0,0-3.42,41.26A35.61,35.61,0,0,0,431.39,583c1.83,4.87,5.22,7.9,10.44,8.56a205.26,205.26,0,0,0,24,1.86,187.75,187.75,0,0,0,53.76-7.69,4.42,4.42,0,0,1,3.85.41c17.72,10.51,35.36,21.14,51.79,33.64a41.44,41.44,0,0,0,6.09,4A21.21,21.21,0,0,0,595.74,626a44.85,44.85,0,0,0,8.73-2.79,3,3,0,0,1,3.2.29c6.21,4.21,12.56,8.21,18.33,13a5.07,5.07,0,0,1,2,3.4,575.9,575.9,0,0,1,5,65.73,936,936,0,0,1-3.86,108.64c-.24,2.57-.12,5.21-1,8l-4.91-3.84a14.16,14.16,0,0,0-11.58-3,49.24,49.24,0,0,0-16.93,5.91c-3.28,2-3.8,3.26-3.23,7.07a43.67,43.67,0,0,0,1.79,6l-10.68,3.7c-14.87,5.13-29.33,11.33-44,17.1C532.34,857.63,526,859.87,520,863a30.22,30.22,0,0,0-7.88,5.79c-1.74,1.8-1.62,3.55.19,5.25a10.24,10.24,0,0,0,5.72,2.46c3.69.6,7.39,0,11.08.11,25.58.63,51.16,1.09,76.73,1.82,29.8.85,59.59,1.91,89.38,2.91q30.44,1,60.85,2.16c6.13.23,12.25.44,18.36,1,7.79.72,15.59,1.38,23.41.24a12.61,12.61,0,0,0,5.09-1.61c2.7-1.71,3.13-3.72,1.34-6.41a20.61,20.61,0,0,0-6.31-5.7,180.78,180.78,0,0,0-19.85-11.2c-5.62-2.69-11.22-5.4-16.75-8.27-10.31-5.34-20.6-10.73-31.59-14.57-1.45-.51-1.66-1.19-1.24-2.57a32.94,32.94,0,0,0,1.59-11.24c-.42-8.33-5.5-13.48-13.84-14a31.68,31.68,0,0,0-7.89.44A68.66,68.66,0,0,0,694.48,814c-.94.4-1.8,1.11-3,1a5.82,5.82,0,0,1,.26-3.07c1.61-7.87,3-15.78,4.16-23.72,2-13.69,3.85-27.41,5.92-41.1,3.31-21.83,6.84-43.62,10.1-65.46,3.86-25.85,6.52-51.8,6.36-78C718.29,603.11,718.34,602.6,718.39,601.51ZM338.8,629a58.57,58.57,0,0,1-10.14-1.27,16.61,16.61,0,0,1-12.89-10.1,49.52,49.52,0,0,1-3-9.65c-1.46-6.38-2.54-12.86-5.06-19-2.74-6.63-6.88-12.12-13.14-15.79a46.3,46.3,0,0,0-19.13-6.21c-5.29-.51-10,.77-13.95,4.61a48.15,48.15,0,0,0-5.89,6.63c-2.86,4.09-2.83,8.25-.27,12.46a25,25,0,0,0,5.55,6c3,2.51,6.35,4.55,9.51,6.85a67,67,0,0,1,22.31,27.07A37,37,0,0,1,296,644.81a29.76,29.76,0,0,1-7.6,21c-14.09,16.29-31.8,26.5-52.75,31.22-3.29.74-6.66,1.17-9.8,2.5-5.36,2.25-7.76,6.4-6.92,12.12a23.69,23.69,0,0,0,2.9,8.34,10.14,10.14,0,0,0,6.93,5.06,70.82,70.82,0,0,0,7.24.77,143,143,0,0,0,24,1,26.77,26.77,0,0,0,20.09-9.94,82.87,82.87,0,0,0,5.83-7.9c2.19-3.36,4.32-6.77,6.51-10.13a60.11,60.11,0,0,1,6.3-8.33,21.15,21.15,0,0,1,7.34-5.41c5.26-2.18,9-.77,11.52,4.32a22,22,0,0,1,1.51,4.16,52.91,52.91,0,0,1,.25,25.11c-2,8.94-5.72,17.21-10.06,25.21q-4,7.38-8.34,14.57a8.93,8.93,0,0,0,0,10.12,30,30,0,0,0,6.71,8,12.39,12.39,0,0,0,13.09,1.9,19.12,19.12,0,0,0,3.66-1.87A120.81,120.81,0,0,0,347,757.07c6.66-7.6,8.21-15.94,4.2-25.27-1.5-3.49-2.92-7-4.31-10.55a39.37,39.37,0,0,1-2.29-19c.32-3,1.13-5.84,3.54-7.9,2.13-1.82,3.91-1.75,5.84.24a20.33,20.33,0,0,1,3.93,6.45,103.93,103.93,0,0,1,6.25,21.56c2.22,11.86,3.05,23.88,4,35.89a79.57,79.57,0,0,0,1,10.09c1.1,5.35,4.49,8.51,9.59,9.84s9.14-.25,12.44-4.2a48.92,48.92,0,0,0,5.43-8.17,6.53,6.53,0,0,1,2.82-2.85,25.32,25.32,0,0,0,9.61-9.44A32.36,32.36,0,0,0,413.57,743c4.11-20.35.3-38.2-16.75-51.74a82.82,82.82,0,0,1-8.17-7c-1.53-1.59-3-3.26-3.28-5.59a2,2,0,0,1,.66-.2,3.4,3.4,0,0,1,1.24.2c3.23,1.41,6,.35,8.54-1.61a24.74,24.74,0,0,0,3.69-3.47c1.94-2.23,4-4.38,5.79-6.73,1.94-2.56,5.24-4.28,5.68-7.74.42-3.24-.34-6.53-.69-9.78a2.84,2.84,0,0,0-.06-.31,91.33,91.33,0,0,0-19.38-42.8,72.59,72.59,0,0,0-23.77-19.63,5.88,5.88,0,0,0-6.43.19,165,165,0,0,1-18.4,9.87,20.39,20.39,0,0,0-4.56,2.85,8.73,8.73,0,0,0-3.52,7.73,46.86,46.86,0,0,0,1.17,7.82C336.44,619.67,337.61,624.24,338.8,629ZM593.28,351.65c2.42-.2,4.86-.25,7.26-.62a19.66,19.66,0,0,0,14.93-10.57,56.57,56.57,0,0,0,3.45-8.15c12.57-35.64,26.18-70.87,41.37-105.49.13-.29.24-.58.37-.87a2.65,2.65,0,0,0-.7-3.18,2.73,2.73,0,0,0-3.47-.62,16.63,16.63,0,0,1-3.48,1.48,376.93,376.93,0,0,0-44.29,17.85c-21.4,10.24-41.86,22-60.3,37.08-5.57,4.55-11.12,9.14-15.83,14.6-5.33,6.2-5.85,11.43-2,18.63A60.72,60.72,0,0,0,541,325.74a94.41,94.41,0,0,0,32.58,21.45A60.78,60.78,0,0,0,593.28,351.65Z"/><path class="cls-3" d="M718.39,601.51c0,1.09-.1,1.6-.1,2.12.16,26.18-2.5,52.13-6.36,78-3.26,21.84-6.79,43.63-10.1,65.46-2.07,13.69-3.88,27.41-5.92,41.1-1.18,7.94-2.55,15.85-4.16,23.72a5.82,5.82,0,0,0-.26,3.07c1.19.1,2-.61,3-1a68.66,68.66,0,0,1,13.87-4.33,31.68,31.68,0,0,1,7.89-.44c8.34.53,13.42,5.68,13.84,14a32.94,32.94,0,0,1-1.59,11.24c-.42,1.38-.21,2.06,1.24,2.57,11,3.84,21.28,9.23,31.59,14.57,5.53,2.87,11.13,5.58,16.75,8.27A180.78,180.78,0,0,1,797.92,871a20.61,20.61,0,0,1,6.31,5.7c1.79,2.69,1.36,4.7-1.34,6.41a12.61,12.61,0,0,1-5.09,1.61c-7.82,1.14-15.62.48-23.41-.24-6.11-.57-12.23-.78-18.36-1q-30.42-1.15-60.85-2.16c-29.79-1-59.58-2.06-89.38-2.91-25.57-.73-51.15-1.19-76.73-1.82-3.69-.09-7.39.49-11.08-.11a10.24,10.24,0,0,1-5.72-2.46c-1.81-1.7-1.93-3.45-.19-5.25A30.22,30.22,0,0,1,520,863c6-3.14,12.38-5.38,18.66-7.86,14.62-5.77,29.08-12,44-17.1l10.68-3.7a43.67,43.67,0,0,1-1.79-6c-.57-3.81-.05-5.1,3.23-7.07a49.24,49.24,0,0,1,16.93-5.91,14.16,14.16,0,0,1,11.58,3l4.91,3.84c.89-2.81.77-5.45,1-8A936,936,0,0,0,633,705.63a575.9,575.9,0,0,0-5-65.73,5.07,5.07,0,0,0-2-3.4c-5.77-4.82-12.12-8.82-18.33-13a3,3,0,0,0-3.2-.29,44.85,44.85,0,0,1-8.73,2.79,21.21,21.21,0,0,1-14.41-2.22,41.44,41.44,0,0,1-6.09-4c-16.43-12.5-34.07-23.13-51.79-33.64a4.42,4.42,0,0,0-3.85-.41,187.75,187.75,0,0,1-53.76,7.69,205.26,205.26,0,0,1-24-1.86c-5.22-.66-8.61-3.69-10.44-8.56a35.61,35.61,0,0,1-1.82-10.58A153,153,0,0,1,433,531.14a4.63,4.63,0,0,0-1.23-4.82,72.88,72.88,0,0,1-5.38-6.25,3.63,3.63,0,0,0-3.52-1.5c-6,.45-12,.76-18.05.68a231.5,231.5,0,0,1-95.35-21.56,97.64,97.64,0,0,1-21.95-13.78,38.79,38.79,0,0,1-7.25-7.51c-3.44-5-3.43-9.76.14-14.68a37.08,37.08,0,0,1,3.73-4.3c8.69-8.8,16.87-18.1,25.77-26.7,1.42-1.38,1.4-1.46-.13-2.89a133.41,133.41,0,0,1-32.32-47.24,11.63,11.63,0,0,0-1.39-2.45,3.14,3.14,0,0,1,.12-4.31c1.25-1.35,2.76-1.45,4.56-.28.44.28.84.63,1.26,1,12.16,9.54,26.06,15.48,40.78,19.76,7.8,2.27,15.73,4.06,23.68,5.75a43.69,43.69,0,0,1,10.78,3.6,25.88,25.88,0,0,1,3.77,2.31c3.71,2.82,4.79,6.56,3.55,11a31.35,31.35,0,0,1-3.78,8,162.92,162.92,0,0,1-13.66,18.27c-.64.77-1.62,1.37-1.67,2.82a110.84,110.84,0,0,0,42.22-1.51c-2-7.84-3.59-15.47-4.81-23.16-1.26-8-2.74-16.05-2.94-24.21a37.77,37.77,0,0,1,1.84-13.43,30.79,30.79,0,0,1,10.84-14.51c9-6.86,18.93-11.9,29.34-16.12a235.42,235.42,0,0,1,47.35-13.72,122.26,122.26,0,0,1,38.23-.61C552.83,345,590.21,366.18,621,399.62c1.64,1.79,3.16,3.69,4.66,5.6s2.87,3.89,4.29,5.83c.77.09.87-.56,1.1-.94a59.67,59.67,0,0,1,19.43-19.22c2.22-1.4,2.46-1.51,1.55-3.93-1-2.68.58-4,2-5.82,6.36-8.33,13.32-16.13,20.42-23.83a5.41,5.41,0,0,1,5.8-1.92c9.77,2.08,17.73,7.15,24.56,14.23.95,1,1.85,2,2.77,3,1.07-.33,1.4-1.3,2-2a73.4,73.4,0,0,1,8.41-9c5.86-5.34,12.76-7.23,20.5-6.43,3.25.34,6.51.73,9.72,1.36,2,.39,3.47.25,4.74-1.42a17.68,17.68,0,0,1,2.33-2.15c7.64-6.84,16.4-8.77,26.22-6a48.83,48.83,0,0,1,5.7,1.9,3.21,3.21,0,0,0,3.5-.36,56.47,56.47,0,0,1,10.78-6,22.15,22.15,0,0,1,7.34-1.8c5-.24,8.58,2,10.54,6.53a23.5,23.5,0,0,1,1.68,8.66c.17,5.09-.54,10.12-.95,15.18a71.76,71.76,0,0,0-.22,9.5c.15,2.6.19,2.64,2.72,2.8a51.25,51.25,0,0,1,9.4,1.38c8.45,2.15,10.8,7.61,6.6,15.25a27.28,27.28,0,0,1-5.09,6.64c5,2.3,9.69,4.44,14.36,6.62a124.41,124.41,0,0,1,15,8.27,70.43,70.43,0,0,1,26.61,30.71,5.33,5.33,0,0,0,4.65,3.46c6.58,1,13.18,1.86,19.7,3.19,3,.61,3.45,1.15,3.33,4.27-.45,12.15-1.15,24.29-1.25,36.45,0,4.07-1.22,6.47-4.83,8.1-2,.9-4.56,1.68-5.44,3.58-.8,1.74-.2,4.14-.17,6.25.25,15.14-.71,30.22-1.68,45.31-.54,8.44-1.11,16.88-1.47,25.32-.12,2.91-1.28,4.37-3.93,5.68a968.12,968.12,0,0,1-102.37,43,4.42,4.42,0,0,0-1.48.55c-2.41,2.22-4.71,1.26-7.23.08-22.3-10.43-44-22-65.33-34.23C720.81,602.79,719.8,602.27,718.39,601.51Zm-425-201.9,0,0c.09.5.23,1,.8,1.11v0c0,.92.7,1.51,1.16,2.19A115.66,115.66,0,0,0,307,417.54c2.17,2.3,4.54,4.41,6.7,6.71,1.19,1.25,2,1,3.06-.11,1.78-1.93,3.68-3.74,5.53-5.6,1.28-.92,2.54-1.87,3.84-2.76a2,2,0,0,1,2.63.2,2.12,2.12,0,0,1,.53,2.6,8.43,8.43,0,0,1-1.36,2.12c-1.48,1.65-3,3.28-4.56,4.84-11.84,11.76-23.22,24-34.67,36.11a14.58,14.58,0,0,0-3.22,3.43c-2.24,3-2.26,5-.06,8.07a22.66,22.66,0,0,0,2.26,2.64,57.53,57.53,0,0,0,8.77,7.26,118.94,118.94,0,0,0,22.9,12.13A234.1,234.1,0,0,0,392,512.46a178.44,178.44,0,0,0,51.34-3.32c.65-.15,1.51,0,1.79-1.14-3.34-2.47-6.14-5.64-9.28-8.44-2.14-2.73-4.38-5.4-6.4-8.22-3-4.12-2.93-7.12-.16-11.4a47.23,47.23,0,0,1,5-6.14c.61-.66,1.53-1.12,1.7-2.37l-9.59-2.94c-3.05-.94-3.32-1.28-3-4.52.31-3.47.74-6.93,1.07-10.4.23-2.34.2-2.33-2-2.92a106,106,0,0,1-11.82-3.49c-2.3-.9-2.63-1.45-2.34-3.77a218.9,218.9,0,0,1,4.78-25.5c.86-3.4,1.6-3.79,4.87-2.74,3.42,1.09,6.83,2.18,10.27,3.18,3.09.9,3.05.83,3.95-2.18,1.84-6.16,3.7-12.32,5.63-18.46.83-2.66,1.47-2.9,4.17-2.35q7.13,1.46,14.28,2.81c4.25.8,8.52,1.49,12.77,2.3,2.35.44,2.85,1.21,2.48,3.48-.06.41-.18.82-.28,1.23-1.32,5.43-2.69,10.85-3.95,16.3a11.36,11.36,0,0,0-.62,4.44c6.5.69,12.89,1.42,19.29,2,4.44.41,5,1,4.14,5.28-1.46,7.13-3,14.25-4.39,21.4-.69,3.51-1,3.86-4.5,3.65-4.43-.26-8.85-.63-13.27-.94-1.24-.08-2.56-.5-3.5.78-9.45,6.39-18.68,13-26.6,21.33a29.43,29.43,0,0,0-2.6,3.19c-2,2.77-2,3.11,0,5.84A75.54,75.54,0,0,0,448,502.32a174.38,174.38,0,0,0,26.41,17.9,32.42,32.42,0,0,0,7.57,3.16c3.16.84,6.35,1.48,9.62.55a19.2,19.2,0,0,0,6.12-1.49,232.66,232.66,0,0,0,31.74-14.86,22.83,22.83,0,0,0,5.08-3.76c1.94-2,2.09-2.75.95-5.34-1.6-3.67-3.25-7.33-4.88-11a10.29,10.29,0,0,1-1.14-3.93c0-2,1.31-2.86,3.15-1.91a9.6,9.6,0,0,1,3.47,3.6c2.08,3.2,3.35,6.81,5.12,10.16,2,3.76,2.16,7.42-.18,11.08-4.08,5-9.87,7.7-15.34,10.85a3.81,3.81,0,0,0,2,1.34q8.32,3.87,17,6.92a261.27,261.27,0,0,0,62,13.43,367,367,0,0,0,48.73,1.42c12.89-.47,25.71-1.59,38.53-2.9a39.71,39.71,0,0,0,11.42-2.44c4.37-1.81,5.86-4,5.87-8.7a15,15,0,0,0-.37-4.72c-.34-6.13-1.83-12.06-3.24-18-.94-4-2.15-7.89-3.28-11.79a52.81,52.81,0,0,1-1.82-11.47,4.36,4.36,0,0,1,.07-1.25c.32-1.5,1.25-1.9,2.5-1a7.33,7.33,0,0,1,1,1.16c.68,2,1.48,3.94,2,6,.43,1.69,1.26,1.84,2.74,1.4,6.36-1.87,12.68-3.82,18.82-6.3,3.88-1.57,7.85-3,11.38-5.31l0,0a1.89,1.89,0,0,0,1.62-.79c7.7-3.49,14.47-8.39,21-13.74a6.35,6.35,0,0,0-2.31,0c-7.38,1.33-14.83,2.24-22.31,2.84a201.15,201.15,0,0,1-39.56-.61c-8.5-1-17-2.18-25.11-5a35,35,0,0,0-4.25-1.23c-3.76-.78-4.75-.09-5.43,3.64a13.86,13.86,0,0,0-.25,1.57c-.67,7.74.11,15.4,1.23,23.05.19,1.38.91,1.65,2.16,1.55a15.87,15.87,0,0,1,5.05.21c.84.21,1.66.52,1.85,1.5a1.85,1.85,0,0,1-1.21,2,16.76,16.76,0,0,1-2.88,1.28,27.12,27.12,0,0,1-7.48,1.24,167.61,167.61,0,0,1-20.9-.47,157.78,157.78,0,0,1-38.89-8.41c-2.38-.85-4.76-1.75-7.06-2.8-2.08-1-2.43-2.43-1.28-4.39.27-.46.62-.86.92-1.3L622.08,437a45.83,45.83,0,0,0,3.93-6.87,13.41,13.41,0,0,0-.1-11.65,37.25,37.25,0,0,0-4.13-6.74,141.23,141.23,0,0,0-17.64-19.49c-27.68-25.16-59.79-41.24-97-46.56a115.31,115.31,0,0,0-34.45,0,215.2,215.2,0,0,0-53,15.66,109,109,0,0,0-23,13.26,23.8,23.8,0,0,0-9.85,19c-.27,9.68,1.46,19.14,3.27,28.58a3.45,3.45,0,0,0,.5,2.65l0,0a19.61,19.61,0,0,0,.18,2.18c1.2,6.21,2.37,12.43,4.06,18.52.7,2.52.15,3.59-2.34,4.65-.38.16-.74.36-1.11.55a3.28,3.28,0,0,0-.63,0,114.34,114.34,0,0,1-44.62,2.54,103.64,103.64,0,0,1-17.55-4.06A8.87,8.87,0,0,1,325,447.4c-.86-.84-1.51-1.76-1.06-3.08a2.82,2.82,0,0,1,2.6-2,10.36,10.36,0,0,1,3.76.39c2.05.51,4.08,1.06,6.12,1.61a2.81,2.81,0,0,0,3.31-1,191,191,0,0,0,15-20,36.54,36.54,0,0,0,3.2-6.18c1.54-4,1-5.32-2.91-7.26a29.46,29.46,0,0,0-6.57-2.24c-5.87-1.31-11.78-2.43-17.62-3.85-15.34-3.74-30.14-8.88-43.63-17.31-.32-.2-.64-.58-1.34-.07a78.44,78.44,0,0,0,7.07,12.43A.78.78,0,0,0,293.43,399.61ZM715,833.2l6.7,1.12c1.28-4.33,2.17-8.61,1.55-13.11a7.06,7.06,0,0,0-5.72-6.36,19.47,19.47,0,0,0-10.88.61c-6.5,1.71-12.89,3.65-18.15,8.13a2.51,2.51,0,0,1-1.36.73c-2,0-3.29,1.3-4.77,2.24a110,110,0,0,0-9.56,7.24,6.05,6.05,0,0,1-2.37,1.51,2.07,2.07,0,0,1-2.28-.66,1.92,1.92,0,0,1-.19-2.35,15.51,15.51,0,0,1,1.56-2,73.23,73.23,0,0,1,9.3-8,7.22,7.22,0,0,0,4.92-5.86c2.91-14.92,5.69-29.85,7.78-44.91,1.89-13.59,3.79-27.18,5.86-40.74,3.77-24.73,7.92-49.4,10.76-74.27a506.16,506.16,0,0,0,3.35-55.31c0-3-.21-5.91-.4-8.86-.32-5.06-2.62-8.82-7.36-10.91-.77-.34-1.5-.79-2.28-1.1q-10.58-4.22-21.17-8.38a6.66,6.66,0,0,0-1.27-.24c-.87,4.95-1.73,9.81-2.58,14.66-.3,1-.61,2-.89,3a89.6,89.6,0,0,1-8.21,20.2c-7.21,12.63-17.07,22.23-31.12,26.94-1.48.5-2,1.13-1.78,2.71.55,3.86.95,7.75,1.36,11.64q3.15,29.33,3.63,58.83c.28,18,.26,35.93-.55,53.88-1.07,24-2.5,47.91-5.76,71.69a3.78,3.78,0,0,0,1.74,4,37.59,37.59,0,0,0,11.83,5.93c4,1.13,7.91,1.27,11.73-.67a11.45,11.45,0,0,1,2.1-.68,2.05,2.05,0,0,1,2.5.8c.65,1,.25,1.83-.24,2.67a7.37,7.37,0,0,1-4,2.94,19.45,19.45,0,0,1-11.85.55c-10.06-2.55-18-8.32-24.57-16.24a3.37,3.37,0,0,1-.52-.79,2.13,2.13,0,0,1,.32-2.37,2.1,2.1,0,0,1,2.32-.55c.89.27,1.46,1.27,2.55,1.1.81-1.69.44-2.9-1.14-4-2.06-1.46-3.95-3.17-5.92-4.77a9.06,9.06,0,0,0-7.71-2,48.57,48.57,0,0,0-12.84,4.36c-2.09,1-2.18,1.6-1.32,3.81a22.83,22.83,0,0,0,4.58,6.79A112,112,0,0,0,626,856.08,81.57,81.57,0,0,0,641.48,864a18.28,18.28,0,0,0,15-.53A74.1,74.1,0,0,0,667.73,857c4.63-3.34,9.18-6.77,13.77-10.16a103.8,103.8,0,0,1,15.41-10c3.3-1.65,6.64-3.24,10.38-3.72ZM642.69,485.58l.06.23-.1-.19c-4.25-3.07-8-6.8-12.93-8.93a2.42,2.42,0,0,1-1.17-1c-.79-1.61-2.31-2.43-3.61-3.48-2.86-2.34-5.8-4.58-8.43-7.17-1.84-1.81-2.24-2.93-1.35-3.7,1.36-1.2,2.55-.19,3.72.49,1.94,1.12,3.86,2.28,6.26,3.72-.67-3.78-1.24-7-1.86-10.4-4.74,1.93-9.62,3-12.12,8.07a6.1,6.1,0,0,0-.7,4.74c1,3.54,2.08,7.09,3,10.66a3.65,3.65,0,0,0,3.08,3c5.66,1.26,11.33,2.5,17.07,3.26C636.6,485.31,639.6,486.18,642.69,485.58Zm244.92-16.34c1.82-.12,1.58-1.17,1.14-2.41-6-17.1-15.81-31.31-31.66-40.83-5.42-3.26-11.08-6-16.78-8.75-3.63-1.72-7.5-1.58-11.54-2.07.19,1.32.31,2.25.44,3.19-.13,1-.24,2.08-.39,3.12-.34,2.16-.34,2.13,1.72,2.69,23.87,6.39,38.82,21.76,45.64,45.33.47,1.61.5,3.34,1.5,5A61.44,61.44,0,0,0,887.61,469.24ZM637.84,412.08a31.3,31.3,0,0,0-4.06,7.11,3,3,0,0,0-.38,1.83c.77,4.84-.77,9.18-3,13.33a8.19,8.19,0,0,0-1,3.61,95.2,95.2,0,0,0,3.56,30.38c1.29,4.67,4.52,6.69,8.62,9.06a141.26,141.26,0,0,1-3.71-16.49c-1.37-9.06-1.54-18.1.66-27.07,2.73-11.14,8.79-20.24,17.31-27.8,2.3-2.05,2.25-1.33,1-4.43a9.7,9.7,0,0,0-.62-1.08,11.4,11.4,0,0,0-1.59-4.26C647.84,400.49,642,405.4,637.84,412.08ZM784.12,629a.55.55,0,0,0,.06.26s.18,0,.19,0c.06-.19,0-.27-.3-.24.07-1.49-1-2.51-1.65-3.66q-9.75-16.51-17.9-33.9c-2.67-5.72-5.22-11.51-8-17.57-2.33,2.46-4.78.24-7.33.09,5.87,12.9,11.72,25.43,19,37.23a2.85,2.85,0,0,1,0,3.51,2.73,2.73,0,0,1-3.4.89,21.73,21.73,0,0,1-2.3-1.06c-13-6.14-25.54-13.13-37.9-20.48-2.16-1.28-4.36-2.49-6.68-3.81a4.24,4.24,0,0,0,2.36,5.1c20,11.37,40.13,22.59,60.87,32.64C782.11,628.47,783,629.23,784.12,629Zm85.14-91.89c3.09-1.28,6.18-2.59,9.28-3.85a1.69,1.69,0,0,0,1.31-1.85,40.39,40.39,0,0,0-.63-6.51c-4.35,2.34-8.76,3.94-12.75,6.43a6,6,0,0,0-2.63,1q-33.6,15.21-68.2,28c-5.45,2-10.92,3.91-16.4,5.8-1.15.4-1.55.81-1,2a50.27,50.27,0,0,1,2.14,5.28c.52,1.54,1.37,1.62,2.62.95.56-.3,1.16-.51,1.74-.76q28.2-12.12,56.39-24.24C850.53,545.26,859.89,541.17,869.26,537.1Zm-35-98.39a50.05,50.05,0,0,0,8.17-3.15,57.86,57.86,0,0,0-13.92-5.3c-2.66-.72-4.47-.35-5.73,2.13-1.92,1.47-3.85,2.93-5.76,4.41-2.41,1.87-2.95,1.91-5.53.06a39.32,39.32,0,0,0-7.93-4.58,6.35,6.35,0,0,0-4.86-.19,61.86,61.86,0,0,0-26.34,17.49,7.3,7.3,0,0,0-2,2.88c1.33.22,2.48-.44,3.69-.62a4.45,4.45,0,0,1,1.85-.18c2.43.62,3.21,3.21,1.5,5.22s-3.5,3.9-5.18,5.76l2.19-.79c13.19-5.05,26.4-10.07,39.58-15.17C820.77,444.05,827.66,441.7,834.29,438.71Zm44.48,140.88c1.66-5.38.87-10.89,1.32-16.65-2.31.84-4.21,1.4-5.8,2.66a6,6,0,0,0-1.22.21c-25.34,10.74-51,20.78-76.06,32.1a10.76,10.76,0,0,0-3.52,2c1.72,2.85,3.51,5.68,5.16,8.6.83,1.46,1.65,1.72,3.29,1.1,17.44-6.62,34.94-13.11,52.4-19.7A260.13,260.13,0,0,0,878.77,579.59ZM657.94,386.06a82.19,82.19,0,0,0,5,14.64,109.52,109.52,0,0,0,25.63,37.36,5.06,5.06,0,0,0,4.48,1.54A102.24,102.24,0,0,0,712,435.69c7-2.14,7-2.19,6.72-9.68,0-1.05.17-2.1.15-3.15a79.51,79.51,0,0,0-9.71-37A53.92,53.92,0,0,0,694,367.84a39.47,39.47,0,0,0-13.31-6.42c-1.08-.29-2.13-.68-3.18.44-6.7,7.18-13.29,14.45-19.33,22.21A1.51,1.51,0,0,0,657.94,386.06ZM875,561.24a29.53,29.53,0,0,1,2.93-1.08c1.83-.48,2.35-1.57,2.36-3.43,0-6.3,0-12.59-.29-18.88,0-.48.12-1.05-.67-1.42-3.56,1.67-7.49,2.82-10.94,5-.92-.18-1.62.4-2.38.73q-30,12.82-59.93,25.69c-7.27,3.13-14.5,6.34-21.76,9.49-1.07.46-1.85.83-1.16,2.29,2.48,5.25,5,10.47,7.76,15.59.58,1.08,1.21,1.32,2.25.74a15.39,15.39,0,0,1,1.44-.64c17.81-8,35.88-15.4,53.9-22.9C857.37,568.77,866.32,565.29,875,561.24ZM440.53,406.32c-.32.88-.68,1.75-.94,2.65-1.25,4.31-2.52,8.63-3.68,13a3.53,3.53,0,0,1-2.47,2.92l-15.83-4.42c-.52,2.28-1.3,4.34-1.37,6.57-1.4,4.55-2,9.27-2.74,13.95-.23,1.41.45,1.87,1.62,2.17,3.88,1,7.73,2.09,11.62,3.08,3.39.86,3.73,1.31,3.18,4.83s-.92,7.33-1.29,11c-.16,1.61.36,2.3,1.85,2.69,2.65.69,5.29,1.44,7.89,2.3a4.39,4.39,0,0,0,4.61-1c5.95-4.91,12.43-9.11,18.67-13.63a4.17,4.17,0,0,1,3.51-1c3.73.83,7.55.63,11.33.87,4.31.69,4.31.69,5-3.36.09-.52.21-1,.31-1.55.9-4.71,1.81-9.42,2.74-14.27l-1.83-.21c-6.49-.75-13-1.47-19.46-2.28-2.66-.34-3.25-1.2-2.88-3.76.13-.83.29-1.66.5-2.48,1.44-5.82,2.91-11.64,4.36-17.46.52-2.06.52-2.06-1.49-2.45q-7.9-1.53-15.81-3.08C441.92,400.22,441.92,400.21,440.53,406.32Zm422.34,75a66.81,66.81,0,0,0,7.77-3.26c.92-.41,1.53-.83,1.26-2.11a58,58,0,0,0-5.68-16.13,91.22,91.22,0,0,0-10,4.22,5.34,5.34,0,0,0-2.39.76q-35.64,14.43-71.28,28.89c-8,3.27-16,6.68-23.93,10.06-2.27,1-2.23,1-2,3.52a91,91,0,0,0,2.12,12.16c.19.78.21,1.67,1.07,2.24.87-.29,1.77-.58,2.66-.89C793,510.13,823,498,852.86,485.88,856.25,484.5,859.75,483.29,862.87,481.29Zm34.26,92.34a13.64,13.64,0,0,0,.44-4.07c.4-6.31.76-12.63,1.14-18.95.64-10.85,1.15-21.7,1.23-32.57a7.68,7.68,0,0,0-.4-3.8l-12.9,7c-2.27.4-2.25,2-2.14,3.8a402.52,402.52,0,0,1,.47,46c-.16,3.16-.57,6.33-.47,9.49a3.78,3.78,0,0,1-2.68,4.08c-3.89,1.65-7.72,3.41-11.6,5.08-23,9.86-47,17.16-70.15,26.53a2.76,2.76,0,0,1-3.63-1c-.55-.77-1.06-1.57-1.57-2.37a252.82,252.82,0,0,1-19-36.51c-.91-2.14-1.79-4.29-2.68-6.43-.35-.84-.75-1.54-1.86-1.14-3.05,1.11-6.22,1.91-9.27,3.37.41,1,.73,1.88,1.12,2.72C770.48,590.55,778.28,606,787,621c1.75,3,3.39,6.09,5,9.17,1.14,2.16,1.11,2.21,3.53,1.27,17.32-6.71,34.65-13.38,51.8-20.52,15.89-6.61,31.46-13.91,47-21.33a3.49,3.49,0,0,0,2.29-3.32C896.9,582.07,897.18,577.86,897.13,573.63Zm-60-133.1c-.6.18-1.22.32-1.8.54l-45.83,17.59c-7.59,2.91-15.22,5.72-22.74,8.78-4.21,1.72-7.57,4.24-8.42,9.35-.72,4.37-1.73,8.7-2.07,13.13a53.76,53.76,0,0,0,0,10.91c1.21.38,2-.29,2.85-.65,25.41-10.94,51.14-21.11,76.79-31.44,6.26-2.52,12.62-4.77,18.7-7.7,3.44-1,6.63-2.58,10.16-4a57.42,57.42,0,0,0-18.28-19.24,2.31,2.31,0,0,0-2.38-.22C841.83,438.66,839.34,439.2,837.17,440.53ZM898.24,508c3.82-1.56,7.17-4,10.78-5.91,1.15-.62,1.19-1.58,1.23-2.66.36-11.19.71-22.38,1.15-33.56.06-1.52-.51-2.09-1.88-2.29-2.92-.44-5.82-1-8.75-1.39-2.44-.34-4.86-1-7.58-.94.48,1.32.9,2.38,1.26,3.47.27.82.62,1.32,1.59.95a1.55,1.55,0,0,1,2.11.85c.41.9-.23,1.57-.71,2.28-1.58,2.35-4,3.49-6.37,4.82-8.94,5-17.94,9.8-27.25,14.07-17.07,7.82-34.69,14.29-52.13,21.21-19.2,7.62-38.35,15.37-58.09,21.54-4.32,1.35-8.64,2.73-13,4-1.18.36-2,.68-1.26,2.14,1.24,2.53,1.7,5.41,3.45,7.71a3.06,3.06,0,0,0,.09.92q4.65,11.12,10.07,21.87c.82,1.63,1.7,1.66,3.27,1.09,7.23-2.66,14.48-5.26,21.77-7.73A780.81,780.81,0,0,0,883.28,516.2,159.65,159.65,0,0,0,898.24,508Zm-97-131.49a46.8,46.8,0,0,0-9.57,6.07c-.65.52-1.48.95-1.26,2a69.36,69.36,0,0,0,2.73,10.2l6.78-2.52c2.23-.84,4.58-.51,6.88-.66a20.42,20.42,0,0,1,12.31,6.6,32.28,32.28,0,0,1,3.91,5c.67,1.07,1.29,1.37,2.54.73a19.2,19.2,0,0,0,8.44-8.31c1.38-2.63.89-3.79-2-4.75a45,45,0,0,0-9.65-1.66c-1.13-.12-1.77-.05-2.3,1.32-.87,2.27-3,2.25-4.23.1a11.45,11.45,0,0,1-1.17-3.26,39,39,0,0,1-.82-7.23,115.94,115.94,0,0,1,1-15.8,46.89,46.89,0,0,0,.18-12c-.78-5.45-3.65-7.44-8.9-5.85-5.76,1.75-11.25,4.17-15.41,8.83a2.47,2.47,0,0,1-1.58,1c-1.5.1-2.45,1.15-3.53,2-2.77,2.11-5.49,4.29-8.28,6.38a31.3,31.3,0,0,1-5.39,3.31,1.51,1.51,0,0,1-2-.24c-.64-.69-.36-1.36.06-2a21.34,21.34,0,0,1,4.1-4.39c2.6-2.26,5.24-4.48,7.87-6.72-.24-.26-.36-.49-.53-.55-7.34-2.77-14.26-2.32-20.61,2.66a70.58,70.58,0,0,0-9,8.48,29.61,29.61,0,0,1-5.94,5.68c-1.21.76-2.47,1.87-4,.86-1-.65-.73-2,.58-4.29.93-1.61,2.39-2.89,3.19-4.85a55,55,0,0,0-12.45-1,17.25,17.25,0,0,0-9.83,3.93,62.15,62.15,0,0,0-10.73,11.6c-.89,1.19-.62,2,.06,3.07a80.11,80.11,0,0,1,9,20.53c.72,2.52,1.34,5.08,2,7.62.51,5.25,1.51,10.46,1.32,15.76,0,1.16.55,1.65,1.52,2.09,4.59,2.12,9.15,4.34,13.75,6.46a34.48,34.48,0,0,0,7.18,2.42,7.87,7.87,0,0,0,6.33-1.2c1.49-1,3-2,4.52-2.91,11.67-7,24.21-9.73,37.69-7.44a42.44,42.44,0,0,1,17,6.64c.74.51,1.42,1.33,2.47.37,2.64-2.4,5.58-4.55,6.62-8.23a7.76,7.76,0,0,0,0-6.48c-2.13-5.44-4.93-10.53-9.4-14.44A11.41,11.41,0,0,0,800,399.2c-1.75.72-3.51,1.45-5.24,2.23A94.21,94.21,0,0,1,783.32,406a20.2,20.2,0,0,1-8.12,1c-5.53-.61-8.28-5.17-6.17-10.3a14.47,14.47,0,0,1,2.05-3.56,70.36,70.36,0,0,1,25.61-19.73,20,20,0,0,1,3.3-1.1,27.39,27.39,0,0,1,3.11-.56,1.53,1.53,0,0,1,1.84.88c.24.69-.19,1.21-.72,1.61C803.22,375,802.21,375.75,801.21,376.51ZM465,573.23c.78-1.4,2.3-1.4,3.56-1.8,8-2.57,16.08-5.06,23.91-8.18,1.06-.42,2.26-.65,2.72-1.94,1.45-4,2.92-8,4.43-12.17a7.74,7.74,0,0,0-3.55,1,105.84,105.84,0,0,1-17.74,5.66c-7,1.43-13.4.5-19.24-3.74-1.53-1.12-3.11-2.17-4.66-3.24A187.49,187.49,0,0,1,439,534.37c-.36.56-.53.7-.56.87A137,137,0,0,0,436,572.76a30.83,30.83,0,0,0,1.21,7.49,6.57,6.57,0,0,0,6.2,5c2.63.2,5.25.51,7.88.8a158.89,158.89,0,0,0,51.95-3c11.24-2.49,22.15-6.15,33.16-9.44a50.86,50.86,0,0,1,8-1.94c.94-.12,1.73,0,2.16.87s-.22,1.56-.89,2.12a32.37,32.37,0,0,1-7.43,4.18c-2.73,1.24-5.51,2.36-8.27,3.54.48,1,1.35,1.28,2,1.71q7.31,4.44,14.64,8.84c11.32,6.82,22.17,14.34,32.82,22.15a26.24,26.24,0,0,0,8.32,4.46c4.46,1.27,8.57-.07,12.62-1.67,20.52-8.08,36.12-21.9,47.36-40.77a60.35,60.35,0,0,0,6.35-13.74c2.19-4.59,3.09-9.55,4.11-14.48.25-1.24-.36-1.46-1.39-1.39-6.61.48-13.24.12-19.86.38-7.57-.43-15.14-.79-22.7-1.31-9.77-.68-19.48-1.91-29.15-3.44-7.8-1.23-15.47-3-23.18-4.69-3.43-1-6.9-1.92-10.29-3a3.7,3.7,0,0,0-4.21,1,113.65,113.65,0,0,1-10.78,8.8,188,188,0,0,1-56.22,27.92c-.92.17-1.85.29-2.76.51a42.32,42.32,0,0,1-10.28,1C466.33,574.6,465.3,574.55,465,573.23Zm63-46.69c-2.75-1.37-5.57-2.57-8.18-4.15-1.79-1.08-3.2-.84-5,0A158,158,0,0,1,498.39,529a30.41,30.41,0,0,1-22.83-1.37,67.3,67.3,0,0,1-7.83-4.15c-4.56-2.86-9.08-5.79-13.62-8.7-.87-.56-1.58-1.23-2.85-.88a177.35,177.35,0,0,1-19.18,3.74,16.36,16.36,0,0,0,1,1.42,276,276,0,0,0,21.23,21.36A66,66,0,0,0,465,548.3a14.32,14.32,0,0,0,9.16,1.76,51.14,51.14,0,0,0,11.08-2.58,220.58,220.58,0,0,0,41.46-19.57A2,2,0,0,0,528,526.54Zm130.21-56.49c0-1.53,0-2.47,0-3.4.16-2.84,0-5.71.71-8.51,1.54-6.5,5.63-9.17,12.16-7.77,2.36.51,4.66,1.31,7,2,8.59,2.65,17.45,3.63,26.4,4.35-9.67-4.43-19.53-8.39-29.18-12.83s-19.27-9.36-28.61-14.54a8.7,8.7,0,0,0-1.49,3.44c-2.32,7.28-2.39,14.75-1.84,22.26.43,5.94.42,6,5.51,9.28A79.08,79.08,0,0,0,658.16,470.05ZM700,543.55c5.07,4,41.68,20.89,45.54,21-4.71-10-8.87-20.12-12.82-30.34a3.69,3.69,0,0,0-2.54-2.11L719.55,528a2.72,2.72,0,0,0-2-.33C716.83,538.39,708.88,541.47,700,543.55Zm49,42.7c-2.24-4.85-4.44-9.53-6.53-14.25a4.22,4.22,0,0,0-2.55-2.16c-16.92-7.17-33.46-15.15-49.68-23.78a4.52,4.52,0,0,0-2.68-.8c-2.73.29-5.46.55-8.19.82-1.14.11-1.44.65-.94,1.7a9.5,9.5,0,0,0,4.28,4.82q32.28,16.53,64.46,33.23A2.34,2.34,0,0,0,749,586.25Zm-65-29.42c2.28,5.64,4.73,11,10.63,13.65,1.43.64,2.85,1.36,4.32,1.93a78,78,0,0,1,8.7,3.78,17.38,17.38,0,0,1,5.54,4.16,12.06,12.06,0,0,0,3.92,3.11c1.59.82,3.13,1.74,4.71,2.6,11.58,6.31,22.71,13.42,34.65,19.09.68.32,1.31,1.05,2.39.53-2-4-4.09-7.91-6-11.88a6.37,6.37,0,0,0-3-3q-27-13.89-54-27.88C691.89,560.86,688,558.85,684,556.83Zm67.87-79.7a119.77,119.77,0,0,1-12.3,6.35,3.44,3.44,0,0,0-2.4,3.55c-.23,7.72-.19,15.41,1.24,23a101.73,101.73,0,0,0,4.2,15.24c.27.76.37,1.78,1.63,1.38,2.71-.87,5.42-1.73,8.12-2.63a1.11,1.11,0,0,0,.78-1.49c-.2-.71-.34-1.44-.5-2.16a103.39,103.39,0,0,1-2.37-31.13C750.63,485.39,751.4,481.58,751.89,477.13ZM688.4,445.94a9.17,9.17,0,0,0,1.08.7l25.8,10.49a13.34,13.34,0,0,0,3.7.67c1.94.22,2.79-.63,3.46-2.36a66.89,66.89,0,0,1,9.66-16.66c.55-.7,1.45-1.27,1.28-2.6-2.87-1.24-5.55-3.1-8.71-4.14a21.12,21.12,0,0,0-.63,2.6c-.27,2.43-1.38,3.9-4,4a8.38,8.38,0,0,0-2.11.64A126.36,126.36,0,0,1,699.54,444C695.92,444.59,692.17,444.53,688.4,445.94Zm-1.16-.25a127.24,127.24,0,0,1-26.76-35.61,49.79,49.79,0,0,0-12.25,15.07c-.42.8-.4,1.36.46,1.81s1.46.84,2.19,1.26A347.06,347.06,0,0,0,683,443.86Zm101.17-16.57a48,48,0,0,0-24.16,5.69,10.72,10.72,0,0,0-2,1.46,71.8,71.8,0,0,0-15,17.88c-.39.66-1,1.26-.71,2.37,4-.57,7.94-1.23,11.91-1.66a5.3,5.3,0,0,0,4.26-2.68A64.57,64.57,0,0,1,785.77,431,6.66,6.66,0,0,0,788.41,429.12Zm-57.56,58.44c-2.33.2-4,1.13-5.79,1.72-2.43.8-2.46.85-2.29,3.29a111.51,111.51,0,0,0,6.09,30.29c1.06,3,4.09,4.71,7.67,4.25A97.37,97.37,0,0,1,730.85,487.56Zm17.27-46a54.86,54.86,0,0,1-6.22-1.88c-1.86-.81-2.9-.18-4,1.22a64.14,64.14,0,0,0-8.73,14.25c-.31.73-.95,1.43-.5,2.38,2.84.3,5.66-.18,8.5-.34,1.35-.08,1.71-1,2.19-2a76.72,76.72,0,0,1,5.54-9.21C745.9,444.62,747,443.2,748.12,441.6ZM645.48,465.74a3.42,3.42,0,0,0,0,2.24c1,4.3,2.24,8.55,3.58,12.76a9.06,9.06,0,0,0,8.86,6.1c2-.09,2.08-.11,1.82-2.26-.36-3-.82-6.05-1.17-9.08a2.59,2.59,0,0,0-1.23-2.06C653.48,471,649.61,468.42,645.48,465.74Zm21.46,81.55c2.63,5,5.7,9.31,8.39,13.85,1.54,2.62,3.77,3.67,6.51,4.31.25-1.16-.44-1.77-.82-2.49-2.3-4.39-4.66-8.76-7-13.17-1.8-3.44-1.77-3.46-5.55-2.95A15.3,15.3,0,0,0,666.94,547.29ZM785.26,387.85c-4,3.89-7.86,7.12-10.22,12.11,4.6.67,8.26-1,12-2.43.62-.24.66-.69.5-1.28C786.78,393.62,786.09,391,785.26,387.85Zm-72,114.53c-.45.61-.08,1.21.07,1.8a131.66,131.66,0,0,1,2.89,13.29c.29,2.15,1.23,3.46,3.31,4,.66.18,1.25.75,2.21.38-.29-1-.56-2-.85-3a111.86,111.86,0,0,1-2.84-12C717.45,503.22,717.46,503.22,713.3,502.38Zm2.82-10.24c-1.52.4-2.81.82-4.13,1.07s-1.22.9-1.07,2c.45,3.5,3.17,3.67,5.8,4.38A26.06,26.06,0,0,0,716.12,492.14ZM607.83,479.07a42.29,42.29,0,0,0-2.1-7.51c-1.48,1.91-2.92,3.46-3.77,5.52A31.58,31.58,0,0,0,607.83,479.07Zm56.36,74.47c-1.27,4.34-1.07,4.63,3.49,5.62C666.54,557.32,665.52,555.67,664.19,553.54ZM622.63,446.47a16.57,16.57,0,0,0-3,4.27C623,450.19,623,450.19,622.63,446.47Z"/><path class="cls-4" d="M338.8,629c-1.19-4.78-2.36-9.35-3.47-13.95a46.86,46.86,0,0,1-1.17-7.82,8.73,8.73,0,0,1,3.52-7.73,20.39,20.39,0,0,1,4.56-2.85,165,165,0,0,0,18.4-9.87,5.88,5.88,0,0,1,6.43-.19,72.59,72.59,0,0,1,23.77,19.63A91.33,91.33,0,0,1,410.22,649a2.84,2.84,0,0,1,.06.31c.35,3.25,1.11,6.54.69,9.78-.44,3.46-3.74,5.18-5.68,7.74-1.79,2.35-3.85,4.5-5.79,6.73a24.74,24.74,0,0,1-3.69,3.47c-2.59,2-5.31,3-8.54,1.61a3.4,3.4,0,0,0-1.24-.2,2,2,0,0,0-.66.2c.29,2.33,1.75,4,3.28,5.59a82.82,82.82,0,0,0,8.17,7c17.05,13.54,20.86,31.39,16.75,51.74A32.36,32.36,0,0,1,409,753.75a25.32,25.32,0,0,1-9.61,9.44,6.53,6.53,0,0,0-2.82,2.85,48.92,48.92,0,0,1-5.43,8.17c-3.3,3.95-7.45,5.51-12.44,4.2s-8.49-4.49-9.59-9.84a79.57,79.57,0,0,1-1-10.09c-.93-12-1.76-24-4-35.89A103.93,103.93,0,0,0,357.87,701a20.33,20.33,0,0,0-3.93-6.45c-1.93-2-3.71-2.06-5.84-.24-2.41,2.06-3.22,4.94-3.54,7.9a39.37,39.37,0,0,0,2.29,19c1.39,3.53,2.81,7.06,4.31,10.55,4,9.33,2.46,17.67-4.2,25.27a120.81,120.81,0,0,1-22.45,19.47,19.12,19.12,0,0,1-3.66,1.87,12.39,12.39,0,0,1-13.09-1.9,30,30,0,0,1-6.71-8,8.93,8.93,0,0,1,0-10.12q4.32-7.2,8.34-14.57c4.34-8,8.07-16.27,10.06-25.21a52.91,52.91,0,0,0-.25-25.11,22,22,0,0,0-1.51-4.16c-2.48-5.09-6.26-6.5-11.52-4.32a21.15,21.15,0,0,0-7.34,5.41,60.11,60.11,0,0,0-6.3,8.33c-2.19,3.36-4.32,6.77-6.51,10.13a82.87,82.87,0,0,1-5.83,7.9,26.77,26.77,0,0,1-20.09,9.94,143,143,0,0,1-24-1,70.82,70.82,0,0,1-7.24-.77,10.14,10.14,0,0,1-6.93-5.06,23.69,23.69,0,0,1-2.9-8.34c-.84-5.72,1.56-9.87,6.92-12.12,3.14-1.33,6.51-1.76,9.8-2.5,20.95-4.72,38.66-14.93,52.75-31.22a29.76,29.76,0,0,0,7.6-21,37,37,0,0,0-3.34-14.09,67,67,0,0,0-22.31-27.07c-3.16-2.3-6.5-4.34-9.51-6.85a25,25,0,0,1-5.55-6c-2.56-4.21-2.59-8.37.27-12.46a48.15,48.15,0,0,1,5.89-6.63c3.91-3.84,8.66-5.12,13.95-4.61a46.3,46.3,0,0,1,19.13,6.21c6.26,3.67,10.4,9.16,13.14,15.79,2.52,6.09,3.6,12.57,5.06,19a49.52,49.52,0,0,0,3,9.65,16.61,16.61,0,0,0,12.89,10.1A58.57,58.57,0,0,0,338.8,629Zm5.93,104.35a34.66,34.66,0,0,0-2.43-6.15,48.78,48.78,0,0,1-3.79-28.36,48.19,48.19,0,0,1,1.93-5c4.78-9,14.2-9.67,20-1.39a41,41,0,0,1,4.94,10.24,144,144,0,0,1,7,32.43c1.08,10,1.91,20,2.55,30,.21,3.31,1.43,5.94,4.9,7,3,.9,4.84.17,7.39-3.44a82.22,82.22,0,0,0,10.9-22.06A15.37,15.37,0,0,0,396.34,733q-1.62-2.54-3.35-5a203.72,203.72,0,0,1-18.52-32.78,23.15,23.15,0,0,1-1.18-3.27c-.37-1.3-.28-2.58,1.09-3.29s2.43,0,3.34,1a19,19,0,0,1,3,4.83,226.08,226.08,0,0,0,11.63,20.71c2.86,4.56,5.91,9,8.87,13.5,3.2,4.84,4.79,10.08,4,15.93-.05.33-.25.8.51,1a14.2,14.2,0,0,0,1.55-4A41.28,41.28,0,0,0,408.5,725c-1.29-11.07-5.21-20.85-14.4-27.91-2.34-1.8-4.56-3.77-6.81-5.69a37.83,37.83,0,0,1-4.46-4.49c-3.91-4.68-4.46-10.28-4.35-16,.09-5.06.61-10.12-.09-15.19-.67-4.8-3.47-7.79-7.89-9.43a26.42,26.42,0,0,0-10.28-1.45c-2.72.1-2.74-.18-2.86,2.78A43.59,43.59,0,0,1,350.53,670a15.47,15.47,0,0,1-1.29,1.8c-.57.64-1.23,1.23-2.18.61a1.57,1.57,0,0,1-.55-2c.26-.8.6-1.58.89-2.37a59,59,0,0,0,4-21.05c0-2.47,0-5.08-1.86-7.11a3.68,3.68,0,0,0-2.71-2.37c-1.53-.36-3.08-.72-4.64-1-5-.78-10.09-.94-15.08-1.86a23.4,23.4,0,0,1-17.56-13.11,48.61,48.61,0,0,1-3.73-11.07c-1.21-5.14-2.13-10.33-3.6-15.41-3.84-13.28-13.64-19.6-28.44-21.16a8,8,0,0,0-6,1.57,33.63,33.63,0,0,0-6.33,6.61,4,4,0,0,0-.06,5,18.63,18.63,0,0,0,4.65,4.72c2.89,2.13,5.9,4.09,8.78,6.22,11.11,8.2,19.74,18.41,25,31.27A41.46,41.46,0,0,1,303,648.87a38.07,38.07,0,0,1-9.83,22.19,101.33,101.33,0,0,1-31.54,24A148.32,148.32,0,0,1,244.28,702c-4.11.87-8.22,1.72-12.32,2.64a20.9,20.9,0,0,0-3.6,1.14c-2.39,1-3,2.1-2.69,4.71a18,18,0,0,0,1.52,5.12,4.41,4.41,0,0,0,4.08,3c3,.22,6.07.66,9.11.92,7.34.63,14.68,1.31,22.06.26A17,17,0,0,0,274,713.41a19.71,19.71,0,0,0,4.27-5c2.72-4,5.31-8.11,8-12.17A68,68,0,0,1,294.89,685c3.58-3.57,7.65-6.27,12.72-7.21l5.8,0c4.9,1.11,8,4.36,10.17,8.66,1.5,2.92,2.06,6.13,3.08,9.21.21,2.51.5,5,.64,7.54.69,12.18-2.51,23.54-7.57,34.46a7.05,7.05,0,0,0-.77,2.32,6.59,6.59,0,0,0-1.42,2.42,198.26,198.26,0,0,1-10.08,17.95c-1.6,2.46-1.65,4.37.2,6.48.28.31.5.68.75,1,4.63,6.14,7.81,6.72,14.12,2.26A120.57,120.57,0,0,0,339,756.19a38.87,38.87,0,0,0,6.21-8,12,12,0,0,0,1.37-9.16A24.1,24.1,0,0,0,344.73,733.37Zm-4.58-126.56a10.88,10.88,0,0,0,0,1.89,121.67,121.67,0,0,0,5,20.25,2.71,2.71,0,0,0,2.26,1.9c4.15,1,7.23,3.39,8.7,7.52.46,1.29,1.3,1.43,2.45,1.29a31.6,31.6,0,0,1,7.59.13c12.44,1.49,18.15,8.15,18.41,19.31,0,.64,0,1.27,0,1.9,0,2.54-.05,5.07-.07,7.6,0,.84-.07,1.62.79,2.23,2.94,2.08,5.92,2,8.49-.59,2.16-2.16,4.23-4.42,6.29-6.68,5.49-6,5.48-6,4-14a1.78,1.78,0,0,0-.12-.29,10.23,10.23,0,0,0-.08-1.25,87.89,87.89,0,0,0-18.72-39.59,63.36,63.36,0,0,0-18.74-15.8,3.76,3.76,0,0,0-4.29.1,160,160,0,0,1-17,9.11,23.12,23.12,0,0,0-3.75,2.32A2.28,2.28,0,0,0,340.15,606.81Z"/><path class="cls-5" d="M593.28,351.65a60.78,60.78,0,0,1-19.71-4.46A94.41,94.41,0,0,1,541,325.74a60.72,60.72,0,0,1-10.36-13.95c-3.89-7.2-3.37-12.43,2-18.63,4.71-5.46,10.26-10.05,15.83-14.6,18.44-15.05,38.9-26.84,60.3-37.08A376.93,376.93,0,0,1,653,223.63a16.63,16.63,0,0,0,3.48-1.48,2.73,2.73,0,0,1,3.47.62,2.65,2.65,0,0,1,.7,3.18c-.13.29-.24.58-.37.87-15.19,34.62-28.8,69.85-41.37,105.49a56.57,56.57,0,0,1-3.45,8.15A19.66,19.66,0,0,1,600.54,351C598.14,351.4,595.7,351.45,593.28,351.65ZM635,236.94l0,0a2.4,2.4,0,0,0-1.53.27c-24.73,10.28-48.47,22.35-70.09,38.31a204.43,204.43,0,0,0-23.43,19.84c-1.21,1.21-2.63,2.33-3.24,4.35a32.62,32.62,0,0,1,11.87.55,113.05,113.05,0,0,1,48.06,23,43.05,43.05,0,0,1,11.92,14.21c.13.26.29.31.82-.12a9.14,9.14,0,0,0,1.67-3.93c2-3.42,2.72-7.28,4-10.93,10.87-30.08,22.73-59.77,35.34-89.17a7.15,7.15,0,0,0,1-3.18c-5.41,2-10.63,3.88-15.64,6.27C635.38,236.4,635,236.4,635,236.94Z"/><path class="cls-6" d="M288.69,461.65c11.45-12.14,22.83-24.35,34.67-36.11,1.58-1.56,3.08-3.19,4.56-4.84a8.43,8.43,0,0,0,1.36-2.12,2.12,2.12,0,0,0-.53-2.6,2,2,0,0,0-2.63-.2c-1.3.89-2.56,1.84-3.84,2.76-4-1-7.55-3.12-11-5.21A90.54,90.54,0,0,1,296.64,402c-.68-.63-1.24-1.51-2.38-1.21v0c.14-.67.07-1.18-.8-1.11l0,0c.16-.47,0-.7-.49-.75a78.44,78.44,0,0,1-7.07-12.43c.7-.51,1-.13,1.34.07,13.49,8.43,28.29,13.57,43.63,17.31,5.84,1.42,11.75,2.54,17.62,3.85A29.46,29.46,0,0,1,355,409.9c3.93,1.94,4.45,3.24,2.91,7.26a36.54,36.54,0,0,1-3.2,6.18,191,191,0,0,1-15,20,2.81,2.81,0,0,1-3.31,1c-2-.55-4.07-1.1-6.12-1.61a10.36,10.36,0,0,0-3.76-.39,2.82,2.82,0,0,0-2.6,2c-.45,1.32.2,2.24,1.06,3.08a8.87,8.87,0,0,0,3.63,1.87,103.64,103.64,0,0,0,17.55,4.06,114.34,114.34,0,0,0,44.62-2.54,3.28,3.28,0,0,1,.63,0c1.55-.15,2.47.85,3.43,1.83a33.55,33.55,0,0,0,10.55,7.05c.1.28.19.33.22.14,0,0-.16-.07-.24-.11a4.65,4.65,0,0,0-.28-1.21c-5.67-10.66-10.69-21.59-14-33.25,0-.15-.32-.24-.49-.35l0,0a2.29,2.29,0,0,0-.5-2.65c-1.81-9.44-3.54-18.9-3.27-28.58a23.8,23.8,0,0,1,9.85-19,109,109,0,0,1,23-13.26,215.2,215.2,0,0,1,53-15.66,115.31,115.31,0,0,1,34.45,0c37.21,5.32,69.32,21.4,97,46.56a141.23,141.23,0,0,1,17.64,19.49,37.25,37.25,0,0,1,4.13,6.74,13.41,13.41,0,0,1,.1,11.65,45.83,45.83,0,0,1-3.93,6.87L596,475.23c-.3.44-.65.84-.92,1.3-1.15,2-.8,3.42,1.28,4.39,2.3,1.05,4.68,1.95,7.06,2.8a157.78,157.78,0,0,0,38.89,8.41,167.61,167.61,0,0,0,20.9.47,27.12,27.12,0,0,0,7.48-1.24,16.76,16.76,0,0,0,2.88-1.28,1.85,1.85,0,0,0,1.21-2c-.19-1-1-1.29-1.85-1.5a15.87,15.87,0,0,0-5.05-.21c-1.25.1-2-.17-2.16-1.55-1.12-7.65-1.9-15.31-1.23-23.05a13.86,13.86,0,0,1,.25-1.57c.68-3.73,1.67-4.42,5.43-3.64a35,35,0,0,1,4.25,1.23c8.14,2.83,16.61,4,25.11,5a201.15,201.15,0,0,0,39.56.61c7.48-.6,14.93-1.51,22.31-2.84a6.35,6.35,0,0,1,2.31,0c-6.49,5.35-13.26,10.25-21,13.74-.7-.07-1.42-.17-1.62.79l0,0a5.44,5.44,0,0,0-3.09.24,165.73,165.73,0,0,1-31.85,4,7.33,7.33,0,0,0-1-1.16c-1.25-.87-2.18-.47-2.5,1a4.36,4.36,0,0,0-.07,1.25,52.81,52.81,0,0,0,1.82,11.47c1.13,3.9,2.34,7.82,3.28,11.79,1.41,5.93,2.9,11.86,3.24,18a3.55,3.55,0,0,0-2,.78,46.61,46.61,0,0,1-8.46,4.27c-11.15,4.15-22.81,5.89-34.6,6.39a215.51,215.51,0,0,1-39.4-1.73c-6.34-.9-12.7-1.7-19-2.9-8.88-1.68-17.7-3.68-26.42-6.06-12.84-3.5-25.52-7.4-37.22-13.9-1-.55-2.23-.81-2.7-2.05,2.34-3.66,2.16-7.32.18-11.08-1.77-3.35-3-7-5.12-10.16a9.6,9.6,0,0,0-3.47-3.6c-1.84-1-3.19-.13-3.15,1.91a10.29,10.29,0,0,0,1.14,3.93c1.63,3.65,3.28,7.31,4.88,11,1.14,2.59,1,3.37-.95,5.34a22.83,22.83,0,0,1-5.08,3.76,232.66,232.66,0,0,1-31.74,14.86,19.2,19.2,0,0,1-6.12,1.49,17,17,0,0,1-5.19-1.23c-5.2-2.57-10.45-5-15.17-8.49-7.44-5.43-13.78-11.76-17.69-20.25a21.56,21.56,0,0,1-1.11-16.23c1.43-4.37,3.91-8.15,6.54-11.87,1.82-2.56,4.25-4.7,5.32-7.77.94-1.28,2.26-.86,3.5-.78,4.42.31,8.84.68,13.27.94,3.54.21,3.81-.14,4.5-3.65,1.41-7.15,2.93-14.27,4.39-21.4.87-4.26.3-4.87-4.14-5.28-6.4-.6-12.79-1.33-19.29-2a11.36,11.36,0,0,1,.62-4.44c1.26-5.45,2.63-10.87,3.95-16.3.1-.41.22-.82.28-1.23.37-2.27-.13-3-2.48-3.48-4.25-.81-8.52-1.5-12.77-2.3q-7.16-1.35-14.28-2.81c-2.7-.55-3.34-.31-4.17,2.35-1.93,6.14-3.79,12.3-5.63,18.46-.9,3-.86,3.08-3.95,2.18-3.44-1-6.85-2.09-10.27-3.18-3.27-1-4-.66-4.87,2.74a218.9,218.9,0,0,0-4.78,25.5c-.29,2.32,0,2.87,2.34,3.77a106,106,0,0,0,11.82,3.49c2.22.59,2.25.58,2,2.92-.33,3.47-.76,6.93-1.07,10.4-.28,3.24,0,3.58,3,4.52l9.59,2.94c-.17,1.25-1.09,1.71-1.7,2.37a47.23,47.23,0,0,0-5,6.14c-2.77,4.28-2.8,7.28.16,11.4,2,2.82,4.26,5.49,6.4,8.22-2.27,1.28-4.83,1-7.28,1.44-7.81,1.28-15.71,1.25-23.56,1.67a110.74,110.74,0,0,1-17.36-.37c-4.59-.48-9.2-.75-13.79-1.32a202,202,0,0,1-28.08-5.63c-14.41-3.91-28.26-9.08-40.91-17.14a57.57,57.57,0,0,1-12.64-10.4C290.67,466.05,288.87,464.27,288.69,461.65ZM571,443.33a29.83,29.83,0,0,0-4.42-16.59,21.54,21.54,0,0,0-22.88-10c-19.61,4-31.47,26-24.24,44.7,3.61,9.31,14.64,17.3,24.36,16.59a25.55,25.55,0,0,0,18.24-9.6C568.17,461.21,570.84,452.7,571,443.33Z"/><path class="cls-7" d="M678.85,822.31a73.23,73.23,0,0,0-9.3,8,15.51,15.51,0,0,0-1.56,2,1.92,1.92,0,0,0,.19,2.35,2.07,2.07,0,0,0,2.28.66,6.05,6.05,0,0,0,2.37-1.51,110,110,0,0,1,9.56-7.24c1.48-.94,2.81-2.21,4.77-2.24a2.51,2.51,0,0,0,1.36-.73c5.26-4.48,11.65-6.42,18.15-8.13a29.36,29.36,0,0,0,.2,3.12c.79,4.63,1.53,9.26.64,14a1.18,1.18,0,0,0-.22.56c-3.74.48-7.08,2.07-10.38,3.72a103.8,103.8,0,0,0-15.41,10c-4.59,3.39-9.14,6.82-13.77,10.16a74.1,74.1,0,0,1-11.21,6.52,18.28,18.28,0,0,1-15,.53A81.57,81.57,0,0,1,626,856.08a112,112,0,0,1-23.32-19.9,22.83,22.83,0,0,1-4.58-6.79c-.86-2.21-.77-2.76,1.32-3.81a48.57,48.57,0,0,1,12.84-4.36,9.06,9.06,0,0,1,7.71,2c2,1.6,3.86,3.31,5.92,4.77,1.58,1.11,2,2.32,1.14,4-1.09.17-1.66-.83-2.55-1.1a2.1,2.1,0,0,0-2.32.55,2.13,2.13,0,0,0-.32,2.37,3.37,3.37,0,0,0,.52.79c6.53,7.92,14.51,13.69,24.57,16.24a19.45,19.45,0,0,0,11.85-.55,7.37,7.37,0,0,0,4-2.94c.49-.84.89-1.71.24-2.67a2.05,2.05,0,0,0-2.5-.8,11.45,11.45,0,0,0-2.1.68c-3.82,1.94-7.76,1.8-11.73.67a37.59,37.59,0,0,1-11.83-5.93,3.78,3.78,0,0,1-1.74-4c3.26-23.78,4.69-47.72,5.76-71.69.81-18,.83-35.92.55-53.88q-.47-29.49-3.63-58.83c-.41-3.89-.81-7.78-1.36-11.64-.22-1.58.3-2.21,1.78-2.71,14-4.71,23.91-14.31,31.12-26.94a89.6,89.6,0,0,0,8.21-20.2c.28-1,.59-2,.89-3,7.57,3.6,14.67,7.89,20.55,14a10.66,10.66,0,0,1,3.24,6c.29,2.3.66,4.59.72,6.92.28,10.26-.74,20.46-1.34,30.67-.26,4.42-.83,8.82-1.41,13.2-1.12,8.36-2.33,16.7-3.54,25-1.17,8.13-2.41,16.25-3.55,24.39-1,7-1.94,14-2.75,21-.8,6.81-1.38,13.64-2.09,20.45-.77,7.33-1.63,14.66-2.34,22-.75,7.76-1.32,15.54-2.08,23.31C680.92,803,679.86,812.67,678.85,822.31Z"/><path class="cls-7" d="M562,538.41c7.71,1.65,15.38,3.46,23.18,4.69,9.67,1.53,19.38,2.76,29.15,3.44,7.56.52,15.13.88,22.7,1.31a2.42,2.42,0,0,0,1,1.12A72.64,72.64,0,0,1,651,560.29c1,1.07,2.1,2,3.15,3.05a60.35,60.35,0,0,1-6.35,13.74C636.55,596,621,609.77,600.43,617.85c-4,1.6-8.16,2.94-12.62,1.67a26.24,26.24,0,0,1-8.32-4.46c-10.65-7.81-21.5-15.33-32.82-22.15q-7.32-4.41-14.64-8.84c-.7-.43-1.57-.67-2-1.71,2.76-1.18,5.54-2.3,8.27-3.54a32.37,32.37,0,0,0,7.43-4.18c.67-.56,1.35-1.16.89-2.12s-1.22-1-2.16-.87a50.86,50.86,0,0,0-8,1.94c-11,3.29-21.92,6.95-33.16,9.44a158.89,158.89,0,0,1-51.95,3c-2.63-.29-5.25-.6-7.88-.8a6.57,6.57,0,0,1-6.2-5,30.83,30.83,0,0,1-1.21-7.49,137,137,0,0,1,2.42-37.52c0-.17.2-.31.56-.87a187.49,187.49,0,0,0,15.39,14.49c-.28,2.08-.39,4.19-.61,6.28-.49,4.62-.49,9.27,1.46,13.68.56,1.27,1.08,2.62,2.63,2.92,2.37.47,4.63,1.43,7.09,1.49.34,1.32,1.37,1.37,2.47,1.38a42.32,42.32,0,0,0,10.28-1c.91-.22,1.84-.34,2.76-.51,3.38.32,6.73-.32,10-.69,8.15-.89,16.29-2,24.34-3.67,6.82-1.4,13.57-3,19.59-6.81A136,136,0,0,0,551,549.7C555,546.26,559,542.81,562,538.41Z"/><path class="cls-8" d="M723.72,408.31c-.67-2.54-1.29-5.1-2-7.62a80.11,80.11,0,0,0-9-20.53c-.68-1.09-1-1.88-.06-3.07a62.15,62.15,0,0,1,10.73-11.6,17.25,17.25,0,0,1,9.83-3.93,55,55,0,0,1,12.45,1c-.8,2-2.26,3.24-3.19,4.85-1.31,2.26-1.58,3.64-.58,4.29,1.57,1,2.83-.1,4-.86a29.61,29.61,0,0,0,5.94-5.68,70.58,70.58,0,0,1,9-8.48c6.35-5,13.27-5.43,20.61-2.66.17.06.29.29.53.55-2.63,2.24-5.27,4.46-7.87,6.72a21.34,21.34,0,0,0-4.1,4.39c-.42.65-.7,1.32-.06,2a1.51,1.51,0,0,0,2,.24,31.3,31.3,0,0,0,5.39-3.31c2.79-2.09,5.51-4.27,8.28-6.38,1.08-.82,2-1.87,3.53-2a2.47,2.47,0,0,0,1.58-1c4.16-4.66,9.65-7.08,15.41-8.83,5.25-1.59,8.12.4,8.9,5.85a46.89,46.89,0,0,1-.18,12,115.94,115.94,0,0,0-1,15.8,39,39,0,0,0,.82,7.23,11.45,11.45,0,0,0,1.17,3.26c1.22,2.15,3.36,2.17,4.23-.1.53-1.37,1.17-1.44,2.3-1.32a45,45,0,0,1,9.65,1.66c2.86,1,3.35,2.12,2,4.75a19.2,19.2,0,0,1-8.44,8.31c-1.25.64-1.87.34-2.54-.73a32.28,32.28,0,0,0-3.91-5,20.42,20.42,0,0,0-12.31-6.6c-.37-.66-1.55-.36-1.66-1.26-.62-4.8-2.54-9.24-3.9-13.83,1-.76,2-1.51,3-2.28.53-.4,1-.92.72-1.61a1.53,1.53,0,0,0-1.84-.88,27.39,27.39,0,0,0-3.11.56,20,20,0,0,0-3.3,1.1,70.36,70.36,0,0,0-25.61,19.73,14.47,14.47,0,0,0-2.05,3.56c-2.11,5.13.64,9.69,6.17,10.3a20.2,20.2,0,0,0,8.12-1,94.21,94.21,0,0,0,11.46-4.55c1.73-.78,3.49-1.51,5.24-2.23a11.41,11.41,0,0,1,12.68,2.15c4.47,3.91,7.27,9,9.4,14.44a7.76,7.76,0,0,1,0,6.48c-1.2-.06-1.83-1-2.57-1.71-2.09-2.1-4.11-4.26-6.25-6.3a14.62,14.62,0,0,0-8.75-4.05,26.32,26.32,0,0,0-12.37,1.89c-6.82,2.69-12.91,6.7-19.26,10.23-4.7,2.61-9.6,4.73-15,4.19-10-1-18.7-5.35-26.57-11.58C728.67,412.84,726.56,410.16,723.72,408.31Z"/><path class="cls-9" d="M898.24,508a159.65,159.65,0,0,1-15,8.2A780.81,780.81,0,0,1,778,560.48c-7.29,2.47-14.54,5.07-21.77,7.73-1.57.57-2.45.54-3.27-1.09q-5.43-10.75-10.07-21.87a3.06,3.06,0,0,1-.09-.92,4.13,4.13,0,0,0,2.11-.55c19.64-7.72,39.29-15.4,58.9-23.19,25.21-10,50.33-20.23,75.11-31.25q8.1-3.61,16.24-7.11c1.9-.82,2.12-.64,2.36,1.4.09.73.08,1.48.13,2.21C898.12,493.22,898.28,500.61,898.24,508Z"/><path class="cls-10" d="M678.85,822.31c1-9.64,2.07-19.27,3-28.91.76-7.77,1.33-15.55,2.08-23.31.71-7.34,1.57-14.67,2.34-22,.71-6.81,1.29-13.64,2.09-20.45.81-7,1.77-14,2.75-21,1.14-8.14,2.38-16.26,3.55-24.39,1.21-8.34,2.42-16.68,3.54-25,.58-4.38,1.15-8.78,1.41-13.2.6-10.21,1.62-20.41,1.34-30.67-.06-2.33-.43-4.62-.72-6.92a10.66,10.66,0,0,0-3.24-6c-5.88-6.11-13-10.4-20.55-14,.85-4.86,1.71-9.72,2.58-14.67a6.66,6.66,0,0,1,1.27.24q10.59,4.17,21.17,8.38c.78.31,1.51.76,2.28,1.1,4.74,2.09,7,5.85,7.36,10.91.19,2.95.42,5.91.4,8.86a506.16,506.16,0,0,1-3.35,55.31c-2.84,24.87-7,49.54-10.76,74.27-2.07,13.56-4,27.15-5.86,40.74-2.09,15.06-4.87,30-7.78,44.91A7.22,7.22,0,0,1,678.85,822.31Z"/><path class="cls-11" d="M854.62,461c-6.08,2.93-12.44,5.18-18.7,7.7-25.65,10.33-51.38,20.5-76.79,31.44-.83.36-1.64,1-2.85.65a53.76,53.76,0,0,1,0-10.91c.34-4.43,1.35-8.76,2.07-13.13.85-5.11,4.21-7.63,8.42-9.35,7.52-3.06,15.15-5.87,22.74-8.78l45.83-17.59c.58-.22,1.2-.36,1.8-.54,1.13,1.7,3,2.59,4.44,4A78.47,78.47,0,0,1,854.62,461Z"/><path class="cls-12" d="M897.13,573.63c0,4.23-.23,8.44-.54,12.65a3.49,3.49,0,0,1-2.29,3.32c-15.52,7.42-31.09,14.72-47,21.33-17.15,7.14-34.48,13.81-51.8,20.52-2.42.94-2.39.89-3.53-1.27-1.64-3.08-3.28-6.16-5-9.17-8.68-15-16.48-30.46-23.76-46.19-.39-.84-.71-1.72-1.12-2.72,3-1.46,6.22-2.26,9.27-3.37,1.11-.4,1.51.3,1.86,1.14.89,2.14,1.77,4.29,2.68,6.43a252.82,252.82,0,0,0,19,36.51c.51.8,1,1.6,1.57,2.37a2.76,2.76,0,0,0,3.63,1c23.18-9.37,47.15-16.67,70.15-26.53,3.88-1.67,7.71-3.43,11.6-5.08a3.78,3.78,0,0,0,2.68-4.08c-.1-3.16.31-6.33.47-9.49a402.52,402.52,0,0,0-.47-46c-.11-1.82-.13-3.4,2.14-3.8.2.93.38,1.86.62,2.78,2.55,9.59,4.54,19.31,6.39,29.05C895,559.91,896,566.78,897.13,573.63Z"/><path class="cls-11" d="M862.87,481.29c-3.12,2-6.62,3.21-10,4.59C823,498,793,510.13,762.51,520.75c-.89.31-1.79.6-2.66.89-.86-.57-.88-1.46-1.07-2.24a91,91,0,0,1-2.12-12.16c-.24-2.5-.28-2.56,2-3.52,8-3.38,15.92-6.79,23.93-10.06q35.63-14.51,71.28-28.89a5.34,5.34,0,0,1,2.39-.76C858.9,469.6,861.8,475.1,862.87,481.29Z"/><path class="cls-10" d="M898.24,508c0-7.39-.12-14.78-.58-22.16,0-.73,0-1.48-.13-2.21-.24-2-.46-2.22-2.36-1.4q-8.14,3.5-16.24,7.11c-24.78,11-49.9,21.23-75.11,31.25-19.61,7.79-39.26,15.47-58.9,23.19a4.13,4.13,0,0,1-2.11.55c-1.75-2.3-2.21-5.18-3.45-7.71-.72-1.46.08-1.78,1.26-2.14,4.34-1.31,8.66-2.69,13-4,19.74-6.17,38.89-13.92,58.09-21.54,17.44-6.92,35.06-13.39,52.13-21.21,9.31-4.27,18.31-9.1,27.25-14.07,2.4-1.33,4.79-2.47,6.37-4.82.48-.71,1.12-1.38.71-2.28a1.55,1.55,0,0,0-2.11-.85c-1,.37-1.32-.13-1.59-.95-.36-1.09-.78-2.15-1.26-3.47,2.72-.08,5.14.6,7.58.94,2.93.41,5.83.95,8.75,1.39,1.37.2,1.94.77,1.88,2.29-.44,11.18-.79,22.37-1.15,33.56,0,1.08-.08,2-1.23,2.66C905.41,504,902.06,506.44,898.24,508Z"/><path class="cls-9" d="M476.49,452.32c-3.78-.24-7.6,0-11.33-.87a4.17,4.17,0,0,0-3.51,1c-6.24,4.52-12.72,8.72-18.67,13.63a4.39,4.39,0,0,1-4.61,1c-2.6-.86-5.24-1.61-7.89-2.3-1.49-.39-2-1.08-1.85-2.69.37-3.68.72-7.35,1.29-11s.21-4-3.18-4.83c-3.89-1-7.74-2.07-11.62-3.08-1.17-.3-1.85-.76-1.62-2.17.77-4.68,1.34-9.4,2.74-13.95,4.83.89,9.64,1.8,14.47,2.65,2.38.42,2.48.31,2.69-2a7.53,7.53,0,0,0,0-2.8,3.53,3.53,0,0,0,2.47-2.92c1.16-4.34,2.43-8.66,3.68-13,.26-.9.62-1.77.94-2.65,4.16,1.18,8.42,1.89,12.66,2.7,5.47,1.05,5.47,1,4.52,6.46s-1.92,10.78-2.82,16.19c-.37,2.19-.24,2.38,1.6,2.54,6.42.56,12.66,2.2,19,3.25,2.29.38,2.39.47,2.18,2.9C477.32,444.35,477.2,448.36,476.49,452.32Z"/><path class="cls-11" d="M875,561.24c-8.69,4-17.64,7.53-26.49,11.21-18,7.5-36.09,14.9-53.9,22.9a15.39,15.39,0,0,0-1.44.64c-1,.58-1.67.34-2.25-.74-2.74-5.12-5.28-10.34-7.76-15.59-.69-1.46.09-1.83,1.16-2.29,7.26-3.15,14.49-6.36,21.76-9.49Q836,555,866,542.19c.76-.33,1.46-.91,2.38-.73,1.76-.06,1.55,1.53,1.8,2.45,1.22,4.52,2.21,9.11,3.41,13.64C873.94,558.8,873.77,560.31,875,561.24Z"/><path class="cls-13" d="M541.07,506.5c.47,1.24,1.7,1.5,2.7,2.05,11.7,6.5,24.38,10.4,37.22,13.9,8.72,2.38,17.54,4.38,26.42,6.06,6.29,1.2,12.65,2,19,2.9a215.51,215.51,0,0,0,39.4,1.73c11.79-.5,23.45-2.24,34.6-6.39a46.61,46.61,0,0,0,8.46-4.27,3.55,3.55,0,0,1,2-.78,15,15,0,0,1,.37,4.72c0,4.71-1.5,6.89-5.87,8.7A39.71,39.71,0,0,1,694,537.56c-12.82,1.31-25.64,2.43-38.53,2.9A367,367,0,0,1,606.7,539a261.27,261.27,0,0,1-62-13.43q-8.65-3.06-17-6.92a3.81,3.81,0,0,1-2-1.34C531.2,514.2,537,511.52,541.07,506.5Z"/><path class="cls-8" d="M657.94,386.06a1.51,1.51,0,0,1,.26-2c6-7.76,12.63-15,19.33-22.21,1.05-1.12,2.1-.73,3.18-.44A39.47,39.47,0,0,1,694,367.84a53.92,53.92,0,0,1,15.11,18.05,79.51,79.51,0,0,1,9.71,37c0,1.05-.1,2.1-.15,3.15-1.9-.07-3.68.7-5.6.69-4.92,0-9.84.12-14.62-1.33-.21-1.88-.4-3.77-.62-5.65-1-8.3-3.43-16.07-8.37-22.91a32.16,32.16,0,0,0-12.06-10.47,21.25,21.25,0,0,0-6.94-2c-1.64-.17-1.84.19-1.74,2.3A59.12,59.12,0,0,0,657.94,386.06Z"/><path class="cls-13" d="M288.69,461.65c.18,2.62,2,4.4,3.53,6.16a57.57,57.57,0,0,0,12.64,10.4c12.65,8.06,26.5,13.23,40.91,17.14A202,202,0,0,0,373.85,501c4.59.57,9.2.84,13.79,1.32a110.74,110.74,0,0,0,17.36.37c7.85-.42,15.75-.39,23.56-1.67,2.45-.4,5-.16,7.28-1.44,3.14,2.8,5.94,6,9.28,8.44-.28,1.17-1.14,1-1.79,1.14A178.44,178.44,0,0,1,392,512.46a234.1,234.1,0,0,1-72.65-17.28,118.94,118.94,0,0,1-22.9-12.13,57.53,57.53,0,0,1-8.77-7.26,22.66,22.66,0,0,1-2.26-2.64c-2.2-3.09-2.18-5,.06-8.07A14.58,14.58,0,0,1,288.69,461.65Z"/><path class="cls-13" d="M528,526.54a2,2,0,0,1-1.22,1.37,220.58,220.58,0,0,1-41.46,19.57,51.14,51.14,0,0,1-11.08,2.58A14.32,14.32,0,0,1,465,548.3a66,66,0,0,1-10.71-7.87,276,276,0,0,1-21.23-21.36,16.36,16.36,0,0,1-1-1.42,177.35,177.35,0,0,0,19.18-3.74c1.27-.35,2,.32,2.85.88,4.54,2.91,9.06,5.84,13.62,8.7a67.3,67.3,0,0,0,7.83,4.15A30.41,30.41,0,0,0,498.39,529a158,158,0,0,0,16.42-6.66c1.76-.8,3.17-1,5,0C522.38,524,525.2,525.17,528,526.54Z"/><path class="cls-11" d="M878.77,579.59a260.13,260.13,0,0,1-24.43,10.28c-17.46,6.59-35,13.08-52.4,19.7-1.64.62-2.46.36-3.29-1.1-1.65-2.92-3.44-5.75-5.16-8.6a10.76,10.76,0,0,1,3.52-2c25.09-11.32,50.72-21.36,76.06-32.1a6,6,0,0,1,1.22-.21c.86-.13,1,.45,1.16,1.1.63,3.47,1.31,6.92,1.87,10.4C877.5,578.17,877.54,579.19,878.77,579.59Z"/><path class="cls-13" d="M657.94,386.06a59.12,59.12,0,0,1,10.8.54,46.51,46.51,0,0,1,7.15,4,31.76,31.76,0,0,1,10.9,12.13,48.55,48.55,0,0,1,4.7,14.71,64.66,64.66,0,0,1,.68,10.11c0,2.76,1,4,2.89,4.13s3.06-1.2,3.24-4.14c0-.73.11-1.46.17-2.2,4.78,1.45,9.7,1.32,14.62,1.33,1.92,0,3.7-.76,5.6-.69.28,7.49.24,7.54-6.72,9.68a102.24,102.24,0,0,1-18.89,3.91,5.06,5.06,0,0,1-4.48-1.54A109.52,109.52,0,0,1,663,400.7,82.19,82.19,0,0,1,657.94,386.06Z"/><path class="cls-13" d="M723.72,408.31c2.84,1.85,4.95,4.53,7.6,6.63,7.87,6.23,16.54,10.57,26.57,11.58,5.4.54,10.3-1.58,15-4.19,6.35-3.53,12.44-7.54,19.26-10.23a26.32,26.32,0,0,1,12.37-1.89,14.62,14.62,0,0,1,8.75,4.05c2.14,2,4.16,4.2,6.25,6.3.74.73,1.37,1.65,2.57,1.71-1,3.68-4,5.83-6.62,8.23-1.05,1-1.73.14-2.47-.37a42.44,42.44,0,0,0-17-6.64c-13.48-2.29-26,.43-37.69,7.44-1.53.92-3,1.92-4.52,2.91a7.87,7.87,0,0,1-6.33,1.2,34.48,34.48,0,0,1-7.18-2.42c-4.6-2.12-9.16-4.34-13.75-6.46-1-.44-1.56-.93-1.52-2.09C725.23,418.77,724.23,413.56,723.72,408.31Z"/><path class="cls-11" d="M834.29,438.71c-6.63,3-13.52,5.34-20.29,8-13.18,5.1-26.39,10.12-39.58,15.17l-2.19.79c1.68-1.86,3.48-3.77,5.18-5.76s.93-4.6-1.5-5.22a4.45,4.45,0,0,0-1.85.18c-1.21.18-2.36.84-3.69.62a7.3,7.3,0,0,1,2-2.88,61.86,61.86,0,0,1,26.34-17.49,6.35,6.35,0,0,1,4.86.19,39.32,39.32,0,0,1,7.93,4.58c2.58,1.85,3.12,1.81,5.53-.06,1.91-1.48,3.84-2.94,5.76-4.41A77.59,77.59,0,0,1,834.29,438.71Z"/><path class="cls-14" d="M658.16,470.05a79.08,79.08,0,0,1-9.35-5.7c-5.09-3.31-5.08-3.34-5.51-9.28-.55-7.51-.48-15,1.84-22.26a8.7,8.7,0,0,1,1.49-3.44c9.34,5.18,18.87,10.07,28.61,14.54s19.51,8.4,29.18,12.83c-8.95-.72-17.81-1.7-26.4-4.35-2.32-.71-4.62-1.51-7-2-6.53-1.4-10.62,1.27-12.16,7.77-.67,2.8-.55,5.67-.71,8.51C658.12,467.58,658.16,468.52,658.16,470.05Z"/><path class="cls-10" d="M562,538.41c-3,4.4-7,7.85-11,11.29a136,136,0,0,1-16.53,12.2c-6,3.78-12.77,5.41-19.59,6.81-8.05,1.65-16.19,2.78-24.34,3.67-3.32.37-6.67,1-10,.69a188,188,0,0,0,56.22-27.92,113.65,113.65,0,0,0,10.78-8.8,3.7,3.7,0,0,1,4.21-1C555.07,536.49,558.54,537.4,562,538.41Z"/><path class="cls-15" d="M700,543.55c8.9-2.08,16.85-5.16,17.56-15.88a2.72,2.72,0,0,1,2,.33l10.61,4.11a3.69,3.69,0,0,1,2.54,2.11c3.95,10.22,8.11,20.35,12.82,30.34C741.66,564.44,705.05,547.53,700,543.55Z"/><path class="cls-14" d="M749,586.25a2.34,2.34,0,0,1-1.83-.42Q715,569.19,682.73,552.6a9.5,9.5,0,0,1-4.28-4.82c-.5-1-.2-1.59.94-1.7,2.73-.27,5.46-.53,8.19-.82a4.52,4.52,0,0,1,2.68.8c16.22,8.63,32.76,16.61,49.68,23.78a4.22,4.22,0,0,1,2.55,2.16C744.58,576.72,746.78,581.4,749,586.25Z"/><path class="cls-11" d="M869.26,537.1c-9.37,4.07-18.73,8.16-28.12,12.2Q813,561.43,784.75,573.54c-.58.25-1.18.46-1.74.76-1.25.67-2.1.59-2.62-.95a50.27,50.27,0,0,0-2.14-5.28c-.56-1.21-.16-1.62,1-2,5.48-1.89,11-3.81,16.4-5.8q34.64-12.66,68.2-28a6,6,0,0,1,2.64-1c1.08.84.74,2.22,1.25,3.29C868.16,535.51,868.24,536.58,869.26,537.1Z"/><path class="cls-13" d="M464.34,458.09c-1.07,3.07-3.5,5.21-5.32,7.77-2.63,3.72-5.11,7.5-6.54,11.87A21.56,21.56,0,0,0,453.59,494c3.91,8.49,10.25,14.82,17.69,20.25,4.72,3.46,10,5.92,15.17,8.49a17,17,0,0,0,5.19,1.23c-3.27.93-6.46.29-9.62-.55a32.42,32.42,0,0,1-7.57-3.16A174.38,174.38,0,0,1,448,502.32a75.54,75.54,0,0,1-12.92-13.87c-2-2.73-2-3.07,0-5.84a29.43,29.43,0,0,1,2.6-3.19C445.66,471.13,454.89,464.48,464.34,458.09Z"/><path class="cls-14" d="M684,556.83c3.93,2,7.87,4,11.8,6.06q27,14,54,27.88a6.37,6.37,0,0,1,3,3c1.95,4,4,7.88,6,11.88-1.08.52-1.71-.21-2.39-.53-11.94-5.67-23.07-12.78-34.65-19.09-1.58-.86-3.12-1.78-4.71-2.6a12.06,12.06,0,0,1-3.92-3.11,17.38,17.38,0,0,0-5.54-4.16,78,78,0,0,0-8.7-3.78c-1.47-.57-2.89-1.29-4.32-1.93C688.75,567.85,686.3,562.47,684,556.83Z"/><path class="cls-16" d="M465,573.23c-2.46-.06-4.72-1-7.09-1.49-1.55-.3-2.07-1.65-2.63-2.92-1.95-4.41-1.95-9.06-1.46-13.68.22-2.09.33-4.2.61-6.28,1.55,1.07,3.13,2.12,4.66,3.24,5.84,4.24,12.28,5.17,19.24,3.74A105.84,105.84,0,0,0,496,550.18a7.74,7.74,0,0,1,3.55-1c-1.51,4.16-3,8.16-4.43,12.17-.46,1.29-1.66,1.52-2.72,1.94-7.83,3.12-15.89,5.61-23.91,8.18C467.26,571.83,465.74,571.83,465,573.23Z"/><path class="cls-15" d="M784.12,629c-1.17.24-2-.52-2.93-1-20.74-10-40.84-21.27-60.87-32.64a4.24,4.24,0,0,1-2.36-5.1c2.32,1.32,4.52,2.53,6.68,3.81,12.36,7.35,24.9,14.34,37.9,20.48a21.73,21.73,0,0,0,2.3,1.06,2.73,2.73,0,0,0,3.4-.89,2.85,2.85,0,0,0,0-3.51c-7.27-11.8-13.12-24.33-19-37.23,2.55.15,5,2.37,7.33-.09,2.74,6.06,5.29,11.85,8,17.57q8.13,17.38,17.9,33.9c.68,1.15,1.72,2.17,1.65,3.66Z"/><path class="cls-15" d="M656.13,400.53a9.7,9.7,0,0,1,.62,1.08c1.3,3.1,1.35,2.38-1,4.43-8.52,7.56-14.58,16.66-17.31,27.8-2.2,9-2,18-.66,27.07a141.26,141.26,0,0,0,3.71,16.49c-4.1-2.37-7.33-4.39-8.62-9.06A95.2,95.2,0,0,1,629.36,438a8.19,8.19,0,0,1,1-3.61c2.26-4.15,3.8-8.49,3-13.33a3,3,0,0,1,.38-1.83,31.3,31.3,0,0,1,4.06-7.11c1.12-.77,2.27-1.5,3.36-2.31A96.67,96.67,0,0,1,656.13,400.53Z"/><path class="cls-12" d="M887.61,469.24a61.44,61.44,0,0,1-9.93,5.3c-1-1.69-1-3.42-1.5-5-6.82-23.57-21.77-38.94-45.64-45.33-2.06-.56-2.06-.53-1.72-2.69.15-1,.26-2.08.39-3.12a82.31,82.31,0,0,1,26.12,11.07C870.48,439.14,881.89,451.89,887.61,469.24Z"/><path class="cls-12" d="M751.89,477.13c-.49,4.45-1.26,8.26-1.6,12.14a103.39,103.39,0,0,0,2.37,31.13c.16.72.3,1.45.5,2.16a1.11,1.11,0,0,1-.78,1.49c-2.7.9-5.41,1.76-8.12,2.63-1.26.4-1.36-.62-1.63-1.38a101.73,101.73,0,0,1-4.2-15.24c-1.43-7.62-1.47-15.31-1.24-23a3.44,3.44,0,0,1,2.4-3.55A119.77,119.77,0,0,0,751.89,477.13Z"/><path class="cls-17" d="M476.49,452.32c.71-4,.83-8,1.18-12,.21-2.43.11-2.52-2.18-2.9-6.34-1-12.58-2.69-19-3.25-1.84-.16-2-.35-1.6-2.54.9-5.41,1.87-10.8,2.82-16.19s1-5.41-4.52-6.46c-4.24-.81-8.5-1.52-12.66-2.7,1.39-6.11,1.39-6.1,7.44-4.9q7.9,1.56,15.81,3.08c2,.39,2,.39,1.49,2.45-1.45,5.82-2.92,11.64-4.36,17.46-.21.82-.37,1.65-.5,2.48-.37,2.56.22,3.42,2.88,3.76,6.48.81,13,1.53,19.46,2.28l1.83.21c-.93,4.85-1.84,9.56-2.74,14.27-.1.52-.22,1-.31,1.55C480.8,453,480.8,453,476.49,452.32Z"/><path class="cls-14" d="M688.4,445.94c3.77-1.41,7.52-1.35,11.14-2a126.36,126.36,0,0,0,18.39-4.66,8.38,8.38,0,0,1,2.11-.64c2.62-.11,3.73-1.58,4-4a21.12,21.12,0,0,1,.63-2.6c3.16,1,5.84,2.9,8.71,4.14.17,1.33-.73,1.9-1.28,2.6a66.89,66.89,0,0,0-9.66,16.66c-.67,1.73-1.52,2.58-3.46,2.36a13.34,13.34,0,0,1-3.7-.67l-25.8-10.49A9.17,9.17,0,0,1,688.4,445.94Z"/><path class="cls-14" d="M687.24,445.69,683,443.86a347.06,347.06,0,0,1-32.1-15.64c-.73-.42-1.45-.87-2.19-1.26s-.88-1-.46-1.81a49.79,49.79,0,0,1,12.25-15.07A127.24,127.24,0,0,0,687.24,445.69Z"/><path class="cls-17" d="M897.13,573.63c-1.15-6.85-2.18-13.72-3.48-20.55-1.85-9.74-3.84-19.46-6.39-29.05-.24-.92-.42-1.85-.62-2.78l12.9-7a7.68,7.68,0,0,1,.4,3.8c-.08,10.87-.59,21.72-1.23,32.57-.38,6.32-.74,12.64-1.14,18.95A13.64,13.64,0,0,1,897.13,573.63Z"/><path class="cls-12" d="M788.41,429.12a6.66,6.66,0,0,1-2.64,1.86,64.57,64.57,0,0,0-23.07,21.2,5.3,5.3,0,0,1-4.26,2.68c-4,.43-7.91,1.09-11.91,1.66-.34-1.11.32-1.71.71-2.37a71.8,71.8,0,0,1,15-17.88,10.72,10.72,0,0,1,2-1.46A48,48,0,0,1,788.41,429.12Z"/><path class="cls-15" d="M642.69,485.58c-3.09.6-6.09-.27-9.1-.67-5.74-.76-11.41-2-17.07-3.26a3.65,3.65,0,0,1-3.08-3c-.9-3.57-1.94-7.12-3-10.66a6.1,6.1,0,0,1,.7-4.74c2.5-5.09,7.38-6.14,12.12-8.07.62,3.44,1.19,6.62,1.86,10.4-2.4-1.44-4.32-2.6-6.26-3.72-1.17-.68-2.36-1.69-3.72-.49-.89.77-.49,1.89,1.35,3.7,2.63,2.59,5.57,4.83,8.43,7.17,1.3,1.05,2.82,1.87,3.61,3.48a2.42,2.42,0,0,0,1.17,1c4.9,2.13,8.68,5.86,12.93,8.93Z"/><path class="cls-10" d="M707.51,832.55c.89-4.71.15-9.34-.64-14a29.36,29.36,0,0,1-.2-3.12,19.47,19.47,0,0,1,10.88-.61,7.06,7.06,0,0,1,5.72,6.36c.62,4.5-.27,8.78-1.55,13.11L715,833.2C712.6,832,710,832.86,707.51,832.55Z"/><path class="cls-17" d="M887.61,469.24c-5.72-17.35-17.13-30.1-32.28-39.8a82.31,82.31,0,0,0-26.12-11.07c-.13-.94-.25-1.87-.44-3.19,4,.49,7.91.35,11.54,2.07,5.7,2.71,11.36,5.49,16.78,8.75,15.85,9.52,25.61,23.73,31.66,40.83C889.19,468.07,889.43,469.12,887.61,469.24Z"/><path class="cls-15" d="M730.85,487.56a97.37,97.37,0,0,0,5.68,39.55c-3.58.46-6.61-1.27-7.67-4.25a111.51,111.51,0,0,1-6.09-30.29c-.17-2.44-.14-2.49,2.29-3.29C726.84,488.69,728.52,487.76,730.85,487.56Z"/><path class="cls-10" d="M854.62,461a78.47,78.47,0,0,0-13-16.53c-1.44-1.39-3.31-2.28-4.44-4,2.17-1.33,4.66-1.87,7-2.91a2.31,2.31,0,0,1,2.38.22,57.42,57.42,0,0,1,18.28,19.24C861.25,458.46,858.06,460.05,854.62,461Z"/><path class="cls-10" d="M862.87,481.29c-1.07-6.19-4-11.69-6.62-17.28a91.22,91.22,0,0,1,10-4.22,58,58,0,0,1,5.68,16.13c.27,1.28-.34,1.7-1.26,2.11A66.81,66.81,0,0,1,862.87,481.29Z"/><path class="cls-17" d="M875,561.24c-1.24-.93-1.07-2.44-1.4-3.69-1.2-4.53-2.19-9.12-3.41-13.64-.25-.92,0-2.51-1.8-2.45,3.45-2.21,7.38-3.36,10.94-5,.79.37.65.94.67,1.42.24,6.29.29,12.58.29,18.88,0,1.86-.53,2.95-2.36,3.43A29.53,29.53,0,0,0,875,561.24Z"/><path class="cls-15" d="M748.12,441.6c-1.16,1.6-2.22,3-3.23,4.47a76.72,76.72,0,0,0-5.54,9.21c-.48.93-.84,1.87-2.19,2-2.84.16-5.66.64-8.5.34-.45-.95.19-1.65.5-2.38a64.14,64.14,0,0,1,8.73-14.25c1.11-1.4,2.15-2,4-1.22A54.86,54.86,0,0,0,748.12,441.6Z"/><path class="cls-13" d="M801.21,376.51c1.36,4.59,3.28,9,3.9,13.83.11.9,1.29.6,1.66,1.26-2.3.15-4.65-.18-6.88.66l-6.78,2.52a69.36,69.36,0,0,1-2.73-10.2c-.22-1.05.61-1.48,1.26-2A46.8,46.8,0,0,1,801.21,376.51Z"/><path class="cls-14" d="M645.48,465.74c4.13,2.68,8,5.21,11.88,7.7a2.59,2.59,0,0,1,1.23,2.06c.35,3,.81,6.05,1.17,9.08.26,2.15.2,2.17-1.82,2.26a9.06,9.06,0,0,1-8.86-6.1c-1.34-4.21-2.58-8.46-3.58-12.76A3.42,3.42,0,0,1,645.48,465.74Z"/><path class="cls-10" d="M654.14,563.34c-1-1-2.15-2-3.15-3.05A72.64,72.64,0,0,0,638.05,549a2.42,2.42,0,0,1-1-1.12c6.62-.26,13.25.1,19.86-.38,1-.07,1.64.15,1.39,1.39C657.23,553.79,656.33,558.75,654.14,563.34Z"/><path class="cls-13" d="M294.26,400.74c1.14-.3,1.7.58,2.38,1.21a90.54,90.54,0,0,0,14.59,11.38c3.5,2.09,7,4.17,11,5.21-1.85,1.86-3.75,3.67-5.53,5.6-1.06,1.14-1.87,1.36-3.06.11-2.16-2.3-4.53-4.41-6.7-6.71a115.66,115.66,0,0,1-11.57-14.61C295,402.25,294.28,401.66,294.26,400.74Z"/><path class="cls-13" d="M706.16,479.33a165.73,165.73,0,0,0,31.85-4,5.44,5.44,0,0,1,3.09-.24c-3.53,2.33-7.5,3.74-11.38,5.31-6.14,2.48-12.46,4.43-18.82,6.3-1.48.44-2.31.29-2.74-1.4C707.64,483.27,706.84,481.32,706.16,479.33Z"/><path class="cls-13" d="M390.62,424.85c.17.11.45.2.49.35,3.29,11.66,8.31,22.59,14,33.25a4.65,4.65,0,0,1,.28,1.21l0,0a33.55,33.55,0,0,1-10.55-7.05c-1-1-1.88-2-3.43-1.83.37-.19.73-.39,1.11-.55,2.49-1.06,3-2.13,2.34-4.65-1.69-6.09-2.86-12.31-4.06-18.52A19.61,19.61,0,0,1,390.62,424.85Z"/><path class="cls-17" d="M433.44,424.86a7.53,7.53,0,0,1,0,2.8c-.21,2.31-.31,2.42-2.69,2-4.83-.85-9.64-1.76-14.47-2.65.07-2.23.85-4.29,1.37-6.57Z"/><path class="cls-15" d="M666.94,547.29a15.3,15.3,0,0,1,1.57-.45c3.78-.51,3.75-.49,5.55,2.95,2.3,4.41,4.66,8.78,7,13.17.38.72,1.07,1.33.82,2.49-2.74-.64-5-1.69-6.51-4.31C672.64,556.6,669.57,552.3,666.94,547.29Z"/><path class="cls-17" d="M869.26,537.1c-1-.52-1.1-1.59-1.53-2.49-.51-1.07-.17-2.45-1.25-3.29,4-2.49,8.39-4.09,12.74-6.43a40.39,40.39,0,0,1,.63,6.51,1.69,1.69,0,0,1-1.31,1.85C875.44,534.51,872.35,535.82,869.26,537.1Z"/><path class="cls-17" d="M834.29,438.71a77.59,77.59,0,0,0-11.48-6.32c1.26-2.48,3.07-2.85,5.73-2.13a57.86,57.86,0,0,1,13.92,5.3A50.05,50.05,0,0,1,834.29,438.71Z"/><path class="cls-13" d="M785.26,387.85c.83,3.13,1.52,5.77,2.24,8.4.16.59.12,1-.5,1.28-3.7,1.42-7.36,3.1-12,2.43C777.4,395,781.28,391.74,785.26,387.85Z"/><path class="cls-14" d="M713.3,502.38c4.16.84,4.15.84,4.79,4.48a111.86,111.86,0,0,0,2.84,12c.29,1,.56,2,.85,3-1,.37-1.55-.2-2.21-.38-2.08-.54-3-1.85-3.31-4a131.66,131.66,0,0,0-2.89-13.29C713.22,503.59,712.85,503,713.3,502.38Z"/><path class="cls-17" d="M656.13,400.53a96.67,96.67,0,0,0-14.93,9.24c-1.09.81-2.24,1.54-3.36,2.31,4.18-6.68,10-11.59,16.7-15.81A11.4,11.4,0,0,1,656.13,400.53Z"/><path class="cls-17" d="M878.77,579.59c-1.23-.4-1.27-1.42-1.45-2.49-.56-3.48-1.24-6.93-1.87-10.4-.12-.65-.3-1.23-1.16-1.1,1.59-1.26,3.49-1.82,5.8-2.66C879.64,568.7,880.43,574.21,878.77,579.59Z"/><path class="cls-14" d="M716.12,492.14a26.06,26.06,0,0,1,.6,7.48c-2.63-.71-5.35-.88-5.8-4.38-.15-1.13-.25-1.78,1.07-2S714.6,492.54,716.12,492.14Z"/><path class="cls-17" d="M607.83,479.07a31.58,31.58,0,0,1-5.87-2c.85-2.06,2.29-3.61,3.77-5.52A42.29,42.29,0,0,1,607.83,479.07Z"/><path class="cls-13" d="M664.19,553.54c1.33,2.13,2.35,3.78,3.49,5.62C663.12,558.17,662.92,557.88,664.19,553.54Z"/><path class="cls-11" d="M622.63,446.47c.33,3.72.33,3.72-3,4.27A16.57,16.57,0,0,1,622.63,446.47Z"/><path class="cls-14" d="M707.51,832.55c2.5.31,5.09-.55,7.51.65l-7.73-.09A1.18,1.18,0,0,1,707.51,832.55Z"/><path class="cls-13" d="M390.14,422.23a2.29,2.29,0,0,1,.5,2.65A3.45,3.45,0,0,1,390.14,422.23Z"/><path class="cls-13" d="M741.14,475.06c.2-1,.92-.86,1.62-.79A1.89,1.89,0,0,1,741.14,475.06Z"/><path class="cls-13" d="M293.47,399.65c.87-.07.94.44.8,1.11C293.7,400.61,293.56,400.15,293.47,399.65Z"/><polygon class="cls-15" points="642.65 485.62 642.75 485.81 642.69 485.58 642.65 485.62"/><path class="cls-15" d="M784.07,629c.25,0,.36.05.3.24,0,0-.17,0-.19,0a.55.55,0,0,1-.06-.26Z"/><path class="cls-13" d="M292.94,398.86c.46.05.65.28.49.75A.78.78,0,0,1,292.94,398.86Z"/><path class="cls-13" d="M326.66,695.6c-1-3.08-1.58-6.29-3.08-9.21-2.21-4.3-5.27-7.55-10.17-8.66-1-.92-2.21-.42-3.3-.69,4.73-3.75,10.22-6.24,15.36-9.32,5.78-3.47,11.45-7,16.18-12a28,28,0,0,0,7.85-15.82c1.89,2,1.84,4.64,1.86,7.11a59,59,0,0,1-4,21.05c-.29.79-.63,1.57-.89,2.37a1.57,1.57,0,0,0,.55,2c.95.62,1.61,0,2.18-.61a15.47,15.47,0,0,0,1.29-1.8,43.59,43.59,0,0,0,6.83-22.45c.12-3,.14-2.68,2.86-2.78a26.42,26.42,0,0,1,10.28,1.45c4.42,1.64,7.22,4.63,7.89,9.43.7,5.07.18,10.13.09,15.19-.11,5.76.44,11.36,4.35,16a37.83,37.83,0,0,0,4.46,4.49c2.25,1.92,4.47,3.89,6.81,5.69,9.19,7.06,13.11,16.84,14.4,27.91a41.28,41.28,0,0,1-1.25,16.65,14.2,14.2,0,0,1-1.55,4c-.76-.22-.56-.69-.51-1,.82-5.85-.77-11.09-4-15.93-3-4.5-6-8.94-8.87-13.5a226.08,226.08,0,0,1-11.63-20.71,19,19,0,0,0-3-4.83c-.91-1-2-1.75-3.34-1s-1.46,2-1.09,3.29a23.15,23.15,0,0,0,1.18,3.27A203.72,203.72,0,0,0,393,728q1.72,2.47,3.35,5a15.37,15.37,0,0,1,1.82,13.65,82.22,82.22,0,0,1-10.9,22.06c-2.55,3.61-4.39,4.34-7.39,3.44-3.47-1-4.69-3.68-4.9-7-.64-10-1.47-20-2.55-30a144,144,0,0,0-7-32.43,41,41,0,0,0-4.94-10.24c-5.83-8.28-15.25-7.61-20,1.39a48.19,48.19,0,0,0-1.93,5C334.91,696.5,331.07,695,326.66,695.6Z"/><path class="cls-8" d="M349.5,639.93a28,28,0,0,1-7.85,15.82c-4.73,4.94-10.4,8.5-16.18,12-5.14,3.08-10.63,5.57-15.36,9.32-.84.21-1.8,0-2.5.73-5.07.94-9.14,3.64-12.72,7.21a68,68,0,0,0-8.67,11.24c-2.65,4.06-5.24,8.16-8,12.17a19.87,19.87,0,0,1-4.26,5,13.37,13.37,0,0,0-2.2.08c-7.1,1.33-13.95.19-20.65-2.14a11.42,11.42,0,0,1-5.55-4c-1.1-1.53-2.71-3.13-1.32-5.35a148.32,148.32,0,0,0,17.31-6.92,101.33,101.33,0,0,0,31.54-24A38.07,38.07,0,0,0,303,648.87a41.46,41.46,0,0,0-3.18-19.51c-5.25-12.86-13.88-23.07-25-31.27-2.88-2.13-5.89-4.09-8.78-6.22a18.63,18.63,0,0,1-4.65-4.72,4,4,0,0,1,.06-5,33.63,33.63,0,0,1,6.33-6.61,8,8,0,0,1,6-1.57c14.8,1.56,24.6,7.88,28.44,21.16,1.47,5.08,2.39,10.27,3.6,15.41a48.61,48.61,0,0,0,3.73,11.07,23.4,23.4,0,0,0,17.56,13.11c5,.92,10.08,1.08,15.08,1.86,1.56.24,3.11.6,4.64,1A3.68,3.68,0,0,1,349.5,639.93Z"/><path class="cls-10" d="M340.15,606.81a2.28,2.28,0,0,1,1.19-2.67,23.12,23.12,0,0,1,3.75-2.32,160,160,0,0,0,17-9.11,3.76,3.76,0,0,1,4.29-.1,63.36,63.36,0,0,1,18.74,15.8A87.89,87.89,0,0,1,403.82,648a10.23,10.23,0,0,1,.08,1.25c-.93.43-1.88.82-2.79,1.29a15.72,15.72,0,0,1-8.3,1.91c-3-17.61-12.65-30.38-28.16-38.91a32.59,32.59,0,0,0-8.51-3.27c-1.72-.39-3.49-.89-5.27-.19C347.23,609.2,343.47,608.73,340.15,606.81Z"/><path class="cls-13" d="M392.81,652.45a15.72,15.72,0,0,0,8.3-1.91c.91-.47,1.86-.86,2.79-1.29a1.78,1.78,0,0,1,.12.29c1.5,8,1.51,8-4,14-2.06,2.26-4.13,4.52-6.29,6.68-2.57,2.55-5.55,2.67-8.49.59-.86-.61-.79-1.39-.79-2.23,0-2.53,0-5.06.07-7.6,0-.63,0-1.26,0-1.9-.26-11.16-6-17.82-18.41-19.31a31.6,31.6,0,0,0-7.59-.13c-1.15.14-2,0-2.45-1.29-1.47-4.13-4.55-6.47-8.7-7.52a2.71,2.71,0,0,1-2.26-1.9,121.67,121.67,0,0,1-5-20.25,10.88,10.88,0,0,1,0-1.89c3.32,1.92,7.08,2.39,10.72,3.27-.37,1.3.39,1.93,1.41,2.46,2.06,1.06,4.09,2.16,6.14,3.23,9.13,4.79,16.76,11.21,22.09,20.17a49.27,49.27,0,0,1,5.9,14.55c.41,1.85.76,3.75,2,5.26s3,1.25,3.73-.55A17.8,17.8,0,0,0,392.81,652.45Z"/><path class="cls-13" d="M344.73,733.37a24.1,24.1,0,0,1,1.87,5.68,12,12,0,0,1-1.37,9.16,38.87,38.87,0,0,1-6.21,8,120.57,120.57,0,0,1-16.49,13.86c-6.31,4.46-9.49,3.88-14.12-2.26-.25-.34-.47-.71-.75-1-1.85-2.11-1.8-4-.2-6.48a198.26,198.26,0,0,0,10.08-17.95,6.59,6.59,0,0,1,1.42-2.42,12.69,12.69,0,0,1,3.2,1.34,13.13,13.13,0,0,0,5.17,1.32C334.82,742.68,340.44,739.3,344.73,733.37Z"/><path class="cls-10" d="M344.73,733.37c-4.29,5.93-9.91,9.31-17.4,9.21a13.13,13.13,0,0,1-5.17-1.32,12.69,12.69,0,0,0-3.2-1.34,7.05,7.05,0,0,1,.77-2.32c5.06-10.92,8.26-22.28,7.57-34.46-.14-2.52-.43-5-.64-7.54,4.41-.58,8.25.9,11.85,3.26a48.78,48.78,0,0,0,3.79,28.36A34.66,34.66,0,0,1,344.73,733.37Z"/><path class="cls-13" d="M244.28,702c-1.39,2.22.22,3.82,1.32,5.35a11.42,11.42,0,0,0,5.55,4c6.7,2.33,13.55,3.47,20.65,2.14a13.37,13.37,0,0,1,2.2-.08,17,17,0,0,1-11.56,6.34c-7.38,1-14.72.37-22.06-.26-3-.26-6.07-.7-9.11-.92a4.41,4.41,0,0,1-4.08-3,18,18,0,0,1-1.52-5.12c-.28-2.61.3-3.69,2.69-4.71a20.9,20.9,0,0,1,3.6-1.14C236.06,703.73,240.17,702.88,244.28,702Z"/><path class="cls-14" d="M307.61,677.77c.7-.72,1.66-.52,2.5-.73,1.09.27,2.34-.23,3.3.69Z"/><path class="cls-7" d="M611,333.42a9.14,9.14,0,0,1-1.67,3.93c-.53.43-.69.38-.82.12a43.05,43.05,0,0,0-11.92-14.21,113.05,113.05,0,0,0-48.06-23,32.62,32.62,0,0,0-11.87-.55c.61-2,2-3.14,3.24-4.35a204.43,204.43,0,0,1,23.43-19.84c21.62-16,45.36-28,70.09-38.31a2.4,2.4,0,0,1,1.53-.27c.41,1.17-.33,2-.78,3-2.19,4.45-4.42,8.87-6.37,13.44C621.1,269,616,285.07,613.32,302A175.52,175.52,0,0,0,611,333.42Z"/><path class="cls-10" d="M611,333.42A175.52,175.52,0,0,1,613.32,302c2.63-16.89,7.78-33,14.48-48.65,2-4.57,4.18-9,6.37-13.44.45-.92,1.19-1.79.78-3l0,0c.48.15.66-.16.79-.53,5-2.39,10.23-4.24,15.64-6.27a7.15,7.15,0,0,1-1,3.18c-12.61,29.4-24.47,59.09-35.34,89.17C613.72,326.14,613,330,611,333.42Z"/><path class="cls-7" d="M635.77,236.41c-.13.37-.31.68-.79.53C635,236.4,635.38,236.4,635.77,236.41Z"/><path class="cls-4" d="M571,443.33c-.18,9.37-2.85,17.88-8.94,25.12a25.55,25.55,0,0,1-18.24,9.6c-9.72.71-20.75-7.28-24.36-16.59-7.23-18.66,4.63-40.7,24.24-44.7a21.54,21.54,0,0,1,22.88,10A29.83,29.83,0,0,1,571,443.33Zm-10.83,16.28,0,.07c4.48-7,5.4-14.67,4-22.71a18.56,18.56,0,0,0-3.69-8.3c-3.32-4.31-7.75-6.58-13.17-6.15A23.21,23.21,0,0,0,531,431c-6.93,6.55-9.68,19.95-4.72,29.62,3.77,7.34,9.92,10.88,18,10.37,7.07-.44,12-4.58,15.47-10.61Z"/><path class="cls-13" d="M405.37,459.66c.08,0,.24.08.24.11,0,.19-.12.14-.22-.14Z"/><path class="cls-4" d="M698.47,425.37c-.06.74-.13,1.47-.17,2.2-.18,2.94-1.21,4.26-3.24,4.14s-2.88-1.37-2.89-4.13a64.66,64.66,0,0,0-.68-10.11,48.55,48.55,0,0,0-4.7-14.71,31.76,31.76,0,0,0-10.9-12.13,46.51,46.51,0,0,0-7.15-4c-.1-2.11.1-2.47,1.74-2.3a21.25,21.25,0,0,1,6.94,2,32.16,32.16,0,0,1,12.06,10.47c4.94,6.84,7.39,14.61,8.37,22.91C698.07,421.6,698.26,423.49,698.47,425.37Z"/><path class="cls-4" d="M392.81,652.45a17.8,17.8,0,0,1-.67,2.75c-.77,1.8-2.48,2.06-3.73.55s-1.59-3.41-2-5.26a49.27,49.27,0,0,0-5.9-14.55c-5.33-9-13-15.38-22.09-20.17-2.05-1.07-4.08-2.17-6.14-3.23-1-.53-1.78-1.16-1.41-2.46,1.78-.7,3.55-.2,5.27.19a32.59,32.59,0,0,1,8.51,3.27C380.16,622.07,389.84,634.84,392.81,652.45Z"/><path class="cls-9" d="M559.72,460.39c-3.45,6-8.4,10.17-15.47,10.61-8.09.51-14.24-3-18-10.37C521.28,451,524,437.56,531,431c1.88-.67,3.75-1.4,5.66-2,10.15-3.09,18.52.89,22.27,10.63A31,31,0,0,1,560.61,454a36.06,36.06,0,0,0-.46,5.68l0-.07Z"/><path class="cls-17" d="M560.15,459.68a36.06,36.06,0,0,1,.46-5.68,31,31,0,0,0-1.72-14.34c-3.75-9.74-12.12-13.72-22.27-10.63-1.91.58-3.78,1.31-5.66,2a23.21,23.21,0,0,1,16.35-8.49c5.42-.43,9.85,1.84,13.17,6.15a18.56,18.56,0,0,1,3.69,8.3C565.55,445,564.63,452.67,560.15,459.68Z"/><path class="cls-17" d="M559.72,460.39l.47-.78Z"/></svg>